%TF.GenerationSoftware,KiCad,Pcbnew,9.0.7*%
%TF.CreationDate,2026-02-16T17:43:32-08:00*%
%TF.ProjectId,Electrical_schematics_V3,456c6563-7472-4696-9361-6c5f73636865,rev?*%
%TF.SameCoordinates,Original*%
%TF.FileFunction,Copper,L1,Top*%
%TF.FilePolarity,Positive*%
%FSLAX46Y46*%
G04 Gerber Fmt 4.6, Leading zero omitted, Abs format (unit mm)*
G04 Created by KiCad (PCBNEW 9.0.7) date 2026-02-16 17:43:32*
%MOMM*%
%LPD*%
G01*
G04 APERTURE LIST*
G04 Aperture macros list*
%AMRoundRect*
0 Rectangle with rounded corners*
0 $1 Rounding radius*
0 $2 $3 $4 $5 $6 $7 $8 $9 X,Y pos of 4 corners*
0 Add a 4 corners polygon primitive as box body*
4,1,4,$2,$3,$4,$5,$6,$7,$8,$9,$2,$3,0*
0 Add four circle primitives for the rounded corners*
1,1,$1+$1,$2,$3*
1,1,$1+$1,$4,$5*
1,1,$1+$1,$6,$7*
1,1,$1+$1,$8,$9*
0 Add four rect primitives between the rounded corners*
20,1,$1+$1,$2,$3,$4,$5,0*
20,1,$1+$1,$4,$5,$6,$7,0*
20,1,$1+$1,$6,$7,$8,$9,0*
20,1,$1+$1,$8,$9,$2,$3,0*%
%AMFreePoly0*
4,1,17,0.333536,0.253536,0.335000,0.250000,0.335000,0.000000,0.333536,-0.003536,0.330000,-0.005000,0.255000,-0.005000,0.255000,-0.250000,0.253536,-0.253536,0.250000,-0.255000,-0.250000,-0.255000,-0.253536,-0.253536,-0.255000,-0.250000,-0.255000,0.250000,-0.253536,0.253536,-0.250000,0.255000,0.330000,0.255000,0.333536,0.253536,0.333536,0.253536,$1*%
G04 Aperture macros list end*
%TA.AperFunction,SMDPad,CuDef*%
%ADD10RoundRect,0.250000X-0.450000X0.350000X-0.450000X-0.350000X0.450000X-0.350000X0.450000X0.350000X0*%
%TD*%
%TA.AperFunction,SMDPad,CuDef*%
%ADD11RoundRect,0.250000X-0.325000X-0.450000X0.325000X-0.450000X0.325000X0.450000X-0.325000X0.450000X0*%
%TD*%
%TA.AperFunction,ComponentPad*%
%ADD12O,3.556000X1.778000*%
%TD*%
%TA.AperFunction,ComponentPad*%
%ADD13C,1.905000*%
%TD*%
%TA.AperFunction,ComponentPad*%
%ADD14RoundRect,0.250000X-0.350000X-0.625000X0.350000X-0.625000X0.350000X0.625000X-0.350000X0.625000X0*%
%TD*%
%TA.AperFunction,ComponentPad*%
%ADD15O,1.200000X1.750000*%
%TD*%
%TA.AperFunction,SMDPad,CuDef*%
%ADD16FreePoly0,90.000000*%
%TD*%
%TA.AperFunction,SMDPad,CuDef*%
%ADD17R,0.500000X0.500000*%
%TD*%
%TA.AperFunction,SMDPad,CuDef*%
%ADD18RoundRect,0.250000X0.450000X-0.350000X0.450000X0.350000X-0.450000X0.350000X-0.450000X-0.350000X0*%
%TD*%
%TA.AperFunction,ComponentPad*%
%ADD19R,1.700000X1.700000*%
%TD*%
%TA.AperFunction,ComponentPad*%
%ADD20C,1.700000*%
%TD*%
%TA.AperFunction,SMDPad,CuDef*%
%ADD21RoundRect,0.250000X-0.350000X-0.450000X0.350000X-0.450000X0.350000X0.450000X-0.350000X0.450000X0*%
%TD*%
%TA.AperFunction,ViaPad*%
%ADD22C,0.508000*%
%TD*%
%TA.AperFunction,Conductor*%
%ADD23C,0.254000*%
%TD*%
%TA.AperFunction,Conductor*%
%ADD24C,0.200000*%
%TD*%
G04 APERTURE END LIST*
D10*
%TO.P,R2,1*%
%TO.N,+3V3*%
X117000000Y-104500000D03*
%TO.P,R2,2*%
%TO.N,Net-(U1-XSHUT)*%
X117000000Y-106500000D03*
%TD*%
D11*
%TO.P,D1,1,K*%
%TO.N,GND*%
X104000000Y-102000000D03*
%TO.P,D1,2,A*%
%TO.N,Net-(D1-A)*%
X106050000Y-102000000D03*
%TD*%
D12*
%TO.P,U3,1,GPIO1_A0_D0*%
%TO.N,unconnected-(U3-GPIO1_A0_D0-Pad1)*%
X111483000Y-83895000D03*
%TO.P,U3,2,GPIO2_A1_D1*%
%TO.N,unconnected-(U3-GPIO2_A1_D1-Pad2)*%
X111483000Y-86435000D03*
%TO.P,U3,3,GPIO3_A2_D2*%
%TO.N,unconnected-(U3-GPIO3_A2_D2-Pad3)*%
X111483000Y-88975000D03*
%TO.P,U3,4,GPIO4_A3_D3*%
%TO.N,unconnected-(U3-GPIO4_A3_D3-Pad4)*%
X111483000Y-91515000D03*
%TO.P,U3,5,GPIO4_A3_D3_SDA*%
%TO.N,/SDA*%
X111483000Y-94055000D03*
%TO.P,U3,6,GPIO6_A5_D5_SCL*%
%TO.N,/SCL*%
X111483000Y-96595000D03*
%TO.P,U3,7,GPIO43_TX_D6*%
%TO.N,unconnected-(U3-GPIO43_TX_D6-Pad7)*%
X111483000Y-99135000D03*
%TO.P,U3,8,GPIO44_D7_RX*%
%TO.N,unconnected-(U3-GPIO44_D7_RX-Pad8)*%
X128247000Y-99135000D03*
%TO.P,U3,9,GPIO7_A8_D8_SCK*%
%TO.N,unconnected-(U3-GPIO7_A8_D8_SCK-Pad9)*%
X128247000Y-96595000D03*
%TO.P,U3,10,GPIO8_A9_D9_CIPO*%
%TO.N,unconnected-(U3-GPIO8_A9_D9_CIPO-Pad10)*%
X128247000Y-94055000D03*
%TO.P,U3,11,GPIO9_A10_D10_COPI*%
%TO.N,unconnected-(U3-GPIO9_A10_D10_COPI-Pad11)*%
X128247000Y-91515000D03*
%TO.P,U3,12,3V3*%
%TO.N,unconnected-(U3-3V3-Pad12)*%
X128247000Y-88975000D03*
%TO.P,U3,13,GND*%
%TO.N,GND*%
X128247000Y-86435000D03*
%TO.P,U3,14,5V*%
%TO.N,unconnected-(U3-5V-Pad14)*%
X128247000Y-83895000D03*
D13*
%TO.P,U3,15,+BATT*%
%TO.N,+BATT*%
X117325000Y-109295000D03*
%TO.P,U3,16,-BATT*%
%TO.N,-BATT*%
X122405000Y-109295000D03*
%TD*%
D14*
%TO.P,BT1,1,+*%
%TO.N,Net-(BT1-+)*%
X129000000Y-110000000D03*
D15*
%TO.P,BT1,2,-*%
%TO.N,-BATT*%
X131000000Y-110000000D03*
%TD*%
D16*
%TO.P,U1,1,AVDDVCSEL*%
%TO.N,+3V3*%
X113000000Y-103000000D03*
D17*
%TO.P,U1,2,AVSSVCSEL*%
%TO.N,GND*%
X113000000Y-103800000D03*
%TO.P,U1,3,GND*%
X113000000Y-104600000D03*
%TO.P,U1,4,GND2*%
X113000000Y-105400000D03*
%TO.P,U1,5,XSHUT*%
%TO.N,Net-(U1-XSHUT)*%
X113000000Y-106200000D03*
%TO.P,U1,6,GND3*%
%TO.N,GND*%
X112200000Y-106200000D03*
%TO.P,U1,7,GPIO1*%
%TO.N,unconnected-(U1-GPIO1-Pad7)*%
X111400000Y-106200000D03*
%TO.P,U1,8,DNC*%
%TO.N,unconnected-(U1-DNC-Pad8)*%
X111400000Y-105400000D03*
%TO.P,U1,9,SDA*%
%TO.N,/SDA*%
X111400000Y-104600000D03*
%TO.P,U1,10,SCL*%
%TO.N,/SCL*%
X111400000Y-103800000D03*
%TO.P,U1,11,AVDD*%
%TO.N,+3V3*%
X111400000Y-103000000D03*
%TO.P,U1,12,GND4*%
%TO.N,GND*%
X112200000Y-103000000D03*
%TD*%
D18*
%TO.P,R3,1*%
%TO.N,+3V3*%
X105000000Y-90500000D03*
%TO.P,R3,2*%
%TO.N,/SDA*%
X105000000Y-88500000D03*
%TD*%
D19*
%TO.P,SW2,1,A*%
%TO.N,+BATT*%
X112500000Y-114000000D03*
D20*
%TO.P,SW2,2,B*%
%TO.N,Net-(BT1-+)*%
X115040000Y-114000000D03*
%TO.P,SW2,3,C*%
%TO.N,unconnected-(SW2-C-Pad3)*%
X117580000Y-114000000D03*
%TD*%
D19*
%TO.P,J2,1,Pin_1*%
%TO.N,/XSHUT*%
X99500000Y-89500000D03*
D20*
%TO.P,J2,2,Pin_2*%
%TO.N,/GPIO*%
X99500000Y-92040000D03*
%TO.P,J2,3,Pin_3*%
%TO.N,/SDA*%
X99500000Y-94580000D03*
%TO.P,J2,4,Pin_4*%
%TO.N,/SCL*%
X99500000Y-97120000D03*
%TO.P,J2,5,Pin_5*%
%TO.N,GND*%
X99500000Y-99660000D03*
%TO.P,J2,6,Pin_6*%
%TO.N,VCC*%
X99500000Y-102200000D03*
%TD*%
D18*
%TO.P,R4,1*%
%TO.N,+3V3*%
X105000000Y-94500000D03*
%TO.P,R4,2*%
%TO.N,/SCL*%
X105000000Y-92500000D03*
%TD*%
D21*
%TO.P,R1,1*%
%TO.N,VCC*%
X104000000Y-106000000D03*
%TO.P,R1,2*%
%TO.N,Net-(D1-A)*%
X106000000Y-106000000D03*
%TD*%
D22*
%TO.N,GND*%
X119500000Y-105500000D03*
%TO.N,+3V3*%
X105000000Y-96000000D03*
X110000000Y-102000000D03*
X107000000Y-92000000D03*
X107500000Y-96500000D03*
%TD*%
D23*
%TO.N,Net-(BT1-+)*%
X126178000Y-112822000D02*
X116218000Y-112822000D01*
X129000000Y-110000000D02*
X126178000Y-112822000D01*
X116218000Y-112822000D02*
X115040000Y-114000000D01*
D24*
%TO.N,-BATT*%
X129342500Y-108342500D02*
X131000000Y-110000000D01*
X123357500Y-108342500D02*
X129342500Y-108342500D01*
X122405000Y-109295000D02*
X123357500Y-108342500D01*
%TO.N,Net-(D1-A)*%
X106000000Y-106000000D02*
X106000000Y-105500000D01*
X106000000Y-105500000D02*
X106050000Y-105450000D01*
X106050000Y-105450000D02*
X106050000Y-102000000D01*
D23*
%TO.N,GND*%
X113000000Y-103800000D02*
X112496000Y-103800000D01*
X112200000Y-105696000D02*
X112496000Y-105400000D01*
X112200000Y-106200000D02*
X112200000Y-105696000D01*
X114700000Y-105500000D02*
X119500000Y-105500000D01*
X112200000Y-103504000D02*
X112200000Y-103000000D01*
X112496000Y-105400000D02*
X113000000Y-105400000D01*
X113000000Y-105400000D02*
X113000000Y-104600000D01*
X112496000Y-103800000D02*
X112200000Y-103504000D01*
X113000000Y-104600000D02*
X113000000Y-103800000D01*
X113000000Y-103800000D02*
X114700000Y-105500000D01*
%TO.N,VCC*%
X103300000Y-106000000D02*
X104000000Y-106000000D01*
X99500000Y-102200000D02*
X103300000Y-106000000D01*
%TO.N,+3V3*%
X113500000Y-103000000D02*
X115000000Y-104500000D01*
X105000000Y-96000000D02*
X105000000Y-94500000D01*
X107000000Y-92000000D02*
X105500000Y-90500000D01*
X107000000Y-96500000D02*
X107500000Y-96500000D01*
X111400000Y-102496000D02*
X111400000Y-103000000D01*
X113000000Y-103000000D02*
X113500000Y-103000000D01*
X111000000Y-103000000D02*
X110000000Y-102000000D01*
X113000000Y-102644000D02*
X112778000Y-102422000D01*
X105500000Y-90500000D02*
X105000000Y-90500000D01*
X105000000Y-94500000D02*
X107000000Y-96500000D01*
X113000000Y-103000000D02*
X113000000Y-102644000D01*
X111400000Y-103000000D02*
X111000000Y-103000000D01*
X112778000Y-102422000D02*
X111474000Y-102422000D01*
X111474000Y-102422000D02*
X111400000Y-102496000D01*
X115000000Y-104500000D02*
X117000000Y-104500000D01*
%TO.N,Net-(U1-XSHUT)*%
X117000000Y-106500000D02*
X116500000Y-106500000D01*
X116500000Y-106500000D02*
X116200000Y-106200000D01*
X116200000Y-106200000D02*
X113000000Y-106200000D01*
%TO.N,/SDA*%
X110555000Y-94055000D02*
X112245000Y-94055000D01*
X99500000Y-94000000D02*
X99500000Y-94580000D01*
X98322000Y-95758000D02*
X99500000Y-94580000D01*
X99012056Y-98298000D02*
X98322000Y-97607944D01*
X98322000Y-97607944D02*
X98322000Y-95758000D01*
X111400000Y-104600000D02*
X111044000Y-104600000D01*
X111044000Y-104600000D02*
X104742000Y-98298000D01*
X104742000Y-98298000D02*
X99012056Y-98298000D01*
X105000000Y-88500000D02*
X99500000Y-94000000D01*
X105000000Y-88500000D02*
X110555000Y-94055000D01*
D24*
X99500000Y-94586160D02*
X99500000Y-94580000D01*
%TO.N,/SCL*%
X109095000Y-96595000D02*
X105000000Y-92500000D01*
D23*
X111400000Y-103800000D02*
X110896000Y-103800000D01*
D24*
X112245000Y-96595000D02*
X112150000Y-96500000D01*
D23*
X111412902Y-96595000D02*
X112245000Y-96595000D01*
D24*
X104120000Y-92500000D02*
X99500000Y-97120000D01*
X105000000Y-92500000D02*
X104120000Y-92500000D01*
X112245000Y-96595000D02*
X109095000Y-96595000D01*
D23*
X109377000Y-98630902D02*
X111412902Y-96595000D01*
X109377000Y-102281000D02*
X109377000Y-98630902D01*
X110896000Y-103800000D02*
X109377000Y-102281000D01*
%TO.N,+BATT*%
X117325000Y-109295000D02*
X112620000Y-114000000D01*
X112620000Y-114000000D02*
X112500000Y-114000000D01*
%TD*%
%TA.AperFunction,Conductor*%
%TO.N,GND*%
G36*
X112355701Y-103576487D02*
G01*
X112365255Y-103585705D01*
X112425740Y-103650672D01*
X112425740Y-103650673D01*
X112549474Y-103724089D01*
X112551545Y-103724947D01*
X112556548Y-103727019D01*
X112607584Y-103745024D01*
X112750000Y-103765500D01*
X112750003Y-103765500D01*
X113126000Y-103765500D01*
X113193039Y-103785185D01*
X113238794Y-103837989D01*
X113250000Y-103889500D01*
X113250000Y-104350000D01*
X113749999Y-104350000D01*
X113768608Y-104331391D01*
X113829931Y-104297905D01*
X113899623Y-104302889D01*
X113943971Y-104331390D01*
X114512589Y-104900008D01*
X114569869Y-104957288D01*
X114599993Y-104987412D01*
X114702760Y-105056079D01*
X114702773Y-105056086D01*
X114816960Y-105103383D01*
X114816965Y-105103385D01*
X114816969Y-105103385D01*
X114816970Y-105103386D01*
X114938194Y-105127500D01*
X114938197Y-105127500D01*
X115770176Y-105127500D01*
X115775735Y-105129132D01*
X115781420Y-105128011D01*
X115808885Y-105138866D01*
X115837215Y-105147185D01*
X115842410Y-105152116D01*
X115846398Y-105153693D01*
X115859666Y-105168497D01*
X115870866Y-105179129D01*
X115873415Y-105182675D01*
X115957288Y-105318656D01*
X116006579Y-105367947D01*
X116012460Y-105376129D01*
X116020828Y-105399968D01*
X116032936Y-105422142D01*
X116032204Y-105432375D01*
X116035602Y-105442055D01*
X116029754Y-105466631D01*
X116027952Y-105491834D01*
X116021803Y-105500047D01*
X116019429Y-105510027D01*
X116001220Y-105527542D01*
X115986080Y-105547767D01*
X115976468Y-105551351D01*
X115969075Y-105558464D01*
X115944288Y-105563354D01*
X115920616Y-105572184D01*
X115911770Y-105572500D01*
X113622163Y-105572500D01*
X113555124Y-105552815D01*
X113547852Y-105547767D01*
X113541626Y-105543106D01*
X113492331Y-105506204D01*
X113492329Y-105506203D01*
X113492328Y-105506202D01*
X113357486Y-105455910D01*
X113357485Y-105455909D01*
X113357483Y-105455909D01*
X113297873Y-105449500D01*
X113297863Y-105449500D01*
X112702129Y-105449500D01*
X112702123Y-105449501D01*
X112642516Y-105455908D01*
X112507671Y-105506202D01*
X112507664Y-105506206D01*
X112392456Y-105592452D01*
X112392455Y-105592453D01*
X112392454Y-105592454D01*
X112382501Y-105605748D01*
X112373764Y-105617420D01*
X112317829Y-105659289D01*
X112248137Y-105664271D01*
X112186815Y-105630784D01*
X112153332Y-105569460D01*
X112150499Y-105543112D01*
X112150499Y-105273999D01*
X112170184Y-105206961D01*
X112222988Y-105161206D01*
X112274499Y-105150000D01*
X112750000Y-105150000D01*
X113250000Y-105150000D01*
X113750000Y-105150000D01*
X113750000Y-105102172D01*
X113749999Y-105102155D01*
X113743597Y-105042622D01*
X113741813Y-105035067D01*
X113743250Y-105034727D01*
X113738874Y-104973658D01*
X113743364Y-104958366D01*
X113743597Y-104957377D01*
X113749999Y-104897844D01*
X113750000Y-104897827D01*
X113750000Y-104850000D01*
X113250000Y-104850000D01*
X113250000Y-105150000D01*
X112750000Y-105150000D01*
X112750000Y-104050000D01*
X112274500Y-104050000D01*
X112207461Y-104030315D01*
X112161706Y-103977511D01*
X112150500Y-103926000D01*
X112150499Y-103670200D01*
X112170183Y-103603161D01*
X112222987Y-103557406D01*
X112292146Y-103547462D01*
X112355701Y-103576487D01*
G37*
%TD.AperFunction*%
%TA.AperFunction,Conductor*%
G36*
X104497758Y-98945185D02*
G01*
X104518400Y-98961819D01*
X106144400Y-100587819D01*
X106177885Y-100649142D01*
X106172901Y-100718834D01*
X106131029Y-100774767D01*
X106065565Y-100799184D01*
X106056719Y-100799500D01*
X105674998Y-100799500D01*
X105674980Y-100799501D01*
X105572203Y-100810000D01*
X105572200Y-100810001D01*
X105405668Y-100865185D01*
X105405663Y-100865187D01*
X105256342Y-100957289D01*
X105132288Y-101081343D01*
X105132283Y-101081349D01*
X105130241Y-101084661D01*
X105128247Y-101086453D01*
X105127807Y-101087011D01*
X105127711Y-101086935D01*
X105078291Y-101131383D01*
X105009328Y-101142602D01*
X104945247Y-101114755D01*
X104919168Y-101084656D01*
X104917319Y-101081659D01*
X104917316Y-101081655D01*
X104793345Y-100957684D01*
X104644124Y-100865643D01*
X104644119Y-100865641D01*
X104477697Y-100810494D01*
X104477690Y-100810493D01*
X104374986Y-100800000D01*
X104250000Y-100800000D01*
X104250000Y-103199999D01*
X104374972Y-103199999D01*
X104374986Y-103199998D01*
X104477697Y-103189505D01*
X104644119Y-103134358D01*
X104644124Y-103134356D01*
X104793345Y-103042315D01*
X104917318Y-102918342D01*
X104919165Y-102915348D01*
X104920969Y-102913724D01*
X104921798Y-102912677D01*
X104921976Y-102912818D01*
X104971110Y-102868621D01*
X105040073Y-102857396D01*
X105104156Y-102885236D01*
X105130243Y-102915341D01*
X105132288Y-102918656D01*
X105256344Y-103042712D01*
X105390597Y-103125519D01*
X105437321Y-103177465D01*
X105449500Y-103231057D01*
X105449500Y-104736267D01*
X105429815Y-104803306D01*
X105377011Y-104849061D01*
X105364506Y-104853972D01*
X105330671Y-104865184D01*
X105330663Y-104865187D01*
X105181342Y-104957289D01*
X105087681Y-105050951D01*
X105026358Y-105084436D01*
X104956666Y-105079452D01*
X104912319Y-105050951D01*
X104818657Y-104957289D01*
X104818656Y-104957288D01*
X104709404Y-104889901D01*
X104669336Y-104865187D01*
X104669331Y-104865185D01*
X104635492Y-104853972D01*
X104502797Y-104810001D01*
X104502795Y-104810000D01*
X104400010Y-104799500D01*
X103599998Y-104799500D01*
X103599980Y-104799501D01*
X103497203Y-104810000D01*
X103497200Y-104810001D01*
X103330668Y-104865185D01*
X103330661Y-104865188D01*
X103242130Y-104919794D01*
X103174738Y-104938233D01*
X103108074Y-104917310D01*
X103089354Y-104901935D01*
X100843121Y-102655702D01*
X100809636Y-102594379D01*
X100812873Y-102529698D01*
X100817246Y-102516243D01*
X100819821Y-102499986D01*
X102925001Y-102499986D01*
X102935494Y-102602697D01*
X102990641Y-102769119D01*
X102990643Y-102769124D01*
X103082684Y-102918345D01*
X103206654Y-103042315D01*
X103355875Y-103134356D01*
X103355880Y-103134358D01*
X103522302Y-103189505D01*
X103522309Y-103189506D01*
X103625019Y-103199999D01*
X103749999Y-103199999D01*
X103750000Y-103199998D01*
X103750000Y-102250000D01*
X102925001Y-102250000D01*
X102925001Y-102499986D01*
X100819821Y-102499986D01*
X100850500Y-102306287D01*
X100850500Y-102093713D01*
X100817246Y-101883757D01*
X100751557Y-101681588D01*
X100659040Y-101500013D01*
X102925000Y-101500013D01*
X102925000Y-101750000D01*
X103750000Y-101750000D01*
X103750000Y-100800000D01*
X103625027Y-100800000D01*
X103625012Y-100800001D01*
X103522302Y-100810494D01*
X103355880Y-100865641D01*
X103355875Y-100865643D01*
X103206654Y-100957684D01*
X103082684Y-101081654D01*
X102990643Y-101230875D01*
X102990641Y-101230880D01*
X102935494Y-101397302D01*
X102935493Y-101397309D01*
X102925000Y-101500013D01*
X100659040Y-101500013D01*
X100655051Y-101492184D01*
X100655049Y-101492181D01*
X100655048Y-101492179D01*
X100530109Y-101320213D01*
X100379786Y-101169890D01*
X100207817Y-101044949D01*
X100198504Y-101040204D01*
X100147707Y-100992230D01*
X100130912Y-100924409D01*
X100153449Y-100858274D01*
X100198507Y-100819232D01*
X100207555Y-100814622D01*
X100261716Y-100775270D01*
X100261717Y-100775270D01*
X99629408Y-100142962D01*
X99692993Y-100125925D01*
X99807007Y-100060099D01*
X99900099Y-99967007D01*
X99965925Y-99852993D01*
X99982962Y-99789409D01*
X100615270Y-100421717D01*
X100615270Y-100421716D01*
X100654622Y-100367554D01*
X100751095Y-100178217D01*
X100816757Y-99976130D01*
X100816757Y-99976127D01*
X100850000Y-99766246D01*
X100850000Y-99553753D01*
X100816757Y-99343872D01*
X100816757Y-99343869D01*
X100751095Y-99141782D01*
X100732759Y-99105795D01*
X100719863Y-99037125D01*
X100746140Y-98972385D01*
X100803246Y-98932128D01*
X100843244Y-98925500D01*
X104430719Y-98925500D01*
X104497758Y-98945185D01*
G37*
%TD.AperFunction*%
%TA.AperFunction,Conductor*%
G36*
X132744942Y-73520185D02*
G01*
X132790697Y-73572989D01*
X132800641Y-73642147D01*
X132771616Y-73705703D01*
X132725356Y-73739060D01*
X132647176Y-73771444D01*
X132501535Y-73831770D01*
X132501530Y-73831772D01*
X132198224Y-73993893D01*
X132198206Y-73993904D01*
X131912248Y-74184975D01*
X131912234Y-74184985D01*
X131646367Y-74403176D01*
X131403176Y-74646367D01*
X131184985Y-74912234D01*
X131184975Y-74912248D01*
X130993904Y-75198206D01*
X130993893Y-75198224D01*
X130831772Y-75501530D01*
X130831770Y-75501535D01*
X130700150Y-75819293D01*
X130600308Y-76148427D01*
X130533210Y-76485750D01*
X130499500Y-76828034D01*
X130499500Y-77171965D01*
X130533210Y-77514249D01*
X130600308Y-77851572D01*
X130700150Y-78180706D01*
X130831770Y-78498464D01*
X130831772Y-78498469D01*
X130993893Y-78801775D01*
X130993904Y-78801793D01*
X131184975Y-79087751D01*
X131184985Y-79087765D01*
X131403176Y-79353632D01*
X131646367Y-79596823D01*
X131646372Y-79596827D01*
X131646373Y-79596828D01*
X131912240Y-79815019D01*
X132198213Y-80006100D01*
X132198222Y-80006105D01*
X132198224Y-80006106D01*
X132501530Y-80168227D01*
X132501532Y-80168227D01*
X132501538Y-80168231D01*
X132819295Y-80299850D01*
X133148422Y-80399690D01*
X133485750Y-80466789D01*
X133828031Y-80500500D01*
X133828034Y-80500500D01*
X134171966Y-80500500D01*
X134171969Y-80500500D01*
X134514250Y-80466789D01*
X134851578Y-80399690D01*
X135180705Y-80299850D01*
X135498462Y-80168231D01*
X135801787Y-80006100D01*
X136087760Y-79815019D01*
X136353627Y-79596828D01*
X136596828Y-79353627D01*
X136815019Y-79087760D01*
X137006100Y-78801787D01*
X137168231Y-78498462D01*
X137260939Y-78274643D01*
X137304780Y-78220241D01*
X137371074Y-78198176D01*
X137438773Y-78215455D01*
X137486384Y-78266592D01*
X137499500Y-78322097D01*
X137499500Y-118993038D01*
X137498720Y-119006922D01*
X137498720Y-119006923D01*
X137488540Y-119097264D01*
X137482362Y-119124333D01*
X137454648Y-119203537D01*
X137442600Y-119228555D01*
X137397957Y-119299604D01*
X137380644Y-119321313D01*
X137321313Y-119380644D01*
X137299604Y-119397957D01*
X137228555Y-119442600D01*
X137203537Y-119454648D01*
X137124333Y-119482362D01*
X137097264Y-119488540D01*
X137017075Y-119497576D01*
X137006921Y-119498720D01*
X136993038Y-119499500D01*
X99322097Y-119499500D01*
X99255058Y-119479815D01*
X99209303Y-119427011D01*
X99199359Y-119357853D01*
X99228384Y-119294297D01*
X99274643Y-119260939D01*
X99498462Y-119168231D01*
X99801787Y-119006100D01*
X100087760Y-118815019D01*
X100353627Y-118596828D01*
X100596828Y-118353627D01*
X100815019Y-118087760D01*
X101006100Y-117801787D01*
X101168231Y-117498462D01*
X101299850Y-117180705D01*
X101399690Y-116851578D01*
X101466789Y-116514250D01*
X101500500Y-116171969D01*
X101500500Y-115828031D01*
X101466789Y-115485750D01*
X101399690Y-115148422D01*
X101299850Y-114819295D01*
X101168231Y-114501538D01*
X101146910Y-114461650D01*
X101006106Y-114198224D01*
X101006105Y-114198222D01*
X101006100Y-114198213D01*
X100815019Y-113912240D01*
X100596828Y-113646373D01*
X100596827Y-113646372D01*
X100596823Y-113646367D01*
X100353632Y-113403176D01*
X100087765Y-113184985D01*
X100087764Y-113184984D01*
X100087760Y-113184981D01*
X99801787Y-112993900D01*
X99801782Y-112993897D01*
X99801775Y-112993893D01*
X99498469Y-112831772D01*
X99498464Y-112831770D01*
X99180706Y-112700150D01*
X98851572Y-112600308D01*
X98514248Y-112533210D01*
X98514249Y-112533210D01*
X98256456Y-112507821D01*
X98171969Y-112499500D01*
X97828031Y-112499500D01*
X97749966Y-112507188D01*
X97485750Y-112533210D01*
X97148427Y-112600308D01*
X96819293Y-112700150D01*
X96501535Y-112831770D01*
X96501530Y-112831772D01*
X96198224Y-112993893D01*
X96198206Y-112993904D01*
X95912248Y-113184975D01*
X95912234Y-113184985D01*
X95646367Y-113403176D01*
X95403176Y-113646367D01*
X95184985Y-113912234D01*
X95184975Y-113912248D01*
X94993904Y-114198206D01*
X94993893Y-114198224D01*
X94831772Y-114501530D01*
X94831770Y-114501535D01*
X94739061Y-114725355D01*
X94695220Y-114779758D01*
X94628926Y-114801823D01*
X94561226Y-114784544D01*
X94513616Y-114733406D01*
X94500500Y-114677902D01*
X94500500Y-95696197D01*
X97694500Y-95696197D01*
X97694500Y-95701611D01*
X97694500Y-97669751D01*
X97718612Y-97790972D01*
X97718614Y-97790979D01*
X97733873Y-97827816D01*
X97765917Y-97905177D01*
X97796058Y-97950286D01*
X97806102Y-97965318D01*
X97834587Y-98007950D01*
X97834591Y-98007955D01*
X98452996Y-98626359D01*
X98486481Y-98687682D01*
X98481497Y-98757373D01*
X98465633Y-98786925D01*
X98345379Y-98952442D01*
X98248904Y-99141782D01*
X98183242Y-99343869D01*
X98183242Y-99343872D01*
X98150000Y-99553753D01*
X98150000Y-99766246D01*
X98183242Y-99976127D01*
X98183242Y-99976130D01*
X98248904Y-100178217D01*
X98345375Y-100367550D01*
X98384728Y-100421716D01*
X99017036Y-99789407D01*
X99034075Y-99852993D01*
X99099901Y-99967007D01*
X99192993Y-100060099D01*
X99307007Y-100125925D01*
X99370590Y-100142962D01*
X98738282Y-100775269D01*
X98738282Y-100775270D01*
X98792452Y-100814626D01*
X98792451Y-100814626D01*
X98801495Y-100819234D01*
X98852292Y-100867208D01*
X98869087Y-100935029D01*
X98846550Y-101001164D01*
X98801499Y-101040202D01*
X98792182Y-101044949D01*
X98620213Y-101169890D01*
X98469890Y-101320213D01*
X98344951Y-101492179D01*
X98248444Y-101681585D01*
X98182753Y-101883760D01*
X98149500Y-102093713D01*
X98149500Y-102306286D01*
X98182175Y-102512591D01*
X98182754Y-102516243D01*
X98228067Y-102655702D01*
X98248444Y-102718414D01*
X98344951Y-102907820D01*
X98469890Y-103079786D01*
X98620213Y-103230109D01*
X98792179Y-103355048D01*
X98792181Y-103355049D01*
X98792184Y-103355051D01*
X98981588Y-103451557D01*
X99183757Y-103517246D01*
X99393713Y-103550500D01*
X99393714Y-103550500D01*
X99606286Y-103550500D01*
X99606287Y-103550500D01*
X99816243Y-103517246D01*
X99829698Y-103512873D01*
X99899535Y-103510873D01*
X99955702Y-103543121D01*
X102866817Y-106454236D01*
X102900302Y-106515559D01*
X102902494Y-106529315D01*
X102910001Y-106602797D01*
X102910001Y-106602799D01*
X102939671Y-106692335D01*
X102965186Y-106769334D01*
X103057288Y-106918656D01*
X103181344Y-107042712D01*
X103330666Y-107134814D01*
X103497203Y-107189999D01*
X103599991Y-107200500D01*
X104400008Y-107200499D01*
X104400016Y-107200498D01*
X104400019Y-107200498D01*
X104456302Y-107194748D01*
X104502797Y-107189999D01*
X104669334Y-107134814D01*
X104818656Y-107042712D01*
X104912319Y-106949049D01*
X104973642Y-106915564D01*
X105043334Y-106920548D01*
X105087681Y-106949049D01*
X105181344Y-107042712D01*
X105330666Y-107134814D01*
X105497203Y-107189999D01*
X105599991Y-107200500D01*
X106400008Y-107200499D01*
X106400016Y-107200498D01*
X106400019Y-107200498D01*
X106456302Y-107194748D01*
X106502797Y-107189999D01*
X106669334Y-107134814D01*
X106818656Y-107042712D01*
X106942712Y-106918656D01*
X107034814Y-106769334D01*
X107089999Y-106602797D01*
X107100500Y-106500009D01*
X107100499Y-105499992D01*
X107089999Y-105397203D01*
X107034814Y-105230666D01*
X106942712Y-105081344D01*
X106818656Y-104957288D01*
X106709402Y-104889900D01*
X106662679Y-104837953D01*
X106650500Y-104784362D01*
X106650500Y-103231057D01*
X106670185Y-103164018D01*
X106709401Y-103125520D01*
X106843656Y-103042712D01*
X106967712Y-102918656D01*
X107059814Y-102769334D01*
X107114999Y-102602797D01*
X107125500Y-102500009D01*
X107125499Y-101868278D01*
X107145183Y-101801241D01*
X107197987Y-101755486D01*
X107267146Y-101745542D01*
X107330702Y-101774567D01*
X107337180Y-101780599D01*
X110613181Y-105056600D01*
X110646666Y-105117923D01*
X110649500Y-105144281D01*
X110649500Y-105697870D01*
X110649501Y-105697876D01*
X110655908Y-105757479D01*
X110657692Y-105765026D01*
X110656229Y-105765371D01*
X110660585Y-105826371D01*
X110656173Y-105841396D01*
X110655908Y-105842517D01*
X110649501Y-105902117D01*
X110649500Y-105902136D01*
X110649500Y-106497870D01*
X110649501Y-106497876D01*
X110655908Y-106557483D01*
X110706202Y-106692328D01*
X110706206Y-106692335D01*
X110792452Y-106807544D01*
X110792455Y-106807547D01*
X110907664Y-106893793D01*
X110907671Y-106893797D01*
X110952618Y-106910561D01*
X111042517Y-106944091D01*
X111102127Y-106950500D01*
X111697872Y-106950499D01*
X111757483Y-106944091D01*
X111757489Y-106944088D01*
X111765025Y-106942308D01*
X111765321Y-106943561D01*
X111827063Y-106939142D01*
X111840655Y-106943132D01*
X111842627Y-106943598D01*
X111902155Y-106949999D01*
X111902172Y-106950000D01*
X111950000Y-106950000D01*
X111950000Y-106912694D01*
X111969685Y-106845655D01*
X111977505Y-106834817D01*
X111987255Y-106822735D01*
X112007546Y-106807546D01*
X112093796Y-106692331D01*
X112094910Y-106689343D01*
X112103505Y-106678694D01*
X112123426Y-106664884D01*
X112140565Y-106647743D01*
X112151625Y-106645336D01*
X112160927Y-106638888D01*
X112185150Y-106638040D01*
X112208837Y-106632886D01*
X112219442Y-106636840D01*
X112230754Y-106636445D01*
X112251591Y-106648829D01*
X112274303Y-106657298D01*
X112283286Y-106667665D01*
X112290817Y-106672141D01*
X112295791Y-106682096D01*
X112299444Y-106686312D01*
X112300889Y-106685231D01*
X112392452Y-106807544D01*
X112392454Y-106807546D01*
X112400308Y-106813425D01*
X112442180Y-106869356D01*
X112450000Y-106912694D01*
X112450000Y-106950000D01*
X112497828Y-106950000D01*
X112497844Y-106949999D01*
X112557375Y-106943598D01*
X112564926Y-106941814D01*
X112565315Y-106943462D01*
X112625624Y-106939140D01*
X112642387Y-106944060D01*
X112642511Y-106944088D01*
X112642517Y-106944091D01*
X112702127Y-106950500D01*
X113297872Y-106950499D01*
X113357483Y-106944091D01*
X113492331Y-106893796D01*
X113547852Y-106852233D01*
X113613316Y-106827816D01*
X113622163Y-106827500D01*
X115680116Y-106827500D01*
X115747155Y-106847185D01*
X115792910Y-106899989D01*
X115803473Y-106938897D01*
X115803499Y-106939142D01*
X115810001Y-107002796D01*
X115810001Y-107002799D01*
X115865185Y-107169331D01*
X115865187Y-107169336D01*
X115877932Y-107189999D01*
X115957288Y-107318656D01*
X116081344Y-107442712D01*
X116230666Y-107534814D01*
X116397203Y-107589999D01*
X116499991Y-107600500D01*
X117159855Y-107600499D01*
X117226893Y-107620183D01*
X117272648Y-107672987D01*
X117282592Y-107742146D01*
X117253567Y-107805702D01*
X117194789Y-107843476D01*
X117179252Y-107846972D01*
X116984753Y-107877778D01*
X116984750Y-107877778D01*
X116767244Y-107948450D01*
X116563461Y-108052283D01*
X116457896Y-108128980D01*
X116378434Y-108186714D01*
X116378432Y-108186716D01*
X116378431Y-108186716D01*
X116216716Y-108348431D01*
X116216716Y-108348432D01*
X116216714Y-108348434D01*
X116158980Y-108427896D01*
X116082283Y-108533461D01*
X115978450Y-108737244D01*
X115907778Y-108954750D01*
X115907778Y-108954753D01*
X115872000Y-109180646D01*
X115872000Y-109409353D01*
X115907778Y-109635248D01*
X115930782Y-109706049D01*
X115932777Y-109775890D01*
X115900532Y-109832047D01*
X113119398Y-112613181D01*
X113058075Y-112646666D01*
X113031717Y-112649500D01*
X111602129Y-112649500D01*
X111602123Y-112649501D01*
X111542516Y-112655908D01*
X111407671Y-112706202D01*
X111407664Y-112706206D01*
X111292455Y-112792452D01*
X111292452Y-112792455D01*
X111206206Y-112907664D01*
X111206202Y-112907671D01*
X111155908Y-113042517D01*
X111149501Y-113102116D01*
X111149500Y-113102135D01*
X111149500Y-114897870D01*
X111149501Y-114897876D01*
X111155908Y-114957483D01*
X111206202Y-115092328D01*
X111206206Y-115092335D01*
X111292452Y-115207544D01*
X111292455Y-115207547D01*
X111407664Y-115293793D01*
X111407671Y-115293797D01*
X111542517Y-115344091D01*
X111542516Y-115344091D01*
X111549444Y-115344835D01*
X111602127Y-115350500D01*
X113397872Y-115350499D01*
X113457483Y-115344091D01*
X113592331Y-115293796D01*
X113707546Y-115207546D01*
X113793796Y-115092331D01*
X113842810Y-114960916D01*
X113884681Y-114904984D01*
X113950145Y-114880566D01*
X114018418Y-114895417D01*
X114046673Y-114916569D01*
X114160213Y-115030109D01*
X114332179Y-115155048D01*
X114332181Y-115155049D01*
X114332184Y-115155051D01*
X114521588Y-115251557D01*
X114723757Y-115317246D01*
X114933713Y-115350500D01*
X114933714Y-115350500D01*
X115146286Y-115350500D01*
X115146287Y-115350500D01*
X115356243Y-115317246D01*
X115558412Y-115251557D01*
X115747816Y-115155051D01*
X115834138Y-115092335D01*
X115919786Y-115030109D01*
X115919788Y-115030106D01*
X115919792Y-115030104D01*
X116070104Y-114879792D01*
X116070106Y-114879788D01*
X116070109Y-114879786D01*
X116195048Y-114707820D01*
X116195047Y-114707820D01*
X116195051Y-114707816D01*
X116199514Y-114699054D01*
X116247488Y-114648259D01*
X116315308Y-114631463D01*
X116381444Y-114653999D01*
X116420486Y-114699056D01*
X116424951Y-114707820D01*
X116549890Y-114879786D01*
X116700213Y-115030109D01*
X116872179Y-115155048D01*
X116872181Y-115155049D01*
X116872184Y-115155051D01*
X117061588Y-115251557D01*
X117263757Y-115317246D01*
X117473713Y-115350500D01*
X117473714Y-115350500D01*
X117686286Y-115350500D01*
X117686287Y-115350500D01*
X117896243Y-115317246D01*
X118098412Y-115251557D01*
X118287816Y-115155051D01*
X118374138Y-115092335D01*
X118459786Y-115030109D01*
X118459788Y-115030106D01*
X118459792Y-115030104D01*
X118610104Y-114879792D01*
X118610106Y-114879788D01*
X118610109Y-114879786D01*
X118735048Y-114707820D01*
X118735047Y-114707820D01*
X118735051Y-114707816D01*
X118831557Y-114518412D01*
X118897246Y-114316243D01*
X118930500Y-114106287D01*
X118930500Y-113893713D01*
X118897246Y-113683757D01*
X118873870Y-113611816D01*
X118871876Y-113541977D01*
X118907956Y-113482144D01*
X118970657Y-113451316D01*
X118991802Y-113449500D01*
X126239804Y-113449500D01*
X126239805Y-113449499D01*
X126361035Y-113425386D01*
X126441784Y-113391937D01*
X126475233Y-113378083D01*
X126578008Y-113309411D01*
X126665411Y-113222008D01*
X128478418Y-111408999D01*
X128539739Y-111375516D01*
X128578702Y-111373325D01*
X128599991Y-111375500D01*
X129400008Y-111375499D01*
X129400016Y-111375498D01*
X129400019Y-111375498D01*
X129479919Y-111367336D01*
X129502797Y-111364999D01*
X129669334Y-111309814D01*
X129818656Y-111217712D01*
X129942712Y-111093656D01*
X129982310Y-111029456D01*
X130034258Y-110982732D01*
X130103220Y-110971509D01*
X130167303Y-110999352D01*
X130175530Y-111006872D01*
X130283072Y-111114414D01*
X130423212Y-111216232D01*
X130577555Y-111294873D01*
X130742299Y-111348402D01*
X130913389Y-111375500D01*
X130913390Y-111375500D01*
X131086610Y-111375500D01*
X131086611Y-111375500D01*
X131257701Y-111348402D01*
X131422445Y-111294873D01*
X131576788Y-111216232D01*
X131716928Y-111114414D01*
X131839414Y-110991928D01*
X131941232Y-110851788D01*
X132019873Y-110697445D01*
X132073402Y-110532701D01*
X132100500Y-110361611D01*
X132100500Y-109638389D01*
X132073402Y-109467299D01*
X132019873Y-109302555D01*
X131941232Y-109148212D01*
X131839414Y-109008072D01*
X131716928Y-108885586D01*
X131576788Y-108783768D01*
X131422445Y-108705127D01*
X131257701Y-108651598D01*
X131257699Y-108651597D01*
X131257698Y-108651597D01*
X131126271Y-108630781D01*
X131086611Y-108624500D01*
X130913389Y-108624500D01*
X130881192Y-108629599D01*
X130742301Y-108651597D01*
X130742297Y-108651598D01*
X130632316Y-108687333D01*
X130562475Y-108689328D01*
X130506318Y-108657083D01*
X129830090Y-107980855D01*
X129830088Y-107980852D01*
X129711217Y-107861981D01*
X129711216Y-107861980D01*
X129624404Y-107811860D01*
X129624404Y-107811859D01*
X129624400Y-107811858D01*
X129574285Y-107782923D01*
X129421557Y-107741999D01*
X129263443Y-107741999D01*
X129255847Y-107741999D01*
X129255831Y-107742000D01*
X123278440Y-107742000D01*
X123237519Y-107752964D01*
X123237519Y-107752965D01*
X123200251Y-107762951D01*
X123125714Y-107782923D01*
X123125709Y-107782926D01*
X122988785Y-107861978D01*
X122970862Y-107879900D01*
X122909537Y-107913382D01*
X122844866Y-107910146D01*
X122745246Y-107877778D01*
X122632299Y-107859889D01*
X122519354Y-107842000D01*
X122290646Y-107842000D01*
X122215349Y-107853926D01*
X122064753Y-107877778D01*
X122064750Y-107877778D01*
X121847244Y-107948450D01*
X121643461Y-108052283D01*
X121537896Y-108128980D01*
X121458434Y-108186714D01*
X121458432Y-108186716D01*
X121458431Y-108186716D01*
X121296716Y-108348431D01*
X121296716Y-108348432D01*
X121296714Y-108348434D01*
X121238980Y-108427896D01*
X121162283Y-108533461D01*
X121058450Y-108737244D01*
X120987778Y-108954750D01*
X120987778Y-108954753D01*
X120952000Y-109180646D01*
X120952000Y-109409353D01*
X120987778Y-109635246D01*
X120987778Y-109635249D01*
X121058450Y-109852755D01*
X121058452Y-109852758D01*
X121162283Y-110056538D01*
X121296714Y-110241566D01*
X121458434Y-110403286D01*
X121643462Y-110537717D01*
X121847242Y-110641548D01*
X121847244Y-110641549D01*
X122064751Y-110712221D01*
X122064752Y-110712221D01*
X122064755Y-110712222D01*
X122290646Y-110748000D01*
X122290647Y-110748000D01*
X122519353Y-110748000D01*
X122519354Y-110748000D01*
X122745245Y-110712222D01*
X122745248Y-110712221D01*
X122745249Y-110712221D01*
X122962755Y-110641549D01*
X122962755Y-110641548D01*
X122962758Y-110641548D01*
X123166538Y-110537717D01*
X123351566Y-110403286D01*
X123513286Y-110241566D01*
X123647717Y-110056538D01*
X123751548Y-109852758D01*
X123776524Y-109775890D01*
X123822221Y-109635249D01*
X123822221Y-109635248D01*
X123822222Y-109635245D01*
X123858000Y-109409354D01*
X123858000Y-109180646D01*
X123843072Y-109086396D01*
X123852026Y-109017105D01*
X123897022Y-108963653D01*
X123963774Y-108943013D01*
X123965545Y-108943000D01*
X127830800Y-108943000D01*
X127897839Y-108962685D01*
X127943594Y-109015489D01*
X127953538Y-109084647D01*
X127948506Y-109105999D01*
X127910001Y-109222203D01*
X127910001Y-109222204D01*
X127910000Y-109222204D01*
X127899500Y-109324983D01*
X127899500Y-110161718D01*
X127879815Y-110228757D01*
X127863181Y-110249399D01*
X125954400Y-112158181D01*
X125893077Y-112191666D01*
X125866719Y-112194500D01*
X116156192Y-112194500D01*
X116034973Y-112218611D01*
X116034973Y-112218612D01*
X116034970Y-112218613D01*
X116034966Y-112218614D01*
X115968070Y-112246323D01*
X115968068Y-112246323D01*
X115920770Y-112265915D01*
X115817989Y-112334590D01*
X115495702Y-112656877D01*
X115434379Y-112690362D01*
X115369707Y-112687128D01*
X115356245Y-112682754D01*
X115356240Y-112682753D01*
X115189544Y-112656351D01*
X115146287Y-112649500D01*
X115146286Y-112649500D01*
X115141475Y-112648738D01*
X115141670Y-112647500D01*
X115081790Y-112624661D01*
X115040334Y-112568419D01*
X115035865Y-112498692D01*
X115069150Y-112438267D01*
X116787953Y-110719464D01*
X116849274Y-110685981D01*
X116913949Y-110689215D01*
X116950242Y-110701008D01*
X116984754Y-110712222D01*
X117030491Y-110719466D01*
X117210646Y-110748000D01*
X117210647Y-110748000D01*
X117439353Y-110748000D01*
X117439354Y-110748000D01*
X117665245Y-110712222D01*
X117665248Y-110712221D01*
X117665249Y-110712221D01*
X117882755Y-110641549D01*
X117882755Y-110641548D01*
X117882758Y-110641548D01*
X118086538Y-110537717D01*
X118271566Y-110403286D01*
X118433286Y-110241566D01*
X118567717Y-110056538D01*
X118671548Y-109852758D01*
X118696524Y-109775890D01*
X118742221Y-109635249D01*
X118742221Y-109635248D01*
X118742222Y-109635245D01*
X118778000Y-109409354D01*
X118778000Y-109180646D01*
X118742222Y-108954755D01*
X118742221Y-108954751D01*
X118742221Y-108954750D01*
X118671549Y-108737244D01*
X118655185Y-108705127D01*
X118567717Y-108533462D01*
X118433286Y-108348434D01*
X118271566Y-108186714D01*
X118086538Y-108052283D01*
X117946347Y-107980852D01*
X117882755Y-107948450D01*
X117665248Y-107877778D01*
X117504889Y-107852379D01*
X117470744Y-107846971D01*
X117407610Y-107817043D01*
X117370679Y-107757731D01*
X117371677Y-107687869D01*
X117410287Y-107629636D01*
X117474250Y-107601522D01*
X117490142Y-107600499D01*
X117500008Y-107600499D01*
X117500016Y-107600498D01*
X117500019Y-107600498D01*
X117556302Y-107594748D01*
X117602797Y-107589999D01*
X117769334Y-107534814D01*
X117918656Y-107442712D01*
X118042712Y-107318656D01*
X118134814Y-107169334D01*
X118189999Y-107002797D01*
X118200500Y-106900009D01*
X118200499Y-106099992D01*
X118189999Y-105997203D01*
X118134814Y-105830666D01*
X118042712Y-105681344D01*
X117949049Y-105587681D01*
X117915564Y-105526358D01*
X117920548Y-105456666D01*
X117949049Y-105412319D01*
X117985239Y-105376129D01*
X118042712Y-105318656D01*
X118134814Y-105169334D01*
X118189999Y-105002797D01*
X118200500Y-104900009D01*
X118200499Y-104099992D01*
X118189999Y-103997203D01*
X118134814Y-103830666D01*
X118042712Y-103681344D01*
X117918656Y-103557288D01*
X117769334Y-103465186D01*
X117602797Y-103410001D01*
X117602795Y-103410000D01*
X117500010Y-103399500D01*
X116499998Y-103399500D01*
X116499980Y-103399501D01*
X116397203Y-103410000D01*
X116397200Y-103410001D01*
X116230668Y-103465185D01*
X116230663Y-103465187D01*
X116081342Y-103557289D01*
X115957287Y-103681344D01*
X115875715Y-103813596D01*
X115823767Y-103860321D01*
X115770176Y-103872500D01*
X115311281Y-103872500D01*
X115244242Y-103852815D01*
X115223600Y-103836181D01*
X113900010Y-102512591D01*
X113900005Y-102512587D01*
X113892641Y-102507666D01*
X113892641Y-102507665D01*
X113829321Y-102465357D01*
X113797233Y-102443917D01*
X113797230Y-102443915D01*
X113797229Y-102443915D01*
X113767700Y-102431683D01*
X113767686Y-102431678D01*
X113763784Y-102430062D01*
X113683035Y-102396614D01*
X113635043Y-102387067D01*
X113627506Y-102384533D01*
X113605127Y-102368890D01*
X113580932Y-102356235D01*
X113576306Y-102351525D01*
X113574261Y-102349329D01*
X113574258Y-102349327D01*
X113574256Y-102349325D01*
X113571171Y-102347495D01*
X113531345Y-102309745D01*
X113529034Y-102306287D01*
X113487411Y-102243992D01*
X113487409Y-102243989D01*
X113178013Y-101934593D01*
X113178007Y-101934588D01*
X113157584Y-101920942D01*
X113075239Y-101865920D01*
X113075226Y-101865913D01*
X113041785Y-101852062D01*
X112961035Y-101818614D01*
X112961027Y-101818612D01*
X112839807Y-101794500D01*
X112839803Y-101794500D01*
X111535803Y-101794500D01*
X111412197Y-101794500D01*
X111412192Y-101794500D01*
X111290973Y-101818611D01*
X111290973Y-101818612D01*
X111290970Y-101818613D01*
X111290966Y-101818614D01*
X111224070Y-101846323D01*
X111224068Y-101846323D01*
X111176770Y-101865915D01*
X111176767Y-101865916D01*
X111176767Y-101865917D01*
X111094415Y-101920943D01*
X111094414Y-101920942D01*
X111073992Y-101934588D01*
X111073985Y-101934593D01*
X111035679Y-101972900D01*
X111027733Y-101977238D01*
X111022309Y-101984485D01*
X110997552Y-101993718D01*
X110974356Y-102006385D01*
X110965325Y-102005738D01*
X110956845Y-102008902D01*
X110931023Y-102003284D01*
X110904664Y-102001399D01*
X110895611Y-101995581D01*
X110888572Y-101994050D01*
X110860318Y-101972899D01*
X110766545Y-101879126D01*
X110733060Y-101817803D01*
X110732622Y-101815702D01*
X110725505Y-101779920D01*
X110668629Y-101642610D01*
X110608860Y-101553159D01*
X110586060Y-101519035D01*
X110586054Y-101519028D01*
X110480971Y-101413945D01*
X110480964Y-101413939D01*
X110357391Y-101331371D01*
X110220080Y-101274495D01*
X110220072Y-101274493D01*
X110104309Y-101251466D01*
X110042398Y-101219081D01*
X110007824Y-101158365D01*
X110004500Y-101129849D01*
X110004500Y-100575138D01*
X110024185Y-100508099D01*
X110076989Y-100462344D01*
X110146147Y-100452400D01*
X110166814Y-100457206D01*
X110218808Y-100474099D01*
X110268624Y-100490286D01*
X110484639Y-100524500D01*
X110484644Y-100524500D01*
X112481361Y-100524500D01*
X112586082Y-100507912D01*
X112697375Y-100490286D01*
X112905383Y-100422701D01*
X113100257Y-100323407D01*
X113199601Y-100251229D01*
X113277193Y-100194857D01*
X113277195Y-100194854D01*
X113277199Y-100194852D01*
X113431852Y-100040199D01*
X113431854Y-100040195D01*
X113431857Y-100040193D01*
X113488229Y-99962601D01*
X113560407Y-99863257D01*
X113659701Y-99668383D01*
X113727286Y-99460375D01*
X113745739Y-99343869D01*
X113761500Y-99244361D01*
X113761500Y-99025638D01*
X113741595Y-98899971D01*
X113727286Y-98809625D01*
X113659701Y-98601617D01*
X113659701Y-98601616D01*
X113581364Y-98447874D01*
X113560407Y-98406743D01*
X113552147Y-98395374D01*
X113431857Y-98229806D01*
X113277199Y-98075148D01*
X113277191Y-98075142D01*
X113126028Y-97965316D01*
X113083364Y-97909989D01*
X113077385Y-97840376D01*
X113109990Y-97778580D01*
X113126023Y-97764686D01*
X113277199Y-97654852D01*
X113431852Y-97500199D01*
X113431854Y-97500195D01*
X113431857Y-97500193D01*
X113488229Y-97422601D01*
X113560407Y-97323257D01*
X113659701Y-97128383D01*
X113727286Y-96920375D01*
X113753558Y-96754500D01*
X113761500Y-96704361D01*
X113761500Y-96485638D01*
X113734593Y-96315762D01*
X113727286Y-96269625D01*
X113659701Y-96061617D01*
X113659701Y-96061616D01*
X113590441Y-95925688D01*
X113560407Y-95866743D01*
X113518497Y-95809058D01*
X113431857Y-95689806D01*
X113277199Y-95535148D01*
X113276737Y-95534812D01*
X113126028Y-95425316D01*
X113083364Y-95369989D01*
X113077385Y-95300376D01*
X113109990Y-95238580D01*
X113126023Y-95224686D01*
X113277199Y-95114852D01*
X113431852Y-94960199D01*
X113431854Y-94960195D01*
X113431857Y-94960193D01*
X113538739Y-94813080D01*
X113560407Y-94783257D01*
X113659701Y-94588383D01*
X113727286Y-94380375D01*
X113745756Y-94263757D01*
X113761500Y-94164361D01*
X113761500Y-93945638D01*
X113741595Y-93819971D01*
X113727286Y-93729625D01*
X113671291Y-93557288D01*
X113659702Y-93521619D01*
X113659701Y-93521616D01*
X113588280Y-93381447D01*
X113560407Y-93326743D01*
X113534843Y-93291557D01*
X113431857Y-93149806D01*
X113277199Y-92995148D01*
X113277191Y-92995142D01*
X113126028Y-92885316D01*
X113083364Y-92829989D01*
X113077385Y-92760376D01*
X113109990Y-92698580D01*
X113126023Y-92684686D01*
X113277199Y-92574852D01*
X113431852Y-92420199D01*
X113431854Y-92420195D01*
X113431857Y-92420193D01*
X113536957Y-92275533D01*
X113560407Y-92243257D01*
X113659701Y-92048383D01*
X113727286Y-91840375D01*
X113752474Y-91681344D01*
X113761500Y-91624361D01*
X113761500Y-91405638D01*
X113741595Y-91279971D01*
X113727286Y-91189625D01*
X113671658Y-91018418D01*
X113659702Y-90981619D01*
X113659701Y-90981616D01*
X113610309Y-90884681D01*
X113560407Y-90786743D01*
X113545419Y-90766113D01*
X113431857Y-90609806D01*
X113277199Y-90455148D01*
X113277191Y-90455142D01*
X113126028Y-90345316D01*
X113083364Y-90289989D01*
X113077385Y-90220376D01*
X113109990Y-90158580D01*
X113126023Y-90144686D01*
X113277199Y-90034852D01*
X113431852Y-89880199D01*
X113431854Y-89880195D01*
X113431857Y-89880193D01*
X113488229Y-89802601D01*
X113560407Y-89703257D01*
X113659701Y-89508383D01*
X113727286Y-89300375D01*
X113744912Y-89189082D01*
X113761500Y-89084361D01*
X113761500Y-88865638D01*
X113741595Y-88739971D01*
X113727286Y-88649625D01*
X113659701Y-88441617D01*
X113659701Y-88441616D01*
X113625315Y-88374132D01*
X113560407Y-88246743D01*
X113552147Y-88235374D01*
X113431857Y-88069806D01*
X113277199Y-87915148D01*
X113277191Y-87915142D01*
X113126028Y-87805316D01*
X113083364Y-87749989D01*
X113077385Y-87680376D01*
X113109990Y-87618580D01*
X113126023Y-87604686D01*
X113277199Y-87494852D01*
X113431852Y-87340199D01*
X113431854Y-87340195D01*
X113431857Y-87340193D01*
X113488229Y-87262601D01*
X113560407Y-87163257D01*
X113659701Y-86968383D01*
X113727286Y-86760375D01*
X113747764Y-86631081D01*
X113761500Y-86544361D01*
X113761500Y-86325638D01*
X113739224Y-86185000D01*
X113727286Y-86109625D01*
X113679197Y-85961619D01*
X113659702Y-85901619D01*
X113659701Y-85901616D01*
X113625315Y-85834132D01*
X113560407Y-85706743D01*
X113552147Y-85695374D01*
X113431857Y-85529806D01*
X113277199Y-85375148D01*
X113277191Y-85375142D01*
X113126028Y-85265316D01*
X113083364Y-85209989D01*
X113077385Y-85140376D01*
X113109990Y-85078580D01*
X113126023Y-85064686D01*
X113277199Y-84954852D01*
X113431852Y-84800199D01*
X113431854Y-84800195D01*
X113431857Y-84800193D01*
X113488229Y-84722601D01*
X113560407Y-84623257D01*
X113659701Y-84428383D01*
X113727286Y-84220375D01*
X113744912Y-84109082D01*
X113761500Y-84004361D01*
X113761500Y-83785638D01*
X125968500Y-83785638D01*
X125968500Y-84004361D01*
X126002714Y-84220376D01*
X126070297Y-84428380D01*
X126070298Y-84428383D01*
X126169595Y-84623260D01*
X126298142Y-84800193D01*
X126452802Y-84954853D01*
X126452807Y-84954857D01*
X126604394Y-85064991D01*
X126647060Y-85120320D01*
X126653039Y-85189934D01*
X126620434Y-85251729D01*
X126604394Y-85265627D01*
X126453133Y-85375524D01*
X126453128Y-85375528D01*
X126298528Y-85530128D01*
X126298524Y-85530133D01*
X126170023Y-85707001D01*
X126070762Y-85901808D01*
X126070761Y-85901811D01*
X126003201Y-86109741D01*
X125991282Y-86185000D01*
X127042749Y-86185000D01*
X127011619Y-86238919D01*
X126977000Y-86368120D01*
X126977000Y-86501880D01*
X127011619Y-86631081D01*
X127042749Y-86685000D01*
X125991282Y-86685000D01*
X126003201Y-86760258D01*
X126070761Y-86968188D01*
X126070762Y-86968191D01*
X126170023Y-87162998D01*
X126298524Y-87339866D01*
X126298528Y-87339871D01*
X126453128Y-87494471D01*
X126453133Y-87494475D01*
X126604394Y-87604372D01*
X126647060Y-87659701D01*
X126653039Y-87729315D01*
X126620434Y-87791110D01*
X126604394Y-87805008D01*
X126452807Y-87915142D01*
X126452802Y-87915146D01*
X126298142Y-88069806D01*
X126169595Y-88246739D01*
X126070298Y-88441616D01*
X126070297Y-88441619D01*
X126002714Y-88649623D01*
X125968500Y-88865638D01*
X125968500Y-89084361D01*
X126002714Y-89300376D01*
X126070297Y-89508380D01*
X126070298Y-89508383D01*
X126169595Y-89703260D01*
X126298142Y-89880193D01*
X126452806Y-90034857D01*
X126603969Y-90144682D01*
X126646635Y-90200011D01*
X126652614Y-90269625D01*
X126620009Y-90331420D01*
X126603969Y-90345318D01*
X126452806Y-90455142D01*
X126298142Y-90609806D01*
X126169595Y-90786739D01*
X126070298Y-90981616D01*
X126070297Y-90981619D01*
X126002714Y-91189623D01*
X125968500Y-91405638D01*
X125968500Y-91624361D01*
X126002714Y-91840376D01*
X126070297Y-92048380D01*
X126070298Y-92048383D01*
X126096595Y-92099992D01*
X126167573Y-92239293D01*
X126169595Y-92243260D01*
X126298142Y-92420193D01*
X126452806Y-92574857D01*
X126603969Y-92684682D01*
X126646635Y-92740011D01*
X126652614Y-92809625D01*
X126620009Y-92871420D01*
X126603969Y-92885318D01*
X126452806Y-92995142D01*
X126298142Y-93149806D01*
X126169595Y-93326739D01*
X126070298Y-93521616D01*
X126070297Y-93521619D01*
X126002714Y-93729623D01*
X125968500Y-93945638D01*
X125968500Y-94164361D01*
X126002714Y-94380376D01*
X126070297Y-94588380D01*
X126070298Y-94588383D01*
X126120183Y-94686286D01*
X126148605Y-94742067D01*
X126169595Y-94783260D01*
X126298142Y-94960193D01*
X126452806Y-95114857D01*
X126603969Y-95224682D01*
X126646635Y-95280011D01*
X126652614Y-95349625D01*
X126620009Y-95411420D01*
X126603969Y-95425318D01*
X126452806Y-95535142D01*
X126298142Y-95689806D01*
X126169595Y-95866739D01*
X126070298Y-96061616D01*
X126070297Y-96061619D01*
X126002714Y-96269623D01*
X125968500Y-96485638D01*
X125968500Y-96704361D01*
X126002714Y-96920376D01*
X126070297Y-97128380D01*
X126070298Y-97128383D01*
X126114527Y-97215185D01*
X126169592Y-97323256D01*
X126169595Y-97323260D01*
X126298142Y-97500193D01*
X126452806Y-97654857D01*
X126603969Y-97764682D01*
X126646635Y-97820011D01*
X126652614Y-97889625D01*
X126620009Y-97951420D01*
X126603969Y-97965318D01*
X126452806Y-98075142D01*
X126298142Y-98229806D01*
X126169595Y-98406739D01*
X126070298Y-98601616D01*
X126070297Y-98601619D01*
X126002714Y-98809623D01*
X125968500Y-99025638D01*
X125968500Y-99244361D01*
X126002714Y-99460376D01*
X126070297Y-99668380D01*
X126070298Y-99668383D01*
X126120163Y-99766246D01*
X126164363Y-99852993D01*
X126169595Y-99863260D01*
X126298142Y-100040193D01*
X126452806Y-100194857D01*
X126618374Y-100315147D01*
X126629743Y-100323407D01*
X126716378Y-100367550D01*
X126824616Y-100422701D01*
X126824619Y-100422702D01*
X126916022Y-100452400D01*
X127032625Y-100490286D01*
X127132672Y-100506132D01*
X127248639Y-100524500D01*
X127248644Y-100524500D01*
X129245361Y-100524500D01*
X129350082Y-100507912D01*
X129461375Y-100490286D01*
X129669383Y-100422701D01*
X129864257Y-100323407D01*
X129963601Y-100251229D01*
X130041193Y-100194857D01*
X130041195Y-100194854D01*
X130041199Y-100194852D01*
X130195852Y-100040199D01*
X130195854Y-100040195D01*
X130195857Y-100040193D01*
X130252229Y-99962601D01*
X130324407Y-99863257D01*
X130423701Y-99668383D01*
X130491286Y-99460375D01*
X130509739Y-99343869D01*
X130525500Y-99244361D01*
X130525500Y-99025638D01*
X130505595Y-98899971D01*
X130491286Y-98809625D01*
X130423701Y-98601617D01*
X130423701Y-98601616D01*
X130345364Y-98447874D01*
X130324407Y-98406743D01*
X130316147Y-98395374D01*
X130195857Y-98229806D01*
X130041199Y-98075148D01*
X130041191Y-98075142D01*
X129890028Y-97965316D01*
X129847364Y-97909989D01*
X129841385Y-97840376D01*
X129873990Y-97778580D01*
X129890023Y-97764686D01*
X130041199Y-97654852D01*
X130195852Y-97500199D01*
X130195854Y-97500195D01*
X130195857Y-97500193D01*
X130252229Y-97422601D01*
X130324407Y-97323257D01*
X130423701Y-97128383D01*
X130491286Y-96920375D01*
X130517558Y-96754500D01*
X130525500Y-96704361D01*
X130525500Y-96485638D01*
X130498593Y-96315762D01*
X130491286Y-96269625D01*
X130423701Y-96061617D01*
X130423701Y-96061616D01*
X130354441Y-95925688D01*
X130324407Y-95866743D01*
X130282497Y-95809058D01*
X130195857Y-95689806D01*
X130041199Y-95535148D01*
X130040737Y-95534812D01*
X129890028Y-95425316D01*
X129847364Y-95369989D01*
X129841385Y-95300376D01*
X129873990Y-95238580D01*
X129890023Y-95224686D01*
X130041199Y-95114852D01*
X130195852Y-94960199D01*
X130195854Y-94960195D01*
X130195857Y-94960193D01*
X130302739Y-94813080D01*
X130324407Y-94783257D01*
X130423701Y-94588383D01*
X130491286Y-94380375D01*
X130509756Y-94263757D01*
X130525500Y-94164361D01*
X130525500Y-93945638D01*
X130505595Y-93819971D01*
X130491286Y-93729625D01*
X130435291Y-93557288D01*
X130423702Y-93521619D01*
X130423701Y-93521616D01*
X130352280Y-93381447D01*
X130324407Y-93326743D01*
X130298843Y-93291557D01*
X130195857Y-93149806D01*
X130041199Y-92995148D01*
X130041191Y-92995142D01*
X129890028Y-92885316D01*
X129847364Y-92829989D01*
X129841385Y-92760376D01*
X129873990Y-92698580D01*
X129890023Y-92684686D01*
X130041199Y-92574852D01*
X130195852Y-92420199D01*
X130195854Y-92420195D01*
X130195857Y-92420193D01*
X130300957Y-92275533D01*
X130324407Y-92243257D01*
X130423701Y-92048383D01*
X130491286Y-91840375D01*
X130516474Y-91681344D01*
X130525500Y-91624361D01*
X130525500Y-91405638D01*
X130505595Y-91279971D01*
X130491286Y-91189625D01*
X130435658Y-91018418D01*
X130423702Y-90981619D01*
X130423701Y-90981616D01*
X130374309Y-90884681D01*
X130324407Y-90786743D01*
X130309419Y-90766113D01*
X130195857Y-90609806D01*
X130041199Y-90455148D01*
X130041191Y-90455142D01*
X129890028Y-90345316D01*
X129847364Y-90289989D01*
X129841385Y-90220376D01*
X129873990Y-90158580D01*
X129890023Y-90144686D01*
X130041199Y-90034852D01*
X130195852Y-89880199D01*
X130195854Y-89880195D01*
X130195857Y-89880193D01*
X130252229Y-89802601D01*
X130324407Y-89703257D01*
X130423701Y-89508383D01*
X130491286Y-89300375D01*
X130508912Y-89189082D01*
X130525500Y-89084361D01*
X130525500Y-88865638D01*
X130505595Y-88739971D01*
X130491286Y-88649625D01*
X130423701Y-88441617D01*
X130423701Y-88441616D01*
X130389315Y-88374132D01*
X130324407Y-88246743D01*
X130316147Y-88235374D01*
X130195857Y-88069806D01*
X130041197Y-87915146D01*
X130041192Y-87915142D01*
X129889605Y-87805008D01*
X129846939Y-87749678D01*
X129840960Y-87680065D01*
X129873565Y-87618270D01*
X129889605Y-87604371D01*
X130040873Y-87494469D01*
X130195471Y-87339871D01*
X130195475Y-87339866D01*
X130323976Y-87162998D01*
X130423237Y-86968191D01*
X130423238Y-86968188D01*
X130490798Y-86760258D01*
X130502718Y-86685000D01*
X127927251Y-86685000D01*
X127958381Y-86631081D01*
X127993000Y-86501880D01*
X127993000Y-86368120D01*
X127958381Y-86238919D01*
X127927251Y-86185000D01*
X130502718Y-86185000D01*
X130490798Y-86109741D01*
X130423238Y-85901811D01*
X130423237Y-85901808D01*
X130323976Y-85707001D01*
X130195475Y-85530133D01*
X130195471Y-85530128D01*
X130040871Y-85375528D01*
X130040866Y-85375524D01*
X129889605Y-85265627D01*
X129846939Y-85210297D01*
X129840960Y-85140684D01*
X129873565Y-85078889D01*
X129889599Y-85064994D01*
X130041199Y-84954852D01*
X130195852Y-84800199D01*
X130195854Y-84800195D01*
X130195857Y-84800193D01*
X130252229Y-84722601D01*
X130324407Y-84623257D01*
X130423701Y-84428383D01*
X130491286Y-84220375D01*
X130508912Y-84109082D01*
X130525500Y-84004361D01*
X130525500Y-83785638D01*
X130505595Y-83659971D01*
X130491286Y-83569625D01*
X130423701Y-83361617D01*
X130423701Y-83361616D01*
X130389315Y-83294132D01*
X130324407Y-83166743D01*
X130316147Y-83155374D01*
X130195857Y-82989806D01*
X130041193Y-82835142D01*
X129864260Y-82706595D01*
X129864259Y-82706594D01*
X129864257Y-82706593D01*
X129801825Y-82674782D01*
X129669383Y-82607298D01*
X129669380Y-82607297D01*
X129461376Y-82539714D01*
X129245361Y-82505500D01*
X129245356Y-82505500D01*
X127248644Y-82505500D01*
X127248639Y-82505500D01*
X127032623Y-82539714D01*
X126824619Y-82607297D01*
X126824616Y-82607298D01*
X126629739Y-82706595D01*
X126452806Y-82835142D01*
X126298142Y-82989806D01*
X126169595Y-83166739D01*
X126070298Y-83361616D01*
X126070297Y-83361619D01*
X126002714Y-83569623D01*
X125968500Y-83785638D01*
X113761500Y-83785638D01*
X113741595Y-83659971D01*
X113727286Y-83569625D01*
X113659701Y-83361617D01*
X113659701Y-83361616D01*
X113625315Y-83294132D01*
X113560407Y-83166743D01*
X113552147Y-83155374D01*
X113431857Y-82989806D01*
X113277193Y-82835142D01*
X113100260Y-82706595D01*
X113100259Y-82706594D01*
X113100257Y-82706593D01*
X113037825Y-82674782D01*
X112905383Y-82607298D01*
X112905380Y-82607297D01*
X112697376Y-82539714D01*
X112481361Y-82505500D01*
X112481356Y-82505500D01*
X110484644Y-82505500D01*
X110484639Y-82505500D01*
X110268623Y-82539714D01*
X110060619Y-82607297D01*
X110060616Y-82607298D01*
X109865739Y-82706595D01*
X109688806Y-82835142D01*
X109534142Y-82989806D01*
X109405595Y-83166739D01*
X109306298Y-83361616D01*
X109306297Y-83361619D01*
X109238714Y-83569623D01*
X109204500Y-83785638D01*
X109204500Y-84004361D01*
X109238714Y-84220376D01*
X109306297Y-84428380D01*
X109306298Y-84428383D01*
X109405595Y-84623260D01*
X109534142Y-84800193D01*
X109688806Y-84954857D01*
X109839969Y-85064682D01*
X109882635Y-85120011D01*
X109888614Y-85189625D01*
X109856009Y-85251420D01*
X109839969Y-85265318D01*
X109688806Y-85375142D01*
X109534142Y-85529806D01*
X109405595Y-85706739D01*
X109306298Y-85901616D01*
X109306297Y-85901619D01*
X109238714Y-86109623D01*
X109204500Y-86325638D01*
X109204500Y-86544361D01*
X109238714Y-86760376D01*
X109306297Y-86968380D01*
X109306298Y-86968383D01*
X109373782Y-87100825D01*
X109405461Y-87162998D01*
X109405595Y-87163260D01*
X109534142Y-87340193D01*
X109688806Y-87494857D01*
X109839969Y-87604682D01*
X109882635Y-87660011D01*
X109888614Y-87729625D01*
X109856009Y-87791420D01*
X109839969Y-87805318D01*
X109688806Y-87915142D01*
X109534142Y-88069806D01*
X109405595Y-88246739D01*
X109306298Y-88441616D01*
X109306297Y-88441619D01*
X109238714Y-88649623D01*
X109204500Y-88865638D01*
X109204500Y-89084361D01*
X109238714Y-89300376D01*
X109306297Y-89508380D01*
X109306298Y-89508383D01*
X109405595Y-89703260D01*
X109534142Y-89880193D01*
X109688806Y-90034857D01*
X109839969Y-90144682D01*
X109882635Y-90200011D01*
X109888614Y-90269625D01*
X109856009Y-90331420D01*
X109839969Y-90345318D01*
X109688806Y-90455142D01*
X109534142Y-90609806D01*
X109405595Y-90786739D01*
X109306298Y-90981616D01*
X109306297Y-90981619D01*
X109238714Y-91189623D01*
X109204500Y-91405638D01*
X109204500Y-91517719D01*
X109184815Y-91584758D01*
X109132011Y-91630513D01*
X109062853Y-91640457D01*
X108999297Y-91611432D01*
X108992819Y-91605400D01*
X106236818Y-88849399D01*
X106203333Y-88788076D01*
X106200499Y-88761718D01*
X106200499Y-88099998D01*
X106200498Y-88099981D01*
X106189999Y-87997203D01*
X106189998Y-87997200D01*
X106134814Y-87830666D01*
X106042712Y-87681344D01*
X105918656Y-87557288D01*
X105769334Y-87465186D01*
X105602797Y-87410001D01*
X105602795Y-87410000D01*
X105500010Y-87399500D01*
X104499998Y-87399500D01*
X104499980Y-87399501D01*
X104397203Y-87410000D01*
X104397200Y-87410001D01*
X104230668Y-87465185D01*
X104230663Y-87465187D01*
X104081342Y-87557289D01*
X103957289Y-87681342D01*
X103865187Y-87830663D01*
X103865186Y-87830666D01*
X103810001Y-87997203D01*
X103810001Y-87997204D01*
X103810000Y-87997204D01*
X103799500Y-88099983D01*
X103799500Y-88761718D01*
X103779815Y-88828757D01*
X103763181Y-88849399D01*
X100977881Y-91634698D01*
X100916558Y-91668183D01*
X100846866Y-91663199D01*
X100790933Y-91621327D01*
X100772271Y-91585338D01*
X100751557Y-91521588D01*
X100655051Y-91332184D01*
X100655049Y-91332181D01*
X100655048Y-91332179D01*
X100530109Y-91160213D01*
X100416569Y-91046673D01*
X100383084Y-90985350D01*
X100388068Y-90915658D01*
X100429940Y-90859725D01*
X100460915Y-90842810D01*
X100592331Y-90793796D01*
X100707546Y-90707546D01*
X100793796Y-90592331D01*
X100844091Y-90457483D01*
X100850500Y-90397873D01*
X100850499Y-88602128D01*
X100844091Y-88542517D01*
X100806457Y-88441616D01*
X100793797Y-88407671D01*
X100793793Y-88407664D01*
X100707547Y-88292455D01*
X100707544Y-88292452D01*
X100592335Y-88206206D01*
X100592328Y-88206202D01*
X100457482Y-88155908D01*
X100457483Y-88155908D01*
X100397883Y-88149501D01*
X100397881Y-88149500D01*
X100397873Y-88149500D01*
X100397864Y-88149500D01*
X98602129Y-88149500D01*
X98602123Y-88149501D01*
X98542516Y-88155908D01*
X98407671Y-88206202D01*
X98407664Y-88206206D01*
X98292455Y-88292452D01*
X98292452Y-88292455D01*
X98206206Y-88407664D01*
X98206202Y-88407671D01*
X98155908Y-88542517D01*
X98149501Y-88602116D01*
X98149501Y-88602123D01*
X98149500Y-88602135D01*
X98149500Y-90397870D01*
X98149501Y-90397876D01*
X98155908Y-90457483D01*
X98206202Y-90592328D01*
X98206206Y-90592335D01*
X98292452Y-90707544D01*
X98292455Y-90707547D01*
X98407664Y-90793793D01*
X98407671Y-90793797D01*
X98539082Y-90842810D01*
X98595016Y-90884681D01*
X98619433Y-90950145D01*
X98604582Y-91018418D01*
X98583431Y-91046673D01*
X98469889Y-91160215D01*
X98344951Y-91332179D01*
X98248444Y-91521585D01*
X98182753Y-91723760D01*
X98149500Y-91933713D01*
X98149500Y-92146286D01*
X98167725Y-92261358D01*
X98182754Y-92356243D01*
X98229414Y-92499848D01*
X98248444Y-92558414D01*
X98344951Y-92747820D01*
X98469890Y-92919786D01*
X98620213Y-93070109D01*
X98792182Y-93195050D01*
X98800946Y-93199516D01*
X98851742Y-93247491D01*
X98868536Y-93315312D01*
X98845998Y-93381447D01*
X98800946Y-93420484D01*
X98792182Y-93424949D01*
X98620213Y-93549890D01*
X98469890Y-93700213D01*
X98344951Y-93872179D01*
X98248444Y-94061585D01*
X98182753Y-94263760D01*
X98164283Y-94380375D01*
X98149500Y-94473713D01*
X98149500Y-94686287D01*
X98153031Y-94708582D01*
X98182753Y-94896240D01*
X98182754Y-94896245D01*
X98187128Y-94909707D01*
X98189121Y-94979549D01*
X98156877Y-95035702D01*
X97921992Y-95270589D01*
X97892205Y-95300376D01*
X97834586Y-95357994D01*
X97834585Y-95357996D01*
X97765233Y-95461789D01*
X97763586Y-95466393D01*
X97718615Y-95574962D01*
X97718614Y-95574964D01*
X97711749Y-95609478D01*
X97711740Y-95609521D01*
X97711625Y-95610104D01*
X97694500Y-95696197D01*
X94500500Y-95696197D01*
X94500500Y-78322097D01*
X94520185Y-78255058D01*
X94572989Y-78209303D01*
X94642147Y-78199359D01*
X94705703Y-78228384D01*
X94739060Y-78274643D01*
X94810200Y-78446389D01*
X94831770Y-78498464D01*
X94831772Y-78498469D01*
X94993893Y-78801775D01*
X94993904Y-78801793D01*
X95184975Y-79087751D01*
X95184985Y-79087765D01*
X95403176Y-79353632D01*
X95646367Y-79596823D01*
X95646372Y-79596827D01*
X95646373Y-79596828D01*
X95912240Y-79815019D01*
X96198213Y-80006100D01*
X96198222Y-80006105D01*
X96198224Y-80006106D01*
X96501530Y-80168227D01*
X96501532Y-80168227D01*
X96501538Y-80168231D01*
X96819295Y-80299850D01*
X97148422Y-80399690D01*
X97485750Y-80466789D01*
X97828031Y-80500500D01*
X97828034Y-80500500D01*
X98171966Y-80500500D01*
X98171969Y-80500500D01*
X98514250Y-80466789D01*
X98851578Y-80399690D01*
X99180705Y-80299850D01*
X99498462Y-80168231D01*
X99801787Y-80006100D01*
X100087760Y-79815019D01*
X100353627Y-79596828D01*
X100596828Y-79353627D01*
X100815019Y-79087760D01*
X101006100Y-78801787D01*
X101168231Y-78498462D01*
X101299850Y-78180705D01*
X101399690Y-77851578D01*
X101466789Y-77514250D01*
X101500500Y-77171969D01*
X101500500Y-76828031D01*
X101466789Y-76485750D01*
X101399690Y-76148422D01*
X101299850Y-75819295D01*
X101168231Y-75501538D01*
X101078929Y-75334467D01*
X101006106Y-75198224D01*
X101006105Y-75198222D01*
X101006100Y-75198213D01*
X100815019Y-74912240D01*
X100596828Y-74646373D01*
X100596827Y-74646372D01*
X100596823Y-74646367D01*
X100353632Y-74403176D01*
X100087765Y-74184985D01*
X100087764Y-74184984D01*
X100087760Y-74184981D01*
X99801787Y-73993900D01*
X99801782Y-73993897D01*
X99801775Y-73993893D01*
X99498469Y-73831772D01*
X99498464Y-73831770D01*
X99413223Y-73796462D01*
X99274643Y-73739060D01*
X99220241Y-73695220D01*
X99198176Y-73628926D01*
X99215455Y-73561227D01*
X99266592Y-73513616D01*
X99322097Y-73500500D01*
X132677903Y-73500500D01*
X132744942Y-73520185D01*
G37*
%TD.AperFunction*%
%TD*%
M02*
