ISO-10303-21;
HEADER;
/* Generated by software containing ST-Developer
 * from STEP Tools, Inc. (www.steptools.com) 
 */

FILE_DESCRIPTION(
/* description */ (''),
/* implementation_level */ '2;1');

FILE_NAME(
/* name */ 'DisplayDeviceEnclosure.step',
/* time_stamp */ '2026-03-16T00:47:35-07:00',
/* author */ (''),
/* organization */ (''),
/* preprocessor_version */ 'ST-DEVELOPER v20.1',
/* originating_system */ 'Autodesk Translation Framework v14.24.0.0',
/* authorisation */ '');

FILE_SCHEMA (('AUTOMOTIVE_DESIGN { 1 0 10303 214 3 1 1 }'));
ENDSEC;

DATA;
#10=MECHANICAL_DESIGN_GEOMETRIC_PRESENTATION_REPRESENTATION('',(#13),#1725);
#11=SHAPE_REPRESENTATION_RELATIONSHIP('SRR','None',#1732,#12);
#12=ADVANCED_BREP_SHAPE_REPRESENTATION('',(#14),#1724);
#13=STYLED_ITEM('',(#1741),#14);
#14=MANIFOLD_SOLID_BREP('Box',#1033);
#15=SPHERICAL_SURFACE('',#1105,1.5);
#16=SPHERICAL_SURFACE('',#1109,1.5);
#17=SPHERICAL_SURFACE('',#1113,1.5);
#18=SPHERICAL_SURFACE('',#1117,1.5);
#19=FACE_BOUND('',#152,.T.);
#20=FACE_BOUND('',#153,.T.);
#21=FACE_BOUND('',#154,.T.);
#22=FACE_BOUND('',#155,.T.);
#23=FACE_BOUND('',#156,.T.);
#24=FACE_BOUND('',#163,.T.);
#25=FACE_BOUND('',#169,.T.);
#26=FACE_BOUND('',#175,.T.);
#27=FACE_BOUND('',#181,.T.);
#28=FACE_BOUND('',#196,.T.);
#29=FACE_BOUND('',#200,.T.);
#30=CIRCLE('',#1049,2.5);
#31=CIRCLE('',#1050,2.5);
#32=CIRCLE('',#1053,2.5);
#33=CIRCLE('',#1054,2.5);
#34=CIRCLE('',#1064,1.5);
#35=CIRCLE('',#1065,1.5);
#36=CIRCLE('',#1066,1.5);
#37=CIRCLE('',#1067,1.5);
#38=CIRCLE('',#1068,1.5);
#39=CIRCLE('',#1069,1.5);
#40=CIRCLE('',#1070,1.5);
#41=CIRCLE('',#1071,1.5);
#42=CIRCLE('',#1072,2.75);
#43=CIRCLE('',#1073,2.75);
#44=CIRCLE('',#1074,2.75);
#45=CIRCLE('',#1075,2.75);
#46=CIRCLE('',#1078,1.5);
#47=CIRCLE('',#1080,2.75);
#48=CIRCLE('',#1085,1.5);
#49=CIRCLE('',#1089,2.75);
#50=CIRCLE('',#1092,1.5);
#51=CIRCLE('',#1094,2.75);
#52=CIRCLE('',#1099,1.5);
#53=CIRCLE('',#1101,2.75);
#54=CIRCLE('',#1106,1.50000000000002);
#55=CIRCLE('',#1107,1.5);
#56=CIRCLE('',#1108,1.5);
#57=CIRCLE('',#1110,1.5);
#58=CIRCLE('',#1111,1.5);
#59=CIRCLE('',#1112,1.5);
#60=CIRCLE('',#1114,1.5);
#61=CIRCLE('',#1115,1.5);
#62=CIRCLE('',#1116,1.5);
#63=CIRCLE('',#1118,1.50000000000002);
#64=CIRCLE('',#1119,1.5);
#65=CIRCLE('',#1120,1.5);
#66=CYLINDRICAL_SURFACE('',#1048,2.5);
#67=CYLINDRICAL_SURFACE('',#1052,2.5);
#68=CYLINDRICAL_SURFACE('',#1077,1.5);
#69=CYLINDRICAL_SURFACE('',#1079,2.75);
#70=CYLINDRICAL_SURFACE('',#1084,1.5);
#71=CYLINDRICAL_SURFACE('',#1088,2.75);
#72=CYLINDRICAL_SURFACE('',#1091,1.5);
#73=CYLINDRICAL_SURFACE('',#1093,2.75);
#74=CYLINDRICAL_SURFACE('',#1098,1.5);
#75=CYLINDRICAL_SURFACE('',#1100,2.75);
#76=CYLINDRICAL_SURFACE('',#1121,1.5);
#77=CYLINDRICAL_SURFACE('',#1122,1.5);
#78=CYLINDRICAL_SURFACE('',#1123,1.5);
#79=CYLINDRICAL_SURFACE('',#1124,1.5);
#80=CYLINDRICAL_SURFACE('',#1125,1.5);
#81=CYLINDRICAL_SURFACE('',#1126,1.5);
#82=CYLINDRICAL_SURFACE('',#1127,1.5);
#83=CYLINDRICAL_SURFACE('',#1128,1.5);
#84=FACE_OUTER_BOUND('',#139,.T.);
#85=FACE_OUTER_BOUND('',#140,.T.);
#86=FACE_OUTER_BOUND('',#141,.T.);
#87=FACE_OUTER_BOUND('',#142,.T.);
#88=FACE_OUTER_BOUND('',#143,.T.);
#89=FACE_OUTER_BOUND('',#144,.T.);
#90=FACE_OUTER_BOUND('',#145,.T.);
#91=FACE_OUTER_BOUND('',#146,.T.);
#92=FACE_OUTER_BOUND('',#147,.T.);
#93=FACE_OUTER_BOUND('',#148,.T.);
#94=FACE_OUTER_BOUND('',#149,.T.);
#95=FACE_OUTER_BOUND('',#150,.T.);
#96=FACE_OUTER_BOUND('',#151,.T.);
#97=FACE_OUTER_BOUND('',#157,.T.);
#98=FACE_OUTER_BOUND('',#158,.T.);
#99=FACE_OUTER_BOUND('',#159,.T.);
#100=FACE_OUTER_BOUND('',#160,.T.);
#101=FACE_OUTER_BOUND('',#161,.T.);
#102=FACE_OUTER_BOUND('',#162,.T.);
#103=FACE_OUTER_BOUND('',#164,.T.);
#104=FACE_OUTER_BOUND('',#165,.T.);
#105=FACE_OUTER_BOUND('',#166,.T.);
#106=FACE_OUTER_BOUND('',#167,.T.);
#107=FACE_OUTER_BOUND('',#168,.T.);
#108=FACE_OUTER_BOUND('',#170,.T.);
#109=FACE_OUTER_BOUND('',#171,.T.);
#110=FACE_OUTER_BOUND('',#172,.T.);
#111=FACE_OUTER_BOUND('',#173,.T.);
#112=FACE_OUTER_BOUND('',#174,.T.);
#113=FACE_OUTER_BOUND('',#176,.T.);
#114=FACE_OUTER_BOUND('',#177,.T.);
#115=FACE_OUTER_BOUND('',#178,.T.);
#116=FACE_OUTER_BOUND('',#179,.T.);
#117=FACE_OUTER_BOUND('',#180,.T.);
#118=FACE_OUTER_BOUND('',#182,.T.);
#119=FACE_OUTER_BOUND('',#183,.T.);
#120=FACE_OUTER_BOUND('',#184,.T.);
#121=FACE_OUTER_BOUND('',#185,.T.);
#122=FACE_OUTER_BOUND('',#186,.T.);
#123=FACE_OUTER_BOUND('',#187,.T.);
#124=FACE_OUTER_BOUND('',#188,.T.);
#125=FACE_OUTER_BOUND('',#189,.T.);
#126=FACE_OUTER_BOUND('',#190,.T.);
#127=FACE_OUTER_BOUND('',#191,.T.);
#128=FACE_OUTER_BOUND('',#192,.T.);
#129=FACE_OUTER_BOUND('',#193,.T.);
#130=FACE_OUTER_BOUND('',#194,.T.);
#131=FACE_OUTER_BOUND('',#195,.T.);
#132=FACE_OUTER_BOUND('',#197,.T.);
#133=FACE_OUTER_BOUND('',#198,.T.);
#134=FACE_OUTER_BOUND('',#199,.T.);
#135=FACE_OUTER_BOUND('',#201,.T.);
#136=FACE_OUTER_BOUND('',#202,.T.);
#137=FACE_OUTER_BOUND('',#203,.T.);
#138=FACE_OUTER_BOUND('',#204,.T.);
#139=EDGE_LOOP('',(#657,#658,#659,#660));
#140=EDGE_LOOP('',(#661,#662,#663,#664));
#141=EDGE_LOOP('',(#665,#666,#667,#668));
#142=EDGE_LOOP('',(#669,#670,#671,#672));
#143=EDGE_LOOP('',(#673,#674,#675,#676));
#144=EDGE_LOOP('',(#677,#678,#679,#680));
#145=EDGE_LOOP('',(#681,#682,#683,#684));
#146=EDGE_LOOP('',(#685,#686,#687,#688));
#147=EDGE_LOOP('',(#689,#690,#691,#692));
#148=EDGE_LOOP('',(#693,#694,#695,#696));
#149=EDGE_LOOP('',(#697,#698,#699,#700));
#150=EDGE_LOOP('',(#701,#702,#703,#704));
#151=EDGE_LOOP('',(#705,#706,#707,#708,#709,#710,#711,#712));
#152=EDGE_LOOP('',(#713));
#153=EDGE_LOOP('',(#714));
#154=EDGE_LOOP('',(#715));
#155=EDGE_LOOP('',(#716));
#156=EDGE_LOOP('',(#717,#718,#719,#720,#721,#722,#723,#724,#725,#726,#727,
#728,#729,#730,#731,#732,#733,#734,#735,#736,#737,#738,#739,#740));
#157=EDGE_LOOP('',(#741,#742,#743,#744,#745,#746,#747,#748,#749,#750,#751,
#752));
#158=EDGE_LOOP('',(#753,#754,#755,#756));
#159=EDGE_LOOP('',(#757,#758,#759,#760));
#160=EDGE_LOOP('',(#761,#762,#763,#764));
#161=EDGE_LOOP('',(#765,#766,#767,#768));
#162=EDGE_LOOP('',(#769,#770,#771,#772,#773));
#163=EDGE_LOOP('',(#774));
#164=EDGE_LOOP('',(#775,#776,#777,#778));
#165=EDGE_LOOP('',(#779,#780,#781,#782));
#166=EDGE_LOOP('',(#783,#784,#785,#786));
#167=EDGE_LOOP('',(#787,#788,#789,#790));
#168=EDGE_LOOP('',(#791,#792,#793,#794,#795));
#169=EDGE_LOOP('',(#796));
#170=EDGE_LOOP('',(#797,#798,#799,#800));
#171=EDGE_LOOP('',(#801,#802,#803,#804));
#172=EDGE_LOOP('',(#805,#806,#807,#808));
#173=EDGE_LOOP('',(#809,#810,#811,#812));
#174=EDGE_LOOP('',(#813,#814,#815,#816,#817));
#175=EDGE_LOOP('',(#818));
#176=EDGE_LOOP('',(#819,#820,#821,#822));
#177=EDGE_LOOP('',(#823,#824,#825,#826));
#178=EDGE_LOOP('',(#827,#828,#829,#830));
#179=EDGE_LOOP('',(#831,#832,#833,#834));
#180=EDGE_LOOP('',(#835,#836,#837,#838,#839));
#181=EDGE_LOOP('',(#840));
#182=EDGE_LOOP('',(#841,#842,#843));
#183=EDGE_LOOP('',(#844,#845,#846));
#184=EDGE_LOOP('',(#847,#848,#849));
#185=EDGE_LOOP('',(#850,#851,#852));
#186=EDGE_LOOP('',(#853,#854,#855,#856));
#187=EDGE_LOOP('',(#857,#858,#859,#860));
#188=EDGE_LOOP('',(#861,#862,#863,#864));
#189=EDGE_LOOP('',(#865,#866,#867,#868));
#190=EDGE_LOOP('',(#869,#870,#871,#872));
#191=EDGE_LOOP('',(#873,#874,#875,#876));
#192=EDGE_LOOP('',(#877,#878,#879,#880));
#193=EDGE_LOOP('',(#881,#882,#883,#884));
#194=EDGE_LOOP('',(#885,#886,#887,#888));
#195=EDGE_LOOP('',(#889,#890,#891,#892));
#196=EDGE_LOOP('',(#893,#894,#895,#896));
#197=EDGE_LOOP('',(#897,#898,#899,#900));
#198=EDGE_LOOP('',(#901,#902,#903,#904,#905,#906,#907,#908,#909,#910,#911,
#912));
#199=EDGE_LOOP('',(#913,#914,#915,#916,#917,#918,#919,#920));
#200=EDGE_LOOP('',(#921,#922,#923,#924));
#201=EDGE_LOOP('',(#925,#926,#927,#928,#929,#930,#931,#932));
#202=EDGE_LOOP('',(#933,#934,#935,#936));
#203=EDGE_LOOP('',(#937,#938,#939,#940));
#204=EDGE_LOOP('',(#941,#942,#943,#944));
#205=LINE('',#1434,#313);
#206=LINE('',#1436,#314);
#207=LINE('',#1438,#315);
#208=LINE('',#1439,#316);
#209=LINE('',#1445,#317);
#210=LINE('',#1448,#318);
#211=LINE('',#1450,#319);
#212=LINE('',#1451,#320);
#213=LINE('',#1458,#321);
#214=LINE('',#1460,#322);
#215=LINE('',#1462,#323);
#216=LINE('',#1463,#324);
#217=LINE('',#1466,#325);
#218=LINE('',#1468,#326);
#219=LINE('',#1469,#327);
#220=LINE('',#1472,#328);
#221=LINE('',#1473,#329);
#222=LINE('',#1476,#330);
#223=LINE('',#1477,#331);
#224=LINE('',#1481,#332);
#225=LINE('',#1483,#333);
#226=LINE('',#1485,#334);
#227=LINE('',#1486,#335);
#228=LINE('',#1489,#336);
#229=LINE('',#1491,#337);
#230=LINE('',#1492,#338);
#231=LINE('',#1495,#339);
#232=LINE('',#1496,#340);
#233=LINE('',#1499,#341);
#234=LINE('',#1500,#342);
#235=LINE('',#1506,#343);
#236=LINE('',#1510,#344);
#237=LINE('',#1514,#345);
#238=LINE('',#1517,#346);
#239=LINE('',#1527,#347);
#240=LINE('',#1529,#348);
#241=LINE('',#1533,#349);
#242=LINE('',#1535,#350);
#243=LINE('',#1537,#351);
#244=LINE('',#1541,#352);
#245=LINE('',#1542,#353);
#246=LINE('',#1544,#354);
#247=LINE('',#1546,#355);
#248=LINE('',#1550,#356);
#249=LINE('',#1552,#357);
#250=LINE('',#1554,#358);
#251=LINE('',#1558,#359);
#252=LINE('',#1559,#360);
#253=LINE('',#1562,#361);
#254=LINE('',#1564,#362);
#255=LINE('',#1566,#363);
#256=LINE('',#1568,#364);
#257=LINE('',#1570,#365);
#258=LINE('',#1572,#366);
#259=LINE('',#1573,#367);
#260=LINE('',#1577,#368);
#261=LINE('',#1580,#369);
#262=LINE('',#1583,#370);
#263=LINE('',#1585,#371);
#264=LINE('',#1588,#372);
#265=LINE('',#1589,#373);
#266=LINE('',#1591,#374);
#267=LINE('',#1595,#375);
#268=LINE('',#1598,#376);
#269=LINE('',#1600,#377);
#270=LINE('',#1601,#378);
#271=LINE('',#1604,#379);
#272=LINE('',#1605,#380);
#273=LINE('',#1609,#381);
#274=LINE('',#1613,#382);
#275=LINE('',#1616,#383);
#276=LINE('',#1619,#384);
#277=LINE('',#1622,#385);
#278=LINE('',#1623,#386);
#279=LINE('',#1626,#387);
#280=LINE('',#1627,#388);
#281=LINE('',#1630,#389);
#282=LINE('',#1631,#390);
#283=LINE('',#1635,#391);
#284=LINE('',#1638,#392);
#285=LINE('',#1641,#393);
#286=LINE('',#1644,#394);
#287=LINE('',#1645,#395);
#288=LINE('',#1648,#396);
#289=LINE('',#1649,#397);
#290=LINE('',#1652,#398);
#291=LINE('',#1653,#399);
#292=LINE('',#1683,#400);
#293=LINE('',#1684,#401);
#294=LINE('',#1686,#402);
#295=LINE('',#1687,#403);
#296=LINE('',#1689,#404);
#297=LINE('',#1690,#405);
#298=LINE('',#1692,#406);
#299=LINE('',#1693,#407);
#300=LINE('',#1695,#408);
#301=LINE('',#1696,#409);
#302=LINE('',#1698,#410);
#303=LINE('',#1699,#411);
#304=LINE('',#1701,#412);
#305=LINE('',#1702,#413);
#306=LINE('',#1704,#414);
#307=LINE('',#1705,#415);
#308=LINE('',#1711,#416);
#309=LINE('',#1713,#417);
#310=LINE('',#1714,#418);
#311=LINE('',#1716,#419);
#312=LINE('',#1718,#420);
#313=VECTOR('',#1142,10.);
#314=VECTOR('',#1143,10.);
#315=VECTOR('',#1144,10.);
#316=VECTOR('',#1145,10.);
#317=VECTOR('',#1152,10.);
#318=VECTOR('',#1155,10.);
#319=VECTOR('',#1156,10.);
#320=VECTOR('',#1157,10.);
#321=VECTOR('',#1166,10.);
#322=VECTOR('',#1167,10.);
#323=VECTOR('',#1168,10.);
#324=VECTOR('',#1169,10.);
#325=VECTOR('',#1172,10.);
#326=VECTOR('',#1173,10.);
#327=VECTOR('',#1174,10.);
#328=VECTOR('',#1177,10.);
#329=VECTOR('',#1178,10.);
#330=VECTOR('',#1181,10.);
#331=VECTOR('',#1182,10.);
#332=VECTOR('',#1185,10.);
#333=VECTOR('',#1186,10.);
#334=VECTOR('',#1187,10.);
#335=VECTOR('',#1188,10.);
#336=VECTOR('',#1191,10.);
#337=VECTOR('',#1192,10.);
#338=VECTOR('',#1193,10.);
#339=VECTOR('',#1196,10.);
#340=VECTOR('',#1197,10.);
#341=VECTOR('',#1200,10.);
#342=VECTOR('',#1201,10.);
#343=VECTOR('',#1206,10.);
#344=VECTOR('',#1209,10.);
#345=VECTOR('',#1212,10.);
#346=VECTOR('',#1215,10.);
#347=VECTOR('',#1224,10.);
#348=VECTOR('',#1225,10.);
#349=VECTOR('',#1228,10.);
#350=VECTOR('',#1229,10.);
#351=VECTOR('',#1230,10.);
#352=VECTOR('',#1233,10.);
#353=VECTOR('',#1234,10.);
#354=VECTOR('',#1235,10.);
#355=VECTOR('',#1236,10.);
#356=VECTOR('',#1239,10.);
#357=VECTOR('',#1240,10.);
#358=VECTOR('',#1241,10.);
#359=VECTOR('',#1244,10.);
#360=VECTOR('',#1245,10.);
#361=VECTOR('',#1248,10.);
#362=VECTOR('',#1249,10.);
#363=VECTOR('',#1250,10.);
#364=VECTOR('',#1251,10.);
#365=VECTOR('',#1252,10.);
#366=VECTOR('',#1253,10.);
#367=VECTOR('',#1254,10.);
#368=VECTOR('',#1259,1.5);
#369=VECTOR('',#1262,10.);
#370=VECTOR('',#1265,10.);
#371=VECTOR('',#1268,10.);
#372=VECTOR('',#1271,10.);
#373=VECTOR('',#1272,10.);
#374=VECTOR('',#1275,10.);
#375=VECTOR('',#1280,1.5);
#376=VECTOR('',#1283,10.);
#377=VECTOR('',#1284,10.);
#378=VECTOR('',#1285,10.);
#379=VECTOR('',#1288,10.);
#380=VECTOR('',#1289,10.);
#381=VECTOR('',#1296,10.);
#382=VECTOR('',#1301,1.5);
#383=VECTOR('',#1304,10.);
#384=VECTOR('',#1307,10.);
#385=VECTOR('',#1310,10.);
#386=VECTOR('',#1311,10.);
#387=VECTOR('',#1314,10.);
#388=VECTOR('',#1315,10.);
#389=VECTOR('',#1318,10.);
#390=VECTOR('',#1319,10.);
#391=VECTOR('',#1324,1.5);
#392=VECTOR('',#1327,10.);
#393=VECTOR('',#1330,10.);
#394=VECTOR('',#1333,10.);
#395=VECTOR('',#1334,10.);
#396=VECTOR('',#1337,10.);
#397=VECTOR('',#1338,10.);
#398=VECTOR('',#1341,10.);
#399=VECTOR('',#1342,10.);
#400=VECTOR('',#1377,10.);
#401=VECTOR('',#1378,10.);
#402=VECTOR('',#1381,10.);
#403=VECTOR('',#1382,10.);
#404=VECTOR('',#1385,10.);
#405=VECTOR('',#1386,10.);
#406=VECTOR('',#1389,10.);
#407=VECTOR('',#1390,10.);
#408=VECTOR('',#1393,10.);
#409=VECTOR('',#1394,10.);
#410=VECTOR('',#1397,10.);
#411=VECTOR('',#1398,10.);
#412=VECTOR('',#1401,10.);
#413=VECTOR('',#1402,10.);
#414=VECTOR('',#1405,10.);
#415=VECTOR('',#1406,10.);
#416=VECTOR('',#1415,10.);
#417=VECTOR('',#1416,10.);
#418=VECTOR('',#1417,10.);
#419=VECTOR('',#1420,10.);
#420=VECTOR('',#1423,10.);
#421=VERTEX_POINT('',#1432);
#422=VERTEX_POINT('',#1433);
#423=VERTEX_POINT('',#1435);
#424=VERTEX_POINT('',#1437);
#425=VERTEX_POINT('',#1441);
#426=VERTEX_POINT('',#1443);
#427=VERTEX_POINT('',#1447);
#428=VERTEX_POINT('',#1449);
#429=VERTEX_POINT('',#1456);
#430=VERTEX_POINT('',#1457);
#431=VERTEX_POINT('',#1459);
#432=VERTEX_POINT('',#1461);
#433=VERTEX_POINT('',#1465);
#434=VERTEX_POINT('',#1467);
#435=VERTEX_POINT('',#1471);
#436=VERTEX_POINT('',#1475);
#437=VERTEX_POINT('',#1479);
#438=VERTEX_POINT('',#1480);
#439=VERTEX_POINT('',#1482);
#440=VERTEX_POINT('',#1484);
#441=VERTEX_POINT('',#1488);
#442=VERTEX_POINT('',#1490);
#443=VERTEX_POINT('',#1494);
#444=VERTEX_POINT('',#1498);
#445=VERTEX_POINT('',#1502);
#446=VERTEX_POINT('',#1503);
#447=VERTEX_POINT('',#1505);
#448=VERTEX_POINT('',#1507);
#449=VERTEX_POINT('',#1509);
#450=VERTEX_POINT('',#1511);
#451=VERTEX_POINT('',#1513);
#452=VERTEX_POINT('',#1515);
#453=VERTEX_POINT('',#1518);
#454=VERTEX_POINT('',#1520);
#455=VERTEX_POINT('',#1522);
#456=VERTEX_POINT('',#1524);
#457=VERTEX_POINT('',#1526);
#458=VERTEX_POINT('',#1528);
#459=VERTEX_POINT('',#1530);
#460=VERTEX_POINT('',#1532);
#461=VERTEX_POINT('',#1534);
#462=VERTEX_POINT('',#1536);
#463=VERTEX_POINT('',#1538);
#464=VERTEX_POINT('',#1540);
#465=VERTEX_POINT('',#1543);
#466=VERTEX_POINT('',#1545);
#467=VERTEX_POINT('',#1547);
#468=VERTEX_POINT('',#1549);
#469=VERTEX_POINT('',#1551);
#470=VERTEX_POINT('',#1553);
#471=VERTEX_POINT('',#1555);
#472=VERTEX_POINT('',#1557);
#473=VERTEX_POINT('',#1561);
#474=VERTEX_POINT('',#1563);
#475=VERTEX_POINT('',#1565);
#476=VERTEX_POINT('',#1567);
#477=VERTEX_POINT('',#1569);
#478=VERTEX_POINT('',#1571);
#479=VERTEX_POINT('',#1575);
#480=VERTEX_POINT('',#1579);
#481=VERTEX_POINT('',#1581);
#482=VERTEX_POINT('',#1587);
#483=VERTEX_POINT('',#1593);
#484=VERTEX_POINT('',#1597);
#485=VERTEX_POINT('',#1599);
#486=VERTEX_POINT('',#1603);
#487=VERTEX_POINT('',#1611);
#488=VERTEX_POINT('',#1615);
#489=VERTEX_POINT('',#1617);
#490=VERTEX_POINT('',#1621);
#491=VERTEX_POINT('',#1625);
#492=VERTEX_POINT('',#1629);
#493=VERTEX_POINT('',#1633);
#494=VERTEX_POINT('',#1637);
#495=VERTEX_POINT('',#1639);
#496=VERTEX_POINT('',#1643);
#497=VERTEX_POINT('',#1647);
#498=VERTEX_POINT('',#1651);
#499=VERTEX_POINT('',#1655);
#500=VERTEX_POINT('',#1656);
#501=VERTEX_POINT('',#1658);
#502=VERTEX_POINT('',#1662);
#503=VERTEX_POINT('',#1663);
#504=VERTEX_POINT('',#1665);
#505=VERTEX_POINT('',#1669);
#506=VERTEX_POINT('',#1670);
#507=VERTEX_POINT('',#1672);
#508=VERTEX_POINT('',#1676);
#509=VERTEX_POINT('',#1677);
#510=VERTEX_POINT('',#1679);
#511=VERTEX_POINT('',#1710);
#512=VERTEX_POINT('',#1712);
#513=EDGE_CURVE('',#421,#422,#205,.T.);
#514=EDGE_CURVE('',#421,#423,#206,.T.);
#515=EDGE_CURVE('',#424,#423,#207,.T.);
#516=EDGE_CURVE('',#422,#424,#208,.T.);
#517=EDGE_CURVE('',#422,#425,#30,.T.);
#518=EDGE_CURVE('',#426,#424,#31,.T.);
#519=EDGE_CURVE('',#425,#426,#209,.T.);
#520=EDGE_CURVE('',#425,#427,#210,.T.);
#521=EDGE_CURVE('',#428,#426,#211,.T.);
#522=EDGE_CURVE('',#427,#428,#212,.T.);
#523=EDGE_CURVE('',#427,#421,#32,.T.);
#524=EDGE_CURVE('',#423,#428,#33,.T.);
#525=EDGE_CURVE('',#429,#430,#213,.T.);
#526=EDGE_CURVE('',#431,#429,#214,.T.);
#527=EDGE_CURVE('',#432,#431,#215,.T.);
#528=EDGE_CURVE('',#430,#432,#216,.T.);
#529=EDGE_CURVE('',#430,#433,#217,.T.);
#530=EDGE_CURVE('',#432,#434,#218,.T.);
#531=EDGE_CURVE('',#434,#433,#219,.T.);
#532=EDGE_CURVE('',#435,#431,#220,.T.);
#533=EDGE_CURVE('',#435,#434,#221,.T.);
#534=EDGE_CURVE('',#433,#436,#222,.T.);
#535=EDGE_CURVE('',#436,#435,#223,.T.);
#536=EDGE_CURVE('',#437,#438,#224,.T.);
#537=EDGE_CURVE('',#439,#437,#225,.T.);
#538=EDGE_CURVE('',#440,#439,#226,.T.);
#539=EDGE_CURVE('',#438,#440,#227,.T.);
#540=EDGE_CURVE('',#439,#441,#228,.T.);
#541=EDGE_CURVE('',#437,#442,#229,.T.);
#542=EDGE_CURVE('',#442,#441,#230,.T.);
#543=EDGE_CURVE('',#443,#438,#231,.T.);
#544=EDGE_CURVE('',#443,#442,#232,.T.);
#545=EDGE_CURVE('',#444,#443,#233,.T.);
#546=EDGE_CURVE('',#441,#444,#234,.T.);
#547=EDGE_CURVE('',#445,#446,#34,.T.);
#548=EDGE_CURVE('',#447,#445,#235,.T.);
#549=EDGE_CURVE('',#448,#447,#35,.T.);
#550=EDGE_CURVE('',#449,#448,#236,.T.);
#551=EDGE_CURVE('',#450,#449,#36,.T.);
#552=EDGE_CURVE('',#451,#450,#237,.T.);
#553=EDGE_CURVE('',#452,#451,#37,.T.);
#554=EDGE_CURVE('',#446,#452,#238,.T.);
#555=EDGE_CURVE('',#453,#453,#38,.T.);
#556=EDGE_CURVE('',#454,#454,#39,.T.);
#557=EDGE_CURVE('',#455,#455,#40,.T.);
#558=EDGE_CURVE('',#456,#456,#41,.T.);
#559=EDGE_CURVE('',#457,#429,#239,.T.);
#560=EDGE_CURVE('',#458,#457,#240,.T.);
#561=EDGE_CURVE('',#459,#458,#42,.T.);
#562=EDGE_CURVE('',#460,#459,#241,.T.);
#563=EDGE_CURVE('',#461,#460,#242,.T.);
#564=EDGE_CURVE('',#462,#461,#243,.T.);
#565=EDGE_CURVE('',#463,#462,#43,.T.);
#566=EDGE_CURVE('',#464,#463,#244,.T.);
#567=EDGE_CURVE('',#440,#464,#245,.T.);
#568=EDGE_CURVE('',#465,#444,#246,.T.);
#569=EDGE_CURVE('',#466,#465,#247,.T.);
#570=EDGE_CURVE('',#467,#466,#44,.T.);
#571=EDGE_CURVE('',#468,#467,#248,.T.);
#572=EDGE_CURVE('',#469,#468,#249,.T.);
#573=EDGE_CURVE('',#470,#469,#250,.T.);
#574=EDGE_CURVE('',#471,#470,#45,.T.);
#575=EDGE_CURVE('',#472,#471,#251,.T.);
#576=EDGE_CURVE('',#436,#472,#252,.T.);
#577=EDGE_CURVE('',#464,#473,#253,.T.);
#578=EDGE_CURVE('',#473,#474,#254,.T.);
#579=EDGE_CURVE('',#475,#474,#255,.T.);
#580=EDGE_CURVE('',#475,#476,#256,.T.);
#581=EDGE_CURVE('',#476,#477,#257,.T.);
#582=EDGE_CURVE('',#477,#478,#258,.T.);
#583=EDGE_CURVE('',#478,#465,#259,.T.);
#584=EDGE_CURVE('',#479,#479,#46,.T.);
#585=EDGE_CURVE('',#479,#456,#260,.T.);
#586=EDGE_CURVE('',#462,#480,#261,.T.);
#587=EDGE_CURVE('',#481,#480,#47,.T.);
#588=EDGE_CURVE('',#463,#481,#262,.T.);
#589=EDGE_CURVE('',#473,#481,#263,.T.);
#590=EDGE_CURVE('',#482,#461,#264,.T.);
#591=EDGE_CURVE('',#480,#482,#265,.T.);
#592=EDGE_CURVE('',#474,#482,#266,.T.);
#593=EDGE_CURVE('',#483,#483,#48,.T.);
#594=EDGE_CURVE('',#483,#455,#267,.T.);
#595=EDGE_CURVE('',#467,#484,#268,.T.);
#596=EDGE_CURVE('',#485,#484,#269,.T.);
#597=EDGE_CURVE('',#468,#485,#270,.T.);
#598=EDGE_CURVE('',#486,#478,#271,.T.);
#599=EDGE_CURVE('',#466,#486,#272,.T.);
#600=EDGE_CURVE('',#484,#486,#49,.T.);
#601=EDGE_CURVE('',#485,#477,#273,.T.);
#602=EDGE_CURVE('',#487,#487,#50,.T.);
#603=EDGE_CURVE('',#487,#454,#274,.T.);
#604=EDGE_CURVE('',#458,#488,#275,.T.);
#605=EDGE_CURVE('',#489,#488,#51,.T.);
#606=EDGE_CURVE('',#459,#489,#276,.T.);
#607=EDGE_CURVE('',#490,#489,#277,.T.);
#608=EDGE_CURVE('',#460,#490,#278,.T.);
#609=EDGE_CURVE('',#491,#457,#279,.T.);
#610=EDGE_CURVE('',#488,#491,#280,.T.);
#611=EDGE_CURVE('',#492,#491,#281,.T.);
#612=EDGE_CURVE('',#490,#492,#282,.T.);
#613=EDGE_CURVE('',#493,#493,#52,.T.);
#614=EDGE_CURVE('',#493,#453,#283,.T.);
#615=EDGE_CURVE('',#470,#494,#284,.T.);
#616=EDGE_CURVE('',#495,#494,#53,.T.);
#617=EDGE_CURVE('',#471,#495,#285,.T.);
#618=EDGE_CURVE('',#496,#495,#286,.T.);
#619=EDGE_CURVE('',#472,#496,#287,.T.);
#620=EDGE_CURVE('',#497,#469,#288,.T.);
#621=EDGE_CURVE('',#494,#497,#289,.T.);
#622=EDGE_CURVE('',#498,#497,#290,.T.);
#623=EDGE_CURVE('',#496,#498,#291,.T.);
#624=EDGE_CURVE('',#499,#500,#54,.F.);
#625=EDGE_CURVE('',#501,#499,#55,.F.);
#626=EDGE_CURVE('',#500,#501,#56,.F.);
#627=EDGE_CURVE('',#502,#503,#57,.F.);
#628=EDGE_CURVE('',#504,#502,#58,.F.);
#629=EDGE_CURVE('',#503,#504,#59,.F.);
#630=EDGE_CURVE('',#505,#506,#60,.F.);
#631=EDGE_CURVE('',#507,#505,#61,.F.);
#632=EDGE_CURVE('',#506,#507,#62,.F.);
#633=EDGE_CURVE('',#508,#509,#63,.F.);
#634=EDGE_CURVE('',#510,#508,#64,.F.);
#635=EDGE_CURVE('',#509,#510,#65,.F.);
#636=EDGE_CURVE('',#505,#510,#292,.T.);
#637=EDGE_CURVE('',#508,#507,#293,.T.);
#638=EDGE_CURVE('',#510,#504,#294,.T.);
#639=EDGE_CURVE('',#502,#509,#295,.T.);
#640=EDGE_CURVE('',#446,#508,#296,.T.);
#641=EDGE_CURVE('',#509,#445,#297,.T.);
#642=EDGE_CURVE('',#451,#506,#298,.T.);
#643=EDGE_CURVE('',#507,#452,#299,.T.);
#644=EDGE_CURVE('',#501,#505,#300,.T.);
#645=EDGE_CURVE('',#506,#500,#301,.T.);
#646=EDGE_CURVE('',#504,#501,#302,.T.);
#647=EDGE_CURVE('',#499,#503,#303,.T.);
#648=EDGE_CURVE('',#447,#502,#304,.T.);
#649=EDGE_CURVE('',#503,#448,#305,.T.);
#650=EDGE_CURVE('',#449,#499,#306,.T.);
#651=EDGE_CURVE('',#500,#450,#307,.T.);
#652=EDGE_CURVE('',#511,#498,#308,.T.);
#653=EDGE_CURVE('',#511,#512,#309,.T.);
#654=EDGE_CURVE('',#512,#492,#310,.T.);
#655=EDGE_CURVE('',#476,#511,#311,.T.);
#656=EDGE_CURVE('',#512,#475,#312,.T.);
#657=ORIENTED_EDGE('',*,*,#513,.F.);
#658=ORIENTED_EDGE('',*,*,#514,.T.);
#659=ORIENTED_EDGE('',*,*,#515,.F.);
#660=ORIENTED_EDGE('',*,*,#516,.F.);
#661=ORIENTED_EDGE('',*,*,#517,.F.);
#662=ORIENTED_EDGE('',*,*,#516,.T.);
#663=ORIENTED_EDGE('',*,*,#518,.F.);
#664=ORIENTED_EDGE('',*,*,#519,.F.);
#665=ORIENTED_EDGE('',*,*,#520,.F.);
#666=ORIENTED_EDGE('',*,*,#519,.T.);
#667=ORIENTED_EDGE('',*,*,#521,.F.);
#668=ORIENTED_EDGE('',*,*,#522,.F.);
#669=ORIENTED_EDGE('',*,*,#523,.F.);
#670=ORIENTED_EDGE('',*,*,#522,.T.);
#671=ORIENTED_EDGE('',*,*,#524,.F.);
#672=ORIENTED_EDGE('',*,*,#514,.F.);
#673=ORIENTED_EDGE('',*,*,#525,.F.);
#674=ORIENTED_EDGE('',*,*,#526,.F.);
#675=ORIENTED_EDGE('',*,*,#527,.F.);
#676=ORIENTED_EDGE('',*,*,#528,.F.);
#677=ORIENTED_EDGE('',*,*,#529,.F.);
#678=ORIENTED_EDGE('',*,*,#528,.T.);
#679=ORIENTED_EDGE('',*,*,#530,.T.);
#680=ORIENTED_EDGE('',*,*,#531,.T.);
#681=ORIENTED_EDGE('',*,*,#530,.F.);
#682=ORIENTED_EDGE('',*,*,#527,.T.);
#683=ORIENTED_EDGE('',*,*,#532,.F.);
#684=ORIENTED_EDGE('',*,*,#533,.T.);
#685=ORIENTED_EDGE('',*,*,#534,.F.);
#686=ORIENTED_EDGE('',*,*,#531,.F.);
#687=ORIENTED_EDGE('',*,*,#533,.F.);
#688=ORIENTED_EDGE('',*,*,#535,.F.);
#689=ORIENTED_EDGE('',*,*,#536,.F.);
#690=ORIENTED_EDGE('',*,*,#537,.F.);
#691=ORIENTED_EDGE('',*,*,#538,.F.);
#692=ORIENTED_EDGE('',*,*,#539,.F.);
#693=ORIENTED_EDGE('',*,*,#540,.F.);
#694=ORIENTED_EDGE('',*,*,#537,.T.);
#695=ORIENTED_EDGE('',*,*,#541,.T.);
#696=ORIENTED_EDGE('',*,*,#542,.T.);
#697=ORIENTED_EDGE('',*,*,#541,.F.);
#698=ORIENTED_EDGE('',*,*,#536,.T.);
#699=ORIENTED_EDGE('',*,*,#543,.F.);
#700=ORIENTED_EDGE('',*,*,#544,.T.);
#701=ORIENTED_EDGE('',*,*,#544,.F.);
#702=ORIENTED_EDGE('',*,*,#545,.F.);
#703=ORIENTED_EDGE('',*,*,#546,.F.);
#704=ORIENTED_EDGE('',*,*,#542,.F.);
#705=ORIENTED_EDGE('',*,*,#547,.F.);
#706=ORIENTED_EDGE('',*,*,#548,.F.);
#707=ORIENTED_EDGE('',*,*,#549,.F.);
#708=ORIENTED_EDGE('',*,*,#550,.F.);
#709=ORIENTED_EDGE('',*,*,#551,.F.);
#710=ORIENTED_EDGE('',*,*,#552,.F.);
#711=ORIENTED_EDGE('',*,*,#553,.F.);
#712=ORIENTED_EDGE('',*,*,#554,.F.);
#713=ORIENTED_EDGE('',*,*,#555,.F.);
#714=ORIENTED_EDGE('',*,*,#556,.F.);
#715=ORIENTED_EDGE('',*,*,#557,.F.);
#716=ORIENTED_EDGE('',*,*,#558,.F.);
#717=ORIENTED_EDGE('',*,*,#535,.T.);
#718=ORIENTED_EDGE('',*,*,#532,.T.);
#719=ORIENTED_EDGE('',*,*,#526,.T.);
#720=ORIENTED_EDGE('',*,*,#559,.F.);
#721=ORIENTED_EDGE('',*,*,#560,.F.);
#722=ORIENTED_EDGE('',*,*,#561,.F.);
#723=ORIENTED_EDGE('',*,*,#562,.F.);
#724=ORIENTED_EDGE('',*,*,#563,.F.);
#725=ORIENTED_EDGE('',*,*,#564,.F.);
#726=ORIENTED_EDGE('',*,*,#565,.F.);
#727=ORIENTED_EDGE('',*,*,#566,.F.);
#728=ORIENTED_EDGE('',*,*,#567,.F.);
#729=ORIENTED_EDGE('',*,*,#538,.T.);
#730=ORIENTED_EDGE('',*,*,#540,.T.);
#731=ORIENTED_EDGE('',*,*,#546,.T.);
#732=ORIENTED_EDGE('',*,*,#568,.F.);
#733=ORIENTED_EDGE('',*,*,#569,.F.);
#734=ORIENTED_EDGE('',*,*,#570,.F.);
#735=ORIENTED_EDGE('',*,*,#571,.F.);
#736=ORIENTED_EDGE('',*,*,#572,.F.);
#737=ORIENTED_EDGE('',*,*,#573,.F.);
#738=ORIENTED_EDGE('',*,*,#574,.F.);
#739=ORIENTED_EDGE('',*,*,#575,.F.);
#740=ORIENTED_EDGE('',*,*,#576,.F.);
#741=ORIENTED_EDGE('',*,*,#545,.T.);
#742=ORIENTED_EDGE('',*,*,#543,.T.);
#743=ORIENTED_EDGE('',*,*,#539,.T.);
#744=ORIENTED_EDGE('',*,*,#567,.T.);
#745=ORIENTED_EDGE('',*,*,#577,.T.);
#746=ORIENTED_EDGE('',*,*,#578,.T.);
#747=ORIENTED_EDGE('',*,*,#579,.F.);
#748=ORIENTED_EDGE('',*,*,#580,.T.);
#749=ORIENTED_EDGE('',*,*,#581,.T.);
#750=ORIENTED_EDGE('',*,*,#582,.T.);
#751=ORIENTED_EDGE('',*,*,#583,.T.);
#752=ORIENTED_EDGE('',*,*,#568,.T.);
#753=ORIENTED_EDGE('',*,*,#584,.F.);
#754=ORIENTED_EDGE('',*,*,#585,.T.);
#755=ORIENTED_EDGE('',*,*,#558,.T.);
#756=ORIENTED_EDGE('',*,*,#585,.F.);
#757=ORIENTED_EDGE('',*,*,#565,.T.);
#758=ORIENTED_EDGE('',*,*,#586,.T.);
#759=ORIENTED_EDGE('',*,*,#587,.F.);
#760=ORIENTED_EDGE('',*,*,#588,.F.);
#761=ORIENTED_EDGE('',*,*,#566,.T.);
#762=ORIENTED_EDGE('',*,*,#588,.T.);
#763=ORIENTED_EDGE('',*,*,#589,.F.);
#764=ORIENTED_EDGE('',*,*,#577,.F.);
#765=ORIENTED_EDGE('',*,*,#564,.T.);
#766=ORIENTED_EDGE('',*,*,#590,.F.);
#767=ORIENTED_EDGE('',*,*,#591,.F.);
#768=ORIENTED_EDGE('',*,*,#586,.F.);
#769=ORIENTED_EDGE('',*,*,#591,.T.);
#770=ORIENTED_EDGE('',*,*,#592,.F.);
#771=ORIENTED_EDGE('',*,*,#578,.F.);
#772=ORIENTED_EDGE('',*,*,#589,.T.);
#773=ORIENTED_EDGE('',*,*,#587,.T.);
#774=ORIENTED_EDGE('',*,*,#584,.T.);
#775=ORIENTED_EDGE('',*,*,#593,.F.);
#776=ORIENTED_EDGE('',*,*,#594,.T.);
#777=ORIENTED_EDGE('',*,*,#557,.T.);
#778=ORIENTED_EDGE('',*,*,#594,.F.);
#779=ORIENTED_EDGE('',*,*,#571,.T.);
#780=ORIENTED_EDGE('',*,*,#595,.T.);
#781=ORIENTED_EDGE('',*,*,#596,.F.);
#782=ORIENTED_EDGE('',*,*,#597,.F.);
#783=ORIENTED_EDGE('',*,*,#569,.T.);
#784=ORIENTED_EDGE('',*,*,#583,.F.);
#785=ORIENTED_EDGE('',*,*,#598,.F.);
#786=ORIENTED_EDGE('',*,*,#599,.F.);
#787=ORIENTED_EDGE('',*,*,#570,.T.);
#788=ORIENTED_EDGE('',*,*,#599,.T.);
#789=ORIENTED_EDGE('',*,*,#600,.F.);
#790=ORIENTED_EDGE('',*,*,#595,.F.);
#791=ORIENTED_EDGE('',*,*,#600,.T.);
#792=ORIENTED_EDGE('',*,*,#598,.T.);
#793=ORIENTED_EDGE('',*,*,#582,.F.);
#794=ORIENTED_EDGE('',*,*,#601,.F.);
#795=ORIENTED_EDGE('',*,*,#596,.T.);
#796=ORIENTED_EDGE('',*,*,#593,.T.);
#797=ORIENTED_EDGE('',*,*,#602,.F.);
#798=ORIENTED_EDGE('',*,*,#603,.T.);
#799=ORIENTED_EDGE('',*,*,#556,.T.);
#800=ORIENTED_EDGE('',*,*,#603,.F.);
#801=ORIENTED_EDGE('',*,*,#561,.T.);
#802=ORIENTED_EDGE('',*,*,#604,.T.);
#803=ORIENTED_EDGE('',*,*,#605,.F.);
#804=ORIENTED_EDGE('',*,*,#606,.F.);
#805=ORIENTED_EDGE('',*,*,#562,.T.);
#806=ORIENTED_EDGE('',*,*,#606,.T.);
#807=ORIENTED_EDGE('',*,*,#607,.F.);
#808=ORIENTED_EDGE('',*,*,#608,.F.);
#809=ORIENTED_EDGE('',*,*,#560,.T.);
#810=ORIENTED_EDGE('',*,*,#609,.F.);
#811=ORIENTED_EDGE('',*,*,#610,.F.);
#812=ORIENTED_EDGE('',*,*,#604,.F.);
#813=ORIENTED_EDGE('',*,*,#610,.T.);
#814=ORIENTED_EDGE('',*,*,#611,.F.);
#815=ORIENTED_EDGE('',*,*,#612,.F.);
#816=ORIENTED_EDGE('',*,*,#607,.T.);
#817=ORIENTED_EDGE('',*,*,#605,.T.);
#818=ORIENTED_EDGE('',*,*,#602,.T.);
#819=ORIENTED_EDGE('',*,*,#613,.F.);
#820=ORIENTED_EDGE('',*,*,#614,.T.);
#821=ORIENTED_EDGE('',*,*,#555,.T.);
#822=ORIENTED_EDGE('',*,*,#614,.F.);
#823=ORIENTED_EDGE('',*,*,#574,.T.);
#824=ORIENTED_EDGE('',*,*,#615,.T.);
#825=ORIENTED_EDGE('',*,*,#616,.F.);
#826=ORIENTED_EDGE('',*,*,#617,.F.);
#827=ORIENTED_EDGE('',*,*,#575,.T.);
#828=ORIENTED_EDGE('',*,*,#617,.T.);
#829=ORIENTED_EDGE('',*,*,#618,.F.);
#830=ORIENTED_EDGE('',*,*,#619,.F.);
#831=ORIENTED_EDGE('',*,*,#573,.T.);
#832=ORIENTED_EDGE('',*,*,#620,.F.);
#833=ORIENTED_EDGE('',*,*,#621,.F.);
#834=ORIENTED_EDGE('',*,*,#615,.F.);
#835=ORIENTED_EDGE('',*,*,#621,.T.);
#836=ORIENTED_EDGE('',*,*,#622,.F.);
#837=ORIENTED_EDGE('',*,*,#623,.F.);
#838=ORIENTED_EDGE('',*,*,#618,.T.);
#839=ORIENTED_EDGE('',*,*,#616,.T.);
#840=ORIENTED_EDGE('',*,*,#613,.T.);
#841=ORIENTED_EDGE('',*,*,#624,.F.);
#842=ORIENTED_EDGE('',*,*,#625,.F.);
#843=ORIENTED_EDGE('',*,*,#626,.F.);
#844=ORIENTED_EDGE('',*,*,#627,.F.);
#845=ORIENTED_EDGE('',*,*,#628,.F.);
#846=ORIENTED_EDGE('',*,*,#629,.F.);
#847=ORIENTED_EDGE('',*,*,#630,.F.);
#848=ORIENTED_EDGE('',*,*,#631,.F.);
#849=ORIENTED_EDGE('',*,*,#632,.F.);
#850=ORIENTED_EDGE('',*,*,#633,.F.);
#851=ORIENTED_EDGE('',*,*,#634,.F.);
#852=ORIENTED_EDGE('',*,*,#635,.F.);
#853=ORIENTED_EDGE('',*,*,#631,.T.);
#854=ORIENTED_EDGE('',*,*,#636,.T.);
#855=ORIENTED_EDGE('',*,*,#634,.T.);
#856=ORIENTED_EDGE('',*,*,#637,.T.);
#857=ORIENTED_EDGE('',*,*,#635,.T.);
#858=ORIENTED_EDGE('',*,*,#638,.T.);
#859=ORIENTED_EDGE('',*,*,#628,.T.);
#860=ORIENTED_EDGE('',*,*,#639,.T.);
#861=ORIENTED_EDGE('',*,*,#547,.T.);
#862=ORIENTED_EDGE('',*,*,#640,.T.);
#863=ORIENTED_EDGE('',*,*,#633,.T.);
#864=ORIENTED_EDGE('',*,*,#641,.T.);
#865=ORIENTED_EDGE('',*,*,#553,.T.);
#866=ORIENTED_EDGE('',*,*,#642,.T.);
#867=ORIENTED_EDGE('',*,*,#632,.T.);
#868=ORIENTED_EDGE('',*,*,#643,.T.);
#869=ORIENTED_EDGE('',*,*,#626,.T.);
#870=ORIENTED_EDGE('',*,*,#644,.T.);
#871=ORIENTED_EDGE('',*,*,#630,.T.);
#872=ORIENTED_EDGE('',*,*,#645,.T.);
#873=ORIENTED_EDGE('',*,*,#629,.T.);
#874=ORIENTED_EDGE('',*,*,#646,.T.);
#875=ORIENTED_EDGE('',*,*,#625,.T.);
#876=ORIENTED_EDGE('',*,*,#647,.T.);
#877=ORIENTED_EDGE('',*,*,#549,.T.);
#878=ORIENTED_EDGE('',*,*,#648,.T.);
#879=ORIENTED_EDGE('',*,*,#627,.T.);
#880=ORIENTED_EDGE('',*,*,#649,.T.);
#881=ORIENTED_EDGE('',*,*,#551,.T.);
#882=ORIENTED_EDGE('',*,*,#650,.T.);
#883=ORIENTED_EDGE('',*,*,#624,.T.);
#884=ORIENTED_EDGE('',*,*,#651,.T.);
#885=ORIENTED_EDGE('',*,*,#641,.F.);
#886=ORIENTED_EDGE('',*,*,#639,.F.);
#887=ORIENTED_EDGE('',*,*,#648,.F.);
#888=ORIENTED_EDGE('',*,*,#548,.T.);
#889=ORIENTED_EDGE('',*,*,#649,.F.);
#890=ORIENTED_EDGE('',*,*,#647,.F.);
#891=ORIENTED_EDGE('',*,*,#650,.F.);
#892=ORIENTED_EDGE('',*,*,#550,.T.);
#893=ORIENTED_EDGE('',*,*,#521,.T.);
#894=ORIENTED_EDGE('',*,*,#518,.T.);
#895=ORIENTED_EDGE('',*,*,#515,.T.);
#896=ORIENTED_EDGE('',*,*,#524,.T.);
#897=ORIENTED_EDGE('',*,*,#636,.F.);
#898=ORIENTED_EDGE('',*,*,#644,.F.);
#899=ORIENTED_EDGE('',*,*,#646,.F.);
#900=ORIENTED_EDGE('',*,*,#638,.F.);
#901=ORIENTED_EDGE('',*,*,#534,.T.);
#902=ORIENTED_EDGE('',*,*,#576,.T.);
#903=ORIENTED_EDGE('',*,*,#619,.T.);
#904=ORIENTED_EDGE('',*,*,#623,.T.);
#905=ORIENTED_EDGE('',*,*,#652,.F.);
#906=ORIENTED_EDGE('',*,*,#653,.T.);
#907=ORIENTED_EDGE('',*,*,#654,.T.);
#908=ORIENTED_EDGE('',*,*,#611,.T.);
#909=ORIENTED_EDGE('',*,*,#609,.T.);
#910=ORIENTED_EDGE('',*,*,#559,.T.);
#911=ORIENTED_EDGE('',*,*,#525,.T.);
#912=ORIENTED_EDGE('',*,*,#529,.T.);
#913=ORIENTED_EDGE('',*,*,#601,.T.);
#914=ORIENTED_EDGE('',*,*,#581,.F.);
#915=ORIENTED_EDGE('',*,*,#655,.T.);
#916=ORIENTED_EDGE('',*,*,#652,.T.);
#917=ORIENTED_EDGE('',*,*,#622,.T.);
#918=ORIENTED_EDGE('',*,*,#620,.T.);
#919=ORIENTED_EDGE('',*,*,#572,.T.);
#920=ORIENTED_EDGE('',*,*,#597,.T.);
#921=ORIENTED_EDGE('',*,*,#520,.T.);
#922=ORIENTED_EDGE('',*,*,#523,.T.);
#923=ORIENTED_EDGE('',*,*,#513,.T.);
#924=ORIENTED_EDGE('',*,*,#517,.T.);
#925=ORIENTED_EDGE('',*,*,#590,.T.);
#926=ORIENTED_EDGE('',*,*,#563,.T.);
#927=ORIENTED_EDGE('',*,*,#608,.T.);
#928=ORIENTED_EDGE('',*,*,#612,.T.);
#929=ORIENTED_EDGE('',*,*,#654,.F.);
#930=ORIENTED_EDGE('',*,*,#656,.T.);
#931=ORIENTED_EDGE('',*,*,#579,.T.);
#932=ORIENTED_EDGE('',*,*,#592,.T.);
#933=ORIENTED_EDGE('',*,*,#656,.F.);
#934=ORIENTED_EDGE('',*,*,#653,.F.);
#935=ORIENTED_EDGE('',*,*,#655,.F.);
#936=ORIENTED_EDGE('',*,*,#580,.F.);
#937=ORIENTED_EDGE('',*,*,#640,.F.);
#938=ORIENTED_EDGE('',*,*,#554,.T.);
#939=ORIENTED_EDGE('',*,*,#643,.F.);
#940=ORIENTED_EDGE('',*,*,#637,.F.);
#941=ORIENTED_EDGE('',*,*,#642,.F.);
#942=ORIENTED_EDGE('',*,*,#552,.T.);
#943=ORIENTED_EDGE('',*,*,#651,.F.);
#944=ORIENTED_EDGE('',*,*,#645,.F.);
#945=PLANE('',#1047);
#946=PLANE('',#1051);
#947=PLANE('',#1055);
#948=PLANE('',#1056);
#949=PLANE('',#1057);
#950=PLANE('',#1058);
#951=PLANE('',#1059);
#952=PLANE('',#1060);
#953=PLANE('',#1061);
#954=PLANE('',#1062);
#955=PLANE('',#1063);
#956=PLANE('',#1076);
#957=PLANE('',#1081);
#958=PLANE('',#1082);
#959=PLANE('',#1083);
#960=PLANE('',#1086);
#961=PLANE('',#1087);
#962=PLANE('',#1090);
#963=PLANE('',#1095);
#964=PLANE('',#1096);
#965=PLANE('',#1097);
#966=PLANE('',#1102);
#967=PLANE('',#1103);
#968=PLANE('',#1104);
#969=PLANE('',#1129);
#970=PLANE('',#1130);
#971=PLANE('',#1131);
#972=PLANE('',#1132);
#973=PLANE('',#1133);
#974=PLANE('',#1134);
#975=PLANE('',#1135);
#976=PLANE('',#1136);
#977=PLANE('',#1137);
#978=ADVANCED_FACE('',(#84),#945,.F.);
#979=ADVANCED_FACE('',(#85),#66,.F.);
#980=ADVANCED_FACE('',(#86),#946,.F.);
#981=ADVANCED_FACE('',(#87),#67,.F.);
#982=ADVANCED_FACE('',(#88),#947,.F.);
#983=ADVANCED_FACE('',(#89),#948,.F.);
#984=ADVANCED_FACE('',(#90),#949,.F.);
#985=ADVANCED_FACE('',(#91),#950,.F.);
#986=ADVANCED_FACE('',(#92),#951,.F.);
#987=ADVANCED_FACE('',(#93),#952,.F.);
#988=ADVANCED_FACE('',(#94),#953,.F.);
#989=ADVANCED_FACE('',(#95),#954,.F.);
#990=ADVANCED_FACE('',(#96,#19,#20,#21,#22,#23),#955,.F.);
#991=ADVANCED_FACE('',(#97),#956,.F.);
#992=ADVANCED_FACE('',(#98),#68,.F.);
#993=ADVANCED_FACE('',(#99),#69,.T.);
#994=ADVANCED_FACE('',(#100),#957,.T.);
#995=ADVANCED_FACE('',(#101),#958,.T.);
#996=ADVANCED_FACE('',(#102,#24),#959,.F.);
#997=ADVANCED_FACE('',(#103),#70,.F.);
#998=ADVANCED_FACE('',(#104),#960,.T.);
#999=ADVANCED_FACE('',(#105),#961,.T.);
#1000=ADVANCED_FACE('',(#106),#71,.T.);
#1001=ADVANCED_FACE('',(#107,#25),#962,.F.);
#1002=ADVANCED_FACE('',(#108),#72,.F.);
#1003=ADVANCED_FACE('',(#109),#73,.T.);
#1004=ADVANCED_FACE('',(#110),#963,.T.);
#1005=ADVANCED_FACE('',(#111),#964,.T.);
#1006=ADVANCED_FACE('',(#112,#26),#965,.F.);
#1007=ADVANCED_FACE('',(#113),#74,.F.);
#1008=ADVANCED_FACE('',(#114),#75,.T.);
#1009=ADVANCED_FACE('',(#115),#966,.T.);
#1010=ADVANCED_FACE('',(#116),#967,.T.);
#1011=ADVANCED_FACE('',(#117,#27),#968,.F.);
#1012=ADVANCED_FACE('',(#118),#15,.T.);
#1013=ADVANCED_FACE('',(#119),#16,.T.);
#1014=ADVANCED_FACE('',(#120),#17,.T.);
#1015=ADVANCED_FACE('',(#121),#18,.T.);
#1016=ADVANCED_FACE('',(#122),#76,.T.);
#1017=ADVANCED_FACE('',(#123),#77,.T.);
#1018=ADVANCED_FACE('',(#124),#78,.T.);
#1019=ADVANCED_FACE('',(#125),#79,.T.);
#1020=ADVANCED_FACE('',(#126),#80,.T.);
#1021=ADVANCED_FACE('',(#127),#81,.T.);
#1022=ADVANCED_FACE('',(#128),#82,.T.);
#1023=ADVANCED_FACE('',(#129),#83,.T.);
#1024=ADVANCED_FACE('',(#130),#969,.T.);
#1025=ADVANCED_FACE('',(#131,#28),#970,.T.);
#1026=ADVANCED_FACE('',(#132),#971,.F.);
#1027=ADVANCED_FACE('',(#133),#972,.F.);
#1028=ADVANCED_FACE('',(#134,#29),#973,.F.);
#1029=ADVANCED_FACE('',(#135),#974,.F.);
#1030=ADVANCED_FACE('',(#136),#975,.T.);
#1031=ADVANCED_FACE('',(#137),#976,.T.);
#1032=ADVANCED_FACE('',(#138),#977,.T.);
#1033=CLOSED_SHELL('',(#978,#979,#980,#981,#982,#983,#984,#985,#986,#987,
#988,#989,#990,#991,#992,#993,#994,#995,#996,#997,#998,#999,#1000,#1001,
#1002,#1003,#1004,#1005,#1006,#1007,#1008,#1009,#1010,#1011,#1012,#1013,
#1014,#1015,#1016,#1017,#1018,#1019,#1020,#1021,#1022,#1023,#1024,#1025,
#1026,#1027,#1028,#1029,#1030,#1031,#1032));
#1034=DERIVED_UNIT_ELEMENT(#1036,1.);
#1035=DERIVED_UNIT_ELEMENT(#1727,-3.);
#1036=(
MASS_UNIT()
NAMED_UNIT(*)
SI_UNIT(.KILO.,.GRAM.)
);
#1037=DERIVED_UNIT((#1034,#1035));
#1038=MEASURE_REPRESENTATION_ITEM('density measure',
POSITIVE_RATIO_MEASURE(7850.),#1037);
#1039=PROPERTY_DEFINITION_REPRESENTATION(#1044,#1041);
#1040=PROPERTY_DEFINITION_REPRESENTATION(#1045,#1042);
#1041=REPRESENTATION('material name',(#1043),#1724);
#1042=REPRESENTATION('density',(#1038),#1724);
#1043=DESCRIPTIVE_REPRESENTATION_ITEM('Steel','Steel');
#1044=PROPERTY_DEFINITION('material property','material name',#1734);
#1045=PROPERTY_DEFINITION('material property','density of part',#1734);
#1046=AXIS2_PLACEMENT_3D('',#1430,#1138,#1139);
#1047=AXIS2_PLACEMENT_3D('',#1431,#1140,#1141);
#1048=AXIS2_PLACEMENT_3D('',#1440,#1146,#1147);
#1049=AXIS2_PLACEMENT_3D('',#1442,#1148,#1149);
#1050=AXIS2_PLACEMENT_3D('',#1444,#1150,#1151);
#1051=AXIS2_PLACEMENT_3D('',#1446,#1153,#1154);
#1052=AXIS2_PLACEMENT_3D('',#1452,#1158,#1159);
#1053=AXIS2_PLACEMENT_3D('',#1453,#1160,#1161);
#1054=AXIS2_PLACEMENT_3D('',#1454,#1162,#1163);
#1055=AXIS2_PLACEMENT_3D('',#1455,#1164,#1165);
#1056=AXIS2_PLACEMENT_3D('',#1464,#1170,#1171);
#1057=AXIS2_PLACEMENT_3D('',#1470,#1175,#1176);
#1058=AXIS2_PLACEMENT_3D('',#1474,#1179,#1180);
#1059=AXIS2_PLACEMENT_3D('',#1478,#1183,#1184);
#1060=AXIS2_PLACEMENT_3D('',#1487,#1189,#1190);
#1061=AXIS2_PLACEMENT_3D('',#1493,#1194,#1195);
#1062=AXIS2_PLACEMENT_3D('',#1497,#1198,#1199);
#1063=AXIS2_PLACEMENT_3D('',#1501,#1202,#1203);
#1064=AXIS2_PLACEMENT_3D('',#1504,#1204,#1205);
#1065=AXIS2_PLACEMENT_3D('',#1508,#1207,#1208);
#1066=AXIS2_PLACEMENT_3D('',#1512,#1210,#1211);
#1067=AXIS2_PLACEMENT_3D('',#1516,#1213,#1214);
#1068=AXIS2_PLACEMENT_3D('',#1519,#1216,#1217);
#1069=AXIS2_PLACEMENT_3D('',#1521,#1218,#1219);
#1070=AXIS2_PLACEMENT_3D('',#1523,#1220,#1221);
#1071=AXIS2_PLACEMENT_3D('',#1525,#1222,#1223);
#1072=AXIS2_PLACEMENT_3D('',#1531,#1226,#1227);
#1073=AXIS2_PLACEMENT_3D('',#1539,#1231,#1232);
#1074=AXIS2_PLACEMENT_3D('',#1548,#1237,#1238);
#1075=AXIS2_PLACEMENT_3D('',#1556,#1242,#1243);
#1076=AXIS2_PLACEMENT_3D('',#1560,#1246,#1247);
#1077=AXIS2_PLACEMENT_3D('',#1574,#1255,#1256);
#1078=AXIS2_PLACEMENT_3D('',#1576,#1257,#1258);
#1079=AXIS2_PLACEMENT_3D('',#1578,#1260,#1261);
#1080=AXIS2_PLACEMENT_3D('',#1582,#1263,#1264);
#1081=AXIS2_PLACEMENT_3D('',#1584,#1266,#1267);
#1082=AXIS2_PLACEMENT_3D('',#1586,#1269,#1270);
#1083=AXIS2_PLACEMENT_3D('',#1590,#1273,#1274);
#1084=AXIS2_PLACEMENT_3D('',#1592,#1276,#1277);
#1085=AXIS2_PLACEMENT_3D('',#1594,#1278,#1279);
#1086=AXIS2_PLACEMENT_3D('',#1596,#1281,#1282);
#1087=AXIS2_PLACEMENT_3D('',#1602,#1286,#1287);
#1088=AXIS2_PLACEMENT_3D('',#1606,#1290,#1291);
#1089=AXIS2_PLACEMENT_3D('',#1607,#1292,#1293);
#1090=AXIS2_PLACEMENT_3D('',#1608,#1294,#1295);
#1091=AXIS2_PLACEMENT_3D('',#1610,#1297,#1298);
#1092=AXIS2_PLACEMENT_3D('',#1612,#1299,#1300);
#1093=AXIS2_PLACEMENT_3D('',#1614,#1302,#1303);
#1094=AXIS2_PLACEMENT_3D('',#1618,#1305,#1306);
#1095=AXIS2_PLACEMENT_3D('',#1620,#1308,#1309);
#1096=AXIS2_PLACEMENT_3D('',#1624,#1312,#1313);
#1097=AXIS2_PLACEMENT_3D('',#1628,#1316,#1317);
#1098=AXIS2_PLACEMENT_3D('',#1632,#1320,#1321);
#1099=AXIS2_PLACEMENT_3D('',#1634,#1322,#1323);
#1100=AXIS2_PLACEMENT_3D('',#1636,#1325,#1326);
#1101=AXIS2_PLACEMENT_3D('',#1640,#1328,#1329);
#1102=AXIS2_PLACEMENT_3D('',#1642,#1331,#1332);
#1103=AXIS2_PLACEMENT_3D('',#1646,#1335,#1336);
#1104=AXIS2_PLACEMENT_3D('',#1650,#1339,#1340);
#1105=AXIS2_PLACEMENT_3D('',#1654,#1343,#1344);
#1106=AXIS2_PLACEMENT_3D('',#1657,#1345,#1346);
#1107=AXIS2_PLACEMENT_3D('',#1659,#1347,#1348);
#1108=AXIS2_PLACEMENT_3D('',#1660,#1349,#1350);
#1109=AXIS2_PLACEMENT_3D('',#1661,#1351,#1352);
#1110=AXIS2_PLACEMENT_3D('',#1664,#1353,#1354);
#1111=AXIS2_PLACEMENT_3D('',#1666,#1355,#1356);
#1112=AXIS2_PLACEMENT_3D('',#1667,#1357,#1358);
#1113=AXIS2_PLACEMENT_3D('',#1668,#1359,#1360);
#1114=AXIS2_PLACEMENT_3D('',#1671,#1361,#1362);
#1115=AXIS2_PLACEMENT_3D('',#1673,#1363,#1364);
#1116=AXIS2_PLACEMENT_3D('',#1674,#1365,#1366);
#1117=AXIS2_PLACEMENT_3D('',#1675,#1367,#1368);
#1118=AXIS2_PLACEMENT_3D('',#1678,#1369,#1370);
#1119=AXIS2_PLACEMENT_3D('',#1680,#1371,#1372);
#1120=AXIS2_PLACEMENT_3D('',#1681,#1373,#1374);
#1121=AXIS2_PLACEMENT_3D('',#1682,#1375,#1376);
#1122=AXIS2_PLACEMENT_3D('',#1685,#1379,#1380);
#1123=AXIS2_PLACEMENT_3D('',#1688,#1383,#1384);
#1124=AXIS2_PLACEMENT_3D('',#1691,#1387,#1388);
#1125=AXIS2_PLACEMENT_3D('',#1694,#1391,#1392);
#1126=AXIS2_PLACEMENT_3D('',#1697,#1395,#1396);
#1127=AXIS2_PLACEMENT_3D('',#1700,#1399,#1400);
#1128=AXIS2_PLACEMENT_3D('',#1703,#1403,#1404);
#1129=AXIS2_PLACEMENT_3D('',#1706,#1407,#1408);
#1130=AXIS2_PLACEMENT_3D('',#1707,#1409,#1410);
#1131=AXIS2_PLACEMENT_3D('',#1708,#1411,#1412);
#1132=AXIS2_PLACEMENT_3D('',#1709,#1413,#1414);
#1133=AXIS2_PLACEMENT_3D('',#1715,#1418,#1419);
#1134=AXIS2_PLACEMENT_3D('',#1717,#1421,#1422);
#1135=AXIS2_PLACEMENT_3D('',#1719,#1424,#1425);
#1136=AXIS2_PLACEMENT_3D('',#1720,#1426,#1427);
#1137=AXIS2_PLACEMENT_3D('',#1721,#1428,#1429);
#1138=DIRECTION('axis',(0.,0.,1.));
#1139=DIRECTION('refdir',(1.,0.,0.));
#1140=DIRECTION('center_axis',(0.,0.,-1.));
#1141=DIRECTION('ref_axis',(-1.,0.,0.));
#1142=DIRECTION('',(-1.,0.,0.));
#1143=DIRECTION('',(0.,1.,0.));
#1144=DIRECTION('',(1.,0.,0.));
#1145=DIRECTION('',(0.,1.,0.));
#1146=DIRECTION('center_axis',(0.,1.,0.));
#1147=DIRECTION('ref_axis',(0.,0.,-1.));
#1148=DIRECTION('center_axis',(0.,1.,0.));
#1149=DIRECTION('ref_axis',(0.,0.,-1.));
#1150=DIRECTION('center_axis',(0.,-1.,0.));
#1151=DIRECTION('ref_axis',(0.,0.,-1.));
#1152=DIRECTION('',(0.,1.,0.));
#1153=DIRECTION('center_axis',(0.,0.,1.));
#1154=DIRECTION('ref_axis',(1.,0.,0.));
#1155=DIRECTION('',(1.,0.,0.));
#1156=DIRECTION('',(-1.,0.,0.));
#1157=DIRECTION('',(0.,1.,0.));
#1158=DIRECTION('center_axis',(0.,1.,0.));
#1159=DIRECTION('ref_axis',(0.,0.,1.));
#1160=DIRECTION('center_axis',(0.,1.,0.));
#1161=DIRECTION('ref_axis',(0.,0.,1.));
#1162=DIRECTION('center_axis',(0.,-1.,0.));
#1163=DIRECTION('ref_axis',(0.,0.,1.));
#1164=DIRECTION('center_axis',(0.,-1.,0.));
#1165=DIRECTION('ref_axis',(0.,0.,-1.));
#1166=DIRECTION('',(0.,0.,-1.));
#1167=DIRECTION('',(-1.,0.,0.));
#1168=DIRECTION('',(0.,0.,1.));
#1169=DIRECTION('',(1.,0.,0.));
#1170=DIRECTION('center_axis',(0.,0.,-1.));
#1171=DIRECTION('ref_axis',(-1.,0.,0.));
#1172=DIRECTION('',(0.,1.,0.));
#1173=DIRECTION('',(0.,1.,0.));
#1174=DIRECTION('',(-1.,0.,0.));
#1175=DIRECTION('center_axis',(1.,0.,0.));
#1176=DIRECTION('ref_axis',(0.,0.,-1.));
#1177=DIRECTION('',(0.,-1.,0.));
#1178=DIRECTION('',(0.,0.,-1.));
#1179=DIRECTION('center_axis',(0.,1.,0.));
#1180=DIRECTION('ref_axis',(0.,0.,1.));
#1181=DIRECTION('',(0.,0.,1.));
#1182=DIRECTION('',(1.,0.,0.));
#1183=DIRECTION('center_axis',(0.,-1.,0.));
#1184=DIRECTION('ref_axis',(0.,0.,-1.));
#1185=DIRECTION('',(1.,0.,0.));
#1186=DIRECTION('',(0.,0.,-1.));
#1187=DIRECTION('',(-1.,0.,0.));
#1188=DIRECTION('',(0.,0.,1.));
#1189=DIRECTION('center_axis',(-1.,0.,0.));
#1190=DIRECTION('ref_axis',(0.,0.,1.));
#1191=DIRECTION('',(0.,1.,0.));
#1192=DIRECTION('',(0.,1.,0.));
#1193=DIRECTION('',(0.,0.,1.));
#1194=DIRECTION('center_axis',(0.,0.,-1.));
#1195=DIRECTION('ref_axis',(-1.,0.,0.));
#1196=DIRECTION('',(0.,-1.,0.));
#1197=DIRECTION('',(-1.,0.,0.));
#1198=DIRECTION('center_axis',(0.,1.,0.));
#1199=DIRECTION('ref_axis',(0.,0.,1.));
#1200=DIRECTION('',(0.,0.,-1.));
#1201=DIRECTION('',(1.,0.,0.));
#1202=DIRECTION('center_axis',(0.,0.,-1.));
#1203=DIRECTION('ref_axis',(-1.,0.,0.));
#1204=DIRECTION('center_axis',(0.,0.,-1.));
#1205=DIRECTION('ref_axis',(0.707106781186543,-0.707106781186552,0.));
#1206=DIRECTION('',(0.,-1.,0.));
#1207=DIRECTION('center_axis',(0.,0.,-1.));
#1208=DIRECTION('ref_axis',(0.707106781186543,0.707106781186552,0.));
#1209=DIRECTION('',(1.,0.,0.));
#1210=DIRECTION('center_axis',(0.,0.,-1.));
#1211=DIRECTION('ref_axis',(-0.707106781186543,0.707106781186552,0.));
#1212=DIRECTION('',(0.,1.,0.));
#1213=DIRECTION('center_axis',(0.,0.,-1.));
#1214=DIRECTION('ref_axis',(-0.707106781186543,-0.707106781186552,0.));
#1215=DIRECTION('',(-1.,0.,0.));
#1216=DIRECTION('center_axis',(0.,0.,1.));
#1217=DIRECTION('ref_axis',(1.,0.,0.));
#1218=DIRECTION('center_axis',(0.,0.,1.));
#1219=DIRECTION('ref_axis',(1.,0.,0.));
#1220=DIRECTION('center_axis',(0.,0.,1.));
#1221=DIRECTION('ref_axis',(1.,0.,0.));
#1222=DIRECTION('center_axis',(0.,0.,1.));
#1223=DIRECTION('ref_axis',(1.,0.,0.));
#1224=DIRECTION('',(0.,1.,0.));
#1225=DIRECTION('',(1.,0.,0.));
#1226=DIRECTION('center_axis',(0.,0.,-1.));
#1227=DIRECTION('ref_axis',(1.,0.,0.));
#1228=DIRECTION('',(0.,1.,0.));
#1229=DIRECTION('',(1.,0.,0.));
#1230=DIRECTION('',(0.,-1.,0.));
#1231=DIRECTION('center_axis',(0.,0.,-1.));
#1232=DIRECTION('ref_axis',(1.,0.,0.));
#1233=DIRECTION('',(1.,0.,0.));
#1234=DIRECTION('',(0.,-1.,0.));
#1235=DIRECTION('',(0.,-1.,0.));
#1236=DIRECTION('',(-1.,0.,0.));
#1237=DIRECTION('center_axis',(0.,0.,-1.));
#1238=DIRECTION('ref_axis',(1.,0.,0.));
#1239=DIRECTION('',(0.,-1.,0.));
#1240=DIRECTION('',(-1.,0.,0.));
#1241=DIRECTION('',(0.,1.,0.));
#1242=DIRECTION('center_axis',(0.,0.,-1.));
#1243=DIRECTION('ref_axis',(1.,0.,0.));
#1244=DIRECTION('',(-1.,0.,0.));
#1245=DIRECTION('',(0.,1.,0.));
#1246=DIRECTION('center_axis',(-1.,0.,0.));
#1247=DIRECTION('ref_axis',(0.,-1.,0.));
#1248=DIRECTION('',(0.,0.,-1.));
#1249=DIRECTION('',(0.,-1.,0.));
#1250=DIRECTION('',(0.,0.,1.));
#1251=DIRECTION('',(0.,1.,0.));
#1252=DIRECTION('',(0.,0.,1.));
#1253=DIRECTION('',(0.,-1.,0.));
#1254=DIRECTION('',(0.,0.,1.));
#1255=DIRECTION('center_axis',(0.,0.,-1.));
#1256=DIRECTION('ref_axis',(1.,0.,0.));
#1257=DIRECTION('center_axis',(0.,0.,1.));
#1258=DIRECTION('ref_axis',(1.,0.,0.));
#1259=DIRECTION('',(0.,0.,1.));
#1260=DIRECTION('center_axis',(0.,0.,-1.));
#1261=DIRECTION('ref_axis',(1.,0.,0.));
#1262=DIRECTION('',(0.,0.,-1.));
#1263=DIRECTION('center_axis',(0.,0.,-1.));
#1264=DIRECTION('ref_axis',(1.,0.,0.));
#1265=DIRECTION('',(0.,0.,-1.));
#1266=DIRECTION('center_axis',(0.,1.,0.));
#1267=DIRECTION('ref_axis',(1.,0.,0.));
#1268=DIRECTION('',(1.,0.,0.));
#1269=DIRECTION('center_axis',(1.,0.,0.));
#1270=DIRECTION('ref_axis',(0.,-1.,0.));
#1271=DIRECTION('',(0.,0.,1.));
#1272=DIRECTION('',(0.,-1.,0.));
#1273=DIRECTION('center_axis',(0.,0.,1.));
#1274=DIRECTION('ref_axis',(1.,0.,0.));
#1275=DIRECTION('',(1.,0.,0.));
#1276=DIRECTION('center_axis',(0.,0.,-1.));
#1277=DIRECTION('ref_axis',(1.,0.,0.));
#1278=DIRECTION('center_axis',(0.,0.,1.));
#1279=DIRECTION('ref_axis',(1.,0.,0.));
#1280=DIRECTION('',(0.,0.,1.));
#1281=DIRECTION('center_axis',(1.,0.,0.));
#1282=DIRECTION('ref_axis',(0.,-1.,0.));
#1283=DIRECTION('',(0.,0.,-1.));
#1284=DIRECTION('',(0.,-1.,0.));
#1285=DIRECTION('',(0.,0.,-1.));
#1286=DIRECTION('center_axis',(0.,-1.,0.));
#1287=DIRECTION('ref_axis',(-1.,0.,0.));
#1288=DIRECTION('',(-1.,0.,0.));
#1289=DIRECTION('',(0.,0.,-1.));
#1290=DIRECTION('center_axis',(0.,0.,-1.));
#1291=DIRECTION('ref_axis',(1.,0.,0.));
#1292=DIRECTION('center_axis',(0.,0.,-1.));
#1293=DIRECTION('ref_axis',(1.,0.,0.));
#1294=DIRECTION('center_axis',(0.,0.,1.));
#1295=DIRECTION('ref_axis',(1.,0.,0.));
#1296=DIRECTION('',(-1.,0.,0.));
#1297=DIRECTION('center_axis',(0.,0.,-1.));
#1298=DIRECTION('ref_axis',(1.,0.,0.));
#1299=DIRECTION('center_axis',(0.,0.,1.));
#1300=DIRECTION('ref_axis',(1.,0.,0.));
#1301=DIRECTION('',(0.,0.,1.));
#1302=DIRECTION('center_axis',(0.,0.,-1.));
#1303=DIRECTION('ref_axis',(1.,0.,0.));
#1304=DIRECTION('',(0.,0.,-1.));
#1305=DIRECTION('center_axis',(0.,0.,-1.));
#1306=DIRECTION('ref_axis',(1.,0.,0.));
#1307=DIRECTION('',(0.,0.,-1.));
#1308=DIRECTION('center_axis',(-1.,0.,0.));
#1309=DIRECTION('ref_axis',(0.,1.,0.));
#1310=DIRECTION('',(0.,1.,0.));
#1311=DIRECTION('',(0.,0.,-1.));
#1312=DIRECTION('center_axis',(0.,1.,0.));
#1313=DIRECTION('ref_axis',(1.,0.,0.));
#1314=DIRECTION('',(0.,0.,1.));
#1315=DIRECTION('',(1.,0.,0.));
#1316=DIRECTION('center_axis',(0.,0.,1.));
#1317=DIRECTION('ref_axis',(1.,0.,0.));
#1318=DIRECTION('',(0.,1.,0.));
#1319=DIRECTION('',(1.,0.,0.));
#1320=DIRECTION('center_axis',(0.,0.,-1.));
#1321=DIRECTION('ref_axis',(1.,0.,0.));
#1322=DIRECTION('center_axis',(0.,0.,1.));
#1323=DIRECTION('ref_axis',(1.,0.,0.));
#1324=DIRECTION('',(0.,0.,1.));
#1325=DIRECTION('center_axis',(0.,0.,-1.));
#1326=DIRECTION('ref_axis',(1.,0.,0.));
#1327=DIRECTION('',(0.,0.,-1.));
#1328=DIRECTION('center_axis',(0.,0.,-1.));
#1329=DIRECTION('ref_axis',(1.,0.,0.));
#1330=DIRECTION('',(0.,0.,-1.));
#1331=DIRECTION('center_axis',(0.,-1.,0.));
#1332=DIRECTION('ref_axis',(-1.,0.,0.));
#1333=DIRECTION('',(-1.,0.,0.));
#1334=DIRECTION('',(0.,0.,-1.));
#1335=DIRECTION('center_axis',(-1.,0.,0.));
#1336=DIRECTION('ref_axis',(0.,1.,0.));
#1337=DIRECTION('',(0.,0.,1.));
#1338=DIRECTION('',(0.,1.,0.));
#1339=DIRECTION('center_axis',(0.,0.,1.));
#1340=DIRECTION('ref_axis',(1.,0.,0.));
#1341=DIRECTION('',(-1.,0.,0.));
#1342=DIRECTION('',(0.,1.,0.));
#1343=DIRECTION('center_axis',(-0.40824829046386,-0.816496580927729,-0.408248290463861));
#1344=DIRECTION('ref_axis',(-0.577350269189627,0.577350269189623,-0.577350269189628));
#1345=DIRECTION('center_axis',(0.,0.,-1.));
#1346=DIRECTION('ref_axis',(0.,1.,0.));
#1347=DIRECTION('center_axis',(-1.,0.,0.));
#1348=DIRECTION('ref_axis',(0.,0.,-1.));
#1349=DIRECTION('center_axis',(0.,1.,1.1842378929335E-14));
#1350=DIRECTION('ref_axis',(-1.,0.,0.));
#1351=DIRECTION('center_axis',(0.40824829046386,-0.816496580927729,-0.408248290463861));
#1352=DIRECTION('ref_axis',(0.577350269189627,0.577350269189623,-0.577350269189628));
#1353=DIRECTION('center_axis',(0.,0.,-1.));
#1354=DIRECTION('ref_axis',(1.,0.,0.));
#1355=DIRECTION('center_axis',(1.1842378929335E-14,1.,0.));
#1356=DIRECTION('ref_axis',(0.,0.,-1.));
#1357=DIRECTION('center_axis',(1.,0.,0.));
#1358=DIRECTION('ref_axis',(0.,1.,0.));
#1359=DIRECTION('center_axis',(0.408248290463862,-0.816496580927728,0.408248290463861));
#1360=DIRECTION('ref_axis',(-0.577350269189628,-0.577350269189621,-0.577350269189628));
#1361=DIRECTION('center_axis',(-1.1842378929335E-14,-1.,0.));
#1362=DIRECTION('ref_axis',(0.,0.,-1.));
#1363=DIRECTION('center_axis',(-1.,0.,0.));
#1364=DIRECTION('ref_axis',(0.,-1.,0.));
#1365=DIRECTION('center_axis',(0.,0.,-1.));
#1366=DIRECTION('ref_axis',(-1.,0.,0.));
#1367=DIRECTION('center_axis',(-0.40824829046386,-0.816496580927729,0.408248290463861));
#1368=DIRECTION('ref_axis',(0.577350269189627,-0.577350269189623,-0.577350269189628));
#1369=DIRECTION('center_axis',(0.,0.,-1.));
#1370=DIRECTION('ref_axis',(0.,-1.,0.));
#1371=DIRECTION('center_axis',(1.,0.,0.));
#1372=DIRECTION('ref_axis',(0.,0.,-1.));
#1373=DIRECTION('center_axis',(0.,-1.,1.1842378929335E-14));
#1374=DIRECTION('ref_axis',(1.,0.,0.));
#1375=DIRECTION('center_axis',(-1.,0.,0.));
#1376=DIRECTION('ref_axis',(0.,-0.707106781186553,-0.707106781186543));
#1377=DIRECTION('',(1.,0.,0.));
#1378=DIRECTION('',(-1.,0.,0.));
#1379=DIRECTION('center_axis',(0.,-1.,0.));
#1380=DIRECTION('ref_axis',(0.707106781186548,0.,-0.707106781186547));
#1381=DIRECTION('',(0.,1.,0.));
#1382=DIRECTION('',(0.,-1.,0.));
#1383=DIRECTION('center_axis',(0.,0.,1.));
#1384=DIRECTION('ref_axis',(0.707106781186543,-0.707106781186552,0.));
#1385=DIRECTION('',(0.,0.,-1.));
#1386=DIRECTION('',(0.,0.,1.));
#1387=DIRECTION('center_axis',(0.,0.,1.));
#1388=DIRECTION('ref_axis',(-0.707106781186543,-0.707106781186552,0.));
#1389=DIRECTION('',(0.,0.,-1.));
#1390=DIRECTION('',(0.,0.,1.));
#1391=DIRECTION('center_axis',(0.,1.,0.));
#1392=DIRECTION('ref_axis',(-0.707106781186548,0.,-0.707106781186547));
#1393=DIRECTION('',(0.,-1.,0.));
#1394=DIRECTION('',(0.,1.,0.));
#1395=DIRECTION('center_axis',(1.,0.,0.));
#1396=DIRECTION('ref_axis',(0.,0.707106781186553,-0.707106781186543));
#1397=DIRECTION('',(-1.,0.,0.));
#1398=DIRECTION('',(1.,0.,0.));
#1399=DIRECTION('center_axis',(0.,0.,1.));
#1400=DIRECTION('ref_axis',(0.707106781186543,0.707106781186552,0.));
#1401=DIRECTION('',(0.,0.,-1.));
#1402=DIRECTION('',(0.,0.,1.));
#1403=DIRECTION('center_axis',(0.,0.,1.));
#1404=DIRECTION('ref_axis',(-0.707106781186543,0.707106781186552,0.));
#1405=DIRECTION('',(0.,0.,-1.));
#1406=DIRECTION('',(0.,0.,1.));
#1407=DIRECTION('center_axis',(1.,0.,0.));
#1408=DIRECTION('ref_axis',(0.,1.,0.));
#1409=DIRECTION('center_axis',(0.,1.,0.));
#1410=DIRECTION('ref_axis',(-1.,0.,0.));
#1411=DIRECTION('center_axis',(0.,0.,1.));
#1412=DIRECTION('ref_axis',(1.,0.,0.));
#1413=DIRECTION('center_axis',(1.,0.,0.));
#1414=DIRECTION('ref_axis',(0.,1.,0.));
#1415=DIRECTION('',(0.,0.,1.));
#1416=DIRECTION('',(0.,-1.,0.));
#1417=DIRECTION('',(0.,0.,1.));
#1418=DIRECTION('center_axis',(0.,1.,0.));
#1419=DIRECTION('ref_axis',(-1.,0.,0.));
#1420=DIRECTION('',(1.,0.,0.));
#1421=DIRECTION('center_axis',(0.,-1.,0.));
#1422=DIRECTION('ref_axis',(1.,0.,0.));
#1423=DIRECTION('',(-1.,0.,0.));
#1424=DIRECTION('center_axis',(0.,0.,1.));
#1425=DIRECTION('ref_axis',(1.,0.,0.));
#1426=DIRECTION('center_axis',(0.,-1.,0.));
#1427=DIRECTION('ref_axis',(1.,0.,0.));
#1428=DIRECTION('center_axis',(-1.,0.,0.));
#1429=DIRECTION('ref_axis',(0.,-1.,0.));
#1430=CARTESIAN_POINT('',(0.,0.,0.));
#1431=CARTESIAN_POINT('Origin',(5.,0.,14.));
#1432=CARTESIAN_POINT('',(5.,85.,14.));
#1433=CARTESIAN_POINT('',(-5.,85.,14.));
#1434=CARTESIAN_POINT('',(16.75,85.,14.));
#1435=CARTESIAN_POINT('',(5.,87.,14.));
#1436=CARTESIAN_POINT('',(5.,0.,14.));
#1437=CARTESIAN_POINT('',(-5.,87.,14.));
#1438=CARTESIAN_POINT('',(16.75,87.,14.));
#1439=CARTESIAN_POINT('',(-5.,0.,14.));
#1440=CARTESIAN_POINT('Origin',(-5.,0.,16.5));
#1441=CARTESIAN_POINT('',(-5.,85.,19.));
#1442=CARTESIAN_POINT('Origin',(-5.,85.,16.5));
#1443=CARTESIAN_POINT('',(-5.,87.,19.));
#1444=CARTESIAN_POINT('Origin',(-5.,87.,16.5));
#1445=CARTESIAN_POINT('',(-5.,0.,19.));
#1446=CARTESIAN_POINT('Origin',(-5.,0.,19.));
#1447=CARTESIAN_POINT('',(5.,85.,19.));
#1448=CARTESIAN_POINT('',(11.75,85.,19.));
#1449=CARTESIAN_POINT('',(5.,87.,19.));
#1450=CARTESIAN_POINT('',(11.75,87.,19.));
#1451=CARTESIAN_POINT('',(5.,0.,19.));
#1452=CARTESIAN_POINT('Origin',(5.,0.,16.5));
#1453=CARTESIAN_POINT('Origin',(5.,85.,16.5));
#1454=CARTESIAN_POINT('Origin',(5.,87.,16.5));
#1455=CARTESIAN_POINT('Origin',(29.25,-60.,21.));
#1456=CARTESIAN_POINT('',(28.5,-60.,22.));
#1457=CARTESIAN_POINT('',(28.5,-60.,20.));
#1458=CARTESIAN_POINT('',(28.5,-60.,10.5));
#1459=CARTESIAN_POINT('',(30.,-60.,22.));
#1460=CARTESIAN_POINT('',(14.625,-60.,22.));
#1461=CARTESIAN_POINT('',(30.,-60.,20.));
#1462=CARTESIAN_POINT('',(30.,-60.,22.));
#1463=CARTESIAN_POINT('',(30.,-60.,20.));
#1464=CARTESIAN_POINT('Origin',(30.,0.,20.));
#1465=CARTESIAN_POINT('',(28.5,60.,20.));
#1466=CARTESIAN_POINT('',(28.5,-42.5,20.));
#1467=CARTESIAN_POINT('',(30.,60.,20.));
#1468=CARTESIAN_POINT('',(30.,0.,20.));
#1469=CARTESIAN_POINT('',(30.,60.,20.));
#1470=CARTESIAN_POINT('Origin',(30.,0.,22.));
#1471=CARTESIAN_POINT('',(30.,60.,22.));
#1472=CARTESIAN_POINT('',(30.,0.,22.));
#1473=CARTESIAN_POINT('',(30.,60.,22.));
#1474=CARTESIAN_POINT('Origin',(29.25,60.,21.));
#1475=CARTESIAN_POINT('',(28.5,60.,22.));
#1476=CARTESIAN_POINT('',(28.5,60.,10.5));
#1477=CARTESIAN_POINT('',(14.625,60.,22.));
#1478=CARTESIAN_POINT('Origin',(-29.25,-60.,21.));
#1479=CARTESIAN_POINT('',(-30.,-60.,20.));
#1480=CARTESIAN_POINT('',(-28.5,-60.,20.));
#1481=CARTESIAN_POINT('',(-30.,-60.,20.));
#1482=CARTESIAN_POINT('',(-30.,-60.,22.));
#1483=CARTESIAN_POINT('',(-30.,-60.,22.));
#1484=CARTESIAN_POINT('',(-28.5,-60.,22.));
#1485=CARTESIAN_POINT('',(-14.625,-60.,22.));
#1486=CARTESIAN_POINT('',(-28.5,-60.,10.5));
#1487=CARTESIAN_POINT('Origin',(-30.,0.,20.));
#1488=CARTESIAN_POINT('',(-30.,60.,22.));
#1489=CARTESIAN_POINT('',(-30.,0.,22.));
#1490=CARTESIAN_POINT('',(-30.,60.,20.));
#1491=CARTESIAN_POINT('',(-30.,0.,20.));
#1492=CARTESIAN_POINT('',(-30.,60.,22.));
#1493=CARTESIAN_POINT('Origin',(-28.5,0.,20.));
#1494=CARTESIAN_POINT('',(-28.5,60.,20.));
#1495=CARTESIAN_POINT('',(-28.5,42.5,20.));
#1496=CARTESIAN_POINT('',(-30.,60.,20.));
#1497=CARTESIAN_POINT('Origin',(-29.25,60.,21.));
#1498=CARTESIAN_POINT('',(-28.5,60.,22.));
#1499=CARTESIAN_POINT('',(-28.5,60.,10.5));
#1500=CARTESIAN_POINT('',(-14.625,60.,22.));
#1501=CARTESIAN_POINT('Origin',(0.,0.,22.));
#1502=CARTESIAN_POINT('',(30.5,-85.5,22.));
#1503=CARTESIAN_POINT('',(29.,-87.,22.));
#1504=CARTESIAN_POINT('Origin',(29.,-85.5,22.));
#1505=CARTESIAN_POINT('',(30.5,85.5,22.));
#1506=CARTESIAN_POINT('',(30.5,-42.5,22.));
#1507=CARTESIAN_POINT('',(29.,87.,22.));
#1508=CARTESIAN_POINT('Origin',(29.,85.5,22.));
#1509=CARTESIAN_POINT('',(-29.,87.,22.));
#1510=CARTESIAN_POINT('',(14.25,87.,22.));
#1511=CARTESIAN_POINT('',(-30.5,85.5,22.));
#1512=CARTESIAN_POINT('Origin',(-29.,85.5,22.));
#1513=CARTESIAN_POINT('',(-30.5,-85.5,22.));
#1514=CARTESIAN_POINT('',(-30.5,42.5,22.));
#1515=CARTESIAN_POINT('',(-29.,-87.,22.));
#1516=CARTESIAN_POINT('Origin',(-29.,-85.5,22.));
#1517=CARTESIAN_POINT('',(-14.25,-87.,22.));
#1518=CARTESIAN_POINT('',(24.25,82.25,22.));
#1519=CARTESIAN_POINT('Origin',(25.75,82.25,22.));
#1520=CARTESIAN_POINT('',(24.25,-82.25,22.));
#1521=CARTESIAN_POINT('Origin',(25.75,-82.25,22.));
#1522=CARTESIAN_POINT('',(-27.25,82.25,22.));
#1523=CARTESIAN_POINT('Origin',(-25.75,82.25,22.));
#1524=CARTESIAN_POINT('',(-27.25,-82.25,22.));
#1525=CARTESIAN_POINT('Origin',(-25.75,-82.25,22.));
#1526=CARTESIAN_POINT('',(28.5,-79.5,22.));
#1527=CARTESIAN_POINT('',(28.5,-42.5,22.));
#1528=CARTESIAN_POINT('',(25.75,-79.5,22.));
#1529=CARTESIAN_POINT('',(14.25,-79.5,22.));
#1530=CARTESIAN_POINT('',(23.,-82.25,22.));
#1531=CARTESIAN_POINT('Origin',(25.75,-82.25,22.));
#1532=CARTESIAN_POINT('',(23.,-85.0000012665987,22.));
#1533=CARTESIAN_POINT('',(23.,-41.125,22.));
#1534=CARTESIAN_POINT('',(-23.,-85.0000012665987,22.));
#1535=CARTESIAN_POINT('',(-14.25,-85.,22.));
#1536=CARTESIAN_POINT('',(-23.,-82.25,22.));
#1537=CARTESIAN_POINT('',(-23.,-42.5000006332994,22.));
#1538=CARTESIAN_POINT('',(-25.75,-79.5,22.));
#1539=CARTESIAN_POINT('Origin',(-25.75,-82.25,22.));
#1540=CARTESIAN_POINT('',(-28.5,-79.5,22.));
#1541=CARTESIAN_POINT('',(-12.875,-79.5,22.));
#1542=CARTESIAN_POINT('',(-28.5,42.5,22.));
#1543=CARTESIAN_POINT('',(-28.5,79.5,22.));
#1544=CARTESIAN_POINT('',(-28.5,42.5,22.));
#1545=CARTESIAN_POINT('',(-25.75,79.5,22.));
#1546=CARTESIAN_POINT('',(-14.25,79.5,22.));
#1547=CARTESIAN_POINT('',(-23.,82.25,22.));
#1548=CARTESIAN_POINT('Origin',(-25.75,82.25,22.));
#1549=CARTESIAN_POINT('',(-23.,85.0000012665987,22.));
#1550=CARTESIAN_POINT('',(-23.,41.125,22.));
#1551=CARTESIAN_POINT('',(23.,85.0000012665987,22.));
#1552=CARTESIAN_POINT('',(14.25,85.,22.));
#1553=CARTESIAN_POINT('',(23.,82.25,22.));
#1554=CARTESIAN_POINT('',(23.,42.5000006332994,22.));
#1555=CARTESIAN_POINT('',(25.75,79.5,22.));
#1556=CARTESIAN_POINT('Origin',(25.75,82.25,22.));
#1557=CARTESIAN_POINT('',(28.5,79.5,22.));
#1558=CARTESIAN_POINT('',(12.875,79.5,22.));
#1559=CARTESIAN_POINT('',(28.5,-42.5,22.));
#1560=CARTESIAN_POINT('Origin',(-28.5,85.,0.));
#1561=CARTESIAN_POINT('',(-28.5,-79.5,13.));
#1562=CARTESIAN_POINT('',(-28.5,-79.5,11.));
#1563=CARTESIAN_POINT('',(-28.5,-85.,13.));
#1564=CARTESIAN_POINT('',(-28.5,42.5,13.));
#1565=CARTESIAN_POINT('',(-28.5,-85.,0.));
#1566=CARTESIAN_POINT('',(-28.5,-85.,0.));
#1567=CARTESIAN_POINT('',(-28.5,85.,0.));
#1568=CARTESIAN_POINT('',(-28.5,-85.,0.));
#1569=CARTESIAN_POINT('',(-28.5,85.,13.));
#1570=CARTESIAN_POINT('',(-28.5,85.,0.));
#1571=CARTESIAN_POINT('',(-28.5,79.5,13.));
#1572=CARTESIAN_POINT('',(-28.5,42.5,13.));
#1573=CARTESIAN_POINT('',(-28.5,79.5,11.));
#1574=CARTESIAN_POINT('Origin',(-25.75,-82.25,22.));
#1575=CARTESIAN_POINT('',(-27.25,-82.25,13.));
#1576=CARTESIAN_POINT('Origin',(-25.75,-82.25,13.));
#1577=CARTESIAN_POINT('',(-27.25,-82.25,22.));
#1578=CARTESIAN_POINT('Origin',(-25.75,-82.25,22.));
#1579=CARTESIAN_POINT('',(-23.,-82.25,13.));
#1580=CARTESIAN_POINT('',(-23.,-82.25,22.));
#1581=CARTESIAN_POINT('',(-25.75,-79.5,13.));
#1582=CARTESIAN_POINT('Origin',(-25.75,-82.25,13.));
#1583=CARTESIAN_POINT('',(-25.75,-79.5,22.));
#1584=CARTESIAN_POINT('Origin',(-28.5,-79.5,22.));
#1585=CARTESIAN_POINT('',(-12.875,-79.5,13.));
#1586=CARTESIAN_POINT('Origin',(-23.,-82.25,22.));
#1587=CARTESIAN_POINT('',(-23.,-85.0000012665987,13.));
#1588=CARTESIAN_POINT('',(-23.,-85.,11.));
#1589=CARTESIAN_POINT('',(-23.,-42.5000006332994,13.));
#1590=CARTESIAN_POINT('Origin',(0.,0.,13.));
#1591=CARTESIAN_POINT('',(-14.25,-85.,13.));
#1592=CARTESIAN_POINT('Origin',(-25.75,82.25,22.));
#1593=CARTESIAN_POINT('',(-27.25,82.25,13.));
#1594=CARTESIAN_POINT('Origin',(-25.75,82.25,13.));
#1595=CARTESIAN_POINT('',(-27.25,82.25,22.));
#1596=CARTESIAN_POINT('Origin',(-23.,85.0000012665987,22.));
#1597=CARTESIAN_POINT('',(-23.,82.25,13.));
#1598=CARTESIAN_POINT('',(-23.,82.25,22.));
#1599=CARTESIAN_POINT('',(-23.,85.0000012665987,13.));
#1600=CARTESIAN_POINT('',(-23.,41.125,13.));
#1601=CARTESIAN_POINT('',(-23.,85.,11.));
#1602=CARTESIAN_POINT('Origin',(-25.75,79.5,22.));
#1603=CARTESIAN_POINT('',(-25.75,79.5,13.));
#1604=CARTESIAN_POINT('',(-14.25,79.5,13.));
#1605=CARTESIAN_POINT('',(-25.75,79.5,22.));
#1606=CARTESIAN_POINT('Origin',(-25.75,82.25,22.));
#1607=CARTESIAN_POINT('Origin',(-25.75,82.25,13.));
#1608=CARTESIAN_POINT('Origin',(0.,0.,13.));
#1609=CARTESIAN_POINT('',(14.25,85.,13.));
#1610=CARTESIAN_POINT('Origin',(25.75,-82.25,22.));
#1611=CARTESIAN_POINT('',(24.25,-82.25,13.));
#1612=CARTESIAN_POINT('Origin',(25.75,-82.25,13.));
#1613=CARTESIAN_POINT('',(24.25,-82.25,22.));
#1614=CARTESIAN_POINT('Origin',(25.75,-82.25,22.));
#1615=CARTESIAN_POINT('',(25.75,-79.5,13.));
#1616=CARTESIAN_POINT('',(25.75,-79.5,22.));
#1617=CARTESIAN_POINT('',(23.,-82.25,13.));
#1618=CARTESIAN_POINT('Origin',(25.75,-82.25,13.));
#1619=CARTESIAN_POINT('',(23.,-82.25,22.));
#1620=CARTESIAN_POINT('Origin',(23.,-85.0000012665987,22.));
#1621=CARTESIAN_POINT('',(23.,-85.0000012665987,13.));
#1622=CARTESIAN_POINT('',(23.,-41.125,13.));
#1623=CARTESIAN_POINT('',(23.,-85.,11.));
#1624=CARTESIAN_POINT('Origin',(25.75,-79.5,22.));
#1625=CARTESIAN_POINT('',(28.5,-79.5,13.));
#1626=CARTESIAN_POINT('',(28.5,-79.5,11.));
#1627=CARTESIAN_POINT('',(14.25,-79.5,13.));
#1628=CARTESIAN_POINT('Origin',(0.,0.,13.));
#1629=CARTESIAN_POINT('',(28.5,-85.,13.));
#1630=CARTESIAN_POINT('',(28.5,-42.5,13.));
#1631=CARTESIAN_POINT('',(-14.25,-85.,13.));
#1632=CARTESIAN_POINT('Origin',(25.75,82.25,22.));
#1633=CARTESIAN_POINT('',(24.25,82.25,13.));
#1634=CARTESIAN_POINT('Origin',(25.75,82.25,13.));
#1635=CARTESIAN_POINT('',(24.25,82.25,22.));
#1636=CARTESIAN_POINT('Origin',(25.75,82.25,22.));
#1637=CARTESIAN_POINT('',(23.,82.25,13.));
#1638=CARTESIAN_POINT('',(23.,82.25,22.));
#1639=CARTESIAN_POINT('',(25.75,79.5,13.));
#1640=CARTESIAN_POINT('Origin',(25.75,82.25,13.));
#1641=CARTESIAN_POINT('',(25.75,79.5,22.));
#1642=CARTESIAN_POINT('Origin',(28.5,79.5,22.));
#1643=CARTESIAN_POINT('',(28.5,79.5,13.));
#1644=CARTESIAN_POINT('',(12.875,79.5,13.));
#1645=CARTESIAN_POINT('',(28.5,79.5,11.));
#1646=CARTESIAN_POINT('Origin',(23.,82.25,22.));
#1647=CARTESIAN_POINT('',(23.,85.0000012665987,13.));
#1648=CARTESIAN_POINT('',(23.,85.,11.));
#1649=CARTESIAN_POINT('',(23.,42.5000006332994,13.));
#1650=CARTESIAN_POINT('Origin',(0.,0.,13.));
#1651=CARTESIAN_POINT('',(28.5,85.,13.));
#1652=CARTESIAN_POINT('',(14.25,85.,13.));
#1653=CARTESIAN_POINT('',(28.5,-42.5,13.));
#1654=CARTESIAN_POINT('Origin',(-29.,85.5,-0.5));
#1655=CARTESIAN_POINT('',(-29.,87.,-0.5));
#1656=CARTESIAN_POINT('',(-30.5,85.5,-0.5));
#1657=CARTESIAN_POINT('Origin',(-29.,85.5,-0.5));
#1658=CARTESIAN_POINT('',(-29.,85.5,-2.));
#1659=CARTESIAN_POINT('Origin',(-29.,85.5,-0.5));
#1660=CARTESIAN_POINT('Origin',(-29.,85.5,-0.5));
#1661=CARTESIAN_POINT('Origin',(29.,85.5,-0.5));
#1662=CARTESIAN_POINT('',(30.5,85.5,-0.5));
#1663=CARTESIAN_POINT('',(29.,87.,-0.5));
#1664=CARTESIAN_POINT('Origin',(29.,85.5,-0.5));
#1665=CARTESIAN_POINT('',(29.,85.5,-2.));
#1666=CARTESIAN_POINT('Origin',(29.,85.5,-0.5));
#1667=CARTESIAN_POINT('Origin',(29.,85.5,-0.5));
#1668=CARTESIAN_POINT('Origin',(-29.,-85.5,-0.5));
#1669=CARTESIAN_POINT('',(-29.,-85.5,-2.));
#1670=CARTESIAN_POINT('',(-30.5,-85.5,-0.5));
#1671=CARTESIAN_POINT('Origin',(-29.,-85.5,-0.5));
#1672=CARTESIAN_POINT('',(-29.,-87.,-0.5));
#1673=CARTESIAN_POINT('Origin',(-29.,-85.5,-0.5));
#1674=CARTESIAN_POINT('Origin',(-29.,-85.5,-0.5));
#1675=CARTESIAN_POINT('Origin',(29.,-85.5,-0.5));
#1676=CARTESIAN_POINT('',(29.,-87.,-0.5));
#1677=CARTESIAN_POINT('',(30.5,-85.5,-0.5));
#1678=CARTESIAN_POINT('Origin',(29.,-85.5,-0.5));
#1679=CARTESIAN_POINT('',(29.,-85.5,-2.));
#1680=CARTESIAN_POINT('Origin',(29.,-85.5,-0.5));
#1681=CARTESIAN_POINT('Origin',(29.,-85.5,-0.5));
#1682=CARTESIAN_POINT('Origin',(-14.25,-85.5,-0.5));
#1683=CARTESIAN_POINT('',(-14.25,-85.5,-2.));
#1684=CARTESIAN_POINT('',(-14.25,-87.,-0.5));
#1685=CARTESIAN_POINT('Origin',(29.,-42.5,-0.5));
#1686=CARTESIAN_POINT('',(29.,-42.5,-2.));
#1687=CARTESIAN_POINT('',(30.5,-42.5,-0.5));
#1688=CARTESIAN_POINT('Origin',(29.,-85.5,0.));
#1689=CARTESIAN_POINT('',(29.,-87.,0.));
#1690=CARTESIAN_POINT('',(30.5,-85.5,0.));
#1691=CARTESIAN_POINT('Origin',(-29.,-85.5,0.));
#1692=CARTESIAN_POINT('',(-30.5,-85.5,0.));
#1693=CARTESIAN_POINT('',(-29.,-87.,0.));
#1694=CARTESIAN_POINT('Origin',(-29.,42.5,-0.5));
#1695=CARTESIAN_POINT('',(-29.,42.5,-2.));
#1696=CARTESIAN_POINT('',(-30.5,42.5,-0.5));
#1697=CARTESIAN_POINT('Origin',(14.25,85.5,-0.5));
#1698=CARTESIAN_POINT('',(14.25,85.5,-2.));
#1699=CARTESIAN_POINT('',(14.25,87.,-0.5));
#1700=CARTESIAN_POINT('Origin',(29.,85.5,0.));
#1701=CARTESIAN_POINT('',(30.5,85.5,0.));
#1702=CARTESIAN_POINT('',(29.,87.,0.));
#1703=CARTESIAN_POINT('Origin',(-29.,85.5,0.));
#1704=CARTESIAN_POINT('',(-29.,87.,0.));
#1705=CARTESIAN_POINT('',(-30.5,85.5,0.));
#1706=CARTESIAN_POINT('Origin',(30.5,-85.,0.));
#1707=CARTESIAN_POINT('Origin',(28.5,87.,0.));
#1708=CARTESIAN_POINT('Origin',(0.,0.,-2.));
#1709=CARTESIAN_POINT('Origin',(28.5,-85.,0.));
#1710=CARTESIAN_POINT('',(28.5,85.,0.));
#1711=CARTESIAN_POINT('',(28.5,85.,0.));
#1712=CARTESIAN_POINT('',(28.5,-85.,0.));
#1713=CARTESIAN_POINT('',(28.5,85.,0.));
#1714=CARTESIAN_POINT('',(28.5,-85.,0.));
#1715=CARTESIAN_POINT('Origin',(28.5,85.,0.));
#1716=CARTESIAN_POINT('',(-28.5,85.,0.));
#1717=CARTESIAN_POINT('Origin',(-28.5,-85.,0.));
#1718=CARTESIAN_POINT('',(28.5,-85.,0.));
#1719=CARTESIAN_POINT('Origin',(0.,0.,0.));
#1720=CARTESIAN_POINT('Origin',(-28.5,-87.,0.));
#1721=CARTESIAN_POINT('Origin',(-30.5,85.,0.));
#1722=UNCERTAINTY_MEASURE_WITH_UNIT(LENGTH_MEASURE(0.01),#1726,
'DISTANCE_ACCURACY_VALUE',
'Maximum model space distance between geometric entities at asserted c
onnectivities');
#1723=UNCERTAINTY_MEASURE_WITH_UNIT(LENGTH_MEASURE(0.01),#1726,
'DISTANCE_ACCURACY_VALUE',
'Maximum model space distance between geometric entities at asserted c
onnectivities');
#1724=(
GEOMETRIC_REPRESENTATION_CONTEXT(3)
GLOBAL_UNCERTAINTY_ASSIGNED_CONTEXT((#1722))
GLOBAL_UNIT_ASSIGNED_CONTEXT((#1726,#1728,#1729))
REPRESENTATION_CONTEXT('','3D')
);
#1725=(
GEOMETRIC_REPRESENTATION_CONTEXT(3)
GLOBAL_UNCERTAINTY_ASSIGNED_CONTEXT((#1723))
GLOBAL_UNIT_ASSIGNED_CONTEXT((#1726,#1728,#1729))
REPRESENTATION_CONTEXT('','3D')
);
#1726=(
LENGTH_UNIT()
NAMED_UNIT(*)
SI_UNIT(.MILLI.,.METRE.)
);
#1727=(
LENGTH_UNIT()
NAMED_UNIT(*)
SI_UNIT($,.METRE.)
);
#1728=(
NAMED_UNIT(*)
PLANE_ANGLE_UNIT()
SI_UNIT($,.RADIAN.)
);
#1729=(
NAMED_UNIT(*)
SI_UNIT($,.STERADIAN.)
SOLID_ANGLE_UNIT()
);
#1730=SHAPE_DEFINITION_REPRESENTATION(#1731,#1732);
#1731=PRODUCT_DEFINITION_SHAPE('',$,#1734);
#1732=SHAPE_REPRESENTATION('',(#1046),#1724);
#1733=PRODUCT_DEFINITION_CONTEXT('part definition',#1738,'design');
#1734=PRODUCT_DEFINITION('2026-03-15-23-30-01-422',
'DisplayDeviceEnclosure',#1735,#1733);
#1735=PRODUCT_DEFINITION_FORMATION('',$,#1740);
#1736=PRODUCT_RELATED_PRODUCT_CATEGORY('DisplayDeviceEnclosure',
'DisplayDeviceEnclosure',(#1740));
#1737=APPLICATION_PROTOCOL_DEFINITION('international standard',
'automotive_design',2009,#1738);
#1738=APPLICATION_CONTEXT(
'Core Data for Automotive Mechanical Design Process');
#1739=PRODUCT_CONTEXT('part definition',#1738,'mechanical');
#1740=PRODUCT('2026-03-15-23-30-01-422','DisplayDeviceEnclosure',$,(#1739));
#1741=PRESENTATION_STYLE_ASSIGNMENT((#1742));
#1742=SURFACE_STYLE_USAGE(.BOTH.,#1743);
#1743=SURFACE_SIDE_STYLE('',(#1744));
#1744=SURFACE_STYLE_FILL_AREA(#1745);
#1745=FILL_AREA_STYLE('Steel - Satin',(#1746));
#1746=FILL_AREA_STYLE_COLOUR('Steel - Satin',#1747);
#1747=COLOUR_RGB('Steel - Satin',0.627450980392157,0.627450980392157,0.627450980392157);
ENDSEC;
END-ISO-10303-21;
