ISO-10303-21;
HEADER;
/* Generated by software containing ST-Developer
 * from STEP Tools, Inc. (www.steptools.com) 
 */

FILE_DESCRIPTION(
/* description */ (''),
/* implementation_level */ '2;1');

FILE_NAME(
/* name */ 'DisplayDeviceEnclosure (Needle).step',
/* time_stamp */ '2026-03-16T03:21:20-07:00',
/* author */ (''),
/* organization */ (''),
/* preprocessor_version */ 'ST-DEVELOPER v20.1',
/* originating_system */ 'Autodesk Translation Framework v14.24.0.0',
/* authorisation */ '');

FILE_SCHEMA (('AUTOMOTIVE_DESIGN { 1 0 10303 214 3 1 1 }'));
ENDSEC;

DATA;
#10=MECHANICAL_DESIGN_GEOMETRIC_PRESENTATION_REPRESENTATION('',(#13),#226);
#11=SHAPE_REPRESENTATION_RELATIONSHIP('SRR','None',#233,#12);
#12=ADVANCED_BREP_SHAPE_REPRESENTATION('',(#14),#225);
#13=STYLED_ITEM('',(#242),#14);
#14=MANIFOLD_SOLID_BREP('needle',#126);
#15=FACE_BOUND('',#35,.T.);
#16=FACE_BOUND('',#37,.T.);
#17=PLANE('',#143);
#18=PLANE('',#144);
#19=PLANE('',#147);
#20=PLANE('',#151);
#21=PLANE('',#152);
#22=FACE_OUTER_BOUND('',#29,.T.);
#23=FACE_OUTER_BOUND('',#30,.T.);
#24=FACE_OUTER_BOUND('',#31,.T.);
#25=FACE_OUTER_BOUND('',#32,.T.);
#26=FACE_OUTER_BOUND('',#33,.T.);
#27=FACE_OUTER_BOUND('',#34,.T.);
#28=FACE_OUTER_BOUND('',#36,.T.);
#29=EDGE_LOOP('',(#87,#88,#89,#90));
#30=EDGE_LOOP('',(#91,#92,#93,#94));
#31=EDGE_LOOP('',(#95,#96,#97,#98));
#32=EDGE_LOOP('',(#99,#100,#101,#102));
#33=EDGE_LOOP('',(#103,#104,#105,#106,#107,#108,#109,#110));
#34=EDGE_LOOP('',(#111));
#35=EDGE_LOOP('',(#112));
#36=EDGE_LOOP('',(#113,#114,#115));
#37=EDGE_LOOP('',(#116));
#38=LINE('',#195,#47);
#39=LINE('',#200,#48);
#40=LINE('',#202,#49);
#41=LINE('',#204,#50);
#42=LINE('',#205,#51);
#43=LINE('',#210,#52);
#44=LINE('',#214,#53);
#45=LINE('',#215,#54);
#46=LINE('',#219,#55);
#47=VECTOR('',#159,1.1);
#48=VECTOR('',#164,10.);
#49=VECTOR('',#165,10.);
#50=VECTOR('',#166,10.);
#51=VECTOR('',#167,10.);
#52=VECTOR('',#172,10.);
#53=VECTOR('',#177,10.);
#54=VECTOR('',#178,10.);
#55=VECTOR('',#183,1.9);
#56=CIRCLE('',#141,1.1);
#57=CIRCLE('',#142,1.1);
#58=CIRCLE('',#145,1.9);
#59=CIRCLE('',#146,1.9);
#60=CIRCLE('',#149,1.9);
#61=CIRCLE('',#150,1.9);
#62=VERTEX_POINT('',#192);
#63=VERTEX_POINT('',#194);
#64=VERTEX_POINT('',#198);
#65=VERTEX_POINT('',#199);
#66=VERTEX_POINT('',#201);
#67=VERTEX_POINT('',#203);
#68=VERTEX_POINT('',#207);
#69=VERTEX_POINT('',#208);
#70=VERTEX_POINT('',#213);
#71=VERTEX_POINT('',#218);
#72=EDGE_CURVE('',#62,#62,#56,.T.);
#73=EDGE_CURVE('',#62,#63,#38,.T.);
#74=EDGE_CURVE('',#63,#63,#57,.T.);
#75=EDGE_CURVE('',#64,#65,#39,.T.);
#76=EDGE_CURVE('',#66,#64,#40,.T.);
#77=EDGE_CURVE('',#67,#66,#41,.T.);
#78=EDGE_CURVE('',#65,#67,#42,.T.);
#79=EDGE_CURVE('',#68,#69,#58,.T.);
#80=EDGE_CURVE('',#68,#66,#43,.T.);
#81=EDGE_CURVE('',#69,#64,#59,.T.);
#82=EDGE_CURVE('',#70,#68,#44,.T.);
#83=EDGE_CURVE('',#67,#70,#45,.T.);
#84=EDGE_CURVE('',#70,#65,#60,.T.);
#85=EDGE_CURVE('',#69,#71,#46,.T.);
#86=EDGE_CURVE('',#71,#71,#61,.T.);
#87=ORIENTED_EDGE('',*,*,#72,.F.);
#88=ORIENTED_EDGE('',*,*,#73,.T.);
#89=ORIENTED_EDGE('',*,*,#74,.F.);
#90=ORIENTED_EDGE('',*,*,#73,.F.);
#91=ORIENTED_EDGE('',*,*,#75,.F.);
#92=ORIENTED_EDGE('',*,*,#76,.F.);
#93=ORIENTED_EDGE('',*,*,#77,.F.);
#94=ORIENTED_EDGE('',*,*,#78,.F.);
#95=ORIENTED_EDGE('',*,*,#79,.F.);
#96=ORIENTED_EDGE('',*,*,#80,.T.);
#97=ORIENTED_EDGE('',*,*,#76,.T.);
#98=ORIENTED_EDGE('',*,*,#81,.F.);
#99=ORIENTED_EDGE('',*,*,#82,.F.);
#100=ORIENTED_EDGE('',*,*,#83,.F.);
#101=ORIENTED_EDGE('',*,*,#77,.T.);
#102=ORIENTED_EDGE('',*,*,#80,.F.);
#103=ORIENTED_EDGE('',*,*,#84,.F.);
#104=ORIENTED_EDGE('',*,*,#82,.T.);
#105=ORIENTED_EDGE('',*,*,#79,.T.);
#106=ORIENTED_EDGE('',*,*,#85,.T.);
#107=ORIENTED_EDGE('',*,*,#86,.T.);
#108=ORIENTED_EDGE('',*,*,#85,.F.);
#109=ORIENTED_EDGE('',*,*,#81,.T.);
#110=ORIENTED_EDGE('',*,*,#75,.T.);
#111=ORIENTED_EDGE('',*,*,#86,.F.);
#112=ORIENTED_EDGE('',*,*,#74,.T.);
#113=ORIENTED_EDGE('',*,*,#84,.T.);
#114=ORIENTED_EDGE('',*,*,#78,.T.);
#115=ORIENTED_EDGE('',*,*,#83,.T.);
#116=ORIENTED_EDGE('',*,*,#72,.T.);
#117=CYLINDRICAL_SURFACE('',#140,1.1);
#118=CYLINDRICAL_SURFACE('',#148,1.9);
#119=ADVANCED_FACE('',(#22),#117,.F.);
#120=ADVANCED_FACE('',(#23),#17,.T.);
#121=ADVANCED_FACE('',(#24),#18,.F.);
#122=ADVANCED_FACE('',(#25),#19,.T.);
#123=ADVANCED_FACE('',(#26),#118,.T.);
#124=ADVANCED_FACE('',(#27,#15),#20,.T.);
#125=ADVANCED_FACE('',(#28,#16),#21,.T.);
#126=CLOSED_SHELL('',(#119,#120,#121,#122,#123,#124,#125));
#127=DERIVED_UNIT_ELEMENT(#129,1.);
#128=DERIVED_UNIT_ELEMENT(#228,-3.);
#129=(
MASS_UNIT()
NAMED_UNIT(*)
SI_UNIT(.KILO.,.GRAM.)
);
#130=DERIVED_UNIT((#127,#128));
#131=MEASURE_REPRESENTATION_ITEM('density measure',
POSITIVE_RATIO_MEASURE(7850.),#130);
#132=PROPERTY_DEFINITION_REPRESENTATION(#137,#134);
#133=PROPERTY_DEFINITION_REPRESENTATION(#138,#135);
#134=REPRESENTATION('material name',(#136),#225);
#135=REPRESENTATION('density',(#131),#225);
#136=DESCRIPTIVE_REPRESENTATION_ITEM('Steel','Steel');
#137=PROPERTY_DEFINITION('material property','material name',#235);
#138=PROPERTY_DEFINITION('material property','density of part',#235);
#139=AXIS2_PLACEMENT_3D('',#190,#153,#154);
#140=AXIS2_PLACEMENT_3D('',#191,#155,#156);
#141=AXIS2_PLACEMENT_3D('',#193,#157,#158);
#142=AXIS2_PLACEMENT_3D('',#196,#160,#161);
#143=AXIS2_PLACEMENT_3D('',#197,#162,#163);
#144=AXIS2_PLACEMENT_3D('',#206,#168,#169);
#145=AXIS2_PLACEMENT_3D('',#209,#170,#171);
#146=AXIS2_PLACEMENT_3D('',#211,#173,#174);
#147=AXIS2_PLACEMENT_3D('',#212,#175,#176);
#148=AXIS2_PLACEMENT_3D('',#216,#179,#180);
#149=AXIS2_PLACEMENT_3D('',#217,#181,#182);
#150=AXIS2_PLACEMENT_3D('',#220,#184,#185);
#151=AXIS2_PLACEMENT_3D('',#221,#186,#187);
#152=AXIS2_PLACEMENT_3D('',#222,#188,#189);
#153=DIRECTION('axis',(0.,0.,1.));
#154=DIRECTION('refdir',(1.,0.,0.));
#155=DIRECTION('center_axis',(0.,0.,-1.));
#156=DIRECTION('ref_axis',(-1.,0.,0.));
#157=DIRECTION('center_axis',(0.,0.,-1.));
#158=DIRECTION('ref_axis',(-1.,0.,0.));
#159=DIRECTION('',(0.,0.,-1.));
#160=DIRECTION('center_axis',(0.,0.,1.));
#161=DIRECTION('ref_axis',(-1.,0.,0.));
#162=DIRECTION('center_axis',(-0.163045684723898,0.986618520347614,0.));
#163=DIRECTION('ref_axis',(0.986618520347614,0.163045684723898,0.));
#164=DIRECTION('',(0.,0.,1.));
#165=DIRECTION('',(0.986618520347614,0.163045684723898,0.));
#166=DIRECTION('',(0.,0.,-1.));
#167=DIRECTION('',(-0.986618520347614,-0.163045684723898,0.));
#168=DIRECTION('center_axis',(0.,0.,1.));
#169=DIRECTION('ref_axis',(-1.,0.,0.));
#170=DIRECTION('center_axis',(0.,0.,-1.));
#171=DIRECTION('ref_axis',(1.,0.,0.));
#172=DIRECTION('',(-0.986606728263045,0.16311702469727,0.));
#173=DIRECTION('center_axis',(0.,0.,-1.));
#174=DIRECTION('ref_axis',(1.,0.,0.));
#175=DIRECTION('center_axis',(-0.16311702469727,-0.986606728263045,0.));
#176=DIRECTION('ref_axis',(-0.986606728263045,0.16311702469727,0.));
#177=DIRECTION('',(0.,0.,-1.));
#178=DIRECTION('',(0.986606728263045,-0.16311702469727,0.));
#179=DIRECTION('center_axis',(0.,0.,1.));
#180=DIRECTION('ref_axis',(1.,0.,0.));
#181=DIRECTION('center_axis',(0.,0.,1.));
#182=DIRECTION('ref_axis',(1.,0.,0.));
#183=DIRECTION('',(0.,0.,-1.));
#184=DIRECTION('center_axis',(0.,0.,1.));
#185=DIRECTION('ref_axis',(1.,0.,0.));
#186=DIRECTION('center_axis',(0.,0.,-1.));
#187=DIRECTION('ref_axis',(-1.,0.,0.));
#188=DIRECTION('center_axis',(0.,0.,1.));
#189=DIRECTION('ref_axis',(1.,0.,0.));
#190=CARTESIAN_POINT('',(0.,0.,0.));
#191=CARTESIAN_POINT('Origin',(0.,0.,31.8));
#192=CARTESIAN_POINT('',(1.1,1.34711147906209E-16,31.8));
#193=CARTESIAN_POINT('Origin',(0.,0.,31.8));
#194=CARTESIAN_POINT('',(1.1,1.34711147906209E-16,16.8));
#195=CARTESIAN_POINT('',(1.1,-1.34711147906209E-16,31.8));
#196=CARTESIAN_POINT('Origin',(0.,0.,16.8));
#197=CARTESIAN_POINT('Origin',(-11.5,0.,31.8));
#198=CARTESIAN_POINT('',(-0.608656242670987,1.79987154493248,29.8));
#199=CARTESIAN_POINT('',(-0.608656242670987,1.79987154493248,31.8));
#200=CARTESIAN_POINT('',(-0.608656242670989,1.79987154493248,24.3));
#201=CARTESIAN_POINT('',(-11.5,0.,29.8));
#202=CARTESIAN_POINT('',(-0.00277334939195828,1.8999979759287,29.8));
#203=CARTESIAN_POINT('',(-11.5,0.,31.8));
#204=CARTESIAN_POINT('',(-11.5,0.,31.8));
#205=CARTESIAN_POINT('',(-0.00277334939195828,1.8999979759287,31.8));
#206=CARTESIAN_POINT('Origin',(-4.8,0.,29.8));
#207=CARTESIAN_POINT('',(-0.603935319315885,-1.80146110978917,29.8));
#208=CARTESIAN_POINT('',(-1.9,-2.32682891837997E-16,29.8));
#209=CARTESIAN_POINT('Origin',(2.14313189850787E-16,0.,29.8));
#210=CARTESIAN_POINT('',(-11.5,0.,29.8));
#211=CARTESIAN_POINT('Origin',(2.14313189850787E-16,0.,29.8));
#212=CARTESIAN_POINT('Origin',(-0.00802942604140933,-1.89998303704343,31.8));
#213=CARTESIAN_POINT('',(-0.603935319315885,-1.80146110978917,31.8));
#214=CARTESIAN_POINT('',(-0.603935319315881,-1.80146110978917,24.3));
#215=CARTESIAN_POINT('',(-11.5,0.,31.8));
#216=CARTESIAN_POINT('Origin',(2.14313189850787E-16,0.,24.3));
#217=CARTESIAN_POINT('Origin',(2.14313189850787E-16,0.,31.8));
#218=CARTESIAN_POINT('',(-1.9,-2.32682891837997E-16,16.8));
#219=CARTESIAN_POINT('',(-1.9,-2.32682891837997E-16,24.3));
#220=CARTESIAN_POINT('Origin',(2.14313189850787E-16,0.,16.8));
#221=CARTESIAN_POINT('Origin',(1.9,0.,16.8));
#222=CARTESIAN_POINT('Origin',(0.6,0.,31.8));
#223=UNCERTAINTY_MEASURE_WITH_UNIT(LENGTH_MEASURE(0.01),#227,
'DISTANCE_ACCURACY_VALUE',
'Maximum model space distance between geometric entities at asserted c
onnectivities');
#224=UNCERTAINTY_MEASURE_WITH_UNIT(LENGTH_MEASURE(0.01),#227,
'DISTANCE_ACCURACY_VALUE',
'Maximum model space distance between geometric entities at asserted c
onnectivities');
#225=(
GEOMETRIC_REPRESENTATION_CONTEXT(3)
GLOBAL_UNCERTAINTY_ASSIGNED_CONTEXT((#223))
GLOBAL_UNIT_ASSIGNED_CONTEXT((#227,#229,#230))
REPRESENTATION_CONTEXT('','3D')
);
#226=(
GEOMETRIC_REPRESENTATION_CONTEXT(3)
GLOBAL_UNCERTAINTY_ASSIGNED_CONTEXT((#224))
GLOBAL_UNIT_ASSIGNED_CONTEXT((#227,#229,#230))
REPRESENTATION_CONTEXT('','3D')
);
#227=(
LENGTH_UNIT()
NAMED_UNIT(*)
SI_UNIT(.MILLI.,.METRE.)
);
#228=(
LENGTH_UNIT()
NAMED_UNIT(*)
SI_UNIT($,.METRE.)
);
#229=(
NAMED_UNIT(*)
PLANE_ANGLE_UNIT()
SI_UNIT($,.RADIAN.)
);
#230=(
NAMED_UNIT(*)
SI_UNIT($,.STERADIAN.)
SOLID_ANGLE_UNIT()
);
#231=SHAPE_DEFINITION_REPRESENTATION(#232,#233);
#232=PRODUCT_DEFINITION_SHAPE('',$,#235);
#233=SHAPE_REPRESENTATION('',(#139),#225);
#234=PRODUCT_DEFINITION_CONTEXT('part definition',#239,'design');
#235=PRODUCT_DEFINITION('2026-03-15-23-30-01-422',
'DisplayDeviceEnclosure',#236,#234);
#236=PRODUCT_DEFINITION_FORMATION('',$,#241);
#237=PRODUCT_RELATED_PRODUCT_CATEGORY('DisplayDeviceEnclosure',
'DisplayDeviceEnclosure',(#241));
#238=APPLICATION_PROTOCOL_DEFINITION('international standard',
'automotive_design',2009,#239);
#239=APPLICATION_CONTEXT(
'Core Data for Automotive Mechanical Design Process');
#240=PRODUCT_CONTEXT('part definition',#239,'mechanical');
#241=PRODUCT('2026-03-15-23-30-01-422','DisplayDeviceEnclosure',$,(#240));
#242=PRESENTATION_STYLE_ASSIGNMENT((#243));
#243=SURFACE_STYLE_USAGE(.BOTH.,#244);
#244=SURFACE_SIDE_STYLE('',(#245));
#245=SURFACE_STYLE_FILL_AREA(#246);
#246=FILL_AREA_STYLE('Steel - Satin',(#247));
#247=FILL_AREA_STYLE_COLOUR('Steel - Satin',#248);
#248=COLOUR_RGB('Steel - Satin',0.627450980392157,0.627450980392157,0.627450980392157);
ENDSEC;
END-ISO-10303-21;
