%TF.GenerationSoftware,KiCad,Pcbnew,9.0.7*%
%TF.CreationDate,2026-02-16T17:43:33-08:00*%
%TF.ProjectId,Electrical_schematics_V3,456c6563-7472-4696-9361-6c5f73636865,rev?*%
%TF.SameCoordinates,Original*%
%TF.FileFunction,Soldermask,Top*%
%TF.FilePolarity,Negative*%
%FSLAX46Y46*%
G04 Gerber Fmt 4.6, Leading zero omitted, Abs format (unit mm)*
G04 Created by KiCad (PCBNEW 9.0.7) date 2026-02-16 17:43:33*
%MOMM*%
%LPD*%
G01*
G04 APERTURE LIST*
G04 Aperture macros list*
%AMRoundRect*
0 Rectangle with rounded corners*
0 $1 Rounding radius*
0 $2 $3 $4 $5 $6 $7 $8 $9 X,Y pos of 4 corners*
0 Add a 4 corners polygon primitive as box body*
4,1,4,$2,$3,$4,$5,$6,$7,$8,$9,$2,$3,0*
0 Add four circle primitives for the rounded corners*
1,1,$1+$1,$2,$3*
1,1,$1+$1,$4,$5*
1,1,$1+$1,$6,$7*
1,1,$1+$1,$8,$9*
0 Add four rect primitives between the rounded corners*
20,1,$1+$1,$2,$3,$4,$5,0*
20,1,$1+$1,$4,$5,$6,$7,0*
20,1,$1+$1,$6,$7,$8,$9,0*
20,1,$1+$1,$8,$9,$2,$3,0*%
G04 Aperture macros list end*
%ADD10C,0.010000*%
%ADD11RoundRect,0.250000X-0.450000X0.350000X-0.450000X-0.350000X0.450000X-0.350000X0.450000X0.350000X0*%
%ADD12RoundRect,0.250000X-0.325000X-0.450000X0.325000X-0.450000X0.325000X0.450000X-0.325000X0.450000X0*%
%ADD13O,3.556000X1.778000*%
%ADD14C,1.905000*%
%ADD15RoundRect,0.250000X-0.350000X-0.625000X0.350000X-0.625000X0.350000X0.625000X-0.350000X0.625000X0*%
%ADD16O,1.200000X1.750000*%
%ADD17RoundRect,0.102000X0.250000X-0.250000X0.250000X0.250000X-0.250000X0.250000X-0.250000X-0.250000X0*%
%ADD18RoundRect,0.250000X0.450000X-0.350000X0.450000X0.350000X-0.450000X0.350000X-0.450000X-0.350000X0*%
%ADD19R,1.700000X1.700000*%
%ADD20C,1.700000*%
%ADD21RoundRect,0.250000X-0.350000X-0.450000X0.350000X-0.450000X0.350000X0.450000X-0.350000X0.450000X0*%
G04 APERTURE END LIST*
D10*
%TO.C,U1*%
X113100000Y-102650000D02*
X113350000Y-102650000D01*
X113350000Y-103350000D01*
X112650000Y-103350000D01*
X112650000Y-102570000D01*
X113100000Y-102570000D01*
X113100000Y-102650000D01*
G36*
X113100000Y-102650000D02*
G01*
X113350000Y-102650000D01*
X113350000Y-103350000D01*
X112650000Y-103350000D01*
X112650000Y-102570000D01*
X113100000Y-102570000D01*
X113100000Y-102650000D01*
G37*
%TD*%
D11*
%TO.C,R2*%
X117000000Y-104500000D03*
X117000000Y-106500000D03*
%TD*%
D12*
%TO.C,D1*%
X104000000Y-102000000D03*
X106050000Y-102000000D03*
%TD*%
D13*
%TO.C,U3*%
X111483000Y-83895000D03*
X111483000Y-86435000D03*
X111483000Y-88975000D03*
X111483000Y-91515000D03*
X111483000Y-94055000D03*
X111483000Y-96595000D03*
X111483000Y-99135000D03*
X128247000Y-99135000D03*
X128247000Y-96595000D03*
X128247000Y-94055000D03*
X128247000Y-91515000D03*
X128247000Y-88975000D03*
X128247000Y-86435000D03*
X128247000Y-83895000D03*
D14*
X117325000Y-109295000D03*
X122405000Y-109295000D03*
%TD*%
D15*
%TO.C,BT1*%
X129000000Y-110000000D03*
D16*
X131000000Y-110000000D03*
%TD*%
D17*
%TO.C,U1*%
X113000000Y-103800000D03*
X113000000Y-104600000D03*
X113000000Y-105400000D03*
X113000000Y-106200000D03*
X112200000Y-106200000D03*
X111400000Y-106200000D03*
X111400000Y-105400000D03*
X111400000Y-104600000D03*
X111400000Y-103800000D03*
X111400000Y-103000000D03*
X112200000Y-103000000D03*
%TD*%
D18*
%TO.C,R3*%
X105000000Y-90500000D03*
X105000000Y-88500000D03*
%TD*%
D19*
%TO.C,SW2*%
X112500000Y-114000000D03*
D20*
X115040000Y-114000000D03*
X117580000Y-114000000D03*
%TD*%
D19*
%TO.C,J2*%
X99500000Y-89500000D03*
D20*
X99500000Y-92040000D03*
X99500000Y-94580000D03*
X99500000Y-97120000D03*
X99500000Y-99660000D03*
X99500000Y-102200000D03*
%TD*%
D18*
%TO.C,R4*%
X105000000Y-94500000D03*
X105000000Y-92500000D03*
%TD*%
D21*
%TO.C,R1*%
X104000000Y-106000000D03*
X106000000Y-106000000D03*
%TD*%
M02*
