%TF.GenerationSoftware,KiCad,Pcbnew,9.0.7*%
%TF.CreationDate,2026-03-12T23:07:29-07:00*%
%TF.ProjectId,Schematics_display_deviceV3,53636865-6d61-4746-9963-735f64697370,rev?*%
%TF.SameCoordinates,Original*%
%TF.FileFunction,Profile,NP*%
%FSLAX46Y46*%
G04 Gerber Fmt 4.6, Leading zero omitted, Abs format (unit mm)*
G04 Created by KiCad (PCBNEW 9.0.7) date 2026-03-12 23:07:29*
%MOMM*%
%LPD*%
G01*
G04 APERTURE LIST*
%TA.AperFunction,Profile*%
%ADD10C,0.050000*%
%TD*%
G04 APERTURE END LIST*
D10*
X46000000Y-130500000D02*
G75*
G02*
X45000000Y-129500000I0J1000000D01*
G01*
X48500000Y-128500000D02*
G75*
G02*
X45500000Y-128500000I-1500000J0D01*
G01*
X45500000Y-128500000D02*
G75*
G02*
X48500000Y-128500000I1500000J0D01*
G01*
X99250000Y-130500000D02*
X46000000Y-130500000D01*
X100250000Y-129500000D02*
G75*
G02*
X99250000Y-130500000I-1000000J0D01*
G01*
X48500000Y-27500000D02*
G75*
G02*
X45500000Y-27500000I-1500000J0D01*
G01*
X45500000Y-27500000D02*
G75*
G02*
X48500000Y-27500000I1500000J0D01*
G01*
X99250000Y-25500000D02*
G75*
G02*
X100250000Y-26500000I0J-1000000D01*
G01*
X99750000Y-128500000D02*
G75*
G02*
X96750000Y-128500000I-1500000J0D01*
G01*
X96750000Y-128500000D02*
G75*
G02*
X99750000Y-128500000I1500000J0D01*
G01*
X45000000Y-26500000D02*
G75*
G02*
X46000000Y-25500000I1000000J0D01*
G01*
X46000000Y-25500000D02*
X99250000Y-25500000D01*
X45000000Y-129500000D02*
X45000000Y-26500000D01*
X100250000Y-26500000D02*
X100250000Y-129500000D01*
X99750000Y-27500000D02*
G75*
G02*
X96750000Y-27500000I-1500000J0D01*
G01*
X96750000Y-27500000D02*
G75*
G02*
X99750000Y-27500000I1500000J0D01*
G01*
%TO.C,M1*%
X60450000Y-42000000D02*
G75*
G02*
X58550000Y-42000000I-950000J0D01*
G01*
X58550000Y-42000000D02*
G75*
G02*
X60450000Y-42000000I950000J0D01*
G01*
X74950000Y-52000000D02*
G75*
G02*
X71050000Y-52000000I-1950000J0D01*
G01*
X71050000Y-52000000D02*
G75*
G02*
X74950000Y-52000000I1950000J0D01*
G01*
X83300000Y-33000000D02*
G75*
G02*
X80700000Y-33000000I-1300000J0D01*
G01*
X80700000Y-33000000D02*
G75*
G02*
X83300000Y-33000000I1300000J0D01*
G01*
X87450000Y-42000000D02*
G75*
G02*
X85550000Y-42000000I-950000J0D01*
G01*
X85550000Y-42000000D02*
G75*
G02*
X87450000Y-42000000I950000J0D01*
G01*
%TD*%
M02*
