%TF.GenerationSoftware,KiCad,Pcbnew,9.0.7*%
%TF.CreationDate,2026-03-12T23:07:28-07:00*%
%TF.ProjectId,Schematics_display_deviceV3,53636865-6d61-4746-9963-735f64697370,rev?*%
%TF.SameCoordinates,Original*%
%TF.FileFunction,Copper,L1,Top*%
%TF.FilePolarity,Positive*%
%FSLAX46Y46*%
G04 Gerber Fmt 4.6, Leading zero omitted, Abs format (unit mm)*
G04 Created by KiCad (PCBNEW 9.0.7) date 2026-03-12 23:07:28*
%MOMM*%
%LPD*%
G01*
G04 APERTURE LIST*
G04 Aperture macros list*
%AMRoundRect*
0 Rectangle with rounded corners*
0 $1 Rounding radius*
0 $2 $3 $4 $5 $6 $7 $8 $9 X,Y pos of 4 corners*
0 Add a 4 corners polygon primitive as box body*
4,1,4,$2,$3,$4,$5,$6,$7,$8,$9,$2,$3,0*
0 Add four circle primitives for the rounded corners*
1,1,$1+$1,$2,$3*
1,1,$1+$1,$4,$5*
1,1,$1+$1,$6,$7*
1,1,$1+$1,$8,$9*
0 Add four rect primitives between the rounded corners*
20,1,$1+$1,$2,$3,$4,$5,0*
20,1,$1+$1,$4,$5,$6,$7,0*
20,1,$1+$1,$6,$7,$8,$9,0*
20,1,$1+$1,$8,$9,$2,$3,0*%
G04 Aperture macros list end*
%TA.AperFunction,SMDPad,CuDef*%
%ADD10RoundRect,0.500000X-0.500000X-0.500000X0.500000X-0.500000X0.500000X0.500000X-0.500000X0.500000X0*%
%TD*%
%TA.AperFunction,SMDPad,CuDef*%
%ADD11RoundRect,0.250000X-0.450000X0.325000X-0.450000X-0.325000X0.450000X-0.325000X0.450000X0.325000X0*%
%TD*%
%TA.AperFunction,ComponentPad*%
%ADD12R,1.700000X1.700000*%
%TD*%
%TA.AperFunction,ComponentPad*%
%ADD13C,1.700000*%
%TD*%
%TA.AperFunction,SMDPad,CuDef*%
%ADD14RoundRect,0.250000X0.450000X-0.350000X0.450000X0.350000X-0.450000X0.350000X-0.450000X-0.350000X0*%
%TD*%
%TA.AperFunction,ComponentPad*%
%ADD15O,1.778000X3.556000*%
%TD*%
%TA.AperFunction,ComponentPad*%
%ADD16C,1.905000*%
%TD*%
%TA.AperFunction,ComponentPad*%
%ADD17RoundRect,0.250000X0.350000X0.625000X-0.350000X0.625000X-0.350000X-0.625000X0.350000X-0.625000X0*%
%TD*%
%TA.AperFunction,ComponentPad*%
%ADD18O,1.200000X1.750000*%
%TD*%
%TA.AperFunction,Conductor*%
%ADD19C,0.508000*%
%TD*%
G04 APERTURE END LIST*
D10*
%TO.P,SW1,1,1*%
%TO.N,GND*%
X51500000Y-95500000D03*
%TO.P,SW1,2,2*%
%TO.N,/D7*%
X57500000Y-95500000D03*
%TD*%
D11*
%TO.P,D1,1,K*%
%TO.N,GND*%
X94000000Y-59200000D03*
%TO.P,D1,2,A*%
%TO.N,Net-(D1-A)*%
X94000000Y-61250000D03*
%TD*%
D12*
%TO.P,J1,1,Pin_1*%
%TO.N,/SDA*%
X56500000Y-112420000D03*
D13*
%TO.P,J1,2,Pin_2*%
%TO.N,/SCL*%
X56500000Y-114960000D03*
%TO.P,J1,3,Pin_3*%
%TO.N,+3V3*%
X56500000Y-117500000D03*
%TO.P,J1,4,Pin_4*%
%TO.N,GND*%
X56500000Y-120040000D03*
%TD*%
D12*
%TO.P,SW2,1,A*%
%TO.N,+BATT*%
X94500000Y-72420000D03*
D13*
%TO.P,SW2,2,B*%
%TO.N,Net-(BT1-+)*%
X94500000Y-74960000D03*
%TO.P,SW2,3,C*%
%TO.N,unconnected-(SW2-C-Pad3)*%
X94500000Y-77500000D03*
%TD*%
%TO.P,M1,1*%
%TO.N,/D0*%
X61570000Y-45810000D03*
%TO.P,M1,2,-*%
%TO.N,/D1*%
X61570000Y-38190000D03*
%TO.P,M1,3*%
%TO.N,/D2*%
X84430000Y-38190000D03*
%TO.P,M1,4*%
%TO.N,/D3*%
X84430000Y-45810000D03*
%TD*%
D14*
%TO.P,R1,1*%
%TO.N,/D6*%
X94000000Y-67500000D03*
%TO.P,R1,2*%
%TO.N,Net-(D1-A)*%
X94000000Y-65500000D03*
%TD*%
D15*
%TO.P,U1,1,GPIO1_A0_D0*%
%TO.N,/D0*%
X47500000Y-66873000D03*
%TO.P,U1,2,GPIO2_A1_D1*%
%TO.N,/D1*%
X50040000Y-66873000D03*
%TO.P,U1,3,GPIO3_A2_D2*%
%TO.N,/D2*%
X52580000Y-66873000D03*
%TO.P,U1,4,GPIO4_A3_D3*%
%TO.N,/D3*%
X55120000Y-66873000D03*
%TO.P,U1,5,GPIO4_A3_D3_SDA*%
%TO.N,/SDA*%
X57660000Y-66873000D03*
%TO.P,U1,6,GPIO6_A5_D5_SCL*%
%TO.N,/SCL*%
X60200000Y-66873000D03*
%TO.P,U1,7,GPIO43_TX_D6*%
%TO.N,/D6*%
X62740000Y-66873000D03*
%TO.P,U1,8,GPIO44_D7_RX*%
%TO.N,/D7*%
X62740000Y-83637000D03*
%TO.P,U1,9,GPIO7_A8_D8_SCK*%
%TO.N,unconnected-(U1-GPIO7_A8_D8_SCK-Pad9)*%
X60200000Y-83637000D03*
%TO.P,U1,10,GPIO8_A9_D9_CIPO*%
%TO.N,unconnected-(U1-GPIO8_A9_D9_CIPO-Pad10)*%
X57660000Y-83637000D03*
%TO.P,U1,11,GPIO9_A10_D10_COPI*%
%TO.N,unconnected-(U1-GPIO9_A10_D10_COPI-Pad11)*%
X55120000Y-83637000D03*
%TO.P,U1,12,3V3*%
%TO.N,+3V3*%
X52580000Y-83637000D03*
%TO.P,U1,13,GND*%
%TO.N,GND*%
X50040000Y-83637000D03*
%TO.P,U1,14,5V*%
%TO.N,unconnected-(U1-5V-Pad14)*%
X47500000Y-83637000D03*
D16*
%TO.P,U1,15,+BATT*%
%TO.N,+BATT*%
X72900000Y-72715000D03*
%TO.P,U1,16,-BATT*%
%TO.N,-BATT*%
X72900000Y-77795000D03*
%TD*%
D17*
%TO.P,BT1,1,+*%
%TO.N,Net-(BT1-+)*%
X79000000Y-85875000D03*
D18*
%TO.P,BT1,2,-*%
%TO.N,-BATT*%
X77000000Y-85875000D03*
%TD*%
D19*
%TO.N,+3V3*%
X48000000Y-109000000D02*
X56500000Y-117500000D01*
X52580000Y-86920000D02*
X48000000Y-91500000D01*
X52580000Y-82875000D02*
X52580000Y-86920000D01*
X48000000Y-91500000D02*
X48000000Y-109000000D01*
%TO.N,/SCL*%
X62000000Y-70500000D02*
X64500000Y-70500000D01*
X64500000Y-70500000D02*
X68500000Y-74500000D01*
X68500000Y-102960000D02*
X56500000Y-114960000D01*
X60200000Y-68700000D02*
X62000000Y-70500000D01*
X60200000Y-67635000D02*
X60200000Y-68700000D01*
X68500000Y-74500000D02*
X68500000Y-102960000D01*
%TO.N,/SDA*%
X56500000Y-105420000D02*
X56500000Y-112420000D01*
X65500000Y-96420000D02*
X56500000Y-105420000D01*
X60500000Y-72000000D02*
X59500000Y-72000000D01*
X65500000Y-77000000D02*
X60500000Y-72000000D01*
X65500000Y-96420000D02*
X65500000Y-77000000D01*
%TO.N,/D7*%
X62740000Y-90260000D02*
X62740000Y-82875000D01*
X57500000Y-95500000D02*
X62740000Y-90260000D01*
%TO.N,/D0*%
X55000000Y-31500000D02*
X47500000Y-39000000D01*
X64000000Y-31500000D02*
X55000000Y-31500000D01*
X47500000Y-39000000D02*
X47500000Y-67635000D01*
X66500000Y-34000000D02*
X64000000Y-31500000D01*
X66500000Y-40880000D02*
X66500000Y-34000000D01*
X61570000Y-45810000D02*
X66500000Y-40880000D01*
%TO.N,Net-(BT1-+)*%
X89915000Y-74960000D02*
X94500000Y-74960000D01*
X79000000Y-85875000D02*
X89915000Y-74960000D01*
%TO.N,-BATT*%
X77000000Y-81895000D02*
X72900000Y-77795000D01*
X77000000Y-85875000D02*
X77000000Y-81895000D01*
%TO.N,Net-(D1-A)*%
X94000000Y-61250000D02*
X94000000Y-65500000D01*
%TO.N,+BATT*%
X94500000Y-72420000D02*
X73195000Y-72420000D01*
X73195000Y-72420000D02*
X72900000Y-72715000D01*
%TO.N,/D1*%
X61570000Y-38190000D02*
X57690000Y-38190000D01*
X57690000Y-38190000D02*
X50040000Y-45840000D01*
X50040000Y-45840000D02*
X50040000Y-67635000D01*
%TO.N,/D2*%
X84430000Y-38190000D02*
X77810000Y-38190000D01*
X77810000Y-38190000D02*
X52580000Y-63420000D01*
X52580000Y-63420000D02*
X52580000Y-67635000D01*
%TO.N,/D3*%
X58000000Y-61500000D02*
X55120000Y-64380000D01*
X68740000Y-61500000D02*
X58000000Y-61500000D01*
X55120000Y-64380000D02*
X55120000Y-67635000D01*
X84430000Y-45810000D02*
X68740000Y-61500000D01*
%TO.N,/D6*%
X62875000Y-67500000D02*
X62740000Y-67635000D01*
X94000000Y-67500000D02*
X62875000Y-67500000D01*
%TO.N,/SDA*%
X57660000Y-70160000D02*
X57660000Y-67635000D01*
X59500000Y-72000000D02*
X57660000Y-70160000D01*
%TD*%
%TA.AperFunction,Conductor*%
%TO.N,GND*%
G36*
X96641209Y-26004500D02*
G01*
X96655385Y-26003656D01*
X96674069Y-26014149D01*
X96694625Y-26020185D01*
X96703922Y-26030914D01*
X96716305Y-26037869D01*
X96726350Y-26056797D01*
X96740380Y-26072989D01*
X96742400Y-26087043D01*
X96749057Y-26099586D01*
X96747274Y-26120937D01*
X96750324Y-26142147D01*
X96744312Y-26156419D01*
X96743244Y-26169214D01*
X96725961Y-26199987D01*
X96583075Y-26386196D01*
X96451958Y-26613299D01*
X96451953Y-26613309D01*
X96351605Y-26855571D01*
X96351602Y-26855581D01*
X96283730Y-27108885D01*
X96249500Y-27368872D01*
X96249500Y-27631127D01*
X96270436Y-27790140D01*
X96283730Y-27891116D01*
X96305178Y-27971161D01*
X96351602Y-28144418D01*
X96351605Y-28144428D01*
X96451953Y-28386690D01*
X96451958Y-28386700D01*
X96583075Y-28613803D01*
X96742718Y-28821851D01*
X96742726Y-28821860D01*
X96928140Y-29007274D01*
X96928148Y-29007281D01*
X97136196Y-29166924D01*
X97363299Y-29298041D01*
X97363309Y-29298046D01*
X97605571Y-29398394D01*
X97605581Y-29398398D01*
X97858884Y-29466270D01*
X98118880Y-29500500D01*
X98118887Y-29500500D01*
X98381113Y-29500500D01*
X98381120Y-29500500D01*
X98641116Y-29466270D01*
X98894419Y-29398398D01*
X99136697Y-29298043D01*
X99363803Y-29166924D01*
X99550015Y-29024036D01*
X99615182Y-28998843D01*
X99683627Y-29012881D01*
X99733617Y-29061694D01*
X99749500Y-29122413D01*
X99749500Y-126877586D01*
X99729815Y-126944625D01*
X99677011Y-126990380D01*
X99607853Y-127000324D01*
X99550013Y-126975961D01*
X99363803Y-126833075D01*
X99136700Y-126701958D01*
X99136690Y-126701953D01*
X98894428Y-126601605D01*
X98894421Y-126601603D01*
X98894419Y-126601602D01*
X98641116Y-126533730D01*
X98583339Y-126526123D01*
X98381127Y-126499500D01*
X98381120Y-126499500D01*
X98118880Y-126499500D01*
X98118872Y-126499500D01*
X97887772Y-126529926D01*
X97858884Y-126533730D01*
X97605581Y-126601602D01*
X97605571Y-126601605D01*
X97363309Y-126701953D01*
X97363299Y-126701958D01*
X97136196Y-126833075D01*
X96928148Y-126992718D01*
X96742718Y-127178148D01*
X96583075Y-127386196D01*
X96451958Y-127613299D01*
X96451953Y-127613309D01*
X96351605Y-127855571D01*
X96351602Y-127855581D01*
X96283730Y-128108885D01*
X96249500Y-128368872D01*
X96249500Y-128631127D01*
X96270436Y-128790140D01*
X96283730Y-128891116D01*
X96305178Y-128971161D01*
X96351602Y-129144418D01*
X96351605Y-129144428D01*
X96451953Y-129386690D01*
X96451958Y-129386700D01*
X96583075Y-129613803D01*
X96725961Y-129800013D01*
X96751156Y-129865182D01*
X96737118Y-129933627D01*
X96688304Y-129983617D01*
X96627586Y-129999500D01*
X48622414Y-129999500D01*
X48555375Y-129979815D01*
X48509620Y-129927011D01*
X48499676Y-129857853D01*
X48524039Y-129800013D01*
X48666924Y-129613803D01*
X48798041Y-129386700D01*
X48798046Y-129386690D01*
X48898394Y-129144428D01*
X48898398Y-129144419D01*
X48966270Y-128891116D01*
X49000500Y-128631120D01*
X49000500Y-128368880D01*
X48966270Y-128108884D01*
X48898398Y-127855581D01*
X48800204Y-127618520D01*
X48798046Y-127613309D01*
X48798041Y-127613299D01*
X48666924Y-127386196D01*
X48507281Y-127178148D01*
X48507274Y-127178140D01*
X48321860Y-126992726D01*
X48321851Y-126992718D01*
X48113803Y-126833075D01*
X47886700Y-126701958D01*
X47886690Y-126701953D01*
X47644428Y-126601605D01*
X47644421Y-126601603D01*
X47644419Y-126601602D01*
X47391116Y-126533730D01*
X47333339Y-126526123D01*
X47131127Y-126499500D01*
X47131120Y-126499500D01*
X46868880Y-126499500D01*
X46868872Y-126499500D01*
X46637772Y-126529926D01*
X46608884Y-126533730D01*
X46355581Y-126601602D01*
X46355571Y-126601605D01*
X46113309Y-126701953D01*
X46113299Y-126701958D01*
X45886196Y-126833075D01*
X45699987Y-126975961D01*
X45634818Y-127001156D01*
X45566373Y-126987118D01*
X45516383Y-126938304D01*
X45500500Y-126877586D01*
X45500500Y-65874638D01*
X46110500Y-65874638D01*
X46110500Y-67871361D01*
X46144714Y-68087376D01*
X46212297Y-68295380D01*
X46212298Y-68295383D01*
X46279782Y-68427825D01*
X46287367Y-68442712D01*
X46311595Y-68490260D01*
X46440142Y-68667193D01*
X46594806Y-68821857D01*
X46740189Y-68927482D01*
X46771743Y-68950407D01*
X46899132Y-69015315D01*
X46966616Y-69049701D01*
X46966619Y-69049702D01*
X47070621Y-69083493D01*
X47174625Y-69117286D01*
X47274672Y-69133132D01*
X47390639Y-69151500D01*
X47390644Y-69151500D01*
X47609361Y-69151500D01*
X47714082Y-69134912D01*
X47825375Y-69117286D01*
X48033383Y-69049701D01*
X48228257Y-68950407D01*
X48327601Y-68878229D01*
X48405193Y-68821857D01*
X48405195Y-68821854D01*
X48405199Y-68821852D01*
X48559852Y-68667199D01*
X48669683Y-68516028D01*
X48725011Y-68473364D01*
X48794624Y-68467385D01*
X48856420Y-68499990D01*
X48870313Y-68516023D01*
X48931688Y-68600499D01*
X48980148Y-68667199D01*
X49134806Y-68821857D01*
X49280189Y-68927482D01*
X49311743Y-68950407D01*
X49439132Y-69015315D01*
X49506616Y-69049701D01*
X49506619Y-69049702D01*
X49610621Y-69083493D01*
X49714625Y-69117286D01*
X49814672Y-69133132D01*
X49930639Y-69151500D01*
X49930644Y-69151500D01*
X50149361Y-69151500D01*
X50254082Y-69134912D01*
X50365375Y-69117286D01*
X50573383Y-69049701D01*
X50768257Y-68950407D01*
X50867601Y-68878229D01*
X50945193Y-68821857D01*
X50945195Y-68821854D01*
X50945199Y-68821852D01*
X51099852Y-68667199D01*
X51209683Y-68516028D01*
X51265011Y-68473364D01*
X51334624Y-68467385D01*
X51396420Y-68499990D01*
X51410313Y-68516023D01*
X51471688Y-68600499D01*
X51520148Y-68667199D01*
X51674806Y-68821857D01*
X51820189Y-68927482D01*
X51851743Y-68950407D01*
X51979132Y-69015315D01*
X52046616Y-69049701D01*
X52046619Y-69049702D01*
X52150621Y-69083493D01*
X52254625Y-69117286D01*
X52354672Y-69133132D01*
X52470639Y-69151500D01*
X52470644Y-69151500D01*
X52689361Y-69151500D01*
X52794082Y-69134912D01*
X52905375Y-69117286D01*
X53113383Y-69049701D01*
X53308257Y-68950407D01*
X53407601Y-68878229D01*
X53485193Y-68821857D01*
X53485195Y-68821854D01*
X53485199Y-68821852D01*
X53639852Y-68667199D01*
X53749683Y-68516028D01*
X53805011Y-68473364D01*
X53874624Y-68467385D01*
X53936420Y-68499990D01*
X53950313Y-68516023D01*
X54011688Y-68600499D01*
X54060148Y-68667199D01*
X54214806Y-68821857D01*
X54360189Y-68927482D01*
X54391743Y-68950407D01*
X54519132Y-69015315D01*
X54586616Y-69049701D01*
X54586619Y-69049702D01*
X54690621Y-69083493D01*
X54794625Y-69117286D01*
X54894672Y-69133132D01*
X55010639Y-69151500D01*
X55010644Y-69151500D01*
X55229361Y-69151500D01*
X55334082Y-69134912D01*
X55445375Y-69117286D01*
X55653383Y-69049701D01*
X55848257Y-68950407D01*
X55947601Y-68878229D01*
X56025193Y-68821857D01*
X56025195Y-68821854D01*
X56025199Y-68821852D01*
X56179852Y-68667199D01*
X56289683Y-68516028D01*
X56345011Y-68473364D01*
X56414624Y-68467385D01*
X56476420Y-68499990D01*
X56490313Y-68516023D01*
X56600148Y-68667199D01*
X56754801Y-68821852D01*
X56854387Y-68894204D01*
X56897051Y-68949532D01*
X56905500Y-68994521D01*
X56905500Y-70080552D01*
X56905499Y-70080578D01*
X56905499Y-70085688D01*
X56905499Y-70234312D01*
X56905499Y-70234314D01*
X56905498Y-70234314D01*
X56934493Y-70380073D01*
X56934496Y-70380083D01*
X56991366Y-70517381D01*
X56991372Y-70517392D01*
X57073942Y-70640968D01*
X59019031Y-72586057D01*
X59019034Y-72586059D01*
X59142611Y-72668630D01*
X59223045Y-72701946D01*
X59279920Y-72725505D01*
X59304105Y-72730315D01*
X59352994Y-72740040D01*
X59425686Y-72754501D01*
X59425688Y-72754501D01*
X59580426Y-72754501D01*
X59580446Y-72754500D01*
X60136113Y-72754500D01*
X60203152Y-72774185D01*
X60223794Y-72790819D01*
X64709181Y-77276205D01*
X64742666Y-77337528D01*
X64745500Y-77363886D01*
X64745500Y-96056112D01*
X64725815Y-96123151D01*
X64709181Y-96143793D01*
X55913943Y-104939030D01*
X55913942Y-104939031D01*
X55831372Y-105062607D01*
X55831366Y-105062618D01*
X55774496Y-105199916D01*
X55774493Y-105199926D01*
X55745499Y-105345685D01*
X55745499Y-105500425D01*
X55745500Y-105500446D01*
X55745500Y-110945500D01*
X55725815Y-111012539D01*
X55673011Y-111058294D01*
X55621505Y-111069500D01*
X55602132Y-111069500D01*
X55602123Y-111069501D01*
X55542516Y-111075908D01*
X55407671Y-111126202D01*
X55407664Y-111126206D01*
X55292455Y-111212452D01*
X55292452Y-111212455D01*
X55206206Y-111327664D01*
X55206202Y-111327671D01*
X55155908Y-111462517D01*
X55149501Y-111522116D01*
X55149501Y-111522123D01*
X55149500Y-111522135D01*
X55149500Y-113317870D01*
X55149501Y-113317876D01*
X55155908Y-113377483D01*
X55206202Y-113512328D01*
X55206206Y-113512335D01*
X55292452Y-113627544D01*
X55292455Y-113627547D01*
X55407664Y-113713793D01*
X55407671Y-113713797D01*
X55539082Y-113762810D01*
X55595016Y-113804681D01*
X55619433Y-113870145D01*
X55604582Y-113938418D01*
X55583431Y-113966673D01*
X55469889Y-114080215D01*
X55344951Y-114252179D01*
X55248444Y-114441585D01*
X55182753Y-114643759D01*
X55156291Y-114810831D01*
X55126361Y-114873965D01*
X55067050Y-114910896D01*
X54997187Y-114909898D01*
X54946137Y-114879113D01*
X48790819Y-108723794D01*
X48757334Y-108662471D01*
X48754500Y-108636113D01*
X48754500Y-96862405D01*
X50491145Y-96862405D01*
X50627140Y-96933443D01*
X50822671Y-96989390D01*
X50822674Y-96989391D01*
X50941999Y-96999999D01*
X50942002Y-97000000D01*
X52057998Y-97000000D01*
X52058000Y-96999999D01*
X52177325Y-96989391D01*
X52177328Y-96989390D01*
X52372861Y-96933442D01*
X52508854Y-96862405D01*
X51500000Y-95853552D01*
X50491145Y-96862405D01*
X48754500Y-96862405D01*
X48754500Y-94941999D01*
X50000000Y-94941999D01*
X50000000Y-96058000D01*
X50010608Y-96177325D01*
X50010609Y-96177328D01*
X50066556Y-96372859D01*
X50137593Y-96508853D01*
X50137594Y-96508854D01*
X51146448Y-95500000D01*
X51146448Y-95499999D01*
X51853552Y-95499999D01*
X51853552Y-95500000D01*
X52862405Y-96508854D01*
X52933442Y-96372861D01*
X52989390Y-96177328D01*
X52989391Y-96177325D01*
X52999999Y-96058000D01*
X53000000Y-96057998D01*
X53000000Y-94942002D01*
X52999999Y-94941999D01*
X52989391Y-94822674D01*
X52989390Y-94822671D01*
X52933443Y-94627140D01*
X52862405Y-94491145D01*
X51853552Y-95499999D01*
X51146448Y-95499999D01*
X50137593Y-94491144D01*
X50137592Y-94491145D01*
X50066558Y-94627134D01*
X50066557Y-94627138D01*
X50010609Y-94822671D01*
X50010608Y-94822674D01*
X50000000Y-94941999D01*
X48754500Y-94941999D01*
X48754500Y-94137593D01*
X50491144Y-94137593D01*
X51500000Y-95146448D01*
X51500001Y-95146448D01*
X52508854Y-94137594D01*
X52508853Y-94137593D01*
X52372859Y-94066556D01*
X52177328Y-94010609D01*
X52177325Y-94010608D01*
X52058000Y-94000000D01*
X50941999Y-94000000D01*
X50822674Y-94010608D01*
X50822671Y-94010609D01*
X50627138Y-94066557D01*
X50627134Y-94066558D01*
X50491145Y-94137592D01*
X50491144Y-94137593D01*
X48754500Y-94137593D01*
X48754500Y-91863887D01*
X48774185Y-91796848D01*
X48790819Y-91776206D01*
X53166054Y-87400971D01*
X53166059Y-87400966D01*
X53248629Y-87277390D01*
X53305505Y-87140079D01*
X53334501Y-86994312D01*
X53334501Y-86845688D01*
X53334501Y-86840578D01*
X53334500Y-86840552D01*
X53334500Y-85758521D01*
X53354185Y-85691482D01*
X53385611Y-85658205D01*
X53485199Y-85585852D01*
X53639852Y-85431199D01*
X53749683Y-85280028D01*
X53805011Y-85237364D01*
X53874624Y-85231385D01*
X53936420Y-85263990D01*
X53950313Y-85280023D01*
X54059906Y-85430866D01*
X54060148Y-85431199D01*
X54214806Y-85585857D01*
X54360189Y-85691482D01*
X54391743Y-85714407D01*
X54519132Y-85779315D01*
X54586616Y-85813701D01*
X54586619Y-85813702D01*
X54690621Y-85847493D01*
X54794625Y-85881286D01*
X54894672Y-85897132D01*
X55010639Y-85915500D01*
X55010644Y-85915500D01*
X55229361Y-85915500D01*
X55334082Y-85898912D01*
X55445375Y-85881286D01*
X55653383Y-85813701D01*
X55848257Y-85714407D01*
X55947601Y-85642229D01*
X56025193Y-85585857D01*
X56025195Y-85585854D01*
X56025199Y-85585852D01*
X56179852Y-85431199D01*
X56289683Y-85280028D01*
X56345011Y-85237364D01*
X56414624Y-85231385D01*
X56476420Y-85263990D01*
X56490313Y-85280023D01*
X56599906Y-85430866D01*
X56600148Y-85431199D01*
X56754806Y-85585857D01*
X56900189Y-85691482D01*
X56931743Y-85714407D01*
X57059132Y-85779315D01*
X57126616Y-85813701D01*
X57126619Y-85813702D01*
X57230621Y-85847493D01*
X57334625Y-85881286D01*
X57434672Y-85897132D01*
X57550639Y-85915500D01*
X57550644Y-85915500D01*
X57769361Y-85915500D01*
X57874082Y-85898912D01*
X57985375Y-85881286D01*
X58193383Y-85813701D01*
X58388257Y-85714407D01*
X58487601Y-85642229D01*
X58565193Y-85585857D01*
X58565195Y-85585854D01*
X58565199Y-85585852D01*
X58719852Y-85431199D01*
X58829683Y-85280028D01*
X58885011Y-85237364D01*
X58954624Y-85231385D01*
X59016420Y-85263990D01*
X59030313Y-85280023D01*
X59139906Y-85430866D01*
X59140148Y-85431199D01*
X59294806Y-85585857D01*
X59440189Y-85691482D01*
X59471743Y-85714407D01*
X59599132Y-85779315D01*
X59666616Y-85813701D01*
X59666619Y-85813702D01*
X59770621Y-85847493D01*
X59874625Y-85881286D01*
X59974672Y-85897132D01*
X60090639Y-85915500D01*
X60090644Y-85915500D01*
X60309361Y-85915500D01*
X60414082Y-85898912D01*
X60525375Y-85881286D01*
X60733383Y-85813701D01*
X60928257Y-85714407D01*
X61027601Y-85642229D01*
X61105193Y-85585857D01*
X61105195Y-85585854D01*
X61105199Y-85585852D01*
X61259852Y-85431199D01*
X61369683Y-85280028D01*
X61425011Y-85237364D01*
X61494624Y-85231385D01*
X61556420Y-85263990D01*
X61570313Y-85280023D01*
X61680148Y-85431199D01*
X61834801Y-85585852D01*
X61934387Y-85658204D01*
X61977051Y-85713532D01*
X61985500Y-85758521D01*
X61985500Y-89896112D01*
X61965815Y-89963151D01*
X61949181Y-89983793D01*
X57969792Y-93963181D01*
X57908469Y-93996666D01*
X57882111Y-93999500D01*
X56941971Y-93999500D01*
X56941965Y-93999500D01*
X56941964Y-93999501D01*
X56936351Y-94000000D01*
X56822584Y-94010113D01*
X56626954Y-94066089D01*
X56536772Y-94113196D01*
X56446593Y-94160302D01*
X56446591Y-94160303D01*
X56446590Y-94160304D01*
X56288890Y-94288890D01*
X56160304Y-94446590D01*
X56066089Y-94626954D01*
X56010114Y-94822583D01*
X56010113Y-94822586D01*
X55999500Y-94941966D01*
X55999500Y-96058028D01*
X55999501Y-96058034D01*
X56010113Y-96177415D01*
X56066089Y-96373045D01*
X56066090Y-96373048D01*
X56066091Y-96373049D01*
X56160302Y-96553407D01*
X56160304Y-96553409D01*
X56288890Y-96711109D01*
X56370167Y-96777381D01*
X56446593Y-96839698D01*
X56626951Y-96933909D01*
X56822582Y-96989886D01*
X56941963Y-97000500D01*
X58058036Y-97000499D01*
X58177418Y-96989886D01*
X58373049Y-96933909D01*
X58553407Y-96839698D01*
X58711109Y-96711109D01*
X58839698Y-96553407D01*
X58933909Y-96373049D01*
X58989886Y-96177418D01*
X59000500Y-96058037D01*
X59000499Y-95117885D01*
X59020183Y-95050847D01*
X59036813Y-95030210D01*
X63326059Y-90740966D01*
X63408630Y-90617389D01*
X63465505Y-90480079D01*
X63494501Y-90334312D01*
X63494501Y-90185688D01*
X63494501Y-90180578D01*
X63494500Y-90180552D01*
X63494500Y-85758521D01*
X63514185Y-85691482D01*
X63545611Y-85658205D01*
X63645199Y-85585852D01*
X63799852Y-85431199D01*
X63799854Y-85431195D01*
X63799857Y-85431193D01*
X63864441Y-85342299D01*
X63928407Y-85254257D01*
X64027701Y-85059383D01*
X64095286Y-84851375D01*
X64112912Y-84740082D01*
X64129500Y-84635361D01*
X64129500Y-82638638D01*
X64109595Y-82512971D01*
X64095286Y-82422625D01*
X64027701Y-82214617D01*
X64027701Y-82214616D01*
X63993315Y-82147132D01*
X63928407Y-82019743D01*
X63896224Y-81975446D01*
X63799857Y-81842806D01*
X63645193Y-81688142D01*
X63468260Y-81559595D01*
X63468259Y-81559594D01*
X63468257Y-81559593D01*
X63405825Y-81527782D01*
X63273383Y-81460298D01*
X63273380Y-81460297D01*
X63065376Y-81392714D01*
X62849361Y-81358500D01*
X62849356Y-81358500D01*
X62630644Y-81358500D01*
X62630639Y-81358500D01*
X62414623Y-81392714D01*
X62206619Y-81460297D01*
X62206616Y-81460298D01*
X62011739Y-81559595D01*
X61834806Y-81688142D01*
X61680142Y-81842806D01*
X61570318Y-81993969D01*
X61514989Y-82036635D01*
X61445375Y-82042614D01*
X61383580Y-82010009D01*
X61369682Y-81993969D01*
X61259857Y-81842806D01*
X61105193Y-81688142D01*
X60928260Y-81559595D01*
X60928259Y-81559594D01*
X60928257Y-81559593D01*
X60865825Y-81527782D01*
X60733383Y-81460298D01*
X60733380Y-81460297D01*
X60525376Y-81392714D01*
X60309361Y-81358500D01*
X60309356Y-81358500D01*
X60090644Y-81358500D01*
X60090639Y-81358500D01*
X59874623Y-81392714D01*
X59666619Y-81460297D01*
X59666616Y-81460298D01*
X59471739Y-81559595D01*
X59294806Y-81688142D01*
X59140142Y-81842806D01*
X59030318Y-81993969D01*
X58974989Y-82036635D01*
X58905375Y-82042614D01*
X58843580Y-82010009D01*
X58829682Y-81993969D01*
X58719857Y-81842806D01*
X58565193Y-81688142D01*
X58388260Y-81559595D01*
X58388259Y-81559594D01*
X58388257Y-81559593D01*
X58325825Y-81527782D01*
X58193383Y-81460298D01*
X58193380Y-81460297D01*
X57985376Y-81392714D01*
X57769361Y-81358500D01*
X57769356Y-81358500D01*
X57550644Y-81358500D01*
X57550639Y-81358500D01*
X57334623Y-81392714D01*
X57126619Y-81460297D01*
X57126616Y-81460298D01*
X56931739Y-81559595D01*
X56754806Y-81688142D01*
X56600142Y-81842806D01*
X56490318Y-81993969D01*
X56434989Y-82036635D01*
X56365375Y-82042614D01*
X56303580Y-82010009D01*
X56289682Y-81993969D01*
X56179857Y-81842806D01*
X56025193Y-81688142D01*
X55848260Y-81559595D01*
X55848259Y-81559594D01*
X55848257Y-81559593D01*
X55785825Y-81527782D01*
X55653383Y-81460298D01*
X55653380Y-81460297D01*
X55445376Y-81392714D01*
X55229361Y-81358500D01*
X55229356Y-81358500D01*
X55010644Y-81358500D01*
X55010639Y-81358500D01*
X54794623Y-81392714D01*
X54586619Y-81460297D01*
X54586616Y-81460298D01*
X54391739Y-81559595D01*
X54214806Y-81688142D01*
X54060142Y-81842806D01*
X53950318Y-81993969D01*
X53894989Y-82036635D01*
X53825375Y-82042614D01*
X53763580Y-82010009D01*
X53749682Y-81993969D01*
X53639857Y-81842806D01*
X53485193Y-81688142D01*
X53308260Y-81559595D01*
X53308259Y-81559594D01*
X53308257Y-81559593D01*
X53245825Y-81527782D01*
X53113383Y-81460298D01*
X53113380Y-81460297D01*
X52905376Y-81392714D01*
X52689361Y-81358500D01*
X52689356Y-81358500D01*
X52470644Y-81358500D01*
X52470639Y-81358500D01*
X52254623Y-81392714D01*
X52046619Y-81460297D01*
X52046616Y-81460298D01*
X51851739Y-81559595D01*
X51674806Y-81688142D01*
X51520146Y-81842802D01*
X51520142Y-81842807D01*
X51410008Y-81994394D01*
X51354678Y-82037060D01*
X51285065Y-82043039D01*
X51223270Y-82010433D01*
X51209372Y-81994394D01*
X51099475Y-81843133D01*
X51099471Y-81843128D01*
X50944871Y-81688528D01*
X50944866Y-81688524D01*
X50767998Y-81560023D01*
X50573191Y-81460762D01*
X50573188Y-81460761D01*
X50365258Y-81393201D01*
X50290000Y-81381281D01*
X50290000Y-82432748D01*
X50236081Y-82401619D01*
X50106880Y-82367000D01*
X49973120Y-82367000D01*
X49843919Y-82401619D01*
X49790000Y-82432748D01*
X49790000Y-81381281D01*
X49714741Y-81393201D01*
X49506811Y-81460761D01*
X49506808Y-81460762D01*
X49312001Y-81560023D01*
X49135133Y-81688524D01*
X49135128Y-81688528D01*
X48980528Y-81843128D01*
X48980524Y-81843133D01*
X48870627Y-81994394D01*
X48815297Y-82037060D01*
X48745684Y-82043039D01*
X48683889Y-82010433D01*
X48669991Y-81994394D01*
X48559857Y-81842807D01*
X48559853Y-81842802D01*
X48405193Y-81688142D01*
X48228260Y-81559595D01*
X48228259Y-81559594D01*
X48228257Y-81559593D01*
X48165825Y-81527782D01*
X48033383Y-81460298D01*
X48033380Y-81460297D01*
X47825376Y-81392714D01*
X47609361Y-81358500D01*
X47609356Y-81358500D01*
X47390644Y-81358500D01*
X47390639Y-81358500D01*
X47174623Y-81392714D01*
X46966619Y-81460297D01*
X46966616Y-81460298D01*
X46771739Y-81559595D01*
X46594806Y-81688142D01*
X46440142Y-81842806D01*
X46311595Y-82019739D01*
X46212298Y-82214616D01*
X46212297Y-82214619D01*
X46144714Y-82422623D01*
X46110500Y-82638638D01*
X46110500Y-84635361D01*
X46144714Y-84851376D01*
X46212297Y-85059380D01*
X46212298Y-85059383D01*
X46272511Y-85177555D01*
X46299722Y-85230960D01*
X46311595Y-85254260D01*
X46440142Y-85431193D01*
X46594806Y-85585857D01*
X46740189Y-85691482D01*
X46771743Y-85714407D01*
X46899132Y-85779315D01*
X46966616Y-85813701D01*
X46966619Y-85813702D01*
X47070621Y-85847493D01*
X47174625Y-85881286D01*
X47274672Y-85897132D01*
X47390639Y-85915500D01*
X47390644Y-85915500D01*
X47609361Y-85915500D01*
X47714082Y-85898912D01*
X47825375Y-85881286D01*
X48033383Y-85813701D01*
X48228257Y-85714407D01*
X48327601Y-85642229D01*
X48405193Y-85585857D01*
X48405195Y-85585854D01*
X48405199Y-85585852D01*
X48559852Y-85431199D01*
X48669991Y-85279603D01*
X48725320Y-85236939D01*
X48794933Y-85230960D01*
X48856729Y-85263565D01*
X48870627Y-85279605D01*
X48980524Y-85430866D01*
X48980528Y-85430871D01*
X49135128Y-85585471D01*
X49135133Y-85585475D01*
X49312001Y-85713976D01*
X49506808Y-85813237D01*
X49506811Y-85813238D01*
X49714739Y-85880797D01*
X49789999Y-85892717D01*
X49790000Y-85892717D01*
X49790000Y-83317251D01*
X49843919Y-83348381D01*
X49973120Y-83383000D01*
X50106880Y-83383000D01*
X50236081Y-83348381D01*
X50290000Y-83317251D01*
X50290000Y-85892717D01*
X50365258Y-85880797D01*
X50365261Y-85880797D01*
X50573188Y-85813238D01*
X50573191Y-85813237D01*
X50767998Y-85713976D01*
X50944866Y-85585475D01*
X50944871Y-85585471D01*
X51099469Y-85430873D01*
X51209371Y-85279605D01*
X51264701Y-85236939D01*
X51334314Y-85230960D01*
X51396110Y-85263565D01*
X51410008Y-85279605D01*
X51520142Y-85431192D01*
X51520146Y-85431197D01*
X51520148Y-85431199D01*
X51674801Y-85585852D01*
X51774387Y-85658204D01*
X51817051Y-85713532D01*
X51825500Y-85758521D01*
X51825500Y-86556112D01*
X51805815Y-86623151D01*
X51789181Y-86643793D01*
X47413943Y-91019030D01*
X47413942Y-91019031D01*
X47331372Y-91142607D01*
X47331366Y-91142618D01*
X47274496Y-91279916D01*
X47274493Y-91279926D01*
X47245499Y-91425685D01*
X47245499Y-91580425D01*
X47245500Y-91580446D01*
X47245500Y-108920552D01*
X47245499Y-108920578D01*
X47245499Y-108925688D01*
X47245499Y-109074312D01*
X47245499Y-109074314D01*
X47245498Y-109074314D01*
X47274493Y-109220073D01*
X47274496Y-109220083D01*
X47331366Y-109357381D01*
X47331372Y-109357392D01*
X47413942Y-109480968D01*
X47413943Y-109480969D01*
X55129050Y-117196075D01*
X55162535Y-117257398D01*
X55163842Y-117303153D01*
X55149500Y-117393707D01*
X55149500Y-117606286D01*
X55182753Y-117816239D01*
X55248444Y-118018414D01*
X55344951Y-118207820D01*
X55469890Y-118379786D01*
X55620213Y-118530109D01*
X55792179Y-118655048D01*
X55792181Y-118655049D01*
X55792184Y-118655051D01*
X55801493Y-118659794D01*
X55852290Y-118707766D01*
X55869087Y-118775587D01*
X55846552Y-118841722D01*
X55801505Y-118880760D01*
X55792446Y-118885376D01*
X55792440Y-118885380D01*
X55738282Y-118924727D01*
X55738282Y-118924728D01*
X56370591Y-119557037D01*
X56307007Y-119574075D01*
X56192993Y-119639901D01*
X56099901Y-119732993D01*
X56034075Y-119847007D01*
X56017037Y-119910591D01*
X55384728Y-119278282D01*
X55384727Y-119278282D01*
X55345380Y-119332439D01*
X55248904Y-119521782D01*
X55183242Y-119723869D01*
X55183242Y-119723872D01*
X55150000Y-119933753D01*
X55150000Y-120146246D01*
X55183242Y-120356127D01*
X55183242Y-120356130D01*
X55248904Y-120558217D01*
X55345375Y-120747550D01*
X55384728Y-120801716D01*
X56017037Y-120169408D01*
X56034075Y-120232993D01*
X56099901Y-120347007D01*
X56192993Y-120440099D01*
X56307007Y-120505925D01*
X56370590Y-120522962D01*
X55738282Y-121155269D01*
X55738282Y-121155270D01*
X55792449Y-121194624D01*
X55981782Y-121291095D01*
X56183870Y-121356757D01*
X56393754Y-121390000D01*
X56606246Y-121390000D01*
X56816127Y-121356757D01*
X56816130Y-121356757D01*
X57018217Y-121291095D01*
X57207554Y-121194622D01*
X57261716Y-121155270D01*
X57261717Y-121155270D01*
X56629408Y-120522962D01*
X56692993Y-120505925D01*
X56807007Y-120440099D01*
X56900099Y-120347007D01*
X56965925Y-120232993D01*
X56982962Y-120169408D01*
X57615270Y-120801717D01*
X57615270Y-120801716D01*
X57654622Y-120747554D01*
X57751095Y-120558217D01*
X57816757Y-120356130D01*
X57816757Y-120356127D01*
X57850000Y-120146246D01*
X57850000Y-119933753D01*
X57816757Y-119723872D01*
X57816757Y-119723869D01*
X57751095Y-119521782D01*
X57654624Y-119332449D01*
X57615270Y-119278282D01*
X57615269Y-119278282D01*
X56982962Y-119910590D01*
X56965925Y-119847007D01*
X56900099Y-119732993D01*
X56807007Y-119639901D01*
X56692993Y-119574075D01*
X56629409Y-119557037D01*
X57261716Y-118924728D01*
X57207547Y-118885373D01*
X57207547Y-118885372D01*
X57198500Y-118880763D01*
X57147706Y-118832788D01*
X57130912Y-118764966D01*
X57153451Y-118698832D01*
X57198508Y-118659793D01*
X57207816Y-118655051D01*
X57287007Y-118597515D01*
X57379786Y-118530109D01*
X57379788Y-118530106D01*
X57379792Y-118530104D01*
X57530104Y-118379792D01*
X57530106Y-118379788D01*
X57530109Y-118379786D01*
X57655048Y-118207820D01*
X57655047Y-118207820D01*
X57655051Y-118207816D01*
X57751557Y-118018412D01*
X57817246Y-117816243D01*
X57850500Y-117606287D01*
X57850500Y-117393713D01*
X57817246Y-117183757D01*
X57751557Y-116981588D01*
X57655051Y-116792184D01*
X57655049Y-116792181D01*
X57655048Y-116792179D01*
X57530109Y-116620213D01*
X57379786Y-116469890D01*
X57207820Y-116344951D01*
X57207115Y-116344591D01*
X57199054Y-116340485D01*
X57148259Y-116292512D01*
X57131463Y-116224692D01*
X57153999Y-116158556D01*
X57199054Y-116119515D01*
X57207816Y-116115051D01*
X57229789Y-116099086D01*
X57379786Y-115990109D01*
X57379788Y-115990106D01*
X57379792Y-115990104D01*
X57530104Y-115839792D01*
X57530106Y-115839788D01*
X57530109Y-115839786D01*
X57655048Y-115667820D01*
X57655047Y-115667820D01*
X57655051Y-115667816D01*
X57751557Y-115478412D01*
X57817246Y-115276243D01*
X57850500Y-115066287D01*
X57850500Y-114853713D01*
X57836156Y-114763151D01*
X57845110Y-114693861D01*
X57870945Y-114656078D01*
X68980963Y-103546060D01*
X68980966Y-103546059D01*
X69086059Y-103440966D01*
X69168629Y-103317390D01*
X69168630Y-103317389D01*
X69168633Y-103317385D01*
X69225503Y-103180083D01*
X69225505Y-103180079D01*
X69254501Y-103034312D01*
X69254501Y-102885688D01*
X69254501Y-102880578D01*
X69254500Y-102880552D01*
X69254500Y-74425687D01*
X69254499Y-74425683D01*
X69227783Y-74291372D01*
X69225505Y-74279920D01*
X69168629Y-74142610D01*
X69161687Y-74132221D01*
X69086060Y-74019035D01*
X69086054Y-74019028D01*
X68976647Y-73909621D01*
X68976624Y-73909600D01*
X67750480Y-72683455D01*
X67667671Y-72600646D01*
X71447000Y-72600646D01*
X71447000Y-72829353D01*
X71482778Y-73055246D01*
X71482778Y-73055249D01*
X71553450Y-73272755D01*
X71576444Y-73317883D01*
X71657283Y-73476538D01*
X71791714Y-73661566D01*
X71953434Y-73823286D01*
X72138462Y-73957717D01*
X72342242Y-74061548D01*
X72342244Y-74061549D01*
X72559751Y-74132221D01*
X72559752Y-74132221D01*
X72559755Y-74132222D01*
X72785646Y-74168000D01*
X72785647Y-74168000D01*
X73014353Y-74168000D01*
X73014354Y-74168000D01*
X73240245Y-74132222D01*
X73240248Y-74132221D01*
X73240249Y-74132221D01*
X73457755Y-74061549D01*
X73457755Y-74061548D01*
X73457758Y-74061548D01*
X73661538Y-73957717D01*
X73846566Y-73823286D01*
X74008286Y-73661566D01*
X74142717Y-73476538D01*
X74246548Y-73272758D01*
X74250634Y-73260179D01*
X74290072Y-73202506D01*
X74354431Y-73175308D01*
X74368565Y-73174500D01*
X93025501Y-73174500D01*
X93092540Y-73194185D01*
X93138295Y-73246989D01*
X93149501Y-73298500D01*
X93149501Y-73317876D01*
X93155908Y-73377483D01*
X93206202Y-73512328D01*
X93206206Y-73512335D01*
X93292452Y-73627544D01*
X93292455Y-73627547D01*
X93407664Y-73713793D01*
X93407671Y-73713797D01*
X93539082Y-73762810D01*
X93595016Y-73804681D01*
X93619433Y-73870145D01*
X93604582Y-73938418D01*
X93583431Y-73966673D01*
X93469893Y-74080211D01*
X93416004Y-74154385D01*
X93360674Y-74197051D01*
X93315685Y-74205500D01*
X89995446Y-74205500D01*
X89995426Y-74205499D01*
X89989312Y-74205499D01*
X89840688Y-74205499D01*
X89840686Y-74205499D01*
X89719105Y-74229684D01*
X89704540Y-74232581D01*
X89694918Y-74234495D01*
X89694917Y-74234495D01*
X89652214Y-74252183D01*
X89652215Y-74252184D01*
X89557614Y-74291368D01*
X89557607Y-74291372D01*
X89434031Y-74373942D01*
X79344792Y-84463181D01*
X79283469Y-84496666D01*
X79257111Y-84499500D01*
X78599998Y-84499500D01*
X78599980Y-84499501D01*
X78497203Y-84510000D01*
X78497200Y-84510001D01*
X78330668Y-84565185D01*
X78330663Y-84565187D01*
X78181342Y-84657289D01*
X78057287Y-84781344D01*
X78017688Y-84845544D01*
X78000396Y-84861095D01*
X77986460Y-84879713D01*
X77974907Y-84884022D01*
X77965739Y-84892268D01*
X77942785Y-84896002D01*
X77920996Y-84904130D01*
X77908946Y-84901508D01*
X77896777Y-84903489D01*
X77875448Y-84894221D01*
X77852723Y-84889278D01*
X77837024Y-84877526D01*
X77832695Y-84875645D01*
X77824469Y-84868127D01*
X77790819Y-84834477D01*
X77757334Y-84773154D01*
X77754500Y-84746796D01*
X77754500Y-81975446D01*
X77754501Y-81975425D01*
X77754501Y-81820685D01*
X77725506Y-81674926D01*
X77725505Y-81674925D01*
X77725505Y-81674921D01*
X77668630Y-81537611D01*
X77616972Y-81460299D01*
X77586059Y-81414034D01*
X77480966Y-81308941D01*
X77480963Y-81308939D01*
X74360537Y-78188512D01*
X74327052Y-78127189D01*
X74325745Y-78081433D01*
X74353000Y-77909353D01*
X74353000Y-77680646D01*
X74317222Y-77454755D01*
X74317221Y-77454751D01*
X74317221Y-77454750D01*
X74246549Y-77237244D01*
X74246548Y-77237242D01*
X74142717Y-77033462D01*
X74008286Y-76848434D01*
X73846566Y-76686714D01*
X73661538Y-76552283D01*
X73596283Y-76519034D01*
X73457755Y-76448450D01*
X73240248Y-76377778D01*
X73070826Y-76350944D01*
X73014354Y-76342000D01*
X72785646Y-76342000D01*
X72710349Y-76353926D01*
X72559753Y-76377778D01*
X72559750Y-76377778D01*
X72342244Y-76448450D01*
X72138461Y-76552283D01*
X72032896Y-76628980D01*
X71953434Y-76686714D01*
X71953432Y-76686716D01*
X71953431Y-76686716D01*
X71791716Y-76848431D01*
X71791716Y-76848432D01*
X71791714Y-76848434D01*
X71735588Y-76925685D01*
X71657283Y-77033461D01*
X71553450Y-77237244D01*
X71482778Y-77454750D01*
X71482778Y-77454753D01*
X71447000Y-77680646D01*
X71447000Y-77909353D01*
X71482778Y-78135246D01*
X71482778Y-78135249D01*
X71553450Y-78352755D01*
X71553452Y-78352758D01*
X71657283Y-78556538D01*
X71791714Y-78741566D01*
X71953434Y-78903286D01*
X72138462Y-79037717D01*
X72342242Y-79141548D01*
X72342244Y-79141549D01*
X72559751Y-79212221D01*
X72559752Y-79212221D01*
X72559755Y-79212222D01*
X72785646Y-79248000D01*
X72785647Y-79248000D01*
X73014353Y-79248000D01*
X73014354Y-79248000D01*
X73186433Y-79220745D01*
X73255726Y-79229700D01*
X73293512Y-79255537D01*
X76209181Y-82171205D01*
X76242666Y-82232528D01*
X76245500Y-82258886D01*
X76245500Y-84746796D01*
X76225815Y-84813835D01*
X76209181Y-84834477D01*
X76160588Y-84883069D01*
X76160588Y-84883070D01*
X76160586Y-84883072D01*
X76126007Y-84930666D01*
X76058768Y-85023211D01*
X75980128Y-85177552D01*
X75926597Y-85342302D01*
X75899500Y-85513389D01*
X75899500Y-86236611D01*
X75926598Y-86407701D01*
X75980127Y-86572445D01*
X76058768Y-86726788D01*
X76160586Y-86866928D01*
X76283072Y-86989414D01*
X76423212Y-87091232D01*
X76577555Y-87169873D01*
X76742299Y-87223402D01*
X76913389Y-87250500D01*
X76913390Y-87250500D01*
X77086610Y-87250500D01*
X77086611Y-87250500D01*
X77257701Y-87223402D01*
X77422445Y-87169873D01*
X77576788Y-87091232D01*
X77716928Y-86989414D01*
X77824472Y-86881869D01*
X77885791Y-86848387D01*
X77955483Y-86853371D01*
X78011417Y-86895242D01*
X78017688Y-86904456D01*
X78057285Y-86968652D01*
X78057288Y-86968656D01*
X78181344Y-87092712D01*
X78330666Y-87184814D01*
X78497203Y-87239999D01*
X78599991Y-87250500D01*
X79400008Y-87250499D01*
X79400016Y-87250498D01*
X79400019Y-87250498D01*
X79456302Y-87244748D01*
X79502797Y-87239999D01*
X79669334Y-87184814D01*
X79818656Y-87092712D01*
X79942712Y-86968656D01*
X80034814Y-86819334D01*
X80089999Y-86652797D01*
X80100500Y-86550009D01*
X80100499Y-85892885D01*
X80120183Y-85825847D01*
X80136813Y-85805210D01*
X90191206Y-75750819D01*
X90252529Y-75717334D01*
X90278887Y-75714500D01*
X93315685Y-75714500D01*
X93382724Y-75734185D01*
X93416004Y-75765615D01*
X93469896Y-75839792D01*
X93620213Y-75990109D01*
X93792182Y-76115050D01*
X93800946Y-76119516D01*
X93851742Y-76167491D01*
X93868536Y-76235312D01*
X93845998Y-76301447D01*
X93800946Y-76340484D01*
X93792182Y-76344949D01*
X93620213Y-76469890D01*
X93469890Y-76620213D01*
X93344951Y-76792179D01*
X93248444Y-76981585D01*
X93182753Y-77183760D01*
X93162359Y-77312524D01*
X93149500Y-77393713D01*
X93149500Y-77606287D01*
X93182754Y-77816243D01*
X93213007Y-77909353D01*
X93248444Y-78018414D01*
X93344951Y-78207820D01*
X93469890Y-78379786D01*
X93620213Y-78530109D01*
X93792179Y-78655048D01*
X93792181Y-78655049D01*
X93792184Y-78655051D01*
X93981588Y-78751557D01*
X94183757Y-78817246D01*
X94393713Y-78850500D01*
X94393714Y-78850500D01*
X94606286Y-78850500D01*
X94606287Y-78850500D01*
X94816243Y-78817246D01*
X95018412Y-78751557D01*
X95207816Y-78655051D01*
X95229789Y-78639086D01*
X95379786Y-78530109D01*
X95379788Y-78530106D01*
X95379792Y-78530104D01*
X95530104Y-78379792D01*
X95530106Y-78379788D01*
X95530109Y-78379786D01*
X95655048Y-78207820D01*
X95655047Y-78207820D01*
X95655051Y-78207816D01*
X95751557Y-78018412D01*
X95817246Y-77816243D01*
X95850500Y-77606287D01*
X95850500Y-77393713D01*
X95817246Y-77183757D01*
X95751557Y-76981588D01*
X95655051Y-76792184D01*
X95655049Y-76792181D01*
X95655048Y-76792179D01*
X95530109Y-76620213D01*
X95379786Y-76469890D01*
X95207820Y-76344951D01*
X95202028Y-76342000D01*
X95199054Y-76340485D01*
X95148259Y-76292512D01*
X95131463Y-76224692D01*
X95153999Y-76158556D01*
X95199054Y-76119515D01*
X95207816Y-76115051D01*
X95229789Y-76099086D01*
X95379786Y-75990109D01*
X95379788Y-75990106D01*
X95379792Y-75990104D01*
X95530104Y-75839792D01*
X95530106Y-75839788D01*
X95530109Y-75839786D01*
X95655048Y-75667820D01*
X95655047Y-75667820D01*
X95655051Y-75667816D01*
X95751557Y-75478412D01*
X95817246Y-75276243D01*
X95850500Y-75066287D01*
X95850500Y-74853713D01*
X95817246Y-74643757D01*
X95751557Y-74441588D01*
X95655051Y-74252184D01*
X95655049Y-74252181D01*
X95655048Y-74252179D01*
X95530109Y-74080213D01*
X95416569Y-73966673D01*
X95383084Y-73905350D01*
X95388068Y-73835658D01*
X95429940Y-73779725D01*
X95460915Y-73762810D01*
X95592331Y-73713796D01*
X95707546Y-73627546D01*
X95793796Y-73512331D01*
X95844091Y-73377483D01*
X95850500Y-73317873D01*
X95850499Y-71522128D01*
X95844091Y-71462517D01*
X95825973Y-71413941D01*
X95793797Y-71327671D01*
X95793793Y-71327664D01*
X95707547Y-71212455D01*
X95707544Y-71212452D01*
X95592335Y-71126206D01*
X95592328Y-71126202D01*
X95457482Y-71075908D01*
X95457483Y-71075908D01*
X95397883Y-71069501D01*
X95397881Y-71069500D01*
X95397873Y-71069500D01*
X95397864Y-71069500D01*
X93602129Y-71069500D01*
X93602123Y-71069501D01*
X93542516Y-71075908D01*
X93407671Y-71126202D01*
X93407664Y-71126206D01*
X93292455Y-71212452D01*
X93292452Y-71212455D01*
X93206206Y-71327664D01*
X93206202Y-71327671D01*
X93155908Y-71462517D01*
X93149501Y-71522116D01*
X93149501Y-71522123D01*
X93149500Y-71522135D01*
X93149500Y-71541500D01*
X93129815Y-71608539D01*
X93077011Y-71654294D01*
X93025500Y-71665500D01*
X73956714Y-71665500D01*
X73889675Y-71645815D01*
X73869033Y-71629181D01*
X73846568Y-71606716D01*
X73846566Y-71606714D01*
X73661538Y-71472283D01*
X73642369Y-71462516D01*
X73457755Y-71368450D01*
X73240249Y-71297778D01*
X73240246Y-71297778D01*
X73062868Y-71269684D01*
X73014354Y-71262000D01*
X72785646Y-71262000D01*
X72737132Y-71269684D01*
X72559753Y-71297778D01*
X72559750Y-71297778D01*
X72342244Y-71368450D01*
X72138461Y-71472283D01*
X72043193Y-71541500D01*
X71953434Y-71606714D01*
X71953432Y-71606716D01*
X71953431Y-71606716D01*
X71791716Y-71768431D01*
X71791716Y-71768432D01*
X71791714Y-71768434D01*
X71733980Y-71847896D01*
X71657283Y-71953461D01*
X71553450Y-72157244D01*
X71482778Y-72374750D01*
X71482778Y-72374753D01*
X71447000Y-72600646D01*
X67667671Y-72600646D01*
X64980969Y-69913943D01*
X64980968Y-69913942D01*
X64939773Y-69886417D01*
X64857389Y-69831370D01*
X64857386Y-69831368D01*
X64857385Y-69831368D01*
X64776955Y-69798053D01*
X64720080Y-69774495D01*
X64695894Y-69769684D01*
X64574314Y-69745499D01*
X64574312Y-69745499D01*
X64425688Y-69745499D01*
X64419574Y-69745499D01*
X64419554Y-69745500D01*
X62363886Y-69745500D01*
X62296847Y-69725815D01*
X62276205Y-69709181D01*
X61323954Y-68756930D01*
X61290469Y-68695607D01*
X61295453Y-68625915D01*
X61311316Y-68596365D01*
X61326818Y-68575027D01*
X61369682Y-68516028D01*
X61425009Y-68473365D01*
X61494622Y-68467384D01*
X61556418Y-68499989D01*
X61570317Y-68516030D01*
X61680142Y-68667192D01*
X61680146Y-68667197D01*
X61834806Y-68821857D01*
X61980189Y-68927482D01*
X62011743Y-68950407D01*
X62139132Y-69015315D01*
X62206616Y-69049701D01*
X62206619Y-69049702D01*
X62310621Y-69083493D01*
X62414625Y-69117286D01*
X62514672Y-69133132D01*
X62630639Y-69151500D01*
X62630644Y-69151500D01*
X62849361Y-69151500D01*
X62954082Y-69134912D01*
X63065375Y-69117286D01*
X63273383Y-69049701D01*
X63468257Y-68950407D01*
X63567601Y-68878229D01*
X63645193Y-68821857D01*
X63645195Y-68821854D01*
X63645199Y-68821852D01*
X63799852Y-68667199D01*
X63799854Y-68667195D01*
X63799857Y-68667193D01*
X63856229Y-68589601D01*
X63928407Y-68490257D01*
X64014034Y-68322204D01*
X64062009Y-68271409D01*
X64124519Y-68254500D01*
X92848509Y-68254500D01*
X92915548Y-68274185D01*
X92954046Y-68313400D01*
X92957288Y-68318656D01*
X93081344Y-68442712D01*
X93230666Y-68534814D01*
X93397203Y-68589999D01*
X93499991Y-68600500D01*
X94500008Y-68600499D01*
X94500016Y-68600498D01*
X94500019Y-68600498D01*
X94556302Y-68594748D01*
X94602797Y-68589999D01*
X94769334Y-68534814D01*
X94918656Y-68442712D01*
X95042712Y-68318656D01*
X95134814Y-68169334D01*
X95189999Y-68002797D01*
X95200500Y-67900009D01*
X95200499Y-67099992D01*
X95189999Y-66997203D01*
X95134814Y-66830666D01*
X95042712Y-66681344D01*
X94949049Y-66587681D01*
X94915564Y-66526358D01*
X94920548Y-66456666D01*
X94949049Y-66412319D01*
X95042712Y-66318656D01*
X95134814Y-66169334D01*
X95189999Y-66002797D01*
X95200500Y-65900009D01*
X95200499Y-65099992D01*
X95189999Y-64997203D01*
X95134814Y-64830666D01*
X95042712Y-64681344D01*
X94918656Y-64557288D01*
X94918652Y-64557285D01*
X94813403Y-64492366D01*
X94766678Y-64440418D01*
X94754500Y-64386828D01*
X94754500Y-62338170D01*
X94774185Y-62271131D01*
X94813402Y-62232632D01*
X94918656Y-62167712D01*
X95042712Y-62043656D01*
X95134814Y-61894334D01*
X95189999Y-61727797D01*
X95200500Y-61625009D01*
X95200499Y-60874992D01*
X95189999Y-60772203D01*
X95134814Y-60605666D01*
X95042712Y-60456344D01*
X94918656Y-60332288D01*
X94915342Y-60330243D01*
X94913546Y-60328248D01*
X94912989Y-60327807D01*
X94913064Y-60327711D01*
X94868618Y-60278297D01*
X94857397Y-60209334D01*
X94885240Y-60145252D01*
X94915348Y-60119165D01*
X94918342Y-60117318D01*
X95042315Y-59993345D01*
X95134356Y-59844124D01*
X95134358Y-59844119D01*
X95189505Y-59677697D01*
X95189506Y-59677690D01*
X95199999Y-59574986D01*
X95200000Y-59574973D01*
X95200000Y-59450000D01*
X92800001Y-59450000D01*
X92800001Y-59574986D01*
X92810494Y-59677697D01*
X92865641Y-59844119D01*
X92865643Y-59844124D01*
X92957684Y-59993345D01*
X93081655Y-60117316D01*
X93081659Y-60117319D01*
X93084656Y-60119168D01*
X93086279Y-60120972D01*
X93087323Y-60121798D01*
X93087181Y-60121976D01*
X93131381Y-60171116D01*
X93142602Y-60240079D01*
X93114759Y-60304161D01*
X93084661Y-60330241D01*
X93081349Y-60332283D01*
X93081343Y-60332288D01*
X92957289Y-60456342D01*
X92865187Y-60605663D01*
X92865186Y-60605666D01*
X92810001Y-60772203D01*
X92810001Y-60772204D01*
X92810000Y-60772204D01*
X92799500Y-60874983D01*
X92799500Y-61625001D01*
X92799501Y-61625019D01*
X92810000Y-61727796D01*
X92810001Y-61727799D01*
X92865185Y-61894331D01*
X92865186Y-61894334D01*
X92957288Y-62043656D01*
X93081344Y-62167712D01*
X93186597Y-62232632D01*
X93233321Y-62284578D01*
X93245500Y-62338170D01*
X93245500Y-64386828D01*
X93225815Y-64453867D01*
X93186597Y-64492366D01*
X93081347Y-64557285D01*
X93081343Y-64557288D01*
X92957289Y-64681342D01*
X92865187Y-64830663D01*
X92865185Y-64830668D01*
X92858184Y-64851796D01*
X92810001Y-64997203D01*
X92810001Y-64997204D01*
X92810000Y-64997204D01*
X92799500Y-65099983D01*
X92799500Y-65900001D01*
X92799501Y-65900019D01*
X92810000Y-66002796D01*
X92810001Y-66002799D01*
X92865185Y-66169331D01*
X92865187Y-66169336D01*
X92957289Y-66318657D01*
X93050951Y-66412319D01*
X93054434Y-66418699D01*
X93060378Y-66422889D01*
X93070957Y-66448958D01*
X93084436Y-66473642D01*
X93083917Y-66480892D01*
X93086652Y-66487631D01*
X93081458Y-66515276D01*
X93079452Y-66543334D01*
X93074777Y-66550840D01*
X93073752Y-66556300D01*
X93057150Y-66579148D01*
X93053416Y-66585146D01*
X93052223Y-66586408D01*
X92957288Y-66681344D01*
X92947377Y-66697411D01*
X92938655Y-66706646D01*
X92919009Y-66718111D01*
X92902097Y-66733323D01*
X92887112Y-66736727D01*
X92878311Y-66741865D01*
X92866698Y-66741366D01*
X92848509Y-66745500D01*
X64253500Y-66745500D01*
X64186461Y-66725815D01*
X64140706Y-66673011D01*
X64129500Y-66621500D01*
X64129500Y-65874638D01*
X64109595Y-65748971D01*
X64095286Y-65658625D01*
X64027701Y-65450617D01*
X64027701Y-65450616D01*
X63940060Y-65278614D01*
X63928407Y-65255743D01*
X63909681Y-65229969D01*
X63799857Y-65078806D01*
X63645193Y-64924142D01*
X63468260Y-64795595D01*
X63468259Y-64795594D01*
X63468257Y-64795593D01*
X63381677Y-64751478D01*
X63273383Y-64696298D01*
X63273380Y-64696297D01*
X63065376Y-64628714D01*
X62849361Y-64594500D01*
X62849356Y-64594500D01*
X62630644Y-64594500D01*
X62630639Y-64594500D01*
X62414623Y-64628714D01*
X62206619Y-64696297D01*
X62206616Y-64696298D01*
X62011739Y-64795595D01*
X61834806Y-64924142D01*
X61680142Y-65078806D01*
X61570318Y-65229969D01*
X61514989Y-65272635D01*
X61445375Y-65278614D01*
X61383580Y-65246009D01*
X61369682Y-65229969D01*
X61259857Y-65078806D01*
X61105193Y-64924142D01*
X60928260Y-64795595D01*
X60928259Y-64795594D01*
X60928257Y-64795593D01*
X60841677Y-64751478D01*
X60733383Y-64696298D01*
X60733380Y-64696297D01*
X60525376Y-64628714D01*
X60309361Y-64594500D01*
X60309356Y-64594500D01*
X60090644Y-64594500D01*
X60090639Y-64594500D01*
X59874623Y-64628714D01*
X59666619Y-64696297D01*
X59666616Y-64696298D01*
X59471739Y-64795595D01*
X59294806Y-64924142D01*
X59140142Y-65078806D01*
X59030318Y-65229969D01*
X58974989Y-65272635D01*
X58905375Y-65278614D01*
X58843580Y-65246009D01*
X58829682Y-65229969D01*
X58719857Y-65078806D01*
X58565193Y-64924142D01*
X58388260Y-64795595D01*
X58388259Y-64795594D01*
X58388257Y-64795593D01*
X58301677Y-64751478D01*
X58193383Y-64696298D01*
X58193380Y-64696297D01*
X57985376Y-64628714D01*
X57769361Y-64594500D01*
X57769356Y-64594500D01*
X57550644Y-64594500D01*
X57550639Y-64594500D01*
X57334623Y-64628714D01*
X57126619Y-64696297D01*
X57126616Y-64696298D01*
X56931739Y-64795595D01*
X56754806Y-64924142D01*
X56600142Y-65078806D01*
X56490318Y-65229969D01*
X56434989Y-65272635D01*
X56365375Y-65278614D01*
X56303580Y-65246009D01*
X56289682Y-65229969D01*
X56179857Y-65078806D01*
X56025201Y-64924150D01*
X56025195Y-64924145D01*
X55925615Y-64851796D01*
X55922274Y-64847464D01*
X55917297Y-64845191D01*
X55901164Y-64820088D01*
X55882949Y-64796466D01*
X55881696Y-64789794D01*
X55879523Y-64786413D01*
X55874500Y-64751478D01*
X55874500Y-64743887D01*
X55894185Y-64676848D01*
X55910819Y-64656206D01*
X58276206Y-62290819D01*
X58337529Y-62257334D01*
X58363887Y-62254500D01*
X68659554Y-62254500D01*
X68659574Y-62254501D01*
X68665688Y-62254501D01*
X68814314Y-62254501D01*
X68851009Y-62247200D01*
X68935894Y-62230315D01*
X68960080Y-62225505D01*
X69016955Y-62201946D01*
X69097389Y-62168630D01*
X69220966Y-62086059D01*
X72482012Y-58825013D01*
X92800000Y-58825013D01*
X92800000Y-58950000D01*
X93750000Y-58950000D01*
X94250000Y-58950000D01*
X95199999Y-58950000D01*
X95199999Y-58825028D01*
X95199998Y-58825013D01*
X95189505Y-58722302D01*
X95134358Y-58555880D01*
X95134356Y-58555875D01*
X95042315Y-58406654D01*
X94918345Y-58282684D01*
X94769124Y-58190643D01*
X94769119Y-58190641D01*
X94602697Y-58135494D01*
X94602690Y-58135493D01*
X94499986Y-58125000D01*
X94250000Y-58125000D01*
X94250000Y-58950000D01*
X93750000Y-58950000D01*
X93750000Y-58125000D01*
X93500029Y-58125000D01*
X93500012Y-58125001D01*
X93397302Y-58135494D01*
X93230880Y-58190641D01*
X93230875Y-58190643D01*
X93081654Y-58282684D01*
X92957684Y-58406654D01*
X92865643Y-58555875D01*
X92865641Y-58555880D01*
X92810494Y-58722302D01*
X92810493Y-58722309D01*
X92800000Y-58825013D01*
X72482012Y-58825013D01*
X84126077Y-47180946D01*
X84187398Y-47147463D01*
X84233150Y-47146156D01*
X84323713Y-47160500D01*
X84323715Y-47160500D01*
X84536286Y-47160500D01*
X84536287Y-47160500D01*
X84746243Y-47127246D01*
X84948412Y-47061557D01*
X85137816Y-46965051D01*
X85159789Y-46949086D01*
X85309786Y-46840109D01*
X85309788Y-46840106D01*
X85309792Y-46840104D01*
X85460104Y-46689792D01*
X85460106Y-46689788D01*
X85460109Y-46689786D01*
X85585048Y-46517820D01*
X85585047Y-46517820D01*
X85585051Y-46517816D01*
X85681557Y-46328412D01*
X85747246Y-46126243D01*
X85780500Y-45916287D01*
X85780500Y-45703713D01*
X85747246Y-45493757D01*
X85681557Y-45291588D01*
X85585051Y-45102184D01*
X85585049Y-45102181D01*
X85585048Y-45102179D01*
X85460109Y-44930213D01*
X85309786Y-44779890D01*
X85137820Y-44654951D01*
X84948414Y-44558444D01*
X84948413Y-44558443D01*
X84948412Y-44558443D01*
X84746243Y-44492754D01*
X84746241Y-44492753D01*
X84746240Y-44492753D01*
X84584957Y-44467208D01*
X84536287Y-44459500D01*
X84323713Y-44459500D01*
X84275042Y-44467208D01*
X84113760Y-44492753D01*
X83911585Y-44558444D01*
X83722179Y-44654951D01*
X83550213Y-44779890D01*
X83399890Y-44930213D01*
X83274951Y-45102179D01*
X83178444Y-45291585D01*
X83112753Y-45493760D01*
X83079500Y-45703713D01*
X83079500Y-45916292D01*
X83093842Y-46006844D01*
X83084887Y-46076138D01*
X83059050Y-46113923D01*
X68463794Y-60709181D01*
X68402471Y-60742666D01*
X68376113Y-60745500D01*
X58080446Y-60745500D01*
X58080426Y-60745499D01*
X58074312Y-60745499D01*
X57925688Y-60745499D01*
X57925686Y-60745499D01*
X57807374Y-60769034D01*
X57791458Y-60772200D01*
X57779919Y-60774495D01*
X57779918Y-60774495D01*
X57723045Y-60798053D01*
X57642614Y-60831368D01*
X57519031Y-60913942D01*
X54533942Y-63899031D01*
X54451372Y-64022607D01*
X54451366Y-64022618D01*
X54394496Y-64159916D01*
X54394493Y-64159926D01*
X54365499Y-64305685D01*
X54365499Y-64460425D01*
X54365500Y-64460446D01*
X54365500Y-64751478D01*
X54345815Y-64818517D01*
X54314385Y-64851796D01*
X54214804Y-64924145D01*
X54214798Y-64924150D01*
X54060142Y-65078806D01*
X53950318Y-65229969D01*
X53894989Y-65272635D01*
X53825375Y-65278614D01*
X53763580Y-65246009D01*
X53749682Y-65229969D01*
X53639857Y-65078806D01*
X53485201Y-64924150D01*
X53485195Y-64924145D01*
X53385615Y-64851796D01*
X53342949Y-64796466D01*
X53334500Y-64751478D01*
X53334500Y-63783886D01*
X53354185Y-63716847D01*
X53370819Y-63696205D01*
X65204646Y-51862378D01*
X70549500Y-51862378D01*
X70549500Y-52137621D01*
X70580315Y-52411108D01*
X70580317Y-52411124D01*
X70641561Y-52679453D01*
X70641565Y-52679465D01*
X70732467Y-52939246D01*
X70851884Y-53187218D01*
X70851886Y-53187221D01*
X70998319Y-53420268D01*
X71169925Y-53635455D01*
X71364545Y-53830075D01*
X71579732Y-54001681D01*
X71812779Y-54148114D01*
X72060757Y-54267534D01*
X72255865Y-54335805D01*
X72320534Y-54358434D01*
X72320546Y-54358438D01*
X72588879Y-54419683D01*
X72862378Y-54450499D01*
X72862379Y-54450500D01*
X72862383Y-54450500D01*
X73137621Y-54450500D01*
X73137621Y-54450499D01*
X73411121Y-54419683D01*
X73679454Y-54358438D01*
X73939243Y-54267534D01*
X74187221Y-54148114D01*
X74420268Y-54001681D01*
X74635455Y-53830075D01*
X74830075Y-53635455D01*
X75001681Y-53420268D01*
X75148114Y-53187221D01*
X75267534Y-52939243D01*
X75358438Y-52679454D01*
X75419683Y-52411121D01*
X75450500Y-52137617D01*
X75450500Y-51862383D01*
X75419683Y-51588879D01*
X75358438Y-51320546D01*
X75267534Y-51060757D01*
X75148114Y-50812779D01*
X75001681Y-50579732D01*
X74830075Y-50364545D01*
X74635455Y-50169925D01*
X74420268Y-49998319D01*
X74187221Y-49851886D01*
X74187218Y-49851884D01*
X73939246Y-49732467D01*
X73679465Y-49641565D01*
X73679453Y-49641561D01*
X73411124Y-49580317D01*
X73411108Y-49580315D01*
X73137621Y-49549500D01*
X73137617Y-49549500D01*
X72862383Y-49549500D01*
X72862379Y-49549500D01*
X72588891Y-49580315D01*
X72588875Y-49580317D01*
X72320546Y-49641561D01*
X72320534Y-49641565D01*
X72060753Y-49732467D01*
X71812781Y-49851884D01*
X71579733Y-49998318D01*
X71364545Y-50169924D01*
X71169924Y-50364545D01*
X70998318Y-50579733D01*
X70851884Y-50812781D01*
X70732467Y-51060753D01*
X70641565Y-51320534D01*
X70641561Y-51320546D01*
X70580317Y-51588875D01*
X70580315Y-51588891D01*
X70549500Y-51862378D01*
X65204646Y-51862378D01*
X75181187Y-41885837D01*
X85049500Y-41885837D01*
X85049500Y-42114162D01*
X85085215Y-42339660D01*
X85155770Y-42556803D01*
X85259421Y-42760228D01*
X85393621Y-42944937D01*
X85555063Y-43106379D01*
X85739772Y-43240579D01*
X85835884Y-43289550D01*
X85943196Y-43344229D01*
X85943198Y-43344229D01*
X85943201Y-43344231D01*
X86059592Y-43382049D01*
X86160339Y-43414784D01*
X86385838Y-43450500D01*
X86385843Y-43450500D01*
X86614162Y-43450500D01*
X86839660Y-43414784D01*
X87056799Y-43344231D01*
X87260228Y-43240579D01*
X87444937Y-43106379D01*
X87606379Y-42944937D01*
X87740579Y-42760228D01*
X87844231Y-42556799D01*
X87914784Y-42339660D01*
X87925241Y-42273638D01*
X87950500Y-42114162D01*
X87950500Y-41885837D01*
X87914784Y-41660339D01*
X87844229Y-41443196D01*
X87740578Y-41239771D01*
X87606379Y-41055063D01*
X87444937Y-40893621D01*
X87260228Y-40759421D01*
X87056803Y-40655770D01*
X86839660Y-40585215D01*
X86614162Y-40549500D01*
X86614157Y-40549500D01*
X86385843Y-40549500D01*
X86385838Y-40549500D01*
X86160339Y-40585215D01*
X85943196Y-40655770D01*
X85739771Y-40759421D01*
X85555061Y-40893622D01*
X85393622Y-41055061D01*
X85259421Y-41239771D01*
X85155770Y-41443196D01*
X85085215Y-41660339D01*
X85049500Y-41885837D01*
X75181187Y-41885837D01*
X78086205Y-38980819D01*
X78147528Y-38947334D01*
X78173886Y-38944500D01*
X83245685Y-38944500D01*
X83312724Y-38964185D01*
X83346004Y-38995615D01*
X83399896Y-39069792D01*
X83550213Y-39220109D01*
X83722179Y-39345048D01*
X83722181Y-39345049D01*
X83722184Y-39345051D01*
X83911588Y-39441557D01*
X84113757Y-39507246D01*
X84323713Y-39540500D01*
X84323714Y-39540500D01*
X84536286Y-39540500D01*
X84536287Y-39540500D01*
X84746243Y-39507246D01*
X84948412Y-39441557D01*
X85137816Y-39345051D01*
X85232575Y-39276205D01*
X85309786Y-39220109D01*
X85309788Y-39220106D01*
X85309792Y-39220104D01*
X85460104Y-39069792D01*
X85460106Y-39069788D01*
X85460109Y-39069786D01*
X85585048Y-38897820D01*
X85585047Y-38897820D01*
X85585051Y-38897816D01*
X85681557Y-38708412D01*
X85747246Y-38506243D01*
X85780500Y-38296287D01*
X85780500Y-38083713D01*
X85747246Y-37873757D01*
X85681557Y-37671588D01*
X85585051Y-37482184D01*
X85585049Y-37482181D01*
X85585048Y-37482179D01*
X85460109Y-37310213D01*
X85309786Y-37159890D01*
X85137820Y-37034951D01*
X84948414Y-36938444D01*
X84948413Y-36938443D01*
X84948412Y-36938443D01*
X84746243Y-36872754D01*
X84746241Y-36872753D01*
X84746240Y-36872753D01*
X84584957Y-36847208D01*
X84536287Y-36839500D01*
X84323713Y-36839500D01*
X84275042Y-36847208D01*
X84113760Y-36872753D01*
X83911585Y-36938444D01*
X83722179Y-37034951D01*
X83550213Y-37159890D01*
X83399896Y-37310207D01*
X83346004Y-37384385D01*
X83290674Y-37427051D01*
X83245685Y-37435500D01*
X77735683Y-37435500D01*
X77589927Y-37464493D01*
X77589919Y-37464495D01*
X77452608Y-37521371D01*
X77329035Y-37603939D01*
X77329034Y-37603940D01*
X77276488Y-37656487D01*
X77223941Y-37709034D01*
X77223938Y-37709037D01*
X51993943Y-62939030D01*
X51993942Y-62939031D01*
X51911372Y-63062607D01*
X51911366Y-63062618D01*
X51854496Y-63199916D01*
X51854493Y-63199926D01*
X51825499Y-63345685D01*
X51825499Y-63500425D01*
X51825500Y-63500446D01*
X51825500Y-64751478D01*
X51805815Y-64818517D01*
X51774385Y-64851796D01*
X51674804Y-64924145D01*
X51674798Y-64924150D01*
X51520142Y-65078806D01*
X51410318Y-65229969D01*
X51354989Y-65272635D01*
X51285375Y-65278614D01*
X51223580Y-65246009D01*
X51209682Y-65229969D01*
X51099857Y-65078806D01*
X50945201Y-64924150D01*
X50945195Y-64924145D01*
X50845615Y-64851796D01*
X50802949Y-64796466D01*
X50794500Y-64751478D01*
X50794500Y-46203886D01*
X50814185Y-46136847D01*
X50830819Y-46116205D01*
X55061187Y-41885837D01*
X58049500Y-41885837D01*
X58049500Y-42114162D01*
X58085215Y-42339660D01*
X58155770Y-42556803D01*
X58259421Y-42760228D01*
X58393621Y-42944937D01*
X58555063Y-43106379D01*
X58739772Y-43240579D01*
X58835884Y-43289550D01*
X58943196Y-43344229D01*
X58943198Y-43344229D01*
X58943201Y-43344231D01*
X59059592Y-43382049D01*
X59160339Y-43414784D01*
X59385838Y-43450500D01*
X59385843Y-43450500D01*
X59614162Y-43450500D01*
X59839660Y-43414784D01*
X60056799Y-43344231D01*
X60260228Y-43240579D01*
X60444937Y-43106379D01*
X60606379Y-42944937D01*
X60740579Y-42760228D01*
X60844231Y-42556799D01*
X60914784Y-42339660D01*
X60925241Y-42273638D01*
X60950500Y-42114162D01*
X60950500Y-41885837D01*
X60914784Y-41660339D01*
X60844229Y-41443196D01*
X60740578Y-41239771D01*
X60606379Y-41055063D01*
X60444937Y-40893621D01*
X60260228Y-40759421D01*
X60056803Y-40655770D01*
X59839660Y-40585215D01*
X59614162Y-40549500D01*
X59614157Y-40549500D01*
X59385843Y-40549500D01*
X59385838Y-40549500D01*
X59160339Y-40585215D01*
X58943196Y-40655770D01*
X58739771Y-40759421D01*
X58555061Y-40893622D01*
X58393622Y-41055061D01*
X58259421Y-41239771D01*
X58155770Y-41443196D01*
X58085215Y-41660339D01*
X58049500Y-41885837D01*
X55061187Y-41885837D01*
X57966205Y-38980819D01*
X58027528Y-38947334D01*
X58053886Y-38944500D01*
X60385685Y-38944500D01*
X60452724Y-38964185D01*
X60486004Y-38995615D01*
X60539896Y-39069792D01*
X60690213Y-39220109D01*
X60862179Y-39345048D01*
X60862181Y-39345049D01*
X60862184Y-39345051D01*
X61051588Y-39441557D01*
X61253757Y-39507246D01*
X61463713Y-39540500D01*
X61463714Y-39540500D01*
X61676286Y-39540500D01*
X61676287Y-39540500D01*
X61886243Y-39507246D01*
X62088412Y-39441557D01*
X62277816Y-39345051D01*
X62372575Y-39276205D01*
X62449786Y-39220109D01*
X62449788Y-39220106D01*
X62449792Y-39220104D01*
X62600104Y-39069792D01*
X62600106Y-39069788D01*
X62600109Y-39069786D01*
X62725048Y-38897820D01*
X62725047Y-38897820D01*
X62725051Y-38897816D01*
X62821557Y-38708412D01*
X62887246Y-38506243D01*
X62920500Y-38296287D01*
X62920500Y-38083713D01*
X62887246Y-37873757D01*
X62821557Y-37671588D01*
X62725051Y-37482184D01*
X62725049Y-37482181D01*
X62725048Y-37482179D01*
X62600109Y-37310213D01*
X62449786Y-37159890D01*
X62277820Y-37034951D01*
X62088414Y-36938444D01*
X62088413Y-36938443D01*
X62088412Y-36938443D01*
X61886243Y-36872754D01*
X61886241Y-36872753D01*
X61886240Y-36872753D01*
X61724957Y-36847208D01*
X61676287Y-36839500D01*
X61463713Y-36839500D01*
X61415042Y-36847208D01*
X61253760Y-36872753D01*
X61051585Y-36938444D01*
X60862179Y-37034951D01*
X60690213Y-37159890D01*
X60539896Y-37310207D01*
X60486004Y-37384385D01*
X60430674Y-37427051D01*
X60385685Y-37435500D01*
X57770446Y-37435500D01*
X57770426Y-37435499D01*
X57764312Y-37435499D01*
X57615688Y-37435499D01*
X57615686Y-37435499D01*
X57494105Y-37459684D01*
X57479540Y-37462581D01*
X57469918Y-37464495D01*
X57469917Y-37464495D01*
X57427214Y-37482183D01*
X57427215Y-37482184D01*
X57332609Y-37521371D01*
X57209033Y-37603941D01*
X57156487Y-37656487D01*
X57103941Y-37709034D01*
X57103939Y-37709036D01*
X49453943Y-45359030D01*
X49453942Y-45359031D01*
X49371372Y-45482607D01*
X49371366Y-45482618D01*
X49314496Y-45619916D01*
X49314493Y-45619926D01*
X49285499Y-45765685D01*
X49285499Y-45920425D01*
X49285500Y-45920446D01*
X49285500Y-64751478D01*
X49265815Y-64818517D01*
X49234385Y-64851796D01*
X49134804Y-64924145D01*
X49134798Y-64924150D01*
X48980142Y-65078806D01*
X48870318Y-65229969D01*
X48814989Y-65272635D01*
X48745375Y-65278614D01*
X48683580Y-65246009D01*
X48669682Y-65229969D01*
X48559857Y-65078806D01*
X48405201Y-64924150D01*
X48405195Y-64924145D01*
X48305615Y-64851796D01*
X48262949Y-64796466D01*
X48254500Y-64751478D01*
X48254500Y-39363886D01*
X48274185Y-39296847D01*
X48290819Y-39276205D01*
X55276205Y-32290819D01*
X55337528Y-32257334D01*
X55363886Y-32254500D01*
X63636113Y-32254500D01*
X63703152Y-32274185D01*
X63723794Y-32290819D01*
X65709181Y-34276205D01*
X65742666Y-34337528D01*
X65745500Y-34363886D01*
X65745500Y-40516112D01*
X65725815Y-40583151D01*
X65709181Y-40603793D01*
X61873923Y-44439050D01*
X61812600Y-44472535D01*
X61766844Y-44473842D01*
X61676292Y-44459500D01*
X61676287Y-44459500D01*
X61463713Y-44459500D01*
X61415042Y-44467208D01*
X61253760Y-44492753D01*
X61051585Y-44558444D01*
X60862179Y-44654951D01*
X60690213Y-44779890D01*
X60539890Y-44930213D01*
X60414951Y-45102179D01*
X60318444Y-45291585D01*
X60252753Y-45493760D01*
X60219500Y-45703713D01*
X60219500Y-45916287D01*
X60220159Y-45920446D01*
X60250802Y-46113923D01*
X60252754Y-46126243D01*
X60261293Y-46152524D01*
X60318444Y-46328414D01*
X60414951Y-46517820D01*
X60539890Y-46689786D01*
X60690213Y-46840109D01*
X60862179Y-46965048D01*
X60862181Y-46965049D01*
X60862184Y-46965051D01*
X61051588Y-47061557D01*
X61253757Y-47127246D01*
X61463713Y-47160500D01*
X61463714Y-47160500D01*
X61676286Y-47160500D01*
X61676287Y-47160500D01*
X61886243Y-47127246D01*
X62088412Y-47061557D01*
X62277816Y-46965051D01*
X62299789Y-46949086D01*
X62449786Y-46840109D01*
X62449788Y-46840106D01*
X62449792Y-46840104D01*
X62600104Y-46689792D01*
X62600106Y-46689788D01*
X62600109Y-46689786D01*
X62725048Y-46517820D01*
X62725047Y-46517820D01*
X62725051Y-46517816D01*
X62821557Y-46328412D01*
X62887246Y-46126243D01*
X62920500Y-45916287D01*
X62920500Y-45703713D01*
X62906156Y-45613151D01*
X62915110Y-45543861D01*
X62940945Y-45506078D01*
X66980963Y-41466060D01*
X66980966Y-41466059D01*
X67086059Y-41360966D01*
X67141230Y-41278395D01*
X67168630Y-41237389D01*
X67225505Y-41100079D01*
X67254501Y-40954312D01*
X67254501Y-40805688D01*
X67254501Y-40800578D01*
X67254500Y-40800552D01*
X67254500Y-34080446D01*
X67254501Y-34080425D01*
X67254501Y-33925685D01*
X67225506Y-33779925D01*
X67225504Y-33779919D01*
X67219355Y-33765073D01*
X67196949Y-33710980D01*
X67194512Y-33705096D01*
X67168630Y-33642611D01*
X67126790Y-33579993D01*
X67086059Y-33519034D01*
X67086057Y-33519031D01*
X66976647Y-33409621D01*
X66976624Y-33409600D01*
X66532635Y-32965611D01*
X66449019Y-32881995D01*
X80199500Y-32881995D01*
X80199500Y-33118004D01*
X80199501Y-33118020D01*
X80230306Y-33352010D01*
X80291394Y-33579993D01*
X80381714Y-33798045D01*
X80381719Y-33798056D01*
X80452677Y-33920957D01*
X80499727Y-34002450D01*
X80499729Y-34002453D01*
X80499730Y-34002454D01*
X80643406Y-34189697D01*
X80643412Y-34189704D01*
X80810295Y-34356587D01*
X80810302Y-34356593D01*
X80920306Y-34441001D01*
X80997550Y-34500273D01*
X81128918Y-34576118D01*
X81201943Y-34618280D01*
X81201948Y-34618282D01*
X81201951Y-34618284D01*
X81420007Y-34708606D01*
X81647986Y-34769693D01*
X81881989Y-34800500D01*
X81881996Y-34800500D01*
X82118004Y-34800500D01*
X82118011Y-34800500D01*
X82352014Y-34769693D01*
X82579993Y-34708606D01*
X82798049Y-34618284D01*
X83002450Y-34500273D01*
X83189699Y-34356592D01*
X83356592Y-34189699D01*
X83500273Y-34002450D01*
X83618284Y-33798049D01*
X83708606Y-33579993D01*
X83769693Y-33352014D01*
X83800500Y-33118011D01*
X83800500Y-32881989D01*
X83769693Y-32647986D01*
X83708606Y-32420007D01*
X83618284Y-32201951D01*
X83618282Y-32201948D01*
X83618280Y-32201943D01*
X83576118Y-32128918D01*
X83500273Y-31997550D01*
X83356592Y-31810301D01*
X83356587Y-31810295D01*
X83189704Y-31643412D01*
X83189697Y-31643406D01*
X83002454Y-31499730D01*
X83002453Y-31499729D01*
X83002450Y-31499727D01*
X82920957Y-31452677D01*
X82798056Y-31381719D01*
X82798045Y-31381714D01*
X82579993Y-31291394D01*
X82352010Y-31230306D01*
X82118020Y-31199501D01*
X82118017Y-31199500D01*
X82118011Y-31199500D01*
X81881989Y-31199500D01*
X81881983Y-31199500D01*
X81881979Y-31199501D01*
X81647989Y-31230306D01*
X81420006Y-31291394D01*
X81201954Y-31381714D01*
X81201943Y-31381719D01*
X80997545Y-31499730D01*
X80810302Y-31643406D01*
X80810295Y-31643412D01*
X80643412Y-31810295D01*
X80643406Y-31810302D01*
X80499730Y-31997545D01*
X80381719Y-32201943D01*
X80381714Y-32201954D01*
X80291394Y-32420006D01*
X80230306Y-32647989D01*
X80199501Y-32881979D01*
X80199500Y-32881995D01*
X66449019Y-32881995D01*
X64480969Y-30913943D01*
X64480968Y-30913942D01*
X64439773Y-30886417D01*
X64357389Y-30831370D01*
X64357386Y-30831368D01*
X64357385Y-30831368D01*
X64276955Y-30798053D01*
X64220080Y-30774495D01*
X64195894Y-30769684D01*
X64074314Y-30745499D01*
X64074312Y-30745499D01*
X63925688Y-30745499D01*
X63919574Y-30745499D01*
X63919554Y-30745500D01*
X55080446Y-30745500D01*
X55080426Y-30745499D01*
X55074312Y-30745499D01*
X54925688Y-30745499D01*
X54925686Y-30745499D01*
X54804105Y-30769684D01*
X54789540Y-30772581D01*
X54779918Y-30774495D01*
X54779917Y-30774495D01*
X54723045Y-30798052D01*
X54723045Y-30798053D01*
X54642616Y-30831368D01*
X54642609Y-30831371D01*
X54519033Y-30913941D01*
X54466487Y-30966487D01*
X54413941Y-31019034D01*
X54413939Y-31019036D01*
X46913943Y-38519030D01*
X46913942Y-38519031D01*
X46831369Y-38642612D01*
X46831367Y-38642615D01*
X46819626Y-38670964D01*
X46819625Y-38670967D01*
X46776098Y-38776051D01*
X46776097Y-38776054D01*
X46774497Y-38779915D01*
X46774493Y-38779927D01*
X46745499Y-38925685D01*
X46745499Y-39080425D01*
X46745500Y-39080446D01*
X46745500Y-64751478D01*
X46725815Y-64818517D01*
X46694385Y-64851796D01*
X46594804Y-64924145D01*
X46594798Y-64924150D01*
X46440142Y-65078806D01*
X46311595Y-65255739D01*
X46212298Y-65450616D01*
X46212297Y-65450619D01*
X46144714Y-65658623D01*
X46110500Y-65874638D01*
X45500500Y-65874638D01*
X45500500Y-29122413D01*
X45520185Y-29055374D01*
X45572989Y-29009619D01*
X45642147Y-28999675D01*
X45699984Y-29024036D01*
X45749060Y-29061694D01*
X45886196Y-29166924D01*
X46113299Y-29298041D01*
X46113309Y-29298046D01*
X46355571Y-29398394D01*
X46355581Y-29398398D01*
X46608884Y-29466270D01*
X46868880Y-29500500D01*
X46868887Y-29500500D01*
X47131113Y-29500500D01*
X47131120Y-29500500D01*
X47391116Y-29466270D01*
X47644419Y-29398398D01*
X47886697Y-29298043D01*
X48113803Y-29166924D01*
X48321851Y-29007282D01*
X48321855Y-29007277D01*
X48321860Y-29007274D01*
X48507274Y-28821860D01*
X48507277Y-28821855D01*
X48507282Y-28821851D01*
X48666924Y-28613803D01*
X48798043Y-28386697D01*
X48898398Y-28144419D01*
X48966270Y-27891116D01*
X49000500Y-27631120D01*
X49000500Y-27368880D01*
X48966270Y-27108884D01*
X48898398Y-26855581D01*
X48800204Y-26618520D01*
X48798046Y-26613309D01*
X48798041Y-26613299D01*
X48666924Y-26386196D01*
X48524039Y-26199987D01*
X48498844Y-26134818D01*
X48512882Y-26066373D01*
X48561696Y-26016383D01*
X48622414Y-26000500D01*
X96627586Y-26000500D01*
X96641209Y-26004500D01*
G37*
%TD.AperFunction*%
%TD*%
M02*
