%TF.GenerationSoftware,KiCad,Pcbnew,9.0.7*%
%TF.CreationDate,2026-03-12T23:07:29-07:00*%
%TF.ProjectId,Schematics_display_deviceV3,53636865-6d61-4746-9963-735f64697370,rev?*%
%TF.SameCoordinates,Original*%
%TF.FileFunction,Legend,Top*%
%TF.FilePolarity,Positive*%
%FSLAX46Y46*%
G04 Gerber Fmt 4.6, Leading zero omitted, Abs format (unit mm)*
G04 Created by KiCad (PCBNEW 9.0.7) date 2026-03-12 23:07:29*
%MOMM*%
%LPD*%
G01*
G04 APERTURE LIST*
%ADD10C,0.100000*%
%ADD11C,0.150000*%
%ADD12C,0.120000*%
G04 APERTURE END LIST*
D10*
X46661027Y-30652531D02*
X46994360Y-31652531D01*
X46994360Y-31652531D02*
X47327693Y-30652531D01*
X48041979Y-31604912D02*
X47946741Y-31652531D01*
X47946741Y-31652531D02*
X47756265Y-31652531D01*
X47756265Y-31652531D02*
X47661027Y-31604912D01*
X47661027Y-31604912D02*
X47613408Y-31509673D01*
X47613408Y-31509673D02*
X47613408Y-31128721D01*
X47613408Y-31128721D02*
X47661027Y-31033483D01*
X47661027Y-31033483D02*
X47756265Y-30985864D01*
X47756265Y-30985864D02*
X47946741Y-30985864D01*
X47946741Y-30985864D02*
X48041979Y-31033483D01*
X48041979Y-31033483D02*
X48089598Y-31128721D01*
X48089598Y-31128721D02*
X48089598Y-31223959D01*
X48089598Y-31223959D02*
X47613408Y-31319197D01*
X48518170Y-31652531D02*
X48518170Y-30985864D01*
X48518170Y-31176340D02*
X48565789Y-31081102D01*
X48565789Y-31081102D02*
X48613408Y-31033483D01*
X48613408Y-31033483D02*
X48708646Y-30985864D01*
X48708646Y-30985864D02*
X48803884Y-30985864D01*
X49280075Y-31652531D02*
X49184837Y-31604912D01*
X49184837Y-31604912D02*
X49137218Y-31557292D01*
X49137218Y-31557292D02*
X49089599Y-31462054D01*
X49089599Y-31462054D02*
X49089599Y-31176340D01*
X49089599Y-31176340D02*
X49137218Y-31081102D01*
X49137218Y-31081102D02*
X49184837Y-31033483D01*
X49184837Y-31033483D02*
X49280075Y-30985864D01*
X49280075Y-30985864D02*
X49422932Y-30985864D01*
X49422932Y-30985864D02*
X49518170Y-31033483D01*
X49518170Y-31033483D02*
X49565789Y-31081102D01*
X49565789Y-31081102D02*
X49613408Y-31176340D01*
X49613408Y-31176340D02*
X49613408Y-31462054D01*
X49613408Y-31462054D02*
X49565789Y-31557292D01*
X49565789Y-31557292D02*
X49518170Y-31604912D01*
X49518170Y-31604912D02*
X49422932Y-31652531D01*
X49422932Y-31652531D02*
X49280075Y-31652531D01*
X50041980Y-30985864D02*
X50041980Y-31652531D01*
X50041980Y-31081102D02*
X50089599Y-31033483D01*
X50089599Y-31033483D02*
X50184837Y-30985864D01*
X50184837Y-30985864D02*
X50327694Y-30985864D01*
X50327694Y-30985864D02*
X50422932Y-31033483D01*
X50422932Y-31033483D02*
X50470551Y-31128721D01*
X50470551Y-31128721D02*
X50470551Y-31652531D01*
X50946742Y-31652531D02*
X50946742Y-30985864D01*
X50946742Y-30652531D02*
X50899123Y-30700150D01*
X50899123Y-30700150D02*
X50946742Y-30747769D01*
X50946742Y-30747769D02*
X50994361Y-30700150D01*
X50994361Y-30700150D02*
X50946742Y-30652531D01*
X50946742Y-30652531D02*
X50946742Y-30747769D01*
X51422932Y-31652531D02*
X51422932Y-30652531D01*
X51518170Y-31271578D02*
X51803884Y-31652531D01*
X51803884Y-30985864D02*
X51422932Y-31366816D01*
X52661027Y-31652531D02*
X52661027Y-31128721D01*
X52661027Y-31128721D02*
X52613408Y-31033483D01*
X52613408Y-31033483D02*
X52518170Y-30985864D01*
X52518170Y-30985864D02*
X52327694Y-30985864D01*
X52327694Y-30985864D02*
X52232456Y-31033483D01*
X52661027Y-31604912D02*
X52565789Y-31652531D01*
X52565789Y-31652531D02*
X52327694Y-31652531D01*
X52327694Y-31652531D02*
X52232456Y-31604912D01*
X52232456Y-31604912D02*
X52184837Y-31509673D01*
X52184837Y-31509673D02*
X52184837Y-31414435D01*
X52184837Y-31414435D02*
X52232456Y-31319197D01*
X52232456Y-31319197D02*
X52327694Y-31271578D01*
X52327694Y-31271578D02*
X52565789Y-31271578D01*
X52565789Y-31271578D02*
X52661027Y-31223959D01*
X53851504Y-31604912D02*
X53994361Y-31652531D01*
X53994361Y-31652531D02*
X54232456Y-31652531D01*
X54232456Y-31652531D02*
X54327694Y-31604912D01*
X54327694Y-31604912D02*
X54375313Y-31557292D01*
X54375313Y-31557292D02*
X54422932Y-31462054D01*
X54422932Y-31462054D02*
X54422932Y-31366816D01*
X54422932Y-31366816D02*
X54375313Y-31271578D01*
X54375313Y-31271578D02*
X54327694Y-31223959D01*
X54327694Y-31223959D02*
X54232456Y-31176340D01*
X54232456Y-31176340D02*
X54041980Y-31128721D01*
X54041980Y-31128721D02*
X53946742Y-31081102D01*
X53946742Y-31081102D02*
X53899123Y-31033483D01*
X53899123Y-31033483D02*
X53851504Y-30938245D01*
X53851504Y-30938245D02*
X53851504Y-30843007D01*
X53851504Y-30843007D02*
X53899123Y-30747769D01*
X53899123Y-30747769D02*
X53946742Y-30700150D01*
X53946742Y-30700150D02*
X54041980Y-30652531D01*
X54041980Y-30652531D02*
X54280075Y-30652531D01*
X54280075Y-30652531D02*
X54422932Y-30700150D01*
X54851504Y-31557292D02*
X54899123Y-31604912D01*
X54899123Y-31604912D02*
X54851504Y-31652531D01*
X54851504Y-31652531D02*
X54803885Y-31604912D01*
X54803885Y-31604912D02*
X54851504Y-31557292D01*
X54851504Y-31557292D02*
X54851504Y-31652531D01*
X55327694Y-31652531D02*
X55327694Y-30652531D01*
X55327694Y-30652531D02*
X55708646Y-30652531D01*
X55708646Y-30652531D02*
X55803884Y-30700150D01*
X55803884Y-30700150D02*
X55851503Y-30747769D01*
X55851503Y-30747769D02*
X55899122Y-30843007D01*
X55899122Y-30843007D02*
X55899122Y-30985864D01*
X55899122Y-30985864D02*
X55851503Y-31081102D01*
X55851503Y-31081102D02*
X55803884Y-31128721D01*
X55803884Y-31128721D02*
X55708646Y-31176340D01*
X55708646Y-31176340D02*
X55327694Y-31176340D01*
X56327694Y-31557292D02*
X56375313Y-31604912D01*
X56375313Y-31604912D02*
X56327694Y-31652531D01*
X56327694Y-31652531D02*
X56280075Y-31604912D01*
X56280075Y-31604912D02*
X56327694Y-31557292D01*
X56327694Y-31557292D02*
X56327694Y-31652531D01*
X46661027Y-32262475D02*
X47232455Y-32262475D01*
X46946741Y-33262475D02*
X46946741Y-32262475D01*
X47565789Y-32738665D02*
X47899122Y-32738665D01*
X48041979Y-33262475D02*
X47565789Y-33262475D01*
X47565789Y-33262475D02*
X47565789Y-32262475D01*
X47565789Y-32262475D02*
X48041979Y-32262475D01*
X49041979Y-33167236D02*
X48994360Y-33214856D01*
X48994360Y-33214856D02*
X48851503Y-33262475D01*
X48851503Y-33262475D02*
X48756265Y-33262475D01*
X48756265Y-33262475D02*
X48613408Y-33214856D01*
X48613408Y-33214856D02*
X48518170Y-33119617D01*
X48518170Y-33119617D02*
X48470551Y-33024379D01*
X48470551Y-33024379D02*
X48422932Y-32833903D01*
X48422932Y-32833903D02*
X48422932Y-32691046D01*
X48422932Y-32691046D02*
X48470551Y-32500570D01*
X48470551Y-32500570D02*
X48518170Y-32405332D01*
X48518170Y-32405332D02*
X48613408Y-32310094D01*
X48613408Y-32310094D02*
X48756265Y-32262475D01*
X48756265Y-32262475D02*
X48851503Y-32262475D01*
X48851503Y-32262475D02*
X48994360Y-32310094D01*
X48994360Y-32310094D02*
X49041979Y-32357713D01*
X49470551Y-33262475D02*
X49470551Y-32262475D01*
X49470551Y-32738665D02*
X50041979Y-32738665D01*
X50041979Y-33262475D02*
X50041979Y-32262475D01*
X50518170Y-33262475D02*
X50518170Y-32262475D01*
X50994360Y-33262475D02*
X50994360Y-32262475D01*
X50994360Y-32262475D02*
X51565788Y-33262475D01*
X51565788Y-33262475D02*
X51565788Y-32262475D01*
X53280074Y-32262475D02*
X52803884Y-32262475D01*
X52803884Y-32262475D02*
X52756265Y-32738665D01*
X52756265Y-32738665D02*
X52803884Y-32691046D01*
X52803884Y-32691046D02*
X52899122Y-32643427D01*
X52899122Y-32643427D02*
X53137217Y-32643427D01*
X53137217Y-32643427D02*
X53232455Y-32691046D01*
X53232455Y-32691046D02*
X53280074Y-32738665D01*
X53280074Y-32738665D02*
X53327693Y-32833903D01*
X53327693Y-32833903D02*
X53327693Y-33071998D01*
X53327693Y-33071998D02*
X53280074Y-33167236D01*
X53280074Y-33167236D02*
X53232455Y-33214856D01*
X53232455Y-33214856D02*
X53137217Y-33262475D01*
X53137217Y-33262475D02*
X52899122Y-33262475D01*
X52899122Y-33262475D02*
X52803884Y-33214856D01*
X52803884Y-33214856D02*
X52756265Y-33167236D01*
X54280074Y-33262475D02*
X53708646Y-33262475D01*
X53994360Y-33262475D02*
X53994360Y-32262475D01*
X53994360Y-32262475D02*
X53899122Y-32405332D01*
X53899122Y-32405332D02*
X53803884Y-32500570D01*
X53803884Y-32500570D02*
X53708646Y-32548189D01*
X55137217Y-32595808D02*
X55137217Y-33262475D01*
X54899122Y-32214856D02*
X54661027Y-32929141D01*
X54661027Y-32929141D02*
X55280074Y-32929141D01*
X46803884Y-34872419D02*
X46803884Y-33872419D01*
X46803884Y-33872419D02*
X47041979Y-33872419D01*
X47041979Y-33872419D02*
X47184836Y-33920038D01*
X47184836Y-33920038D02*
X47280074Y-34015276D01*
X47280074Y-34015276D02*
X47327693Y-34110514D01*
X47327693Y-34110514D02*
X47375312Y-34300990D01*
X47375312Y-34300990D02*
X47375312Y-34443847D01*
X47375312Y-34443847D02*
X47327693Y-34634323D01*
X47327693Y-34634323D02*
X47280074Y-34729561D01*
X47280074Y-34729561D02*
X47184836Y-34824800D01*
X47184836Y-34824800D02*
X47041979Y-34872419D01*
X47041979Y-34872419D02*
X46803884Y-34872419D01*
X47803884Y-34872419D02*
X47803884Y-34205752D01*
X47803884Y-33872419D02*
X47756265Y-33920038D01*
X47756265Y-33920038D02*
X47803884Y-33967657D01*
X47803884Y-33967657D02*
X47851503Y-33920038D01*
X47851503Y-33920038D02*
X47803884Y-33872419D01*
X47803884Y-33872419D02*
X47803884Y-33967657D01*
X48232455Y-34824800D02*
X48327693Y-34872419D01*
X48327693Y-34872419D02*
X48518169Y-34872419D01*
X48518169Y-34872419D02*
X48613407Y-34824800D01*
X48613407Y-34824800D02*
X48661026Y-34729561D01*
X48661026Y-34729561D02*
X48661026Y-34681942D01*
X48661026Y-34681942D02*
X48613407Y-34586704D01*
X48613407Y-34586704D02*
X48518169Y-34539085D01*
X48518169Y-34539085D02*
X48375312Y-34539085D01*
X48375312Y-34539085D02*
X48280074Y-34491466D01*
X48280074Y-34491466D02*
X48232455Y-34396228D01*
X48232455Y-34396228D02*
X48232455Y-34348609D01*
X48232455Y-34348609D02*
X48280074Y-34253371D01*
X48280074Y-34253371D02*
X48375312Y-34205752D01*
X48375312Y-34205752D02*
X48518169Y-34205752D01*
X48518169Y-34205752D02*
X48613407Y-34253371D01*
X49089598Y-34205752D02*
X49089598Y-35205752D01*
X49089598Y-34253371D02*
X49184836Y-34205752D01*
X49184836Y-34205752D02*
X49375312Y-34205752D01*
X49375312Y-34205752D02*
X49470550Y-34253371D01*
X49470550Y-34253371D02*
X49518169Y-34300990D01*
X49518169Y-34300990D02*
X49565788Y-34396228D01*
X49565788Y-34396228D02*
X49565788Y-34681942D01*
X49565788Y-34681942D02*
X49518169Y-34777180D01*
X49518169Y-34777180D02*
X49470550Y-34824800D01*
X49470550Y-34824800D02*
X49375312Y-34872419D01*
X49375312Y-34872419D02*
X49184836Y-34872419D01*
X49184836Y-34872419D02*
X49089598Y-34824800D01*
X50137217Y-34872419D02*
X50041979Y-34824800D01*
X50041979Y-34824800D02*
X49994360Y-34729561D01*
X49994360Y-34729561D02*
X49994360Y-33872419D01*
X50946741Y-34872419D02*
X50946741Y-34348609D01*
X50946741Y-34348609D02*
X50899122Y-34253371D01*
X50899122Y-34253371D02*
X50803884Y-34205752D01*
X50803884Y-34205752D02*
X50613408Y-34205752D01*
X50613408Y-34205752D02*
X50518170Y-34253371D01*
X50946741Y-34824800D02*
X50851503Y-34872419D01*
X50851503Y-34872419D02*
X50613408Y-34872419D01*
X50613408Y-34872419D02*
X50518170Y-34824800D01*
X50518170Y-34824800D02*
X50470551Y-34729561D01*
X50470551Y-34729561D02*
X50470551Y-34634323D01*
X50470551Y-34634323D02*
X50518170Y-34539085D01*
X50518170Y-34539085D02*
X50613408Y-34491466D01*
X50613408Y-34491466D02*
X50851503Y-34491466D01*
X50851503Y-34491466D02*
X50946741Y-34443847D01*
X51327694Y-34205752D02*
X51565789Y-34872419D01*
X51803884Y-34205752D02*
X51565789Y-34872419D01*
X51565789Y-34872419D02*
X51470551Y-35110514D01*
X51470551Y-35110514D02*
X51422932Y-35158133D01*
X51422932Y-35158133D02*
X51327694Y-35205752D01*
X52946742Y-34872419D02*
X52946742Y-33872419D01*
X52946742Y-33872419D02*
X53184837Y-33872419D01*
X53184837Y-33872419D02*
X53327694Y-33920038D01*
X53327694Y-33920038D02*
X53422932Y-34015276D01*
X53422932Y-34015276D02*
X53470551Y-34110514D01*
X53470551Y-34110514D02*
X53518170Y-34300990D01*
X53518170Y-34300990D02*
X53518170Y-34443847D01*
X53518170Y-34443847D02*
X53470551Y-34634323D01*
X53470551Y-34634323D02*
X53422932Y-34729561D01*
X53422932Y-34729561D02*
X53327694Y-34824800D01*
X53327694Y-34824800D02*
X53184837Y-34872419D01*
X53184837Y-34872419D02*
X52946742Y-34872419D01*
X54327694Y-34824800D02*
X54232456Y-34872419D01*
X54232456Y-34872419D02*
X54041980Y-34872419D01*
X54041980Y-34872419D02*
X53946742Y-34824800D01*
X53946742Y-34824800D02*
X53899123Y-34729561D01*
X53899123Y-34729561D02*
X53899123Y-34348609D01*
X53899123Y-34348609D02*
X53946742Y-34253371D01*
X53946742Y-34253371D02*
X54041980Y-34205752D01*
X54041980Y-34205752D02*
X54232456Y-34205752D01*
X54232456Y-34205752D02*
X54327694Y-34253371D01*
X54327694Y-34253371D02*
X54375313Y-34348609D01*
X54375313Y-34348609D02*
X54375313Y-34443847D01*
X54375313Y-34443847D02*
X53899123Y-34539085D01*
X54708647Y-34205752D02*
X54946742Y-34872419D01*
X54946742Y-34872419D02*
X55184837Y-34205752D01*
X55565790Y-34872419D02*
X55565790Y-34205752D01*
X55565790Y-33872419D02*
X55518171Y-33920038D01*
X55518171Y-33920038D02*
X55565790Y-33967657D01*
X55565790Y-33967657D02*
X55613409Y-33920038D01*
X55613409Y-33920038D02*
X55565790Y-33872419D01*
X55565790Y-33872419D02*
X55565790Y-33967657D01*
X56470551Y-34824800D02*
X56375313Y-34872419D01*
X56375313Y-34872419D02*
X56184837Y-34872419D01*
X56184837Y-34872419D02*
X56089599Y-34824800D01*
X56089599Y-34824800D02*
X56041980Y-34777180D01*
X56041980Y-34777180D02*
X55994361Y-34681942D01*
X55994361Y-34681942D02*
X55994361Y-34396228D01*
X55994361Y-34396228D02*
X56041980Y-34300990D01*
X56041980Y-34300990D02*
X56089599Y-34253371D01*
X56089599Y-34253371D02*
X56184837Y-34205752D01*
X56184837Y-34205752D02*
X56375313Y-34205752D01*
X56375313Y-34205752D02*
X56470551Y-34253371D01*
X57280075Y-34824800D02*
X57184837Y-34872419D01*
X57184837Y-34872419D02*
X56994361Y-34872419D01*
X56994361Y-34872419D02*
X56899123Y-34824800D01*
X56899123Y-34824800D02*
X56851504Y-34729561D01*
X56851504Y-34729561D02*
X56851504Y-34348609D01*
X56851504Y-34348609D02*
X56899123Y-34253371D01*
X56899123Y-34253371D02*
X56994361Y-34205752D01*
X56994361Y-34205752D02*
X57184837Y-34205752D01*
X57184837Y-34205752D02*
X57280075Y-34253371D01*
X57280075Y-34253371D02*
X57327694Y-34348609D01*
X57327694Y-34348609D02*
X57327694Y-34443847D01*
X57327694Y-34443847D02*
X56851504Y-34539085D01*
X58375314Y-33872419D02*
X58708647Y-34872419D01*
X58708647Y-34872419D02*
X59041980Y-33872419D01*
X59327695Y-33967657D02*
X59375314Y-33920038D01*
X59375314Y-33920038D02*
X59470552Y-33872419D01*
X59470552Y-33872419D02*
X59708647Y-33872419D01*
X59708647Y-33872419D02*
X59803885Y-33920038D01*
X59803885Y-33920038D02*
X59851504Y-33967657D01*
X59851504Y-33967657D02*
X59899123Y-34062895D01*
X59899123Y-34062895D02*
X59899123Y-34158133D01*
X59899123Y-34158133D02*
X59851504Y-34300990D01*
X59851504Y-34300990D02*
X59280076Y-34872419D01*
X59280076Y-34872419D02*
X59899123Y-34872419D01*
D11*
X53166667Y-91843200D02*
X53309524Y-91890819D01*
X53309524Y-91890819D02*
X53547619Y-91890819D01*
X53547619Y-91890819D02*
X53642857Y-91843200D01*
X53642857Y-91843200D02*
X53690476Y-91795580D01*
X53690476Y-91795580D02*
X53738095Y-91700342D01*
X53738095Y-91700342D02*
X53738095Y-91605104D01*
X53738095Y-91605104D02*
X53690476Y-91509866D01*
X53690476Y-91509866D02*
X53642857Y-91462247D01*
X53642857Y-91462247D02*
X53547619Y-91414628D01*
X53547619Y-91414628D02*
X53357143Y-91367009D01*
X53357143Y-91367009D02*
X53261905Y-91319390D01*
X53261905Y-91319390D02*
X53214286Y-91271771D01*
X53214286Y-91271771D02*
X53166667Y-91176533D01*
X53166667Y-91176533D02*
X53166667Y-91081295D01*
X53166667Y-91081295D02*
X53214286Y-90986057D01*
X53214286Y-90986057D02*
X53261905Y-90938438D01*
X53261905Y-90938438D02*
X53357143Y-90890819D01*
X53357143Y-90890819D02*
X53595238Y-90890819D01*
X53595238Y-90890819D02*
X53738095Y-90938438D01*
X54071429Y-90890819D02*
X54309524Y-91890819D01*
X54309524Y-91890819D02*
X54500000Y-91176533D01*
X54500000Y-91176533D02*
X54690476Y-91890819D01*
X54690476Y-91890819D02*
X54928572Y-90890819D01*
X55833333Y-91890819D02*
X55261905Y-91890819D01*
X55547619Y-91890819D02*
X55547619Y-90890819D01*
X55547619Y-90890819D02*
X55452381Y-91033676D01*
X55452381Y-91033676D02*
X55357143Y-91128914D01*
X55357143Y-91128914D02*
X55261905Y-91176533D01*
X53166666Y-91890819D02*
X52833333Y-91414628D01*
X52595238Y-91890819D02*
X52595238Y-90890819D01*
X52595238Y-90890819D02*
X52976190Y-90890819D01*
X52976190Y-90890819D02*
X53071428Y-90938438D01*
X53071428Y-90938438D02*
X53119047Y-90986057D01*
X53119047Y-90986057D02*
X53166666Y-91081295D01*
X53166666Y-91081295D02*
X53166666Y-91224152D01*
X53166666Y-91224152D02*
X53119047Y-91319390D01*
X53119047Y-91319390D02*
X53071428Y-91367009D01*
X53071428Y-91367009D02*
X52976190Y-91414628D01*
X52976190Y-91414628D02*
X52595238Y-91414628D01*
X53595238Y-91367009D02*
X53928571Y-91367009D01*
X54071428Y-91890819D02*
X53595238Y-91890819D01*
X53595238Y-91890819D02*
X53595238Y-90890819D01*
X53595238Y-90890819D02*
X54071428Y-90890819D01*
X54833333Y-91367009D02*
X54500000Y-91367009D01*
X54500000Y-91890819D02*
X54500000Y-90890819D01*
X54500000Y-90890819D02*
X54976190Y-90890819D01*
X55500000Y-90890819D02*
X55500000Y-91128914D01*
X55261905Y-91033676D02*
X55500000Y-91128914D01*
X55500000Y-91128914D02*
X55738095Y-91033676D01*
X55357143Y-91319390D02*
X55500000Y-91128914D01*
X55500000Y-91128914D02*
X55642857Y-91319390D01*
X56261905Y-90890819D02*
X56261905Y-91128914D01*
X56023810Y-91033676D02*
X56261905Y-91128914D01*
X56261905Y-91128914D02*
X56500000Y-91033676D01*
X56119048Y-91319390D02*
X56261905Y-91128914D01*
X56261905Y-91128914D02*
X56404762Y-91319390D01*
X96104819Y-60963094D02*
X95104819Y-60963094D01*
X95104819Y-60963094D02*
X95104819Y-60724999D01*
X95104819Y-60724999D02*
X95152438Y-60582142D01*
X95152438Y-60582142D02*
X95247676Y-60486904D01*
X95247676Y-60486904D02*
X95342914Y-60439285D01*
X95342914Y-60439285D02*
X95533390Y-60391666D01*
X95533390Y-60391666D02*
X95676247Y-60391666D01*
X95676247Y-60391666D02*
X95866723Y-60439285D01*
X95866723Y-60439285D02*
X95961961Y-60486904D01*
X95961961Y-60486904D02*
X96057200Y-60582142D01*
X96057200Y-60582142D02*
X96104819Y-60724999D01*
X96104819Y-60724999D02*
X96104819Y-60963094D01*
X96104819Y-59439285D02*
X96104819Y-60010713D01*
X96104819Y-59724999D02*
X95104819Y-59724999D01*
X95104819Y-59724999D02*
X95247676Y-59820237D01*
X95247676Y-59820237D02*
X95342914Y-59915475D01*
X95342914Y-59915475D02*
X95390533Y-60010713D01*
X56166666Y-109104819D02*
X56166666Y-109819104D01*
X56166666Y-109819104D02*
X56119047Y-109961961D01*
X56119047Y-109961961D02*
X56023809Y-110057200D01*
X56023809Y-110057200D02*
X55880952Y-110104819D01*
X55880952Y-110104819D02*
X55785714Y-110104819D01*
X57166666Y-110104819D02*
X56595238Y-110104819D01*
X56880952Y-110104819D02*
X56880952Y-109104819D01*
X56880952Y-109104819D02*
X56785714Y-109247676D01*
X56785714Y-109247676D02*
X56690476Y-109342914D01*
X56690476Y-109342914D02*
X56595238Y-109390533D01*
X93166667Y-70447200D02*
X93309524Y-70494819D01*
X93309524Y-70494819D02*
X93547619Y-70494819D01*
X93547619Y-70494819D02*
X93642857Y-70447200D01*
X93642857Y-70447200D02*
X93690476Y-70399580D01*
X93690476Y-70399580D02*
X93738095Y-70304342D01*
X93738095Y-70304342D02*
X93738095Y-70209104D01*
X93738095Y-70209104D02*
X93690476Y-70113866D01*
X93690476Y-70113866D02*
X93642857Y-70066247D01*
X93642857Y-70066247D02*
X93547619Y-70018628D01*
X93547619Y-70018628D02*
X93357143Y-69971009D01*
X93357143Y-69971009D02*
X93261905Y-69923390D01*
X93261905Y-69923390D02*
X93214286Y-69875771D01*
X93214286Y-69875771D02*
X93166667Y-69780533D01*
X93166667Y-69780533D02*
X93166667Y-69685295D01*
X93166667Y-69685295D02*
X93214286Y-69590057D01*
X93214286Y-69590057D02*
X93261905Y-69542438D01*
X93261905Y-69542438D02*
X93357143Y-69494819D01*
X93357143Y-69494819D02*
X93595238Y-69494819D01*
X93595238Y-69494819D02*
X93738095Y-69542438D01*
X94071429Y-69494819D02*
X94309524Y-70494819D01*
X94309524Y-70494819D02*
X94500000Y-69780533D01*
X94500000Y-69780533D02*
X94690476Y-70494819D01*
X94690476Y-70494819D02*
X94928572Y-69494819D01*
X95261905Y-69590057D02*
X95309524Y-69542438D01*
X95309524Y-69542438D02*
X95404762Y-69494819D01*
X95404762Y-69494819D02*
X95642857Y-69494819D01*
X95642857Y-69494819D02*
X95738095Y-69542438D01*
X95738095Y-69542438D02*
X95785714Y-69590057D01*
X95785714Y-69590057D02*
X95833333Y-69685295D01*
X95833333Y-69685295D02*
X95833333Y-69780533D01*
X95833333Y-69780533D02*
X95785714Y-69923390D01*
X95785714Y-69923390D02*
X95214286Y-70494819D01*
X95214286Y-70494819D02*
X95833333Y-70494819D01*
D10*
X75079523Y-60592580D02*
X75079523Y-61592580D01*
X75079523Y-61592580D02*
X74746190Y-60878295D01*
X74746190Y-60878295D02*
X74412857Y-61592580D01*
X74412857Y-61592580D02*
X74412857Y-60592580D01*
X73412857Y-60592580D02*
X73984285Y-60592580D01*
X73698571Y-60592580D02*
X73698571Y-61592580D01*
X73698571Y-61592580D02*
X73793809Y-61449723D01*
X73793809Y-61449723D02*
X73889047Y-61354485D01*
X73889047Y-61354485D02*
X73984285Y-61306866D01*
D11*
X92804819Y-66666666D02*
X92328628Y-66999999D01*
X92804819Y-67238094D02*
X91804819Y-67238094D01*
X91804819Y-67238094D02*
X91804819Y-66857142D01*
X91804819Y-66857142D02*
X91852438Y-66761904D01*
X91852438Y-66761904D02*
X91900057Y-66714285D01*
X91900057Y-66714285D02*
X91995295Y-66666666D01*
X91995295Y-66666666D02*
X92138152Y-66666666D01*
X92138152Y-66666666D02*
X92233390Y-66714285D01*
X92233390Y-66714285D02*
X92281009Y-66761904D01*
X92281009Y-66761904D02*
X92328628Y-66857142D01*
X92328628Y-66857142D02*
X92328628Y-67238094D01*
X92804819Y-65714285D02*
X92804819Y-66285713D01*
X92804819Y-65999999D02*
X91804819Y-65999999D01*
X91804819Y-65999999D02*
X91947676Y-66095237D01*
X91947676Y-66095237D02*
X92042914Y-66190475D01*
X92042914Y-66190475D02*
X92090533Y-66285713D01*
D12*
%TO.C,SW1*%
X51350000Y-93519000D02*
X52500000Y-92350000D01*
X51350000Y-94200000D02*
X51350000Y-93519000D01*
X51350000Y-96800000D02*
X51350000Y-97500000D01*
X51350000Y-97500000D02*
X52500000Y-98650000D01*
X52500000Y-92350000D02*
X56500000Y-92350000D01*
X52500000Y-98650000D02*
X56500000Y-98650000D01*
X56500000Y-92350000D02*
X57650000Y-93500000D01*
X56500000Y-98650000D02*
X57650000Y-97500000D01*
X57650000Y-93500000D02*
X57650000Y-94200000D01*
X57650000Y-97500000D02*
X57650000Y-96800000D01*
%TO.C,D1*%
X93040000Y-58365000D02*
X93040000Y-61225000D01*
X94960000Y-58365000D02*
X93040000Y-58365000D01*
X94960000Y-61225000D02*
X94960000Y-58365000D01*
%TO.C,J1*%
X55170000Y-113690000D02*
X55170000Y-121370000D01*
X55170000Y-113690000D02*
X57830000Y-113690000D01*
X55170000Y-121370000D02*
X57830000Y-121370000D01*
X56500000Y-111090000D02*
X57830000Y-111090000D01*
X57830000Y-111090000D02*
X57830000Y-112420000D01*
X57830000Y-113690000D02*
X57830000Y-121370000D01*
%TO.C,SW2*%
X93120000Y-71040000D02*
X94500000Y-71040000D01*
X93120000Y-72420000D02*
X93120000Y-71040000D01*
X93120000Y-73690000D02*
X93120000Y-78880000D01*
X93120000Y-73690000D02*
X95880000Y-73690000D01*
X93120000Y-78880000D02*
X95880000Y-78880000D01*
X95880000Y-73690000D02*
X95880000Y-78880000D01*
%TO.C,R1*%
X93265000Y-66727064D02*
X93265000Y-66272936D01*
X94735000Y-66727064D02*
X94735000Y-66272936D01*
%TD*%
M02*
