%TF.GenerationSoftware,KiCad,Pcbnew,9.0.7*%
%TF.CreationDate,2026-02-22T22:06:27-08:00*%
%TF.ProjectId,Electrical_schematics_V4,456c6563-7472-4696-9361-6c5f73636865,rev?*%
%TF.SameCoordinates,Original*%
%TF.FileFunction,Legend,Top*%
%TF.FilePolarity,Positive*%
%FSLAX46Y46*%
G04 Gerber Fmt 4.6, Leading zero omitted, Abs format (unit mm)*
G04 Created by KiCad (PCBNEW 9.0.7) date 2026-02-22 22:06:27*
%MOMM*%
%LPD*%
G01*
G04 APERTURE LIST*
%ADD10C,0.100000*%
%ADD11C,0.150000*%
%ADD12C,0.120000*%
%ADD13C,0.127000*%
%ADD14C,0.200000*%
G04 APERTURE END LIST*
D10*
X95161027Y-81152531D02*
X95494360Y-82152531D01*
X95494360Y-82152531D02*
X95827693Y-81152531D01*
X96541979Y-82104912D02*
X96446741Y-82152531D01*
X96446741Y-82152531D02*
X96256265Y-82152531D01*
X96256265Y-82152531D02*
X96161027Y-82104912D01*
X96161027Y-82104912D02*
X96113408Y-82009673D01*
X96113408Y-82009673D02*
X96113408Y-81628721D01*
X96113408Y-81628721D02*
X96161027Y-81533483D01*
X96161027Y-81533483D02*
X96256265Y-81485864D01*
X96256265Y-81485864D02*
X96446741Y-81485864D01*
X96446741Y-81485864D02*
X96541979Y-81533483D01*
X96541979Y-81533483D02*
X96589598Y-81628721D01*
X96589598Y-81628721D02*
X96589598Y-81723959D01*
X96589598Y-81723959D02*
X96113408Y-81819197D01*
X97018170Y-82152531D02*
X97018170Y-81485864D01*
X97018170Y-81676340D02*
X97065789Y-81581102D01*
X97065789Y-81581102D02*
X97113408Y-81533483D01*
X97113408Y-81533483D02*
X97208646Y-81485864D01*
X97208646Y-81485864D02*
X97303884Y-81485864D01*
X97780075Y-82152531D02*
X97684837Y-82104912D01*
X97684837Y-82104912D02*
X97637218Y-82057292D01*
X97637218Y-82057292D02*
X97589599Y-81962054D01*
X97589599Y-81962054D02*
X97589599Y-81676340D01*
X97589599Y-81676340D02*
X97637218Y-81581102D01*
X97637218Y-81581102D02*
X97684837Y-81533483D01*
X97684837Y-81533483D02*
X97780075Y-81485864D01*
X97780075Y-81485864D02*
X97922932Y-81485864D01*
X97922932Y-81485864D02*
X98018170Y-81533483D01*
X98018170Y-81533483D02*
X98065789Y-81581102D01*
X98065789Y-81581102D02*
X98113408Y-81676340D01*
X98113408Y-81676340D02*
X98113408Y-81962054D01*
X98113408Y-81962054D02*
X98065789Y-82057292D01*
X98065789Y-82057292D02*
X98018170Y-82104912D01*
X98018170Y-82104912D02*
X97922932Y-82152531D01*
X97922932Y-82152531D02*
X97780075Y-82152531D01*
X98541980Y-81485864D02*
X98541980Y-82152531D01*
X98541980Y-81581102D02*
X98589599Y-81533483D01*
X98589599Y-81533483D02*
X98684837Y-81485864D01*
X98684837Y-81485864D02*
X98827694Y-81485864D01*
X98827694Y-81485864D02*
X98922932Y-81533483D01*
X98922932Y-81533483D02*
X98970551Y-81628721D01*
X98970551Y-81628721D02*
X98970551Y-82152531D01*
X99446742Y-82152531D02*
X99446742Y-81485864D01*
X99446742Y-81152531D02*
X99399123Y-81200150D01*
X99399123Y-81200150D02*
X99446742Y-81247769D01*
X99446742Y-81247769D02*
X99494361Y-81200150D01*
X99494361Y-81200150D02*
X99446742Y-81152531D01*
X99446742Y-81152531D02*
X99446742Y-81247769D01*
X99922932Y-82152531D02*
X99922932Y-81152531D01*
X100018170Y-81771578D02*
X100303884Y-82152531D01*
X100303884Y-81485864D02*
X99922932Y-81866816D01*
X101161027Y-82152531D02*
X101161027Y-81628721D01*
X101161027Y-81628721D02*
X101113408Y-81533483D01*
X101113408Y-81533483D02*
X101018170Y-81485864D01*
X101018170Y-81485864D02*
X100827694Y-81485864D01*
X100827694Y-81485864D02*
X100732456Y-81533483D01*
X101161027Y-82104912D02*
X101065789Y-82152531D01*
X101065789Y-82152531D02*
X100827694Y-82152531D01*
X100827694Y-82152531D02*
X100732456Y-82104912D01*
X100732456Y-82104912D02*
X100684837Y-82009673D01*
X100684837Y-82009673D02*
X100684837Y-81914435D01*
X100684837Y-81914435D02*
X100732456Y-81819197D01*
X100732456Y-81819197D02*
X100827694Y-81771578D01*
X100827694Y-81771578D02*
X101065789Y-81771578D01*
X101065789Y-81771578D02*
X101161027Y-81723959D01*
X102351504Y-82104912D02*
X102494361Y-82152531D01*
X102494361Y-82152531D02*
X102732456Y-82152531D01*
X102732456Y-82152531D02*
X102827694Y-82104912D01*
X102827694Y-82104912D02*
X102875313Y-82057292D01*
X102875313Y-82057292D02*
X102922932Y-81962054D01*
X102922932Y-81962054D02*
X102922932Y-81866816D01*
X102922932Y-81866816D02*
X102875313Y-81771578D01*
X102875313Y-81771578D02*
X102827694Y-81723959D01*
X102827694Y-81723959D02*
X102732456Y-81676340D01*
X102732456Y-81676340D02*
X102541980Y-81628721D01*
X102541980Y-81628721D02*
X102446742Y-81581102D01*
X102446742Y-81581102D02*
X102399123Y-81533483D01*
X102399123Y-81533483D02*
X102351504Y-81438245D01*
X102351504Y-81438245D02*
X102351504Y-81343007D01*
X102351504Y-81343007D02*
X102399123Y-81247769D01*
X102399123Y-81247769D02*
X102446742Y-81200150D01*
X102446742Y-81200150D02*
X102541980Y-81152531D01*
X102541980Y-81152531D02*
X102780075Y-81152531D01*
X102780075Y-81152531D02*
X102922932Y-81200150D01*
X103351504Y-82057292D02*
X103399123Y-82104912D01*
X103399123Y-82104912D02*
X103351504Y-82152531D01*
X103351504Y-82152531D02*
X103303885Y-82104912D01*
X103303885Y-82104912D02*
X103351504Y-82057292D01*
X103351504Y-82057292D02*
X103351504Y-82152531D01*
X103827694Y-82152531D02*
X103827694Y-81152531D01*
X103827694Y-81152531D02*
X104208646Y-81152531D01*
X104208646Y-81152531D02*
X104303884Y-81200150D01*
X104303884Y-81200150D02*
X104351503Y-81247769D01*
X104351503Y-81247769D02*
X104399122Y-81343007D01*
X104399122Y-81343007D02*
X104399122Y-81485864D01*
X104399122Y-81485864D02*
X104351503Y-81581102D01*
X104351503Y-81581102D02*
X104303884Y-81628721D01*
X104303884Y-81628721D02*
X104208646Y-81676340D01*
X104208646Y-81676340D02*
X103827694Y-81676340D01*
X104827694Y-82057292D02*
X104875313Y-82104912D01*
X104875313Y-82104912D02*
X104827694Y-82152531D01*
X104827694Y-82152531D02*
X104780075Y-82104912D01*
X104780075Y-82104912D02*
X104827694Y-82057292D01*
X104827694Y-82057292D02*
X104827694Y-82152531D01*
X95256265Y-83714856D02*
X95399122Y-83762475D01*
X95399122Y-83762475D02*
X95637217Y-83762475D01*
X95637217Y-83762475D02*
X95732455Y-83714856D01*
X95732455Y-83714856D02*
X95780074Y-83667236D01*
X95780074Y-83667236D02*
X95827693Y-83571998D01*
X95827693Y-83571998D02*
X95827693Y-83476760D01*
X95827693Y-83476760D02*
X95780074Y-83381522D01*
X95780074Y-83381522D02*
X95732455Y-83333903D01*
X95732455Y-83333903D02*
X95637217Y-83286284D01*
X95637217Y-83286284D02*
X95446741Y-83238665D01*
X95446741Y-83238665D02*
X95351503Y-83191046D01*
X95351503Y-83191046D02*
X95303884Y-83143427D01*
X95303884Y-83143427D02*
X95256265Y-83048189D01*
X95256265Y-83048189D02*
X95256265Y-82952951D01*
X95256265Y-82952951D02*
X95303884Y-82857713D01*
X95303884Y-82857713D02*
X95351503Y-82810094D01*
X95351503Y-82810094D02*
X95446741Y-82762475D01*
X95446741Y-82762475D02*
X95684836Y-82762475D01*
X95684836Y-82762475D02*
X95827693Y-82810094D01*
X96637217Y-83714856D02*
X96541979Y-83762475D01*
X96541979Y-83762475D02*
X96351503Y-83762475D01*
X96351503Y-83762475D02*
X96256265Y-83714856D01*
X96256265Y-83714856D02*
X96208646Y-83619617D01*
X96208646Y-83619617D02*
X96208646Y-83238665D01*
X96208646Y-83238665D02*
X96256265Y-83143427D01*
X96256265Y-83143427D02*
X96351503Y-83095808D01*
X96351503Y-83095808D02*
X96541979Y-83095808D01*
X96541979Y-83095808D02*
X96637217Y-83143427D01*
X96637217Y-83143427D02*
X96684836Y-83238665D01*
X96684836Y-83238665D02*
X96684836Y-83333903D01*
X96684836Y-83333903D02*
X96208646Y-83429141D01*
X97113408Y-83095808D02*
X97113408Y-83762475D01*
X97113408Y-83191046D02*
X97161027Y-83143427D01*
X97161027Y-83143427D02*
X97256265Y-83095808D01*
X97256265Y-83095808D02*
X97399122Y-83095808D01*
X97399122Y-83095808D02*
X97494360Y-83143427D01*
X97494360Y-83143427D02*
X97541979Y-83238665D01*
X97541979Y-83238665D02*
X97541979Y-83762475D01*
X97970551Y-83714856D02*
X98065789Y-83762475D01*
X98065789Y-83762475D02*
X98256265Y-83762475D01*
X98256265Y-83762475D02*
X98351503Y-83714856D01*
X98351503Y-83714856D02*
X98399122Y-83619617D01*
X98399122Y-83619617D02*
X98399122Y-83571998D01*
X98399122Y-83571998D02*
X98351503Y-83476760D01*
X98351503Y-83476760D02*
X98256265Y-83429141D01*
X98256265Y-83429141D02*
X98113408Y-83429141D01*
X98113408Y-83429141D02*
X98018170Y-83381522D01*
X98018170Y-83381522D02*
X97970551Y-83286284D01*
X97970551Y-83286284D02*
X97970551Y-83238665D01*
X97970551Y-83238665D02*
X98018170Y-83143427D01*
X98018170Y-83143427D02*
X98113408Y-83095808D01*
X98113408Y-83095808D02*
X98256265Y-83095808D01*
X98256265Y-83095808D02*
X98351503Y-83143427D01*
X98827694Y-83762475D02*
X98827694Y-83095808D01*
X98827694Y-82762475D02*
X98780075Y-82810094D01*
X98780075Y-82810094D02*
X98827694Y-82857713D01*
X98827694Y-82857713D02*
X98875313Y-82810094D01*
X98875313Y-82810094D02*
X98827694Y-82762475D01*
X98827694Y-82762475D02*
X98827694Y-82857713D01*
X99303884Y-83095808D02*
X99303884Y-83762475D01*
X99303884Y-83191046D02*
X99351503Y-83143427D01*
X99351503Y-83143427D02*
X99446741Y-83095808D01*
X99446741Y-83095808D02*
X99589598Y-83095808D01*
X99589598Y-83095808D02*
X99684836Y-83143427D01*
X99684836Y-83143427D02*
X99732455Y-83238665D01*
X99732455Y-83238665D02*
X99732455Y-83762475D01*
X100637217Y-83095808D02*
X100637217Y-83905332D01*
X100637217Y-83905332D02*
X100589598Y-84000570D01*
X100589598Y-84000570D02*
X100541979Y-84048189D01*
X100541979Y-84048189D02*
X100446741Y-84095808D01*
X100446741Y-84095808D02*
X100303884Y-84095808D01*
X100303884Y-84095808D02*
X100208646Y-84048189D01*
X100637217Y-83714856D02*
X100541979Y-83762475D01*
X100541979Y-83762475D02*
X100351503Y-83762475D01*
X100351503Y-83762475D02*
X100256265Y-83714856D01*
X100256265Y-83714856D02*
X100208646Y-83667236D01*
X100208646Y-83667236D02*
X100161027Y-83571998D01*
X100161027Y-83571998D02*
X100161027Y-83286284D01*
X100161027Y-83286284D02*
X100208646Y-83191046D01*
X100208646Y-83191046D02*
X100256265Y-83143427D01*
X100256265Y-83143427D02*
X100351503Y-83095808D01*
X100351503Y-83095808D02*
X100541979Y-83095808D01*
X100541979Y-83095808D02*
X100637217Y-83143427D01*
X101875313Y-83762475D02*
X101875313Y-82762475D01*
X101875313Y-82762475D02*
X102113408Y-82762475D01*
X102113408Y-82762475D02*
X102256265Y-82810094D01*
X102256265Y-82810094D02*
X102351503Y-82905332D01*
X102351503Y-82905332D02*
X102399122Y-83000570D01*
X102399122Y-83000570D02*
X102446741Y-83191046D01*
X102446741Y-83191046D02*
X102446741Y-83333903D01*
X102446741Y-83333903D02*
X102399122Y-83524379D01*
X102399122Y-83524379D02*
X102351503Y-83619617D01*
X102351503Y-83619617D02*
X102256265Y-83714856D01*
X102256265Y-83714856D02*
X102113408Y-83762475D01*
X102113408Y-83762475D02*
X101875313Y-83762475D01*
X103256265Y-83714856D02*
X103161027Y-83762475D01*
X103161027Y-83762475D02*
X102970551Y-83762475D01*
X102970551Y-83762475D02*
X102875313Y-83714856D01*
X102875313Y-83714856D02*
X102827694Y-83619617D01*
X102827694Y-83619617D02*
X102827694Y-83238665D01*
X102827694Y-83238665D02*
X102875313Y-83143427D01*
X102875313Y-83143427D02*
X102970551Y-83095808D01*
X102970551Y-83095808D02*
X103161027Y-83095808D01*
X103161027Y-83095808D02*
X103256265Y-83143427D01*
X103256265Y-83143427D02*
X103303884Y-83238665D01*
X103303884Y-83238665D02*
X103303884Y-83333903D01*
X103303884Y-83333903D02*
X102827694Y-83429141D01*
X103637218Y-83095808D02*
X103875313Y-83762475D01*
X103875313Y-83762475D02*
X104113408Y-83095808D01*
X104494361Y-83762475D02*
X104494361Y-83095808D01*
X104494361Y-82762475D02*
X104446742Y-82810094D01*
X104446742Y-82810094D02*
X104494361Y-82857713D01*
X104494361Y-82857713D02*
X104541980Y-82810094D01*
X104541980Y-82810094D02*
X104494361Y-82762475D01*
X104494361Y-82762475D02*
X104494361Y-82857713D01*
X105399122Y-83714856D02*
X105303884Y-83762475D01*
X105303884Y-83762475D02*
X105113408Y-83762475D01*
X105113408Y-83762475D02*
X105018170Y-83714856D01*
X105018170Y-83714856D02*
X104970551Y-83667236D01*
X104970551Y-83667236D02*
X104922932Y-83571998D01*
X104922932Y-83571998D02*
X104922932Y-83286284D01*
X104922932Y-83286284D02*
X104970551Y-83191046D01*
X104970551Y-83191046D02*
X105018170Y-83143427D01*
X105018170Y-83143427D02*
X105113408Y-83095808D01*
X105113408Y-83095808D02*
X105303884Y-83095808D01*
X105303884Y-83095808D02*
X105399122Y-83143427D01*
X106208646Y-83714856D02*
X106113408Y-83762475D01*
X106113408Y-83762475D02*
X105922932Y-83762475D01*
X105922932Y-83762475D02*
X105827694Y-83714856D01*
X105827694Y-83714856D02*
X105780075Y-83619617D01*
X105780075Y-83619617D02*
X105780075Y-83238665D01*
X105780075Y-83238665D02*
X105827694Y-83143427D01*
X105827694Y-83143427D02*
X105922932Y-83095808D01*
X105922932Y-83095808D02*
X106113408Y-83095808D01*
X106113408Y-83095808D02*
X106208646Y-83143427D01*
X106208646Y-83143427D02*
X106256265Y-83238665D01*
X106256265Y-83238665D02*
X106256265Y-83333903D01*
X106256265Y-83333903D02*
X105780075Y-83429141D01*
X107303885Y-82762475D02*
X107637218Y-83762475D01*
X107637218Y-83762475D02*
X107970551Y-82762475D01*
X108732456Y-83095808D02*
X108732456Y-83762475D01*
X108494361Y-82714856D02*
X108256266Y-83429141D01*
X108256266Y-83429141D02*
X108875313Y-83429141D01*
X95161027Y-84372419D02*
X95732455Y-84372419D01*
X95446741Y-85372419D02*
X95446741Y-84372419D01*
X96065789Y-84848609D02*
X96399122Y-84848609D01*
X96541979Y-85372419D02*
X96065789Y-85372419D01*
X96065789Y-85372419D02*
X96065789Y-84372419D01*
X96065789Y-84372419D02*
X96541979Y-84372419D01*
X97541979Y-85277180D02*
X97494360Y-85324800D01*
X97494360Y-85324800D02*
X97351503Y-85372419D01*
X97351503Y-85372419D02*
X97256265Y-85372419D01*
X97256265Y-85372419D02*
X97113408Y-85324800D01*
X97113408Y-85324800D02*
X97018170Y-85229561D01*
X97018170Y-85229561D02*
X96970551Y-85134323D01*
X96970551Y-85134323D02*
X96922932Y-84943847D01*
X96922932Y-84943847D02*
X96922932Y-84800990D01*
X96922932Y-84800990D02*
X96970551Y-84610514D01*
X96970551Y-84610514D02*
X97018170Y-84515276D01*
X97018170Y-84515276D02*
X97113408Y-84420038D01*
X97113408Y-84420038D02*
X97256265Y-84372419D01*
X97256265Y-84372419D02*
X97351503Y-84372419D01*
X97351503Y-84372419D02*
X97494360Y-84420038D01*
X97494360Y-84420038D02*
X97541979Y-84467657D01*
X97970551Y-85372419D02*
X97970551Y-84372419D01*
X97970551Y-84848609D02*
X98541979Y-84848609D01*
X98541979Y-85372419D02*
X98541979Y-84372419D01*
X99018170Y-85372419D02*
X99018170Y-84372419D01*
X99494360Y-85372419D02*
X99494360Y-84372419D01*
X99494360Y-84372419D02*
X100065788Y-85372419D01*
X100065788Y-85372419D02*
X100065788Y-84372419D01*
X101780074Y-84372419D02*
X101303884Y-84372419D01*
X101303884Y-84372419D02*
X101256265Y-84848609D01*
X101256265Y-84848609D02*
X101303884Y-84800990D01*
X101303884Y-84800990D02*
X101399122Y-84753371D01*
X101399122Y-84753371D02*
X101637217Y-84753371D01*
X101637217Y-84753371D02*
X101732455Y-84800990D01*
X101732455Y-84800990D02*
X101780074Y-84848609D01*
X101780074Y-84848609D02*
X101827693Y-84943847D01*
X101827693Y-84943847D02*
X101827693Y-85181942D01*
X101827693Y-85181942D02*
X101780074Y-85277180D01*
X101780074Y-85277180D02*
X101732455Y-85324800D01*
X101732455Y-85324800D02*
X101637217Y-85372419D01*
X101637217Y-85372419D02*
X101399122Y-85372419D01*
X101399122Y-85372419D02*
X101303884Y-85324800D01*
X101303884Y-85324800D02*
X101256265Y-85277180D01*
X102780074Y-85372419D02*
X102208646Y-85372419D01*
X102494360Y-85372419D02*
X102494360Y-84372419D01*
X102494360Y-84372419D02*
X102399122Y-84515276D01*
X102399122Y-84515276D02*
X102303884Y-84610514D01*
X102303884Y-84610514D02*
X102208646Y-84658133D01*
X103637217Y-84705752D02*
X103637217Y-85372419D01*
X103399122Y-84324800D02*
X103161027Y-85039085D01*
X103161027Y-85039085D02*
X103780074Y-85039085D01*
D11*
X104833333Y-87804819D02*
X104500000Y-87328628D01*
X104261905Y-87804819D02*
X104261905Y-86804819D01*
X104261905Y-86804819D02*
X104642857Y-86804819D01*
X104642857Y-86804819D02*
X104738095Y-86852438D01*
X104738095Y-86852438D02*
X104785714Y-86900057D01*
X104785714Y-86900057D02*
X104833333Y-86995295D01*
X104833333Y-86995295D02*
X104833333Y-87138152D01*
X104833333Y-87138152D02*
X104785714Y-87233390D01*
X104785714Y-87233390D02*
X104738095Y-87281009D01*
X104738095Y-87281009D02*
X104642857Y-87328628D01*
X104642857Y-87328628D02*
X104261905Y-87328628D01*
X105166667Y-86804819D02*
X105785714Y-86804819D01*
X105785714Y-86804819D02*
X105452381Y-87185771D01*
X105452381Y-87185771D02*
X105595238Y-87185771D01*
X105595238Y-87185771D02*
X105690476Y-87233390D01*
X105690476Y-87233390D02*
X105738095Y-87281009D01*
X105738095Y-87281009D02*
X105785714Y-87376247D01*
X105785714Y-87376247D02*
X105785714Y-87614342D01*
X105785714Y-87614342D02*
X105738095Y-87709580D01*
X105738095Y-87709580D02*
X105690476Y-87757200D01*
X105690476Y-87757200D02*
X105595238Y-87804819D01*
X105595238Y-87804819D02*
X105309524Y-87804819D01*
X105309524Y-87804819D02*
X105214286Y-87757200D01*
X105214286Y-87757200D02*
X105166667Y-87709580D01*
X104833333Y-93304819D02*
X104500000Y-92828628D01*
X104261905Y-93304819D02*
X104261905Y-92304819D01*
X104261905Y-92304819D02*
X104642857Y-92304819D01*
X104642857Y-92304819D02*
X104738095Y-92352438D01*
X104738095Y-92352438D02*
X104785714Y-92400057D01*
X104785714Y-92400057D02*
X104833333Y-92495295D01*
X104833333Y-92495295D02*
X104833333Y-92638152D01*
X104833333Y-92638152D02*
X104785714Y-92733390D01*
X104785714Y-92733390D02*
X104738095Y-92781009D01*
X104738095Y-92781009D02*
X104642857Y-92828628D01*
X104642857Y-92828628D02*
X104261905Y-92828628D01*
X105690476Y-92638152D02*
X105690476Y-93304819D01*
X105452381Y-92257200D02*
X105214286Y-92971485D01*
X105214286Y-92971485D02*
X105833333Y-92971485D01*
X123104819Y-107166666D02*
X122628628Y-107499999D01*
X123104819Y-107738094D02*
X122104819Y-107738094D01*
X122104819Y-107738094D02*
X122104819Y-107357142D01*
X122104819Y-107357142D02*
X122152438Y-107261904D01*
X122152438Y-107261904D02*
X122200057Y-107214285D01*
X122200057Y-107214285D02*
X122295295Y-107166666D01*
X122295295Y-107166666D02*
X122438152Y-107166666D01*
X122438152Y-107166666D02*
X122533390Y-107214285D01*
X122533390Y-107214285D02*
X122581009Y-107261904D01*
X122581009Y-107261904D02*
X122628628Y-107357142D01*
X122628628Y-107357142D02*
X122628628Y-107738094D01*
X122200057Y-106785713D02*
X122152438Y-106738094D01*
X122152438Y-106738094D02*
X122104819Y-106642856D01*
X122104819Y-106642856D02*
X122104819Y-106404761D01*
X122104819Y-106404761D02*
X122152438Y-106309523D01*
X122152438Y-106309523D02*
X122200057Y-106261904D01*
X122200057Y-106261904D02*
X122295295Y-106214285D01*
X122295295Y-106214285D02*
X122390533Y-106214285D01*
X122390533Y-106214285D02*
X122533390Y-106261904D01*
X122533390Y-106261904D02*
X123104819Y-106833332D01*
X123104819Y-106833332D02*
X123104819Y-106214285D01*
X113019819Y-107136904D02*
X113829342Y-107136904D01*
X113829342Y-107136904D02*
X113924580Y-107089285D01*
X113924580Y-107089285D02*
X113972200Y-107041666D01*
X113972200Y-107041666D02*
X114019819Y-106946428D01*
X114019819Y-106946428D02*
X114019819Y-106755952D01*
X114019819Y-106755952D02*
X113972200Y-106660714D01*
X113972200Y-106660714D02*
X113924580Y-106613095D01*
X113924580Y-106613095D02*
X113829342Y-106565476D01*
X113829342Y-106565476D02*
X113019819Y-106565476D01*
X114019819Y-105565476D02*
X114019819Y-106136904D01*
X114019819Y-105851190D02*
X113019819Y-105851190D01*
X113019819Y-105851190D02*
X113162676Y-105946428D01*
X113162676Y-105946428D02*
X113257914Y-106041666D01*
X113257914Y-106041666D02*
X113305533Y-106136904D01*
X104286905Y-105804819D02*
X104286905Y-104804819D01*
X104286905Y-104804819D02*
X104525000Y-104804819D01*
X104525000Y-104804819D02*
X104667857Y-104852438D01*
X104667857Y-104852438D02*
X104763095Y-104947676D01*
X104763095Y-104947676D02*
X104810714Y-105042914D01*
X104810714Y-105042914D02*
X104858333Y-105233390D01*
X104858333Y-105233390D02*
X104858333Y-105376247D01*
X104858333Y-105376247D02*
X104810714Y-105566723D01*
X104810714Y-105566723D02*
X104763095Y-105661961D01*
X104763095Y-105661961D02*
X104667857Y-105757200D01*
X104667857Y-105757200D02*
X104525000Y-105804819D01*
X104525000Y-105804819D02*
X104286905Y-105804819D01*
X105810714Y-105804819D02*
X105239286Y-105804819D01*
X105525000Y-105804819D02*
X105525000Y-104804819D01*
X105525000Y-104804819D02*
X105429762Y-104947676D01*
X105429762Y-104947676D02*
X105334524Y-105042914D01*
X105334524Y-105042914D02*
X105239286Y-105090533D01*
D10*
X121388095Y-68877419D02*
X121388095Y-69686942D01*
X121388095Y-69686942D02*
X121435714Y-69782180D01*
X121435714Y-69782180D02*
X121483333Y-69829800D01*
X121483333Y-69829800D02*
X121578571Y-69877419D01*
X121578571Y-69877419D02*
X121769047Y-69877419D01*
X121769047Y-69877419D02*
X121864285Y-69829800D01*
X121864285Y-69829800D02*
X121911904Y-69782180D01*
X121911904Y-69782180D02*
X121959523Y-69686942D01*
X121959523Y-69686942D02*
X121959523Y-68877419D01*
X122340476Y-68877419D02*
X122959523Y-68877419D01*
X122959523Y-68877419D02*
X122626190Y-69258371D01*
X122626190Y-69258371D02*
X122769047Y-69258371D01*
X122769047Y-69258371D02*
X122864285Y-69305990D01*
X122864285Y-69305990D02*
X122911904Y-69353609D01*
X122911904Y-69353609D02*
X122959523Y-69448847D01*
X122959523Y-69448847D02*
X122959523Y-69686942D01*
X122959523Y-69686942D02*
X122911904Y-69782180D01*
X122911904Y-69782180D02*
X122864285Y-69829800D01*
X122864285Y-69829800D02*
X122769047Y-69877419D01*
X122769047Y-69877419D02*
X122483333Y-69877419D01*
X122483333Y-69877419D02*
X122388095Y-69829800D01*
X122388095Y-69829800D02*
X122340476Y-69782180D01*
D11*
X125214285Y-112031009D02*
X125357142Y-112078628D01*
X125357142Y-112078628D02*
X125404761Y-112126247D01*
X125404761Y-112126247D02*
X125452380Y-112221485D01*
X125452380Y-112221485D02*
X125452380Y-112364342D01*
X125452380Y-112364342D02*
X125404761Y-112459580D01*
X125404761Y-112459580D02*
X125357142Y-112507200D01*
X125357142Y-112507200D02*
X125261904Y-112554819D01*
X125261904Y-112554819D02*
X124880952Y-112554819D01*
X124880952Y-112554819D02*
X124880952Y-111554819D01*
X124880952Y-111554819D02*
X125214285Y-111554819D01*
X125214285Y-111554819D02*
X125309523Y-111602438D01*
X125309523Y-111602438D02*
X125357142Y-111650057D01*
X125357142Y-111650057D02*
X125404761Y-111745295D01*
X125404761Y-111745295D02*
X125404761Y-111840533D01*
X125404761Y-111840533D02*
X125357142Y-111935771D01*
X125357142Y-111935771D02*
X125309523Y-111983390D01*
X125309523Y-111983390D02*
X125214285Y-112031009D01*
X125214285Y-112031009D02*
X124880952Y-112031009D01*
X125738095Y-111554819D02*
X126309523Y-111554819D01*
X126023809Y-112554819D02*
X126023809Y-111554819D01*
X127166666Y-112554819D02*
X126595238Y-112554819D01*
X126880952Y-112554819D02*
X126880952Y-111554819D01*
X126880952Y-111554819D02*
X126785714Y-111697676D01*
X126785714Y-111697676D02*
X126690476Y-111792914D01*
X126690476Y-111792914D02*
X126595238Y-111840533D01*
X102527200Y-117833332D02*
X102574819Y-117690475D01*
X102574819Y-117690475D02*
X102574819Y-117452380D01*
X102574819Y-117452380D02*
X102527200Y-117357142D01*
X102527200Y-117357142D02*
X102479580Y-117309523D01*
X102479580Y-117309523D02*
X102384342Y-117261904D01*
X102384342Y-117261904D02*
X102289104Y-117261904D01*
X102289104Y-117261904D02*
X102193866Y-117309523D01*
X102193866Y-117309523D02*
X102146247Y-117357142D01*
X102146247Y-117357142D02*
X102098628Y-117452380D01*
X102098628Y-117452380D02*
X102051009Y-117642856D01*
X102051009Y-117642856D02*
X102003390Y-117738094D01*
X102003390Y-117738094D02*
X101955771Y-117785713D01*
X101955771Y-117785713D02*
X101860533Y-117833332D01*
X101860533Y-117833332D02*
X101765295Y-117833332D01*
X101765295Y-117833332D02*
X101670057Y-117785713D01*
X101670057Y-117785713D02*
X101622438Y-117738094D01*
X101622438Y-117738094D02*
X101574819Y-117642856D01*
X101574819Y-117642856D02*
X101574819Y-117404761D01*
X101574819Y-117404761D02*
X101622438Y-117261904D01*
X101574819Y-116928570D02*
X102574819Y-116690475D01*
X102574819Y-116690475D02*
X101860533Y-116499999D01*
X101860533Y-116499999D02*
X102574819Y-116309523D01*
X102574819Y-116309523D02*
X101574819Y-116071428D01*
X101670057Y-115738094D02*
X101622438Y-115690475D01*
X101622438Y-115690475D02*
X101574819Y-115595237D01*
X101574819Y-115595237D02*
X101574819Y-115357142D01*
X101574819Y-115357142D02*
X101622438Y-115261904D01*
X101622438Y-115261904D02*
X101670057Y-115214285D01*
X101670057Y-115214285D02*
X101765295Y-115166666D01*
X101765295Y-115166666D02*
X101860533Y-115166666D01*
X101860533Y-115166666D02*
X102003390Y-115214285D01*
X102003390Y-115214285D02*
X102574819Y-115785713D01*
X102574819Y-115785713D02*
X102574819Y-115166666D01*
X104833333Y-101304819D02*
X104500000Y-100828628D01*
X104261905Y-101304819D02*
X104261905Y-100304819D01*
X104261905Y-100304819D02*
X104642857Y-100304819D01*
X104642857Y-100304819D02*
X104738095Y-100352438D01*
X104738095Y-100352438D02*
X104785714Y-100400057D01*
X104785714Y-100400057D02*
X104833333Y-100495295D01*
X104833333Y-100495295D02*
X104833333Y-100638152D01*
X104833333Y-100638152D02*
X104785714Y-100733390D01*
X104785714Y-100733390D02*
X104738095Y-100781009D01*
X104738095Y-100781009D02*
X104642857Y-100828628D01*
X104642857Y-100828628D02*
X104261905Y-100828628D01*
X105785714Y-101304819D02*
X105214286Y-101304819D01*
X105500000Y-101304819D02*
X105500000Y-100304819D01*
X105500000Y-100304819D02*
X105404762Y-100447676D01*
X105404762Y-100447676D02*
X105309524Y-100542914D01*
X105309524Y-100542914D02*
X105214286Y-100590533D01*
D12*
%TO.C,R3*%
X104772936Y-89735000D02*
X105227064Y-89735000D01*
X104772936Y-88265000D02*
X105227064Y-88265000D01*
%TO.C,R4*%
X104772936Y-95235000D02*
X105227064Y-95235000D01*
X104772936Y-93765000D02*
X105227064Y-93765000D01*
%TO.C,R2*%
X120265000Y-106772936D02*
X120265000Y-107227064D01*
X121735000Y-106772936D02*
X121735000Y-107227064D01*
D13*
%TO.C,U1*%
X115000000Y-104900000D02*
X116430000Y-104900000D01*
X117400000Y-109300000D02*
X115000000Y-109300000D01*
D14*
X118050000Y-105500000D02*
G75*
G02*
X117850000Y-105500000I-100000J0D01*
G01*
X117850000Y-105500000D02*
G75*
G02*
X118050000Y-105500000I100000J0D01*
G01*
D12*
%TO.C,D1*%
X106025000Y-106040000D02*
X103165000Y-106040000D01*
X103165000Y-107960000D02*
X106025000Y-107960000D01*
X103165000Y-106040000D02*
X103165000Y-107960000D01*
D10*
%TO.C,U3*%
X117070000Y-73460000D02*
X117070000Y-77270000D01*
X117070000Y-77270000D02*
X124690000Y-77270000D01*
X121896000Y-99876000D02*
X124944000Y-99876000D01*
X121896000Y-102924000D02*
X121896000Y-99876000D01*
X122404000Y-103432000D02*
X124436000Y-103432000D01*
X122912000Y-103940000D02*
X123928000Y-103940000D01*
X124690000Y-77270000D02*
X124690000Y-73460000D01*
X124944000Y-99876000D02*
X124944000Y-102924000D01*
X124944000Y-102924000D02*
X121896000Y-102924000D01*
%TO.C,BT1*%
D12*
X122940000Y-113190000D02*
X129060000Y-113190000D01*
X129060000Y-117910000D01*
X122940000Y-117910000D01*
X122940000Y-113190000D01*
X129060000Y-115800000D02*
X128450000Y-115800000D01*
X129060000Y-114500000D02*
X128450000Y-114500000D01*
X128450000Y-117300000D02*
X128450000Y-113800000D01*
X128450000Y-113800000D02*
X126500000Y-113800000D01*
X126500000Y-113800000D02*
X126500000Y-113190000D01*
X126100000Y-116800000D02*
X126100000Y-117300000D01*
X126000000Y-117300000D02*
X126000000Y-116800000D01*
X125900000Y-117300000D02*
X125900000Y-116800000D01*
X125900000Y-116800000D02*
X126100000Y-116800000D01*
X125500000Y-113800000D02*
X123550000Y-113800000D01*
X125500000Y-113190000D02*
X125500000Y-113800000D01*
X124700000Y-113190000D02*
X124700000Y-112990000D01*
X124700000Y-113090000D02*
X124400000Y-113090000D01*
X124700000Y-112990000D02*
X124400000Y-112990000D01*
X124400000Y-112990000D02*
X124400000Y-113190000D01*
X123890000Y-112890000D02*
X122640000Y-112890000D01*
X123550000Y-117300000D02*
X128450000Y-117300000D01*
X123550000Y-113800000D02*
X123550000Y-117300000D01*
X122940000Y-115800000D02*
X123550000Y-115800000D01*
X122940000Y-114500000D02*
X123550000Y-114500000D01*
X122640000Y-112890000D02*
X122640000Y-114140000D01*
%TO.C,SW2*%
X103120000Y-117880000D02*
X103120000Y-116500000D01*
X104500000Y-117880000D02*
X103120000Y-117880000D01*
X105770000Y-115120000D02*
X110960000Y-115120000D01*
X105770000Y-117880000D02*
X105770000Y-115120000D01*
X105770000Y-117880000D02*
X110960000Y-117880000D01*
X110960000Y-117880000D02*
X110960000Y-115120000D01*
%TO.C,R1*%
X104772936Y-103235000D02*
X105227064Y-103235000D01*
X104772936Y-101765000D02*
X105227064Y-101765000D01*
%TD*%
M02*
