%TF.GenerationSoftware,KiCad,Pcbnew,9.0.7*%
%TF.CreationDate,2026-02-22T22:06:27-08:00*%
%TF.ProjectId,Electrical_schematics_V4,456c6563-7472-4696-9361-6c5f73636865,rev?*%
%TF.SameCoordinates,Original*%
%TF.FileFunction,Soldermask,Top*%
%TF.FilePolarity,Negative*%
%FSLAX46Y46*%
G04 Gerber Fmt 4.6, Leading zero omitted, Abs format (unit mm)*
G04 Created by KiCad (PCBNEW 9.0.7) date 2026-02-22 22:06:27*
%MOMM*%
%LPD*%
G01*
G04 APERTURE LIST*
G04 Aperture macros list*
%AMRoundRect*
0 Rectangle with rounded corners*
0 $1 Rounding radius*
0 $2 $3 $4 $5 $6 $7 $8 $9 X,Y pos of 4 corners*
0 Add a 4 corners polygon primitive as box body*
4,1,4,$2,$3,$4,$5,$6,$7,$8,$9,$2,$3,0*
0 Add four circle primitives for the rounded corners*
1,1,$1+$1,$2,$3*
1,1,$1+$1,$4,$5*
1,1,$1+$1,$6,$7*
1,1,$1+$1,$8,$9*
0 Add four rect primitives between the rounded corners*
20,1,$1+$1,$2,$3,$4,$5,0*
20,1,$1+$1,$4,$5,$6,$7,0*
20,1,$1+$1,$6,$7,$8,$9,0*
20,1,$1+$1,$8,$9,$2,$3,0*%
G04 Aperture macros list end*
%ADD10C,0.010000*%
%ADD11RoundRect,0.250000X-0.350000X-0.450000X0.350000X-0.450000X0.350000X0.450000X-0.350000X0.450000X0*%
%ADD12RoundRect,0.250000X-0.450000X0.350000X-0.450000X-0.350000X0.450000X-0.350000X0.450000X0.350000X0*%
%ADD13RoundRect,0.102000X0.250000X-0.250000X0.250000X0.250000X-0.250000X0.250000X-0.250000X-0.250000X0*%
%ADD14RoundRect,0.250000X-0.325000X-0.450000X0.325000X-0.450000X0.325000X0.450000X-0.325000X0.450000X0*%
%ADD15O,3.556000X1.778000*%
%ADD16C,1.905000*%
%ADD17O,1.200000X1.750000*%
%ADD18RoundRect,0.250000X-0.350000X-0.625000X0.350000X-0.625000X0.350000X0.625000X-0.350000X0.625000X0*%
%ADD19R,1.700000X1.700000*%
%ADD20C,1.700000*%
G04 APERTURE END LIST*
D10*
%TO.C,U1*%
X117100000Y-105150000D02*
X117350000Y-105150000D01*
X117350000Y-105850000D01*
X116650000Y-105850000D01*
X116650000Y-105070000D01*
X117100000Y-105070000D01*
X117100000Y-105150000D01*
G36*
X117100000Y-105150000D02*
G01*
X117350000Y-105150000D01*
X117350000Y-105850000D01*
X116650000Y-105850000D01*
X116650000Y-105070000D01*
X117100000Y-105070000D01*
X117100000Y-105150000D01*
G37*
%TD*%
D11*
%TO.C,R3*%
X106000000Y-89000000D03*
X104000000Y-89000000D03*
%TD*%
%TO.C,R4*%
X106000000Y-94500000D03*
X104000000Y-94500000D03*
%TD*%
D12*
%TO.C,R2*%
X121000000Y-106000000D03*
X121000000Y-108000000D03*
%TD*%
D13*
%TO.C,U1*%
X117000000Y-106300000D03*
X117000000Y-107100000D03*
X117000000Y-107900000D03*
X117000000Y-108700000D03*
X116200000Y-108700000D03*
X115400000Y-108700000D03*
X115400000Y-107900000D03*
X115400000Y-107100000D03*
X115400000Y-106300000D03*
X115400000Y-105500000D03*
X116200000Y-105500000D03*
%TD*%
D14*
%TO.C,D1*%
X106050000Y-107000000D03*
X104000000Y-107000000D03*
%TD*%
D15*
%TO.C,U3*%
X112498000Y-76000000D03*
X112498000Y-78540000D03*
X112498000Y-81080000D03*
X112498000Y-83620000D03*
X112498000Y-86160000D03*
X112498000Y-88700000D03*
X112498000Y-91240000D03*
X129262000Y-91240000D03*
X129262000Y-88700000D03*
X129262000Y-86160000D03*
X129262000Y-83620000D03*
X129262000Y-81080000D03*
X129262000Y-78540000D03*
X129262000Y-76000000D03*
D16*
X118340000Y-101400000D03*
X123420000Y-101400000D03*
%TD*%
D17*
%TO.C,BT1*%
X127000000Y-115000000D03*
D18*
X125000000Y-115000000D03*
%TD*%
D19*
%TO.C,SW2*%
X104500000Y-116500000D03*
D20*
X107040000Y-116500000D03*
X109580000Y-116500000D03*
%TD*%
D11*
%TO.C,R1*%
X106000000Y-102500000D03*
X104000000Y-102500000D03*
%TD*%
M02*
