%TF.GenerationSoftware,KiCad,Pcbnew,9.0.7*%
%TF.CreationDate,2026-02-22T22:06:27-08:00*%
%TF.ProjectId,Electrical_schematics_V4,456c6563-7472-4696-9361-6c5f73636865,rev?*%
%TF.SameCoordinates,Original*%
%TF.FileFunction,Copper,L1,Top*%
%TF.FilePolarity,Positive*%
%FSLAX46Y46*%
G04 Gerber Fmt 4.6, Leading zero omitted, Abs format (unit mm)*
G04 Created by KiCad (PCBNEW 9.0.7) date 2026-02-22 22:06:27*
%MOMM*%
%LPD*%
G01*
G04 APERTURE LIST*
G04 Aperture macros list*
%AMRoundRect*
0 Rectangle with rounded corners*
0 $1 Rounding radius*
0 $2 $3 $4 $5 $6 $7 $8 $9 X,Y pos of 4 corners*
0 Add a 4 corners polygon primitive as box body*
4,1,4,$2,$3,$4,$5,$6,$7,$8,$9,$2,$3,0*
0 Add four circle primitives for the rounded corners*
1,1,$1+$1,$2,$3*
1,1,$1+$1,$4,$5*
1,1,$1+$1,$6,$7*
1,1,$1+$1,$8,$9*
0 Add four rect primitives between the rounded corners*
20,1,$1+$1,$2,$3,$4,$5,0*
20,1,$1+$1,$4,$5,$6,$7,0*
20,1,$1+$1,$6,$7,$8,$9,0*
20,1,$1+$1,$8,$9,$2,$3,0*%
%AMFreePoly0*
4,1,17,0.333536,0.253536,0.335000,0.250000,0.335000,0.000000,0.333536,-0.003536,0.330000,-0.005000,0.255000,-0.005000,0.255000,-0.250000,0.253536,-0.253536,0.250000,-0.255000,-0.250000,-0.255000,-0.253536,-0.253536,-0.255000,-0.250000,-0.255000,0.250000,-0.253536,0.253536,-0.250000,0.255000,0.330000,0.255000,0.333536,0.253536,0.333536,0.253536,$1*%
G04 Aperture macros list end*
%TA.AperFunction,SMDPad,CuDef*%
%ADD10RoundRect,0.250000X-0.350000X-0.450000X0.350000X-0.450000X0.350000X0.450000X-0.350000X0.450000X0*%
%TD*%
%TA.AperFunction,SMDPad,CuDef*%
%ADD11RoundRect,0.250000X-0.450000X0.350000X-0.450000X-0.350000X0.450000X-0.350000X0.450000X0.350000X0*%
%TD*%
%TA.AperFunction,SMDPad,CuDef*%
%ADD12FreePoly0,90.000000*%
%TD*%
%TA.AperFunction,SMDPad,CuDef*%
%ADD13R,0.500000X0.500000*%
%TD*%
%TA.AperFunction,SMDPad,CuDef*%
%ADD14RoundRect,0.250000X-0.325000X-0.450000X0.325000X-0.450000X0.325000X0.450000X-0.325000X0.450000X0*%
%TD*%
%TA.AperFunction,ComponentPad*%
%ADD15O,3.556000X1.778000*%
%TD*%
%TA.AperFunction,ComponentPad*%
%ADD16C,1.905000*%
%TD*%
%TA.AperFunction,ComponentPad*%
%ADD17O,1.200000X1.750000*%
%TD*%
%TA.AperFunction,ComponentPad*%
%ADD18RoundRect,0.250000X-0.350000X-0.625000X0.350000X-0.625000X0.350000X0.625000X-0.350000X0.625000X0*%
%TD*%
%TA.AperFunction,ComponentPad*%
%ADD19R,1.700000X1.700000*%
%TD*%
%TA.AperFunction,ComponentPad*%
%ADD20C,1.700000*%
%TD*%
%TA.AperFunction,ViaPad*%
%ADD21C,0.600000*%
%TD*%
%TA.AperFunction,Conductor*%
%ADD22C,0.200000*%
%TD*%
G04 APERTURE END LIST*
D10*
%TO.P,R3,2*%
%TO.N,/SDA*%
X106000000Y-89000000D03*
%TO.P,R3,1*%
%TO.N,+3V3*%
X104000000Y-89000000D03*
%TD*%
%TO.P,R4,2*%
%TO.N,/SCL*%
X106000000Y-94500000D03*
%TO.P,R4,1*%
%TO.N,+3V3*%
X104000000Y-94500000D03*
%TD*%
D11*
%TO.P,R2,1*%
%TO.N,+3V3*%
X121000000Y-106000000D03*
%TO.P,R2,2*%
%TO.N,Net-(U1-XSHUT)*%
X121000000Y-108000000D03*
%TD*%
D12*
%TO.P,U1,1,AVDDVCSEL*%
%TO.N,+3V3*%
X117000000Y-105500000D03*
D13*
%TO.P,U1,2,AVSSVCSEL*%
%TO.N,GND*%
X117000000Y-106300000D03*
%TO.P,U1,3,GND*%
X117000000Y-107100000D03*
%TO.P,U1,4,GND2*%
X117000000Y-107900000D03*
%TO.P,U1,5,XSHUT*%
%TO.N,Net-(U1-XSHUT)*%
X117000000Y-108700000D03*
%TO.P,U1,6,GND3*%
%TO.N,GND*%
X116200000Y-108700000D03*
%TO.P,U1,7,GPIO1*%
%TO.N,unconnected-(U1-GPIO1-Pad7)*%
X115400000Y-108700000D03*
%TO.P,U1,8,DNC*%
%TO.N,unconnected-(U1-DNC-Pad8)*%
X115400000Y-107900000D03*
%TO.P,U1,9,SDA*%
%TO.N,/SDA*%
X115400000Y-107100000D03*
%TO.P,U1,10,SCL*%
%TO.N,/SCL*%
X115400000Y-106300000D03*
%TO.P,U1,11,AVDD*%
%TO.N,+3V3*%
X115400000Y-105500000D03*
%TO.P,U1,12,GND4*%
%TO.N,GND*%
X116200000Y-105500000D03*
%TD*%
D14*
%TO.P,D1,2,A*%
%TO.N,Net-(D1-A)*%
X106050000Y-107000000D03*
%TO.P,D1,1,K*%
%TO.N,GND*%
X104000000Y-107000000D03*
%TD*%
D15*
%TO.P,U3,1,GPIO1_A0_D0*%
%TO.N,unconnected-(U3-GPIO1_A0_D0-Pad1)*%
X112498000Y-76000000D03*
%TO.P,U3,2,GPIO2_A1_D1*%
%TO.N,unconnected-(U3-GPIO2_A1_D1-Pad2)*%
X112498000Y-78540000D03*
%TO.P,U3,3,GPIO3_A2_D2*%
%TO.N,unconnected-(U3-GPIO3_A2_D2-Pad3)*%
X112498000Y-81080000D03*
%TO.P,U3,4,GPIO4_A3_D3*%
%TO.N,unconnected-(U3-GPIO4_A3_D3-Pad4)*%
X112498000Y-83620000D03*
%TO.P,U3,5,GPIO4_A3_D3_SDA*%
%TO.N,/SDA*%
X112498000Y-86160000D03*
%TO.P,U3,6,GPIO6_A5_D5_SCL*%
%TO.N,/SCL*%
X112498000Y-88700000D03*
%TO.P,U3,7,GPIO43_TX_D6*%
%TO.N,unconnected-(U3-GPIO43_TX_D6-Pad7)*%
X112498000Y-91240000D03*
%TO.P,U3,8,GPIO44_D7_RX*%
%TO.N,unconnected-(U3-GPIO44_D7_RX-Pad8)*%
X129262000Y-91240000D03*
%TO.P,U3,9,GPIO7_A8_D8_SCK*%
%TO.N,unconnected-(U3-GPIO7_A8_D8_SCK-Pad9)*%
X129262000Y-88700000D03*
%TO.P,U3,10,GPIO8_A9_D9_CIPO*%
%TO.N,unconnected-(U3-GPIO8_A9_D9_CIPO-Pad10)*%
X129262000Y-86160000D03*
%TO.P,U3,11,GPIO9_A10_D10_COPI*%
%TO.N,unconnected-(U3-GPIO9_A10_D10_COPI-Pad11)*%
X129262000Y-83620000D03*
%TO.P,U3,12,3V3*%
%TO.N,+3V3*%
X129262000Y-81080000D03*
%TO.P,U3,13,GND*%
%TO.N,GND*%
X129262000Y-78540000D03*
%TO.P,U3,14,5V*%
%TO.N,unconnected-(U3-5V-Pad14)*%
X129262000Y-76000000D03*
D16*
%TO.P,U3,15,+BATT*%
%TO.N,+BATT*%
X118340000Y-101400000D03*
%TO.P,U3,16,-BATT*%
%TO.N,-BATT*%
X123420000Y-101400000D03*
%TD*%
D17*
%TO.P,BT1,2,-*%
%TO.N,-BATT*%
X127000000Y-115000000D03*
D18*
%TO.P,BT1,1,+*%
%TO.N,Net-(BT1-+)*%
X125000000Y-115000000D03*
%TD*%
D19*
%TO.P,SW2,1,A*%
%TO.N,+BATT*%
X104500000Y-116500000D03*
D20*
%TO.P,SW2,2,B*%
%TO.N,Net-(BT1-+)*%
X107040000Y-116500000D03*
%TO.P,SW2,3,C*%
%TO.N,unconnected-(SW2-C-Pad3)*%
X109580000Y-116500000D03*
%TD*%
D10*
%TO.P,R1,2*%
%TO.N,Net-(D1-A)*%
X106000000Y-102500000D03*
%TO.P,R1,1*%
%TO.N,+3V3*%
X104000000Y-102500000D03*
%TD*%
D21*
%TO.N,GND*%
X116500000Y-110000000D03*
%TO.N,+BATT*%
X104500000Y-112500000D03*
X116000000Y-99500000D03*
%TO.N,+3V3*%
X102000000Y-99500000D03*
X102000000Y-93000000D03*
X100500000Y-96500000D03*
X111000000Y-99000000D03*
%TD*%
D22*
%TO.N,GND*%
X116200000Y-105950000D02*
X116550000Y-106300000D01*
X116200000Y-105500000D02*
X116200000Y-105950000D01*
X116550000Y-106300000D02*
X117000000Y-106300000D01*
%TO.N,+3V3*%
X111500000Y-101600000D02*
X115400000Y-105500000D01*
X111500000Y-100000000D02*
X111500000Y-101600000D01*
X113000000Y-98500000D02*
X111500000Y-100000000D01*
X117000000Y-105198000D02*
X117000000Y-105500000D01*
X116751000Y-104949000D02*
X117000000Y-105198000D01*
X115400000Y-105500000D02*
X115400000Y-105050000D01*
X115400000Y-105050000D02*
X115501000Y-104949000D01*
X115501000Y-104949000D02*
X116751000Y-104949000D01*
X120500000Y-105500000D02*
X117000000Y-105500000D01*
%TO.N,GND*%
X116200000Y-109700000D02*
X116500000Y-110000000D01*
X116200000Y-108700000D02*
X116200000Y-109700000D01*
X116550000Y-107900000D02*
X116200000Y-108250000D01*
X117000000Y-107900000D02*
X116550000Y-107900000D01*
X116200000Y-108250000D02*
X116200000Y-108700000D01*
%TO.N,+BATT*%
X104500000Y-112500000D02*
X104500000Y-116500000D01*
X116440000Y-99500000D02*
X116000000Y-99500000D01*
X118340000Y-101400000D02*
X116440000Y-99500000D01*
%TO.N,+3V3*%
X130500000Y-98500000D02*
X113000000Y-98500000D01*
X135500000Y-93500000D02*
X130500000Y-98500000D01*
X132080000Y-81080000D02*
X135500000Y-84500000D01*
X135500000Y-84500000D02*
X135500000Y-93500000D01*
X128500000Y-81080000D02*
X132080000Y-81080000D01*
X100000000Y-100500000D02*
X101000000Y-99500000D01*
X101000000Y-99500000D02*
X102000000Y-99500000D01*
X101000000Y-102500000D02*
X100000000Y-101500000D01*
X103000000Y-102500000D02*
X101000000Y-102500000D01*
X100000000Y-101500000D02*
X100000000Y-100500000D01*
X102500000Y-93000000D02*
X104000000Y-94500000D01*
X102000000Y-93000000D02*
X102500000Y-93000000D01*
X104000000Y-100000000D02*
X100500000Y-96500000D01*
X104000000Y-102500000D02*
X104000000Y-100000000D01*
%TO.N,/SDA*%
X97000000Y-90500000D02*
X97000000Y-89000000D01*
X112000000Y-105500000D02*
X97000000Y-90500000D01*
X97000000Y-89000000D02*
X99500000Y-86500000D01*
X99500000Y-86500000D02*
X103500000Y-86500000D01*
X103500000Y-86500000D02*
X106000000Y-89000000D01*
X112000000Y-106000000D02*
X112000000Y-105500000D01*
X113100000Y-107100000D02*
X112000000Y-106000000D01*
X115400000Y-107100000D02*
X113100000Y-107100000D01*
%TO.N,+3V3*%
X104000000Y-89000000D02*
X104000000Y-94500000D01*
X121000000Y-106000000D02*
X120500000Y-105500000D01*
%TO.N,Net-(BT1-+)*%
X112040000Y-111500000D02*
X107040000Y-116500000D01*
X121500000Y-111500000D02*
X112040000Y-111500000D01*
X125000000Y-115000000D02*
X121500000Y-111500000D01*
%TO.N,-BATT*%
X127000000Y-104980000D02*
X123420000Y-101400000D01*
X127000000Y-115000000D02*
X127000000Y-104980000D01*
%TO.N,/SCL*%
X106000000Y-97500000D02*
X106000000Y-94500000D01*
X114800000Y-106300000D02*
X106000000Y-97500000D01*
X115400000Y-106300000D02*
X114800000Y-106300000D01*
X106000000Y-92500000D02*
X106000000Y-94500000D01*
X109800000Y-88700000D02*
X106000000Y-92500000D01*
X113260000Y-88700000D02*
X109800000Y-88700000D01*
%TO.N,/SDA*%
X108840000Y-86160000D02*
X106000000Y-89000000D01*
X113260000Y-86160000D02*
X108840000Y-86160000D01*
%TO.N,Net-(U1-XSHUT)*%
X120300000Y-108700000D02*
X117000000Y-108700000D01*
X121000000Y-108000000D02*
X120300000Y-108700000D01*
%TO.N,Net-(D1-A)*%
X106000000Y-106950000D02*
X106050000Y-107000000D01*
X106000000Y-102500000D02*
X106000000Y-106950000D01*
X106000000Y-106000000D02*
X106000000Y-105500000D01*
X106000000Y-105500000D02*
X106050000Y-105450000D01*
%TO.N,+3V3*%
X104000000Y-102500000D02*
X103000000Y-102500000D01*
X111000000Y-99000000D02*
X111500000Y-98500000D01*
X111500000Y-98500000D02*
X113000000Y-98500000D01*
%TD*%
%TA.AperFunction,Conductor*%
%TO.N,GND*%
G36*
X116355701Y-106076487D02*
G01*
X116365255Y-106085705D01*
X116425740Y-106150672D01*
X116425740Y-106150673D01*
X116549474Y-106224089D01*
X116551545Y-106224947D01*
X116556548Y-106227019D01*
X116607584Y-106245024D01*
X116750000Y-106265500D01*
X116750003Y-106265500D01*
X117250002Y-106265500D01*
X117255796Y-106265189D01*
X117304041Y-106262603D01*
X117443452Y-106227019D01*
X117450523Y-106224090D01*
X117545364Y-106172303D01*
X117586780Y-106133743D01*
X117649260Y-106102470D01*
X117671275Y-106100500D01*
X119675501Y-106100500D01*
X119742540Y-106120185D01*
X119788295Y-106172989D01*
X119799501Y-106224500D01*
X119799501Y-106400018D01*
X119810000Y-106502796D01*
X119810001Y-106502799D01*
X119841506Y-106597873D01*
X119865186Y-106669334D01*
X119905520Y-106734727D01*
X119957289Y-106818657D01*
X120050951Y-106912319D01*
X120084436Y-106973642D01*
X120079452Y-107043334D01*
X120050951Y-107087681D01*
X119957289Y-107181342D01*
X119865187Y-107330663D01*
X119865186Y-107330666D01*
X119810001Y-107497203D01*
X119810001Y-107497204D01*
X119810000Y-107497204D01*
X119799500Y-107599983D01*
X119799500Y-107599991D01*
X119799500Y-107824500D01*
X119799501Y-107975500D01*
X119779817Y-108042539D01*
X119727013Y-108088294D01*
X119675501Y-108099500D01*
X117658231Y-108099500D01*
X117591192Y-108079815D01*
X117583920Y-108074767D01*
X117492331Y-108006204D01*
X117492328Y-108006202D01*
X117357486Y-107955910D01*
X117357485Y-107955909D01*
X117357483Y-107955909D01*
X117297873Y-107949500D01*
X117297863Y-107949500D01*
X116702129Y-107949500D01*
X116702123Y-107949501D01*
X116642516Y-107955908D01*
X116507671Y-108006202D01*
X116507664Y-108006206D01*
X116392456Y-108092452D01*
X116392455Y-108092453D01*
X116392454Y-108092454D01*
X116382501Y-108105748D01*
X116373764Y-108117420D01*
X116317829Y-108159289D01*
X116248137Y-108164271D01*
X116186815Y-108130784D01*
X116153332Y-108069460D01*
X116150499Y-108043112D01*
X116150499Y-107773999D01*
X116170184Y-107706961D01*
X116222988Y-107661206D01*
X116274499Y-107650000D01*
X116750000Y-107650000D01*
X117250000Y-107650000D01*
X117750000Y-107650000D01*
X117750000Y-107602172D01*
X117749999Y-107602155D01*
X117743597Y-107542622D01*
X117741813Y-107535067D01*
X117743250Y-107534727D01*
X117738874Y-107473658D01*
X117743364Y-107458366D01*
X117743597Y-107457377D01*
X117749999Y-107397844D01*
X117750000Y-107397827D01*
X117750000Y-107350000D01*
X117250000Y-107350000D01*
X117250000Y-107650000D01*
X116750000Y-107650000D01*
X116750000Y-106850000D01*
X117250000Y-106850000D01*
X117750000Y-106850000D01*
X117750000Y-106802172D01*
X117749999Y-106802155D01*
X117743597Y-106742622D01*
X117741813Y-106735067D01*
X117743250Y-106734727D01*
X117738874Y-106673658D01*
X117743364Y-106658366D01*
X117743597Y-106657377D01*
X117749999Y-106597844D01*
X117750000Y-106597827D01*
X117750000Y-106550000D01*
X117250000Y-106550000D01*
X117250000Y-106850000D01*
X116750000Y-106850000D01*
X116750000Y-106550000D01*
X116274500Y-106550000D01*
X116207461Y-106530315D01*
X116161706Y-106477511D01*
X116150500Y-106426000D01*
X116150499Y-106170200D01*
X116170183Y-106103161D01*
X116222987Y-106057406D01*
X116292146Y-106047462D01*
X116355701Y-106076487D01*
G37*
%TD.AperFunction*%
%TA.AperFunction,Conductor*%
G36*
X137006922Y-73501280D02*
G01*
X137097266Y-73511459D01*
X137124331Y-73517636D01*
X137203540Y-73545352D01*
X137228553Y-73557398D01*
X137299606Y-73602043D01*
X137321313Y-73619355D01*
X137380644Y-73678686D01*
X137397957Y-73700395D01*
X137442600Y-73771444D01*
X137454648Y-73796462D01*
X137482362Y-73875666D01*
X137488540Y-73902735D01*
X137498720Y-73993076D01*
X137499500Y-74006961D01*
X137499500Y-118993038D01*
X137498720Y-119006922D01*
X137498720Y-119006923D01*
X137488540Y-119097264D01*
X137482362Y-119124333D01*
X137454648Y-119203537D01*
X137442600Y-119228555D01*
X137397957Y-119299604D01*
X137380644Y-119321313D01*
X137321313Y-119380644D01*
X137299604Y-119397957D01*
X137228555Y-119442600D01*
X137203537Y-119454648D01*
X137124333Y-119482362D01*
X137097264Y-119488540D01*
X137017075Y-119497576D01*
X137006921Y-119498720D01*
X136993038Y-119499500D01*
X95006962Y-119499500D01*
X94993078Y-119498720D01*
X94980553Y-119497308D01*
X94902735Y-119488540D01*
X94875666Y-119482362D01*
X94796462Y-119454648D01*
X94771444Y-119442600D01*
X94700395Y-119397957D01*
X94678686Y-119380644D01*
X94619355Y-119321313D01*
X94602042Y-119299604D01*
X94557399Y-119228555D01*
X94545351Y-119203537D01*
X94517637Y-119124333D01*
X94511459Y-119097263D01*
X94501280Y-119006922D01*
X94500500Y-118993038D01*
X94500500Y-115868872D01*
X95999500Y-115868872D01*
X95999500Y-116131127D01*
X96006430Y-116183760D01*
X96033730Y-116391116D01*
X96091385Y-116606287D01*
X96101602Y-116644418D01*
X96101605Y-116644428D01*
X96201953Y-116886690D01*
X96201958Y-116886700D01*
X96333075Y-117113803D01*
X96492718Y-117321851D01*
X96492726Y-117321860D01*
X96678140Y-117507274D01*
X96678148Y-117507281D01*
X96886196Y-117666924D01*
X97113299Y-117798041D01*
X97113309Y-117798046D01*
X97289371Y-117870973D01*
X97355581Y-117898398D01*
X97608884Y-117966270D01*
X97868880Y-118000500D01*
X97868887Y-118000500D01*
X98131113Y-118000500D01*
X98131120Y-118000500D01*
X98391116Y-117966270D01*
X98644419Y-117898398D01*
X98886697Y-117798043D01*
X99113803Y-117666924D01*
X99321851Y-117507282D01*
X99321855Y-117507277D01*
X99321860Y-117507274D01*
X99507274Y-117321860D01*
X99507277Y-117321855D01*
X99507282Y-117321851D01*
X99666924Y-117113803D01*
X99798043Y-116886697D01*
X99898398Y-116644419D01*
X99966270Y-116391116D01*
X100000500Y-116131120D01*
X100000500Y-115868880D01*
X99998249Y-115851786D01*
X99977930Y-115697447D01*
X99966270Y-115608884D01*
X99964462Y-115602135D01*
X103149500Y-115602135D01*
X103149500Y-117397870D01*
X103149501Y-117397876D01*
X103155908Y-117457483D01*
X103206202Y-117592328D01*
X103206206Y-117592335D01*
X103292452Y-117707544D01*
X103292455Y-117707547D01*
X103407664Y-117793793D01*
X103407671Y-117793797D01*
X103542517Y-117844091D01*
X103542516Y-117844091D01*
X103549444Y-117844835D01*
X103602127Y-117850500D01*
X105397872Y-117850499D01*
X105457483Y-117844091D01*
X105592331Y-117793796D01*
X105707546Y-117707546D01*
X105793796Y-117592331D01*
X105842810Y-117460916D01*
X105884681Y-117404984D01*
X105950145Y-117380566D01*
X106018418Y-117395417D01*
X106046673Y-117416569D01*
X106160213Y-117530109D01*
X106332179Y-117655048D01*
X106332181Y-117655049D01*
X106332184Y-117655051D01*
X106521588Y-117751557D01*
X106723757Y-117817246D01*
X106933713Y-117850500D01*
X106933714Y-117850500D01*
X107146286Y-117850500D01*
X107146287Y-117850500D01*
X107356243Y-117817246D01*
X107558412Y-117751557D01*
X107747816Y-117655051D01*
X107834138Y-117592335D01*
X107919786Y-117530109D01*
X107919788Y-117530106D01*
X107919792Y-117530104D01*
X108070104Y-117379792D01*
X108070106Y-117379788D01*
X108070109Y-117379786D01*
X108195048Y-117207820D01*
X108195047Y-117207820D01*
X108195051Y-117207816D01*
X108199514Y-117199054D01*
X108247488Y-117148259D01*
X108315308Y-117131463D01*
X108381444Y-117153999D01*
X108420486Y-117199056D01*
X108424951Y-117207820D01*
X108549890Y-117379786D01*
X108700213Y-117530109D01*
X108872179Y-117655048D01*
X108872181Y-117655049D01*
X108872184Y-117655051D01*
X109061588Y-117751557D01*
X109263757Y-117817246D01*
X109473713Y-117850500D01*
X109473714Y-117850500D01*
X109686286Y-117850500D01*
X109686287Y-117850500D01*
X109896243Y-117817246D01*
X110098412Y-117751557D01*
X110287816Y-117655051D01*
X110374138Y-117592335D01*
X110459786Y-117530109D01*
X110459788Y-117530106D01*
X110459792Y-117530104D01*
X110610104Y-117379792D01*
X110610106Y-117379788D01*
X110610109Y-117379786D01*
X110735048Y-117207820D01*
X110735047Y-117207820D01*
X110735051Y-117207816D01*
X110831557Y-117018412D01*
X110897246Y-116816243D01*
X110930500Y-116606287D01*
X110930500Y-116393713D01*
X110897246Y-116183757D01*
X110831557Y-115981588D01*
X110735051Y-115792184D01*
X110735049Y-115792181D01*
X110735048Y-115792179D01*
X110610109Y-115620213D01*
X110459786Y-115469890D01*
X110287820Y-115344951D01*
X110098414Y-115248444D01*
X110098413Y-115248443D01*
X110098412Y-115248443D01*
X109896243Y-115182754D01*
X109896241Y-115182753D01*
X109896240Y-115182753D01*
X109734957Y-115157208D01*
X109686287Y-115149500D01*
X109539096Y-115149500D01*
X109472057Y-115129815D01*
X109426302Y-115077011D01*
X109416358Y-115007853D01*
X109445383Y-114944297D01*
X109451415Y-114937819D01*
X110751007Y-113638228D01*
X112252416Y-112136819D01*
X112313739Y-112103334D01*
X112340097Y-112100500D01*
X121199903Y-112100500D01*
X121266942Y-112120185D01*
X121287584Y-112136819D01*
X123863181Y-114712416D01*
X123896666Y-114773739D01*
X123899500Y-114800097D01*
X123899500Y-115675001D01*
X123899501Y-115675019D01*
X123910000Y-115777796D01*
X123910001Y-115777799D01*
X123965185Y-115944331D01*
X123965187Y-115944336D01*
X123988162Y-115981585D01*
X124057288Y-116093656D01*
X124181344Y-116217712D01*
X124330666Y-116309814D01*
X124497203Y-116364999D01*
X124599991Y-116375500D01*
X125400008Y-116375499D01*
X125400016Y-116375498D01*
X125400019Y-116375498D01*
X125456302Y-116369748D01*
X125502797Y-116364999D01*
X125669334Y-116309814D01*
X125818656Y-116217712D01*
X125942712Y-116093656D01*
X125982310Y-116029456D01*
X126034258Y-115982732D01*
X126103220Y-115971509D01*
X126167303Y-115999352D01*
X126175530Y-116006872D01*
X126283072Y-116114414D01*
X126423212Y-116216232D01*
X126577555Y-116294873D01*
X126742299Y-116348402D01*
X126913389Y-116375500D01*
X126913390Y-116375500D01*
X127086610Y-116375500D01*
X127086611Y-116375500D01*
X127257701Y-116348402D01*
X127422445Y-116294873D01*
X127576788Y-116216232D01*
X127716928Y-116114414D01*
X127839414Y-115991928D01*
X127932673Y-115863568D01*
X131918361Y-115863568D01*
X131918361Y-116136431D01*
X131918362Y-116136448D01*
X131953976Y-116406968D01*
X131953977Y-116406973D01*
X131953978Y-116406979D01*
X132017602Y-116644428D01*
X132024603Y-116670556D01*
X132024606Y-116670566D01*
X132129026Y-116922657D01*
X132129031Y-116922668D01*
X132265461Y-117158970D01*
X132265472Y-117158986D01*
X132431580Y-117375463D01*
X132431586Y-117375470D01*
X132624529Y-117568413D01*
X132624536Y-117568419D01*
X132752911Y-117666924D01*
X132841022Y-117734534D01*
X132841029Y-117734538D01*
X133077331Y-117870968D01*
X133077336Y-117870970D01*
X133077339Y-117870972D01*
X133329443Y-117975397D01*
X133593021Y-118046022D01*
X133863562Y-118081639D01*
X133863569Y-118081639D01*
X134136431Y-118081639D01*
X134136438Y-118081639D01*
X134406979Y-118046022D01*
X134670557Y-117975397D01*
X134922661Y-117870972D01*
X135158978Y-117734534D01*
X135375465Y-117568418D01*
X135568418Y-117375465D01*
X135734534Y-117158978D01*
X135870972Y-116922661D01*
X135975397Y-116670557D01*
X136046022Y-116406979D01*
X136081639Y-116136438D01*
X136081639Y-115863562D01*
X136046022Y-115593021D01*
X135975397Y-115329443D01*
X135870972Y-115077339D01*
X135870970Y-115077336D01*
X135870968Y-115077331D01*
X135734538Y-114841029D01*
X135734534Y-114841022D01*
X135635851Y-114712416D01*
X135568419Y-114624536D01*
X135568413Y-114624529D01*
X135375470Y-114431586D01*
X135375463Y-114431580D01*
X135158986Y-114265472D01*
X135158984Y-114265470D01*
X135158978Y-114265466D01*
X135158973Y-114265463D01*
X135158970Y-114265461D01*
X134922668Y-114129031D01*
X134922657Y-114129026D01*
X134670566Y-114024606D01*
X134670559Y-114024604D01*
X134670557Y-114024603D01*
X134406979Y-113953978D01*
X134406973Y-113953977D01*
X134406968Y-113953976D01*
X134136448Y-113918362D01*
X134136443Y-113918361D01*
X134136438Y-113918361D01*
X133863562Y-113918361D01*
X133863556Y-113918361D01*
X133863551Y-113918362D01*
X133593031Y-113953976D01*
X133593024Y-113953977D01*
X133593021Y-113953978D01*
X133391138Y-114008072D01*
X133329443Y-114024603D01*
X133329433Y-114024606D01*
X133077342Y-114129026D01*
X133077331Y-114129031D01*
X132841029Y-114265461D01*
X132841013Y-114265472D01*
X132624536Y-114431580D01*
X132624529Y-114431586D01*
X132431586Y-114624529D01*
X132431580Y-114624536D01*
X132265472Y-114841013D01*
X132265461Y-114841029D01*
X132129031Y-115077331D01*
X132129026Y-115077342D01*
X132024606Y-115329433D01*
X132024603Y-115329443D01*
X131967511Y-115542517D01*
X131953979Y-115593018D01*
X131953976Y-115593031D01*
X131918362Y-115863551D01*
X131918361Y-115863568D01*
X127932673Y-115863568D01*
X127941232Y-115851788D01*
X128019873Y-115697445D01*
X128073402Y-115532701D01*
X128100500Y-115361611D01*
X128100500Y-114638389D01*
X128073402Y-114467299D01*
X128019873Y-114302555D01*
X127941232Y-114148212D01*
X127839414Y-114008072D01*
X127716928Y-113885586D01*
X127716925Y-113885584D01*
X127651613Y-113838131D01*
X127608948Y-113782801D01*
X127600500Y-113737814D01*
X127600500Y-105069060D01*
X127600501Y-105069047D01*
X127600501Y-104900944D01*
X127600114Y-104899499D01*
X127559577Y-104748216D01*
X127539325Y-104713138D01*
X127480524Y-104611290D01*
X127480518Y-104611282D01*
X126195012Y-103325776D01*
X124835101Y-101965866D01*
X124801617Y-101904544D01*
X124804852Y-101839868D01*
X124837222Y-101740245D01*
X124873000Y-101514354D01*
X124873000Y-101285646D01*
X124837222Y-101059755D01*
X124837221Y-101059751D01*
X124837221Y-101059750D01*
X124766549Y-100842244D01*
X124662716Y-100638461D01*
X124528286Y-100453434D01*
X124366566Y-100291714D01*
X124181538Y-100157283D01*
X124108729Y-100120185D01*
X123977755Y-100053450D01*
X123760248Y-99982778D01*
X123590826Y-99955944D01*
X123534354Y-99947000D01*
X123305646Y-99947000D01*
X123230349Y-99958926D01*
X123079753Y-99982778D01*
X123079750Y-99982778D01*
X122862244Y-100053450D01*
X122658461Y-100157283D01*
X122586733Y-100209397D01*
X122473434Y-100291714D01*
X122473432Y-100291716D01*
X122473431Y-100291716D01*
X122311716Y-100453431D01*
X122311716Y-100453432D01*
X122311714Y-100453434D01*
X122253980Y-100532896D01*
X122177283Y-100638461D01*
X122073450Y-100842244D01*
X122002778Y-101059750D01*
X122002778Y-101059753D01*
X122002778Y-101059755D01*
X121967000Y-101285646D01*
X121967000Y-101514354D01*
X121976092Y-101571757D01*
X122002778Y-101740246D01*
X122002778Y-101740249D01*
X122073450Y-101957755D01*
X122088652Y-101987590D01*
X122177283Y-102161538D01*
X122311714Y-102346566D01*
X122473434Y-102508286D01*
X122658462Y-102642717D01*
X122862242Y-102746548D01*
X122862244Y-102746549D01*
X123079751Y-102817221D01*
X123079752Y-102817221D01*
X123079755Y-102817222D01*
X123305646Y-102853000D01*
X123305647Y-102853000D01*
X123534353Y-102853000D01*
X123534354Y-102853000D01*
X123760245Y-102817222D01*
X123859869Y-102784851D01*
X123929709Y-102782857D01*
X123985867Y-102815102D01*
X126363181Y-105192416D01*
X126396666Y-105253739D01*
X126399500Y-105280097D01*
X126399500Y-113737814D01*
X126379815Y-113804853D01*
X126348387Y-113838131D01*
X126283074Y-113885584D01*
X126175530Y-113993128D01*
X126114207Y-114026612D01*
X126044515Y-114021628D01*
X125988582Y-113979756D01*
X125982310Y-113970543D01*
X125972093Y-113953979D01*
X125942712Y-113906344D01*
X125818656Y-113782288D01*
X125669334Y-113690186D01*
X125502797Y-113635001D01*
X125502795Y-113635000D01*
X125400010Y-113624500D01*
X124599998Y-113624500D01*
X124599975Y-113624502D01*
X124544052Y-113630214D01*
X124475360Y-113617443D01*
X124443772Y-113594537D01*
X121987590Y-111138355D01*
X121987588Y-111138352D01*
X121868717Y-111019481D01*
X121868716Y-111019480D01*
X121781904Y-110969360D01*
X121781904Y-110969359D01*
X121781900Y-110969358D01*
X121731785Y-110940423D01*
X121579057Y-110899499D01*
X121420943Y-110899499D01*
X121413347Y-110899499D01*
X121413331Y-110899500D01*
X112126669Y-110899500D01*
X112126653Y-110899499D01*
X112119057Y-110899499D01*
X111960943Y-110899499D01*
X111853587Y-110928265D01*
X111808210Y-110940424D01*
X111808209Y-110940425D01*
X111758096Y-110969359D01*
X111758095Y-110969360D01*
X111714689Y-110994420D01*
X111671285Y-111019479D01*
X111671282Y-111019481D01*
X111559478Y-111131286D01*
X107524522Y-115166241D01*
X107463199Y-115199726D01*
X107398523Y-115196491D01*
X107356245Y-115182754D01*
X107216272Y-115160584D01*
X107146287Y-115149500D01*
X106933713Y-115149500D01*
X106885042Y-115157208D01*
X106723760Y-115182753D01*
X106521585Y-115248444D01*
X106332179Y-115344951D01*
X106160215Y-115469889D01*
X106046673Y-115583431D01*
X105985350Y-115616915D01*
X105915658Y-115611931D01*
X105859725Y-115570059D01*
X105842810Y-115539082D01*
X105793797Y-115407671D01*
X105793793Y-115407664D01*
X105707547Y-115292455D01*
X105707544Y-115292452D01*
X105592335Y-115206206D01*
X105592328Y-115206202D01*
X105457482Y-115155908D01*
X105457483Y-115155908D01*
X105397883Y-115149501D01*
X105397881Y-115149500D01*
X105397873Y-115149500D01*
X105397865Y-115149500D01*
X105224500Y-115149500D01*
X105157461Y-115129815D01*
X105111706Y-115077011D01*
X105100500Y-115025500D01*
X105100500Y-113079765D01*
X105120185Y-113012726D01*
X105121398Y-113010874D01*
X105209390Y-112879185D01*
X105209390Y-112879184D01*
X105209394Y-112879179D01*
X105269737Y-112733497D01*
X105300500Y-112578842D01*
X105300500Y-112421158D01*
X105300500Y-112421155D01*
X105300499Y-112421153D01*
X105269738Y-112266510D01*
X105269737Y-112266503D01*
X105216021Y-112136819D01*
X105209397Y-112120827D01*
X105209390Y-112120814D01*
X105121789Y-111989711D01*
X105121786Y-111989707D01*
X105010292Y-111878213D01*
X105010288Y-111878210D01*
X104879185Y-111790609D01*
X104879172Y-111790602D01*
X104733501Y-111730264D01*
X104733489Y-111730261D01*
X104578845Y-111699500D01*
X104578842Y-111699500D01*
X104421158Y-111699500D01*
X104421155Y-111699500D01*
X104266510Y-111730261D01*
X104266498Y-111730264D01*
X104120827Y-111790602D01*
X104120814Y-111790609D01*
X103989711Y-111878210D01*
X103989707Y-111878213D01*
X103878213Y-111989707D01*
X103878210Y-111989711D01*
X103790609Y-112120814D01*
X103790602Y-112120827D01*
X103730264Y-112266498D01*
X103730261Y-112266510D01*
X103699500Y-112421153D01*
X103699500Y-112578846D01*
X103730261Y-112733489D01*
X103730264Y-112733501D01*
X103790602Y-112879172D01*
X103790609Y-112879185D01*
X103878602Y-113010874D01*
X103899480Y-113077551D01*
X103899500Y-113079765D01*
X103899500Y-115025500D01*
X103879815Y-115092539D01*
X103827011Y-115138294D01*
X103775501Y-115149500D01*
X103602130Y-115149500D01*
X103602123Y-115149501D01*
X103542516Y-115155908D01*
X103407671Y-115206202D01*
X103407664Y-115206206D01*
X103292455Y-115292452D01*
X103292452Y-115292455D01*
X103206206Y-115407664D01*
X103206202Y-115407671D01*
X103155908Y-115542517D01*
X103149501Y-115602116D01*
X103149500Y-115602135D01*
X99964462Y-115602135D01*
X99898398Y-115355581D01*
X99874622Y-115298181D01*
X99798046Y-115113309D01*
X99798041Y-115113299D01*
X99666924Y-114886196D01*
X99507281Y-114678148D01*
X99507274Y-114678140D01*
X99321860Y-114492726D01*
X99321851Y-114492718D01*
X99113803Y-114333075D01*
X98886700Y-114201958D01*
X98886690Y-114201953D01*
X98644428Y-114101605D01*
X98644421Y-114101603D01*
X98644419Y-114101602D01*
X98391116Y-114033730D01*
X98333339Y-114026123D01*
X98131127Y-113999500D01*
X98131120Y-113999500D01*
X97868880Y-113999500D01*
X97868872Y-113999500D01*
X97637772Y-114029926D01*
X97608884Y-114033730D01*
X97355581Y-114101602D01*
X97355571Y-114101605D01*
X97113309Y-114201953D01*
X97113299Y-114201958D01*
X96886196Y-114333075D01*
X96678148Y-114492718D01*
X96492718Y-114678148D01*
X96333075Y-114886196D01*
X96201958Y-115113299D01*
X96201953Y-115113309D01*
X96101605Y-115355571D01*
X96101602Y-115355581D01*
X96033730Y-115608884D01*
X96029926Y-115637772D01*
X95999500Y-115868872D01*
X94500500Y-115868872D01*
X94500500Y-107499986D01*
X102925001Y-107499986D01*
X102935494Y-107602697D01*
X102990641Y-107769119D01*
X102990643Y-107769124D01*
X103082684Y-107918345D01*
X103206654Y-108042315D01*
X103355875Y-108134356D01*
X103355880Y-108134358D01*
X103522302Y-108189505D01*
X103522309Y-108189506D01*
X103625019Y-108199999D01*
X103749999Y-108199999D01*
X103750000Y-108199998D01*
X103750000Y-107250000D01*
X102925001Y-107250000D01*
X102925001Y-107499986D01*
X94500500Y-107499986D01*
X94500500Y-106500013D01*
X102925000Y-106500013D01*
X102925000Y-106750000D01*
X103750000Y-106750000D01*
X103750000Y-105800000D01*
X103625027Y-105800000D01*
X103625012Y-105800001D01*
X103522302Y-105810494D01*
X103355880Y-105865641D01*
X103355875Y-105865643D01*
X103206654Y-105957684D01*
X103082684Y-106081654D01*
X102990643Y-106230875D01*
X102990641Y-106230880D01*
X102935494Y-106397302D01*
X102935493Y-106397309D01*
X102925000Y-106500013D01*
X94500500Y-106500013D01*
X94500500Y-90579054D01*
X96399498Y-90579054D01*
X96433679Y-90706619D01*
X96440423Y-90731785D01*
X96458038Y-90762295D01*
X96458039Y-90762297D01*
X96458040Y-90762297D01*
X96519479Y-90868714D01*
X96519481Y-90868717D01*
X96638349Y-90987585D01*
X96638355Y-90987590D01*
X106823728Y-101172963D01*
X106857213Y-101234286D01*
X106852229Y-101303978D01*
X106810357Y-101359911D01*
X106744893Y-101384328D01*
X106676620Y-101369476D01*
X106670953Y-101366184D01*
X106669343Y-101365191D01*
X106669338Y-101365188D01*
X106669334Y-101365186D01*
X106502797Y-101310001D01*
X106502795Y-101310000D01*
X106400010Y-101299500D01*
X105599998Y-101299500D01*
X105599980Y-101299501D01*
X105497203Y-101310000D01*
X105497200Y-101310001D01*
X105330668Y-101365185D01*
X105330663Y-101365187D01*
X105181342Y-101457289D01*
X105087681Y-101550951D01*
X105026358Y-101584436D01*
X104956666Y-101579452D01*
X104912319Y-101550951D01*
X104818657Y-101457289D01*
X104818656Y-101457288D01*
X104669334Y-101365186D01*
X104669332Y-101365185D01*
X104663187Y-101361395D01*
X104664290Y-101359605D01*
X104619649Y-101320290D01*
X104600500Y-101254091D01*
X104600500Y-99920944D01*
X104600500Y-99920943D01*
X104594754Y-99899500D01*
X104568227Y-99800500D01*
X104559577Y-99768216D01*
X104559576Y-99768214D01*
X104559576Y-99768213D01*
X104480524Y-99631290D01*
X104480521Y-99631286D01*
X104480520Y-99631284D01*
X104368716Y-99519480D01*
X104368715Y-99519479D01*
X104364385Y-99515149D01*
X104364374Y-99515139D01*
X101334574Y-96485339D01*
X101301089Y-96424016D01*
X101300638Y-96421849D01*
X101269738Y-96266510D01*
X101269737Y-96266503D01*
X101269735Y-96266498D01*
X101209397Y-96120827D01*
X101209390Y-96120814D01*
X101121789Y-95989711D01*
X101121786Y-95989707D01*
X101010292Y-95878213D01*
X101010288Y-95878210D01*
X100879185Y-95790609D01*
X100879172Y-95790602D01*
X100733501Y-95730264D01*
X100733489Y-95730261D01*
X100578845Y-95699500D01*
X100578842Y-95699500D01*
X100421158Y-95699500D01*
X100421155Y-95699500D01*
X100266510Y-95730261D01*
X100266498Y-95730264D01*
X100120827Y-95790602D01*
X100120814Y-95790609D01*
X99989711Y-95878210D01*
X99989707Y-95878213D01*
X99878213Y-95989707D01*
X99878210Y-95989711D01*
X99790609Y-96120814D01*
X99790602Y-96120827D01*
X99730264Y-96266498D01*
X99730261Y-96266510D01*
X99699500Y-96421153D01*
X99699500Y-96578846D01*
X99730261Y-96733489D01*
X99730264Y-96733501D01*
X99790602Y-96879172D01*
X99790609Y-96879185D01*
X99878210Y-97010288D01*
X99878213Y-97010292D01*
X99989707Y-97121786D01*
X99989711Y-97121789D01*
X100120814Y-97209390D01*
X100120827Y-97209397D01*
X100221907Y-97251265D01*
X100266503Y-97269737D01*
X100331147Y-97282595D01*
X100421849Y-97300638D01*
X100483760Y-97333023D01*
X100485339Y-97334574D01*
X101716259Y-98565494D01*
X101728030Y-98587051D01*
X101743356Y-98606249D01*
X101744480Y-98617176D01*
X101749744Y-98626817D01*
X101747991Y-98651318D01*
X101750505Y-98675752D01*
X101745543Y-98685550D01*
X101744760Y-98696509D01*
X101730039Y-98716172D01*
X101718944Y-98738087D01*
X101707945Y-98745685D01*
X101702888Y-98752442D01*
X101691361Y-98760106D01*
X101683949Y-98764457D01*
X101620821Y-98790606D01*
X101489711Y-98878211D01*
X101489009Y-98878912D01*
X101483017Y-98882431D01*
X101452485Y-98890074D01*
X101422447Y-98899480D01*
X101420234Y-98899500D01*
X101086670Y-98899500D01*
X101086654Y-98899499D01*
X101079058Y-98899499D01*
X100920943Y-98899499D01*
X100844579Y-98919961D01*
X100768214Y-98940423D01*
X100768209Y-98940426D01*
X100631290Y-99019475D01*
X100631284Y-99019480D01*
X99633681Y-100017082D01*
X99633672Y-100017091D01*
X99631286Y-100019478D01*
X99631284Y-100019480D01*
X99519480Y-100131284D01*
X99504470Y-100157283D01*
X99498027Y-100168441D01*
X99498027Y-100168442D01*
X99440424Y-100268213D01*
X99440423Y-100268215D01*
X99399499Y-100420943D01*
X99399499Y-100420945D01*
X99399499Y-100589046D01*
X99399500Y-100589059D01*
X99399500Y-101413330D01*
X99399499Y-101413348D01*
X99399499Y-101579054D01*
X99399498Y-101579054D01*
X99440423Y-101731785D01*
X99469358Y-101781900D01*
X99469359Y-101781904D01*
X99469360Y-101781904D01*
X99516284Y-101863181D01*
X99519479Y-101868714D01*
X99519481Y-101868717D01*
X99638349Y-101987585D01*
X99638354Y-101987589D01*
X100631284Y-102980520D01*
X100631286Y-102980521D01*
X100631290Y-102980524D01*
X100665040Y-103000009D01*
X100768216Y-103059577D01*
X100920943Y-103100501D01*
X100920945Y-103100501D01*
X101086654Y-103100501D01*
X101086670Y-103100500D01*
X102819699Y-103100500D01*
X102886738Y-103120185D01*
X102932493Y-103172989D01*
X102937403Y-103185492D01*
X102965186Y-103269334D01*
X103057288Y-103418656D01*
X103181344Y-103542712D01*
X103330666Y-103634814D01*
X103497203Y-103689999D01*
X103599991Y-103700500D01*
X104400008Y-103700499D01*
X104400016Y-103700498D01*
X104400019Y-103700498D01*
X104456302Y-103694748D01*
X104502797Y-103689999D01*
X104669334Y-103634814D01*
X104818656Y-103542712D01*
X104912319Y-103449049D01*
X104973642Y-103415564D01*
X105043334Y-103420548D01*
X105087681Y-103449049D01*
X105181344Y-103542712D01*
X105330666Y-103634814D01*
X105330667Y-103634814D01*
X105336813Y-103638605D01*
X105335706Y-103640399D01*
X105380337Y-103679687D01*
X105399500Y-103745908D01*
X105399500Y-105420939D01*
X105399499Y-105420943D01*
X105399499Y-105579057D01*
X105399500Y-105579060D01*
X105399500Y-105799781D01*
X105379815Y-105866820D01*
X105340597Y-105905319D01*
X105256347Y-105957285D01*
X105256343Y-105957288D01*
X105132288Y-106081343D01*
X105132283Y-106081349D01*
X105130241Y-106084661D01*
X105128247Y-106086453D01*
X105127807Y-106087011D01*
X105127711Y-106086935D01*
X105078291Y-106131383D01*
X105009328Y-106142602D01*
X104945247Y-106114755D01*
X104919168Y-106084656D01*
X104917319Y-106081659D01*
X104917316Y-106081655D01*
X104793345Y-105957684D01*
X104644124Y-105865643D01*
X104644119Y-105865641D01*
X104477697Y-105810494D01*
X104477690Y-105810493D01*
X104374986Y-105800000D01*
X104250000Y-105800000D01*
X104250000Y-108199999D01*
X104374972Y-108199999D01*
X104374986Y-108199998D01*
X104477697Y-108189505D01*
X104644119Y-108134358D01*
X104644124Y-108134356D01*
X104793345Y-108042315D01*
X104917318Y-107918342D01*
X104919165Y-107915348D01*
X104920969Y-107913724D01*
X104921798Y-107912677D01*
X104921976Y-107912818D01*
X104971110Y-107868621D01*
X105040073Y-107857396D01*
X105104156Y-107885236D01*
X105130243Y-107915341D01*
X105132288Y-107918656D01*
X105256344Y-108042712D01*
X105405666Y-108134814D01*
X105572203Y-108189999D01*
X105674991Y-108200500D01*
X106425008Y-108200499D01*
X106425016Y-108200498D01*
X106425019Y-108200498D01*
X106481302Y-108194748D01*
X106527797Y-108189999D01*
X106694334Y-108134814D01*
X106843656Y-108042712D01*
X106967712Y-107918656D01*
X107059814Y-107769334D01*
X107114999Y-107602797D01*
X107125500Y-107500009D01*
X107125499Y-106499992D01*
X107125416Y-106499184D01*
X107114999Y-106397203D01*
X107114998Y-106397200D01*
X107099073Y-106349142D01*
X107059814Y-106230666D01*
X106967712Y-106081344D01*
X106843656Y-105957288D01*
X106694334Y-105865186D01*
X106694333Y-105865185D01*
X106694332Y-105865185D01*
X106685493Y-105862256D01*
X106665461Y-105848385D01*
X106643297Y-105838264D01*
X106637247Y-105828851D01*
X106628049Y-105822482D01*
X106618696Y-105799983D01*
X106605523Y-105779486D01*
X106603063Y-105762380D01*
X106601228Y-105757965D01*
X106600500Y-105744551D01*
X106600500Y-105728363D01*
X106608167Y-105689820D01*
X106607473Y-105689635D01*
X106631492Y-105599998D01*
X106650501Y-105529057D01*
X106650501Y-105370942D01*
X106609577Y-105218215D01*
X106609575Y-105218213D01*
X106607473Y-105210365D01*
X106608165Y-105210179D01*
X106600500Y-105171636D01*
X106600500Y-103745908D01*
X106620185Y-103678869D01*
X106664271Y-103640363D01*
X106663187Y-103638605D01*
X106669332Y-103634814D01*
X106669334Y-103634814D01*
X106818656Y-103542712D01*
X106942712Y-103418656D01*
X107034814Y-103269334D01*
X107089999Y-103102797D01*
X107100500Y-103000009D01*
X107100499Y-101999992D01*
X107096184Y-101957755D01*
X107089999Y-101897203D01*
X107089998Y-101897200D01*
X107062595Y-101814504D01*
X107034814Y-101730666D01*
X107033816Y-101729049D01*
X107033472Y-101727790D01*
X107031760Y-101724118D01*
X107032387Y-101723825D01*
X107015376Y-101661658D01*
X107036298Y-101594994D01*
X107089939Y-101550224D01*
X107159270Y-101541562D01*
X107222278Y-101571757D01*
X107227036Y-101576271D01*
X111363181Y-105712416D01*
X111377884Y-105739343D01*
X111394477Y-105765162D01*
X111395368Y-105771362D01*
X111396666Y-105773739D01*
X111399500Y-105800097D01*
X111399500Y-105913330D01*
X111399499Y-105913348D01*
X111399499Y-106079054D01*
X111399498Y-106079054D01*
X111440423Y-106231785D01*
X111458216Y-106262603D01*
X111458215Y-106262603D01*
X111458216Y-106262604D01*
X111519475Y-106368709D01*
X111519481Y-106368717D01*
X111638349Y-106487585D01*
X111638355Y-106487590D01*
X112615139Y-107464374D01*
X112615149Y-107464385D01*
X112619479Y-107468715D01*
X112619480Y-107468716D01*
X112731284Y-107580520D01*
X112769870Y-107602797D01*
X112818095Y-107630639D01*
X112818097Y-107630641D01*
X112851628Y-107650000D01*
X112868215Y-107659577D01*
X113020943Y-107700501D01*
X113020946Y-107700501D01*
X113186653Y-107700501D01*
X113186669Y-107700500D01*
X114525500Y-107700500D01*
X114592539Y-107720185D01*
X114638294Y-107772989D01*
X114649500Y-107824500D01*
X114649500Y-108197869D01*
X114649501Y-108197876D01*
X114655908Y-108257479D01*
X114657692Y-108265026D01*
X114656229Y-108265371D01*
X114660585Y-108326371D01*
X114656173Y-108341396D01*
X114655908Y-108342517D01*
X114649501Y-108402117D01*
X114649500Y-108402136D01*
X114649500Y-108997870D01*
X114649501Y-108997876D01*
X114655908Y-109057483D01*
X114706202Y-109192328D01*
X114706206Y-109192335D01*
X114792452Y-109307544D01*
X114792455Y-109307547D01*
X114907664Y-109393793D01*
X114907671Y-109393797D01*
X114952618Y-109410561D01*
X115042517Y-109444091D01*
X115102127Y-109450500D01*
X115697872Y-109450499D01*
X115757483Y-109444091D01*
X115757489Y-109444088D01*
X115765025Y-109442308D01*
X115765321Y-109443561D01*
X115827063Y-109439142D01*
X115840655Y-109443132D01*
X115842627Y-109443598D01*
X115902155Y-109449999D01*
X115902172Y-109450000D01*
X115950000Y-109450000D01*
X115950000Y-109412694D01*
X115969685Y-109345655D01*
X115977505Y-109334817D01*
X115987255Y-109322735D01*
X116007546Y-109307546D01*
X116093796Y-109192331D01*
X116094910Y-109189343D01*
X116103505Y-109178694D01*
X116123426Y-109164884D01*
X116140565Y-109147743D01*
X116151625Y-109145336D01*
X116160927Y-109138888D01*
X116185150Y-109138040D01*
X116208837Y-109132886D01*
X116219442Y-109136840D01*
X116230754Y-109136445D01*
X116251591Y-109148829D01*
X116274303Y-109157298D01*
X116283286Y-109167665D01*
X116290817Y-109172141D01*
X116295791Y-109182096D01*
X116299444Y-109186312D01*
X116300889Y-109185231D01*
X116392452Y-109307544D01*
X116392454Y-109307546D01*
X116400308Y-109313425D01*
X116442180Y-109369356D01*
X116450000Y-109412694D01*
X116450000Y-109450000D01*
X116497828Y-109450000D01*
X116497844Y-109449999D01*
X116557375Y-109443598D01*
X116564926Y-109441814D01*
X116565315Y-109443462D01*
X116625624Y-109439140D01*
X116642387Y-109444060D01*
X116642511Y-109444088D01*
X116642517Y-109444091D01*
X116702127Y-109450500D01*
X117297872Y-109450499D01*
X117357483Y-109444091D01*
X117492331Y-109393796D01*
X117571117Y-109334817D01*
X117583920Y-109325233D01*
X117649385Y-109300816D01*
X117658231Y-109300500D01*
X120213331Y-109300500D01*
X120213347Y-109300501D01*
X120220943Y-109300501D01*
X120379054Y-109300501D01*
X120379057Y-109300501D01*
X120531785Y-109259577D01*
X120581904Y-109230639D01*
X120668716Y-109180520D01*
X120719311Y-109129924D01*
X120727195Y-109124194D01*
X120751290Y-109115592D01*
X120773741Y-109103333D01*
X120790753Y-109101503D01*
X120792997Y-109100703D01*
X120794643Y-109101085D01*
X120800099Y-109100499D01*
X121500002Y-109100499D01*
X121500008Y-109100499D01*
X121602797Y-109089999D01*
X121769334Y-109034814D01*
X121918656Y-108942712D01*
X122042712Y-108818656D01*
X122134814Y-108669334D01*
X122189999Y-108502797D01*
X122200500Y-108400009D01*
X122200499Y-107599992D01*
X122189999Y-107497203D01*
X122134814Y-107330666D01*
X122042712Y-107181344D01*
X121949049Y-107087681D01*
X121915564Y-107026358D01*
X121920548Y-106956666D01*
X121949049Y-106912319D01*
X122042712Y-106818656D01*
X122134814Y-106669334D01*
X122189999Y-106502797D01*
X122200500Y-106400009D01*
X122200499Y-105599992D01*
X122198360Y-105579057D01*
X122189999Y-105497203D01*
X122189998Y-105497200D01*
X122134814Y-105330666D01*
X122042712Y-105181344D01*
X121918656Y-105057288D01*
X121769334Y-104965186D01*
X121602797Y-104910001D01*
X121602795Y-104910000D01*
X121500016Y-104899500D01*
X121500009Y-104899500D01*
X120579064Y-104899500D01*
X120579057Y-104899499D01*
X120420943Y-104899499D01*
X120420939Y-104899500D01*
X117674947Y-104899500D01*
X117607908Y-104879815D01*
X117584190Y-104859994D01*
X117574258Y-104849326D01*
X117574259Y-104849326D01*
X117450525Y-104775910D01*
X117443452Y-104772981D01*
X117440266Y-104771857D01*
X117430205Y-104765517D01*
X117422093Y-104763753D01*
X117393844Y-104742607D01*
X117393841Y-104742605D01*
X117368716Y-104717480D01*
X117368713Y-104717478D01*
X117238590Y-104587355D01*
X117238588Y-104587352D01*
X117119717Y-104468481D01*
X117119716Y-104468480D01*
X117032904Y-104418360D01*
X117032904Y-104418359D01*
X117032900Y-104418358D01*
X116982785Y-104389423D01*
X116830057Y-104348499D01*
X116671943Y-104348499D01*
X116664347Y-104348499D01*
X116664331Y-104348500D01*
X115587670Y-104348500D01*
X115587654Y-104348499D01*
X115580058Y-104348499D01*
X115421943Y-104348499D01*
X115345579Y-104368961D01*
X115269214Y-104389423D01*
X115269213Y-104389424D01*
X115268840Y-104389640D01*
X115268485Y-104389726D01*
X115261706Y-104392534D01*
X115261267Y-104391476D01*
X115200938Y-104406108D01*
X115134913Y-104383252D01*
X115119165Y-104369930D01*
X112136819Y-101387584D01*
X112103334Y-101326261D01*
X112100500Y-101299903D01*
X112100500Y-100300097D01*
X112120185Y-100233058D01*
X112136819Y-100212416D01*
X113212416Y-99136819D01*
X113273739Y-99103334D01*
X113300097Y-99100500D01*
X115113445Y-99100500D01*
X115180484Y-99120185D01*
X115226239Y-99172989D01*
X115236183Y-99242147D01*
X115231159Y-99260411D01*
X115232031Y-99260676D01*
X115230261Y-99266510D01*
X115199500Y-99421153D01*
X115199500Y-99578846D01*
X115230261Y-99733489D01*
X115230264Y-99733501D01*
X115290602Y-99879172D01*
X115290609Y-99879185D01*
X115378210Y-100010288D01*
X115378213Y-100010292D01*
X115489707Y-100121786D01*
X115489711Y-100121789D01*
X115620814Y-100209390D01*
X115620827Y-100209397D01*
X115766498Y-100269735D01*
X115766503Y-100269737D01*
X115919132Y-100300097D01*
X115921153Y-100300499D01*
X115921156Y-100300500D01*
X115921158Y-100300500D01*
X116078844Y-100300500D01*
X116078845Y-100300499D01*
X116233497Y-100269737D01*
X116246754Y-100264245D01*
X116316218Y-100256774D01*
X116378699Y-100288046D01*
X116381889Y-100291124D01*
X116924896Y-100834132D01*
X116958381Y-100895455D01*
X116955146Y-100960130D01*
X116922778Y-101059751D01*
X116896406Y-101226260D01*
X116887000Y-101285646D01*
X116887000Y-101514354D01*
X116896092Y-101571757D01*
X116922778Y-101740246D01*
X116922778Y-101740249D01*
X116993450Y-101957755D01*
X117008652Y-101987590D01*
X117097283Y-102161538D01*
X117231714Y-102346566D01*
X117393434Y-102508286D01*
X117578462Y-102642717D01*
X117782242Y-102746548D01*
X117782244Y-102746549D01*
X117999751Y-102817221D01*
X117999752Y-102817221D01*
X117999755Y-102817222D01*
X118225646Y-102853000D01*
X118225647Y-102853000D01*
X118454353Y-102853000D01*
X118454354Y-102853000D01*
X118680245Y-102817222D01*
X118680248Y-102817221D01*
X118680249Y-102817221D01*
X118897755Y-102746549D01*
X118897755Y-102746548D01*
X118897758Y-102746548D01*
X119101538Y-102642717D01*
X119286566Y-102508286D01*
X119448286Y-102346566D01*
X119582717Y-102161538D01*
X119686548Y-101957758D01*
X119686549Y-101957755D01*
X119757221Y-101740249D01*
X119757221Y-101740248D01*
X119757222Y-101740245D01*
X119793000Y-101514354D01*
X119793000Y-101285646D01*
X119757222Y-101059755D01*
X119757221Y-101059751D01*
X119757221Y-101059750D01*
X119686549Y-100842244D01*
X119582716Y-100638461D01*
X119448286Y-100453434D01*
X119286566Y-100291714D01*
X119101538Y-100157283D01*
X119028729Y-100120185D01*
X118897755Y-100053450D01*
X118680248Y-99982778D01*
X118510826Y-99955944D01*
X118454354Y-99947000D01*
X118225646Y-99947000D01*
X118180467Y-99954155D01*
X117999751Y-99982778D01*
X117900130Y-100015146D01*
X117830288Y-100017141D01*
X117774132Y-99984896D01*
X117498626Y-99709390D01*
X117101415Y-99312180D01*
X117067931Y-99250858D01*
X117072915Y-99181167D01*
X117114786Y-99125233D01*
X117180251Y-99100816D01*
X117189097Y-99100500D01*
X130413331Y-99100500D01*
X130413347Y-99100501D01*
X130420943Y-99100501D01*
X130579054Y-99100501D01*
X130579057Y-99100501D01*
X130731785Y-99059577D01*
X130801233Y-99019481D01*
X130868716Y-98980520D01*
X130980520Y-98868716D01*
X130980520Y-98868714D01*
X130990724Y-98858511D01*
X130990728Y-98858506D01*
X135858506Y-93990728D01*
X135858511Y-93990724D01*
X135868714Y-93980520D01*
X135868716Y-93980520D01*
X135980520Y-93868716D01*
X136037665Y-93769737D01*
X136059577Y-93731785D01*
X136100501Y-93579057D01*
X136100501Y-93420943D01*
X136100501Y-93413348D01*
X136100500Y-93413330D01*
X136100500Y-84420945D01*
X136100500Y-84420943D01*
X136059577Y-84268216D01*
X135993277Y-84153380D01*
X135980524Y-84131290D01*
X135980521Y-84131286D01*
X135980520Y-84131284D01*
X135868716Y-84019480D01*
X135868715Y-84019479D01*
X135864385Y-84015149D01*
X135864374Y-84015139D01*
X132567590Y-80718355D01*
X132567588Y-80718352D01*
X132448717Y-80599481D01*
X132448709Y-80599475D01*
X132357155Y-80546617D01*
X132357153Y-80546616D01*
X132311790Y-80520425D01*
X132311789Y-80520424D01*
X132299263Y-80517067D01*
X132159057Y-80479499D01*
X132000943Y-80479499D01*
X131993347Y-80479499D01*
X131993331Y-80479500D01*
X131480490Y-80479500D01*
X131413451Y-80459815D01*
X131370005Y-80411795D01*
X131339407Y-80351743D01*
X131331147Y-80340374D01*
X131210857Y-80174806D01*
X131056197Y-80020146D01*
X131056192Y-80020142D01*
X130904605Y-79910008D01*
X130861939Y-79854678D01*
X130855960Y-79785065D01*
X130888565Y-79723270D01*
X130904605Y-79709371D01*
X131055873Y-79599469D01*
X131210471Y-79444871D01*
X131210475Y-79444866D01*
X131338976Y-79267998D01*
X131438237Y-79073191D01*
X131438238Y-79073188D01*
X131505798Y-78865258D01*
X131517718Y-78790000D01*
X128942251Y-78790000D01*
X128973381Y-78736081D01*
X129008000Y-78606880D01*
X129008000Y-78473120D01*
X128973381Y-78343919D01*
X128942251Y-78290000D01*
X131517718Y-78290000D01*
X131505798Y-78214741D01*
X131438238Y-78006811D01*
X131438237Y-78006808D01*
X131338976Y-77812001D01*
X131210475Y-77635133D01*
X131210471Y-77635128D01*
X131055871Y-77480528D01*
X131055866Y-77480524D01*
X130904605Y-77370627D01*
X130861939Y-77315297D01*
X130855960Y-77245684D01*
X130888565Y-77183889D01*
X130904599Y-77169994D01*
X131056199Y-77059852D01*
X131210852Y-76905199D01*
X131237245Y-76868872D01*
X131999500Y-76868872D01*
X131999500Y-77131127D01*
X132014542Y-77245376D01*
X132033730Y-77391116D01*
X132099114Y-77635133D01*
X132101602Y-77644418D01*
X132101605Y-77644428D01*
X132201953Y-77886690D01*
X132201958Y-77886700D01*
X132333075Y-78113803D01*
X132492718Y-78321851D01*
X132492726Y-78321860D01*
X132678140Y-78507274D01*
X132678148Y-78507281D01*
X132886196Y-78666924D01*
X133113299Y-78798041D01*
X133113309Y-78798046D01*
X133355571Y-78898394D01*
X133355581Y-78898398D01*
X133608884Y-78966270D01*
X133868880Y-79000500D01*
X133868887Y-79000500D01*
X134131113Y-79000500D01*
X134131120Y-79000500D01*
X134391116Y-78966270D01*
X134644419Y-78898398D01*
X134886697Y-78798043D01*
X135113803Y-78666924D01*
X135321851Y-78507282D01*
X135321855Y-78507277D01*
X135321860Y-78507274D01*
X135507274Y-78321860D01*
X135507277Y-78321855D01*
X135507282Y-78321851D01*
X135666924Y-78113803D01*
X135798043Y-77886697D01*
X135898398Y-77644419D01*
X135966270Y-77391116D01*
X136000500Y-77131120D01*
X136000500Y-76868880D01*
X135966270Y-76608884D01*
X135898398Y-76355581D01*
X135800204Y-76118520D01*
X135798046Y-76113309D01*
X135798041Y-76113299D01*
X135666924Y-75886196D01*
X135507281Y-75678148D01*
X135507274Y-75678140D01*
X135321860Y-75492726D01*
X135321851Y-75492718D01*
X135113803Y-75333075D01*
X134886700Y-75201958D01*
X134886690Y-75201953D01*
X134644428Y-75101605D01*
X134644421Y-75101603D01*
X134644419Y-75101602D01*
X134391116Y-75033730D01*
X134333339Y-75026123D01*
X134131127Y-74999500D01*
X134131120Y-74999500D01*
X133868880Y-74999500D01*
X133868872Y-74999500D01*
X133637772Y-75029926D01*
X133608884Y-75033730D01*
X133380963Y-75094801D01*
X133355581Y-75101602D01*
X133355571Y-75101605D01*
X133113309Y-75201953D01*
X133113299Y-75201958D01*
X132886196Y-75333075D01*
X132678148Y-75492718D01*
X132492718Y-75678148D01*
X132333075Y-75886196D01*
X132201958Y-76113299D01*
X132201953Y-76113309D01*
X132101605Y-76355571D01*
X132101602Y-76355581D01*
X132053961Y-76533383D01*
X132033730Y-76608885D01*
X131999500Y-76868872D01*
X131237245Y-76868872D01*
X131339407Y-76728257D01*
X131438701Y-76533383D01*
X131506286Y-76325375D01*
X131539049Y-76118520D01*
X131540500Y-76109361D01*
X131540500Y-75890638D01*
X131520595Y-75764971D01*
X131506286Y-75674625D01*
X131438701Y-75466617D01*
X131438701Y-75466616D01*
X131404315Y-75399132D01*
X131339407Y-75271743D01*
X131288702Y-75201953D01*
X131210857Y-75094806D01*
X131056193Y-74940142D01*
X130879260Y-74811595D01*
X130879259Y-74811594D01*
X130879257Y-74811593D01*
X130816825Y-74779782D01*
X130684383Y-74712298D01*
X130684380Y-74712297D01*
X130476376Y-74644714D01*
X130260361Y-74610500D01*
X130260356Y-74610500D01*
X128263644Y-74610500D01*
X128263639Y-74610500D01*
X128047623Y-74644714D01*
X127839619Y-74712297D01*
X127839616Y-74712298D01*
X127644739Y-74811595D01*
X127467806Y-74940142D01*
X127313142Y-75094806D01*
X127184595Y-75271739D01*
X127085298Y-75466616D01*
X127085297Y-75466619D01*
X127017714Y-75674623D01*
X126983500Y-75890638D01*
X126983500Y-76109361D01*
X127017714Y-76325376D01*
X127085297Y-76533380D01*
X127085298Y-76533383D01*
X127123769Y-76608884D01*
X127184592Y-76728256D01*
X127184595Y-76728260D01*
X127313142Y-76905193D01*
X127467802Y-77059853D01*
X127467807Y-77059857D01*
X127619394Y-77169991D01*
X127662060Y-77225320D01*
X127668039Y-77294934D01*
X127635434Y-77356729D01*
X127619394Y-77370627D01*
X127468133Y-77480524D01*
X127468128Y-77480528D01*
X127313528Y-77635128D01*
X127313524Y-77635133D01*
X127185023Y-77812001D01*
X127085762Y-78006808D01*
X127085761Y-78006811D01*
X127018201Y-78214741D01*
X127006282Y-78290000D01*
X128057749Y-78290000D01*
X128026619Y-78343919D01*
X127992000Y-78473120D01*
X127992000Y-78606880D01*
X128026619Y-78736081D01*
X128057749Y-78790000D01*
X127006282Y-78790000D01*
X127018201Y-78865258D01*
X127085761Y-79073188D01*
X127085762Y-79073191D01*
X127185023Y-79267998D01*
X127313524Y-79444866D01*
X127313528Y-79444871D01*
X127468128Y-79599471D01*
X127468133Y-79599475D01*
X127619394Y-79709372D01*
X127662060Y-79764701D01*
X127668039Y-79834315D01*
X127635434Y-79896110D01*
X127619394Y-79910008D01*
X127467807Y-80020142D01*
X127467802Y-80020146D01*
X127313142Y-80174806D01*
X127184595Y-80351739D01*
X127085299Y-80546616D01*
X127017714Y-80754623D01*
X126983500Y-80970638D01*
X126983500Y-81189361D01*
X127017714Y-81405376D01*
X127085297Y-81613380D01*
X127085298Y-81613383D01*
X127184595Y-81808260D01*
X127313142Y-81985193D01*
X127467806Y-82139857D01*
X127618969Y-82249682D01*
X127661635Y-82305011D01*
X127667614Y-82374625D01*
X127635009Y-82436420D01*
X127618969Y-82450318D01*
X127467806Y-82560142D01*
X127313142Y-82714806D01*
X127184595Y-82891739D01*
X127085298Y-83086616D01*
X127085297Y-83086619D01*
X127017714Y-83294623D01*
X126983500Y-83510638D01*
X126983500Y-83729361D01*
X127017714Y-83945376D01*
X127085297Y-84153380D01*
X127085298Y-84153383D01*
X127184595Y-84348260D01*
X127313142Y-84525193D01*
X127467806Y-84679857D01*
X127618969Y-84789682D01*
X127661635Y-84845011D01*
X127667614Y-84914625D01*
X127635009Y-84976420D01*
X127618969Y-84990318D01*
X127467806Y-85100142D01*
X127313142Y-85254806D01*
X127184595Y-85431739D01*
X127085298Y-85626616D01*
X127085297Y-85626619D01*
X127017714Y-85834623D01*
X126983500Y-86050638D01*
X126983500Y-86269361D01*
X127017714Y-86485376D01*
X127085297Y-86693380D01*
X127085298Y-86693383D01*
X127184595Y-86888260D01*
X127313142Y-87065193D01*
X127467806Y-87219857D01*
X127618969Y-87329682D01*
X127661635Y-87385011D01*
X127667614Y-87454625D01*
X127635009Y-87516420D01*
X127618969Y-87530318D01*
X127467806Y-87640142D01*
X127313142Y-87794806D01*
X127184595Y-87971739D01*
X127085298Y-88166616D01*
X127085297Y-88166619D01*
X127017714Y-88374623D01*
X126983500Y-88590638D01*
X126983500Y-88809361D01*
X127017714Y-89025376D01*
X127085297Y-89233380D01*
X127085298Y-89233383D01*
X127184595Y-89428260D01*
X127313142Y-89605193D01*
X127467806Y-89759857D01*
X127618969Y-89869682D01*
X127661635Y-89925011D01*
X127667614Y-89994625D01*
X127635009Y-90056420D01*
X127618969Y-90070318D01*
X127467806Y-90180142D01*
X127313142Y-90334806D01*
X127184595Y-90511739D01*
X127085298Y-90706616D01*
X127085297Y-90706619D01*
X127017714Y-90914623D01*
X126983500Y-91130638D01*
X126983500Y-91349361D01*
X127017714Y-91565376D01*
X127085297Y-91773380D01*
X127085298Y-91773383D01*
X127184595Y-91968260D01*
X127313142Y-92145193D01*
X127467806Y-92299857D01*
X127603494Y-92398438D01*
X127644743Y-92428407D01*
X127765050Y-92489707D01*
X127839616Y-92527701D01*
X127839619Y-92527702D01*
X127943621Y-92561493D01*
X128047625Y-92595286D01*
X128147672Y-92611132D01*
X128263639Y-92629500D01*
X128263644Y-92629500D01*
X130260361Y-92629500D01*
X130365082Y-92612912D01*
X130476375Y-92595286D01*
X130684383Y-92527701D01*
X130879257Y-92428407D01*
X130978601Y-92356229D01*
X131056193Y-92299857D01*
X131056195Y-92299854D01*
X131056199Y-92299852D01*
X131210852Y-92145199D01*
X131210854Y-92145195D01*
X131210857Y-92145193D01*
X131267229Y-92067601D01*
X131339407Y-91968257D01*
X131438701Y-91773383D01*
X131506286Y-91565375D01*
X131523912Y-91454082D01*
X131540500Y-91349361D01*
X131540500Y-91130638D01*
X131520595Y-91004971D01*
X131506286Y-90914625D01*
X131456791Y-90762292D01*
X131438702Y-90706619D01*
X131438701Y-90706616D01*
X131373705Y-90579057D01*
X131339407Y-90511743D01*
X131331147Y-90500374D01*
X131210857Y-90334806D01*
X131056199Y-90180148D01*
X131025196Y-90157623D01*
X130905028Y-90070316D01*
X130862364Y-90014989D01*
X130856385Y-89945376D01*
X130888990Y-89883580D01*
X130905023Y-89869686D01*
X131056199Y-89759852D01*
X131210852Y-89605199D01*
X131210854Y-89605195D01*
X131210857Y-89605193D01*
X131287282Y-89500001D01*
X131339407Y-89428257D01*
X131438701Y-89233383D01*
X131506286Y-89025375D01*
X131523912Y-88914082D01*
X131540500Y-88809361D01*
X131540500Y-88590638D01*
X131509862Y-88397204D01*
X131506286Y-88374625D01*
X131455877Y-88219480D01*
X131438702Y-88166619D01*
X131438701Y-88166616D01*
X131370005Y-88031795D01*
X131339407Y-87971743D01*
X131328905Y-87957288D01*
X131210857Y-87794806D01*
X131056199Y-87640148D01*
X131056191Y-87640142D01*
X130905028Y-87530316D01*
X130862364Y-87474989D01*
X130856385Y-87405376D01*
X130888990Y-87343580D01*
X130905023Y-87329686D01*
X131056199Y-87219852D01*
X131210852Y-87065199D01*
X131210854Y-87065195D01*
X131210857Y-87065193D01*
X131267229Y-86987601D01*
X131339407Y-86888257D01*
X131438701Y-86693383D01*
X131506286Y-86485375D01*
X131523912Y-86374082D01*
X131540500Y-86269361D01*
X131540500Y-86050638D01*
X131516561Y-85899499D01*
X131506286Y-85834625D01*
X131455877Y-85679480D01*
X131438702Y-85626619D01*
X131438701Y-85626616D01*
X131370005Y-85491795D01*
X131339407Y-85431743D01*
X131331147Y-85420374D01*
X131210857Y-85254806D01*
X131056199Y-85100148D01*
X131056191Y-85100142D01*
X130905028Y-84990316D01*
X130862364Y-84934989D01*
X130856385Y-84865376D01*
X130888990Y-84803580D01*
X130905023Y-84789686D01*
X131056199Y-84679852D01*
X131210852Y-84525199D01*
X131210854Y-84525195D01*
X131210857Y-84525193D01*
X131286598Y-84420943D01*
X131339407Y-84348257D01*
X131438701Y-84153383D01*
X131506286Y-83945375D01*
X131523912Y-83834082D01*
X131540500Y-83729361D01*
X131540500Y-83510638D01*
X131520595Y-83384971D01*
X131506286Y-83294625D01*
X131438701Y-83086617D01*
X131438701Y-83086616D01*
X131404315Y-83019132D01*
X131339407Y-82891743D01*
X131331147Y-82880374D01*
X131210857Y-82714806D01*
X131056199Y-82560148D01*
X131056191Y-82560142D01*
X130905028Y-82450316D01*
X130862364Y-82394989D01*
X130856385Y-82325376D01*
X130888990Y-82263580D01*
X130905023Y-82249686D01*
X131056199Y-82139852D01*
X131210852Y-81985199D01*
X131210854Y-81985195D01*
X131210857Y-81985193D01*
X131267229Y-81907601D01*
X131339407Y-81808257D01*
X131370005Y-81748204D01*
X131417980Y-81697409D01*
X131480490Y-81680500D01*
X131779903Y-81680500D01*
X131846942Y-81700185D01*
X131867584Y-81716819D01*
X134863181Y-84712416D01*
X134896666Y-84773739D01*
X134899500Y-84800097D01*
X134899500Y-93199903D01*
X134879815Y-93266942D01*
X134863181Y-93287584D01*
X130287584Y-97863181D01*
X130226261Y-97896666D01*
X130199903Y-97899500D01*
X111586670Y-97899500D01*
X111586654Y-97899499D01*
X111579058Y-97899499D01*
X111420943Y-97899499D01*
X111358843Y-97916139D01*
X111268214Y-97940423D01*
X111268209Y-97940426D01*
X111131290Y-98019475D01*
X111131286Y-98019478D01*
X110985337Y-98165427D01*
X110924014Y-98198911D01*
X110921848Y-98199362D01*
X110766508Y-98230261D01*
X110766498Y-98230264D01*
X110620827Y-98290602D01*
X110620814Y-98290609D01*
X110489711Y-98378210D01*
X110489707Y-98378213D01*
X110378213Y-98489707D01*
X110378210Y-98489711D01*
X110290609Y-98620814D01*
X110290602Y-98620827D01*
X110230264Y-98766498D01*
X110230261Y-98766510D01*
X110199500Y-98921153D01*
X110199500Y-99078846D01*
X110230261Y-99233489D01*
X110230264Y-99233501D01*
X110290602Y-99379172D01*
X110290609Y-99379185D01*
X110378210Y-99510288D01*
X110378213Y-99510292D01*
X110489707Y-99621786D01*
X110489711Y-99621789D01*
X110620814Y-99709390D01*
X110620827Y-99709397D01*
X110762831Y-99768216D01*
X110766503Y-99769737D01*
X110781580Y-99772736D01*
X110801596Y-99776718D01*
X110830251Y-99791707D01*
X110859540Y-99805438D01*
X110861029Y-99807806D01*
X110863507Y-99809103D01*
X110879504Y-99837196D01*
X110896725Y-99864590D01*
X110896961Y-99867853D01*
X110898081Y-99869819D01*
X110901399Y-99899573D01*
X110901250Y-99914405D01*
X110899499Y-99920943D01*
X110899499Y-100079057D01*
X110899500Y-100079060D01*
X110899500Y-100089696D01*
X110899500Y-101250903D01*
X110879815Y-101317942D01*
X110827011Y-101363697D01*
X110757853Y-101373641D01*
X110694297Y-101344616D01*
X110687819Y-101338584D01*
X106636819Y-97287584D01*
X106603334Y-97226261D01*
X106600500Y-97199903D01*
X106600500Y-95745908D01*
X106620185Y-95678869D01*
X106664271Y-95640363D01*
X106663187Y-95638605D01*
X106669332Y-95634814D01*
X106669334Y-95634814D01*
X106818656Y-95542712D01*
X106942712Y-95418656D01*
X107034814Y-95269334D01*
X107089999Y-95102797D01*
X107100500Y-95000009D01*
X107100499Y-93999992D01*
X107089999Y-93897203D01*
X107034814Y-93730666D01*
X106942712Y-93581344D01*
X106818656Y-93457288D01*
X106669334Y-93365186D01*
X106669332Y-93365185D01*
X106663187Y-93361395D01*
X106664290Y-93359605D01*
X106619649Y-93320290D01*
X106600500Y-93254091D01*
X106600500Y-92800097D01*
X106620185Y-92733058D01*
X106636819Y-92712416D01*
X110012417Y-89336819D01*
X110039344Y-89322115D01*
X110065163Y-89305523D01*
X110071363Y-89304631D01*
X110073740Y-89303334D01*
X110100098Y-89300500D01*
X110279510Y-89300500D01*
X110346549Y-89320185D01*
X110389995Y-89368205D01*
X110420595Y-89428260D01*
X110549142Y-89605193D01*
X110703806Y-89759857D01*
X110854969Y-89869682D01*
X110897635Y-89925011D01*
X110903614Y-89994625D01*
X110871009Y-90056420D01*
X110854969Y-90070318D01*
X110703806Y-90180142D01*
X110549142Y-90334806D01*
X110420595Y-90511739D01*
X110321298Y-90706616D01*
X110321297Y-90706619D01*
X110253714Y-90914623D01*
X110219500Y-91130638D01*
X110219500Y-91349361D01*
X110253714Y-91565376D01*
X110321297Y-91773380D01*
X110321298Y-91773383D01*
X110420595Y-91968260D01*
X110549142Y-92145193D01*
X110703806Y-92299857D01*
X110839494Y-92398438D01*
X110880743Y-92428407D01*
X111001050Y-92489707D01*
X111075616Y-92527701D01*
X111075619Y-92527702D01*
X111179621Y-92561493D01*
X111283625Y-92595286D01*
X111383672Y-92611132D01*
X111499639Y-92629500D01*
X111499644Y-92629500D01*
X113496361Y-92629500D01*
X113601082Y-92612912D01*
X113712375Y-92595286D01*
X113920383Y-92527701D01*
X114115257Y-92428407D01*
X114214601Y-92356229D01*
X114292193Y-92299857D01*
X114292195Y-92299854D01*
X114292199Y-92299852D01*
X114446852Y-92145199D01*
X114446854Y-92145195D01*
X114446857Y-92145193D01*
X114503229Y-92067601D01*
X114575407Y-91968257D01*
X114674701Y-91773383D01*
X114742286Y-91565375D01*
X114759912Y-91454082D01*
X114776500Y-91349361D01*
X114776500Y-91130638D01*
X114756595Y-91004971D01*
X114742286Y-90914625D01*
X114692791Y-90762292D01*
X114674702Y-90706619D01*
X114674701Y-90706616D01*
X114609705Y-90579057D01*
X114575407Y-90511743D01*
X114567147Y-90500374D01*
X114446857Y-90334806D01*
X114292199Y-90180148D01*
X114261196Y-90157623D01*
X114141028Y-90070316D01*
X114098364Y-90014989D01*
X114092385Y-89945376D01*
X114124990Y-89883580D01*
X114141023Y-89869686D01*
X114292199Y-89759852D01*
X114446852Y-89605199D01*
X114446854Y-89605195D01*
X114446857Y-89605193D01*
X114523282Y-89500001D01*
X114575407Y-89428257D01*
X114674701Y-89233383D01*
X114742286Y-89025375D01*
X114759912Y-88914082D01*
X114776500Y-88809361D01*
X114776500Y-88590638D01*
X114745862Y-88397204D01*
X114742286Y-88374625D01*
X114691877Y-88219480D01*
X114674702Y-88166619D01*
X114674701Y-88166616D01*
X114606005Y-88031795D01*
X114575407Y-87971743D01*
X114564905Y-87957288D01*
X114446857Y-87794806D01*
X114292199Y-87640148D01*
X114292191Y-87640142D01*
X114141028Y-87530316D01*
X114098364Y-87474989D01*
X114092385Y-87405376D01*
X114124990Y-87343580D01*
X114141023Y-87329686D01*
X114292199Y-87219852D01*
X114446852Y-87065199D01*
X114446854Y-87065195D01*
X114446857Y-87065193D01*
X114503229Y-86987601D01*
X114575407Y-86888257D01*
X114674701Y-86693383D01*
X114742286Y-86485375D01*
X114759912Y-86374082D01*
X114776500Y-86269361D01*
X114776500Y-86050638D01*
X114752561Y-85899499D01*
X114742286Y-85834625D01*
X114691877Y-85679480D01*
X114674702Y-85626619D01*
X114674701Y-85626616D01*
X114606005Y-85491795D01*
X114575407Y-85431743D01*
X114567147Y-85420374D01*
X114446857Y-85254806D01*
X114292199Y-85100148D01*
X114292191Y-85100142D01*
X114141028Y-84990316D01*
X114098364Y-84934989D01*
X114092385Y-84865376D01*
X114124990Y-84803580D01*
X114141023Y-84789686D01*
X114292199Y-84679852D01*
X114446852Y-84525199D01*
X114446854Y-84525195D01*
X114446857Y-84525193D01*
X114522598Y-84420943D01*
X114575407Y-84348257D01*
X114674701Y-84153383D01*
X114742286Y-83945375D01*
X114759912Y-83834082D01*
X114776500Y-83729361D01*
X114776500Y-83510638D01*
X114756595Y-83384971D01*
X114742286Y-83294625D01*
X114674701Y-83086617D01*
X114674701Y-83086616D01*
X114640315Y-83019132D01*
X114575407Y-82891743D01*
X114567147Y-82880374D01*
X114446857Y-82714806D01*
X114292199Y-82560148D01*
X114292191Y-82560142D01*
X114141028Y-82450316D01*
X114098364Y-82394989D01*
X114092385Y-82325376D01*
X114124990Y-82263580D01*
X114141023Y-82249686D01*
X114292199Y-82139852D01*
X114446852Y-81985199D01*
X114446854Y-81985195D01*
X114446857Y-81985193D01*
X114503229Y-81907601D01*
X114575407Y-81808257D01*
X114674701Y-81613383D01*
X114742286Y-81405375D01*
X114759912Y-81294082D01*
X114776500Y-81189361D01*
X114776500Y-80970638D01*
X114756595Y-80844971D01*
X114742286Y-80754625D01*
X114691877Y-80599480D01*
X114674701Y-80546616D01*
X114606005Y-80411795D01*
X114575407Y-80351743D01*
X114567147Y-80340374D01*
X114446857Y-80174806D01*
X114292199Y-80020148D01*
X114292191Y-80020142D01*
X114141028Y-79910316D01*
X114098364Y-79854989D01*
X114092385Y-79785376D01*
X114124990Y-79723580D01*
X114141023Y-79709686D01*
X114292199Y-79599852D01*
X114446852Y-79445199D01*
X114446854Y-79445195D01*
X114446857Y-79445193D01*
X114503229Y-79367601D01*
X114575407Y-79268257D01*
X114674701Y-79073383D01*
X114742286Y-78865375D01*
X114773718Y-78666924D01*
X114776500Y-78649361D01*
X114776500Y-78430638D01*
X114754224Y-78290000D01*
X114742286Y-78214625D01*
X114694197Y-78066619D01*
X114674702Y-78006619D01*
X114674701Y-78006616D01*
X114640315Y-77939132D01*
X114575407Y-77811743D01*
X114546986Y-77772624D01*
X114446857Y-77634806D01*
X114292199Y-77480148D01*
X114279829Y-77471161D01*
X114141028Y-77370316D01*
X114098364Y-77314989D01*
X114092385Y-77245376D01*
X114124990Y-77183580D01*
X114141023Y-77169686D01*
X114292199Y-77059852D01*
X114446852Y-76905199D01*
X114446854Y-76905195D01*
X114446857Y-76905193D01*
X114503229Y-76827601D01*
X114575407Y-76728257D01*
X114674701Y-76533383D01*
X114742286Y-76325375D01*
X114775049Y-76118520D01*
X114776500Y-76109361D01*
X114776500Y-75890638D01*
X114756595Y-75764971D01*
X114742286Y-75674625D01*
X114674701Y-75466617D01*
X114674701Y-75466616D01*
X114640315Y-75399132D01*
X114575407Y-75271743D01*
X114524702Y-75201953D01*
X114446857Y-75094806D01*
X114292193Y-74940142D01*
X114115260Y-74811595D01*
X114115259Y-74811594D01*
X114115257Y-74811593D01*
X114052825Y-74779782D01*
X113920383Y-74712298D01*
X113920380Y-74712297D01*
X113712376Y-74644714D01*
X113496361Y-74610500D01*
X113496356Y-74610500D01*
X111499644Y-74610500D01*
X111499639Y-74610500D01*
X111283623Y-74644714D01*
X111075619Y-74712297D01*
X111075616Y-74712298D01*
X110880739Y-74811595D01*
X110703806Y-74940142D01*
X110549142Y-75094806D01*
X110420595Y-75271739D01*
X110321298Y-75466616D01*
X110321297Y-75466619D01*
X110253714Y-75674623D01*
X110219500Y-75890638D01*
X110219500Y-76109361D01*
X110253714Y-76325376D01*
X110321297Y-76533380D01*
X110321298Y-76533383D01*
X110359769Y-76608884D01*
X110420592Y-76728256D01*
X110420595Y-76728260D01*
X110549142Y-76905193D01*
X110703806Y-77059857D01*
X110854969Y-77169682D01*
X110897635Y-77225011D01*
X110903614Y-77294625D01*
X110871009Y-77356420D01*
X110854969Y-77370318D01*
X110703806Y-77480142D01*
X110549142Y-77634806D01*
X110420595Y-77811739D01*
X110321298Y-78006616D01*
X110321297Y-78006619D01*
X110253714Y-78214623D01*
X110219500Y-78430638D01*
X110219500Y-78649361D01*
X110253714Y-78865376D01*
X110321297Y-79073380D01*
X110321298Y-79073383D01*
X110388782Y-79205825D01*
X110420461Y-79267998D01*
X110420595Y-79268260D01*
X110549142Y-79445193D01*
X110703806Y-79599857D01*
X110854969Y-79709682D01*
X110897635Y-79765011D01*
X110903614Y-79834625D01*
X110871009Y-79896420D01*
X110854969Y-79910318D01*
X110703806Y-80020142D01*
X110549142Y-80174806D01*
X110420595Y-80351739D01*
X110321299Y-80546616D01*
X110253714Y-80754623D01*
X110219500Y-80970638D01*
X110219500Y-81189361D01*
X110253714Y-81405376D01*
X110321297Y-81613380D01*
X110321298Y-81613383D01*
X110420595Y-81808260D01*
X110549142Y-81985193D01*
X110703806Y-82139857D01*
X110854969Y-82249682D01*
X110897635Y-82305011D01*
X110903614Y-82374625D01*
X110871009Y-82436420D01*
X110854969Y-82450318D01*
X110703806Y-82560142D01*
X110549142Y-82714806D01*
X110420595Y-82891739D01*
X110321298Y-83086616D01*
X110321297Y-83086619D01*
X110253714Y-83294623D01*
X110219500Y-83510638D01*
X110219500Y-83729361D01*
X110253714Y-83945376D01*
X110321297Y-84153380D01*
X110321298Y-84153383D01*
X110420595Y-84348260D01*
X110549142Y-84525193D01*
X110703806Y-84679857D01*
X110854969Y-84789682D01*
X110897635Y-84845011D01*
X110903614Y-84914625D01*
X110871009Y-84976420D01*
X110854969Y-84990318D01*
X110703806Y-85100142D01*
X110549142Y-85254806D01*
X110420595Y-85431739D01*
X110389995Y-85491795D01*
X110342020Y-85542591D01*
X110279510Y-85559500D01*
X108926670Y-85559500D01*
X108926654Y-85559499D01*
X108919058Y-85559499D01*
X108760943Y-85559499D01*
X108684579Y-85579961D01*
X108608214Y-85600423D01*
X108608209Y-85600426D01*
X108471290Y-85679475D01*
X108471282Y-85679481D01*
X106387583Y-87763181D01*
X106326260Y-87796666D01*
X106299902Y-87799500D01*
X105700097Y-87799500D01*
X105633058Y-87779815D01*
X105612416Y-87763181D01*
X103987590Y-86138355D01*
X103987588Y-86138352D01*
X103868717Y-86019481D01*
X103868716Y-86019480D01*
X103781904Y-85969360D01*
X103781904Y-85969359D01*
X103781900Y-85969358D01*
X103731785Y-85940423D01*
X103579057Y-85899499D01*
X103420943Y-85899499D01*
X103413347Y-85899499D01*
X103413331Y-85899500D01*
X99586669Y-85899500D01*
X99586653Y-85899499D01*
X99579057Y-85899499D01*
X99420943Y-85899499D01*
X99313587Y-85928265D01*
X99268210Y-85940424D01*
X99268209Y-85940425D01*
X99218096Y-85969359D01*
X99218095Y-85969360D01*
X99174689Y-85994420D01*
X99131285Y-86019479D01*
X99131282Y-86019481D01*
X96519481Y-88631282D01*
X96519480Y-88631284D01*
X96472640Y-88712415D01*
X96469361Y-88718094D01*
X96469359Y-88718096D01*
X96440425Y-88768209D01*
X96440424Y-88768210D01*
X96440423Y-88768215D01*
X96399499Y-88920943D01*
X96399499Y-89079057D01*
X96399499Y-89079059D01*
X96399500Y-89089053D01*
X96399500Y-90413330D01*
X96399499Y-90413348D01*
X96399499Y-90579054D01*
X96399498Y-90579054D01*
X94500500Y-90579054D01*
X94500500Y-76868872D01*
X95999500Y-76868872D01*
X95999500Y-77131127D01*
X96014542Y-77245376D01*
X96033730Y-77391116D01*
X96099114Y-77635133D01*
X96101602Y-77644418D01*
X96101605Y-77644428D01*
X96201953Y-77886690D01*
X96201958Y-77886700D01*
X96333075Y-78113803D01*
X96492718Y-78321851D01*
X96492726Y-78321860D01*
X96678140Y-78507274D01*
X96678148Y-78507281D01*
X96886196Y-78666924D01*
X97113299Y-78798041D01*
X97113309Y-78798046D01*
X97355571Y-78898394D01*
X97355581Y-78898398D01*
X97608884Y-78966270D01*
X97868880Y-79000500D01*
X97868887Y-79000500D01*
X98131113Y-79000500D01*
X98131120Y-79000500D01*
X98391116Y-78966270D01*
X98644419Y-78898398D01*
X98886697Y-78798043D01*
X99113803Y-78666924D01*
X99321851Y-78507282D01*
X99321855Y-78507277D01*
X99321860Y-78507274D01*
X99507274Y-78321860D01*
X99507277Y-78321855D01*
X99507282Y-78321851D01*
X99666924Y-78113803D01*
X99798043Y-77886697D01*
X99898398Y-77644419D01*
X99966270Y-77391116D01*
X100000500Y-77131120D01*
X100000500Y-76868880D01*
X99966270Y-76608884D01*
X99898398Y-76355581D01*
X99800204Y-76118520D01*
X99798046Y-76113309D01*
X99798041Y-76113299D01*
X99666924Y-75886196D01*
X99507281Y-75678148D01*
X99507274Y-75678140D01*
X99321860Y-75492726D01*
X99321851Y-75492718D01*
X99113803Y-75333075D01*
X98886700Y-75201958D01*
X98886690Y-75201953D01*
X98644428Y-75101605D01*
X98644421Y-75101603D01*
X98644419Y-75101602D01*
X98391116Y-75033730D01*
X98333339Y-75026123D01*
X98131127Y-74999500D01*
X98131120Y-74999500D01*
X97868880Y-74999500D01*
X97868872Y-74999500D01*
X97637772Y-75029926D01*
X97608884Y-75033730D01*
X97380963Y-75094801D01*
X97355581Y-75101602D01*
X97355571Y-75101605D01*
X97113309Y-75201953D01*
X97113299Y-75201958D01*
X96886196Y-75333075D01*
X96678148Y-75492718D01*
X96492718Y-75678148D01*
X96333075Y-75886196D01*
X96201958Y-76113299D01*
X96201953Y-76113309D01*
X96101605Y-76355571D01*
X96101602Y-76355581D01*
X96053961Y-76533383D01*
X96033730Y-76608885D01*
X95999500Y-76868872D01*
X94500500Y-76868872D01*
X94500500Y-74006961D01*
X94501280Y-73993077D01*
X94501280Y-73993076D01*
X94511460Y-73902729D01*
X94517635Y-73875670D01*
X94545353Y-73796456D01*
X94557396Y-73771450D01*
X94602046Y-73700389D01*
X94619351Y-73678690D01*
X94678690Y-73619351D01*
X94700389Y-73602046D01*
X94771450Y-73557396D01*
X94796456Y-73545353D01*
X94875670Y-73517635D01*
X94902733Y-73511459D01*
X94965419Y-73504396D01*
X94993079Y-73501280D01*
X95006962Y-73500500D01*
X95065892Y-73500500D01*
X136934108Y-73500500D01*
X136993038Y-73500500D01*
X137006922Y-73501280D01*
G37*
%TD.AperFunction*%
%TD*%
M02*
