%TF.GenerationSoftware,KiCad,Pcbnew,9.0.7*%
%TF.CreationDate,2026-02-22T22:06:27-08:00*%
%TF.ProjectId,Electrical_schematics_V4,456c6563-7472-4696-9361-6c5f73636865,rev?*%
%TF.SameCoordinates,Original*%
%TF.FileFunction,Copper,L2,Bot*%
%TF.FilePolarity,Positive*%
%FSLAX46Y46*%
G04 Gerber Fmt 4.6, Leading zero omitted, Abs format (unit mm)*
G04 Created by KiCad (PCBNEW 9.0.7) date 2026-02-22 22:06:27*
%MOMM*%
%LPD*%
G01*
G04 APERTURE LIST*
G04 Aperture macros list*
%AMRoundRect*
0 Rectangle with rounded corners*
0 $1 Rounding radius*
0 $2 $3 $4 $5 $6 $7 $8 $9 X,Y pos of 4 corners*
0 Add a 4 corners polygon primitive as box body*
4,1,4,$2,$3,$4,$5,$6,$7,$8,$9,$2,$3,0*
0 Add four circle primitives for the rounded corners*
1,1,$1+$1,$2,$3*
1,1,$1+$1,$4,$5*
1,1,$1+$1,$6,$7*
1,1,$1+$1,$8,$9*
0 Add four rect primitives between the rounded corners*
20,1,$1+$1,$2,$3,$4,$5,0*
20,1,$1+$1,$4,$5,$6,$7,0*
20,1,$1+$1,$6,$7,$8,$9,0*
20,1,$1+$1,$8,$9,$2,$3,0*%
G04 Aperture macros list end*
%TA.AperFunction,ComponentPad*%
%ADD10O,3.556000X1.778000*%
%TD*%
%TA.AperFunction,ComponentPad*%
%ADD11C,1.905000*%
%TD*%
%TA.AperFunction,ComponentPad*%
%ADD12O,1.200000X1.750000*%
%TD*%
%TA.AperFunction,ComponentPad*%
%ADD13RoundRect,0.250000X-0.350000X-0.625000X0.350000X-0.625000X0.350000X0.625000X-0.350000X0.625000X0*%
%TD*%
%TA.AperFunction,ComponentPad*%
%ADD14R,1.700000X1.700000*%
%TD*%
%TA.AperFunction,ComponentPad*%
%ADD15C,1.700000*%
%TD*%
%TA.AperFunction,ViaPad*%
%ADD16C,0.600000*%
%TD*%
%TA.AperFunction,Conductor*%
%ADD17C,0.200000*%
%TD*%
G04 APERTURE END LIST*
D10*
%TO.P,U3,1,GPIO1_A0_D0*%
%TO.N,unconnected-(U3-GPIO1_A0_D0-Pad1)*%
X112498000Y-76000000D03*
%TO.P,U3,2,GPIO2_A1_D1*%
%TO.N,unconnected-(U3-GPIO2_A1_D1-Pad2)*%
X112498000Y-78540000D03*
%TO.P,U3,3,GPIO3_A2_D2*%
%TO.N,unconnected-(U3-GPIO3_A2_D2-Pad3)*%
X112498000Y-81080000D03*
%TO.P,U3,4,GPIO4_A3_D3*%
%TO.N,unconnected-(U3-GPIO4_A3_D3-Pad4)*%
X112498000Y-83620000D03*
%TO.P,U3,5,GPIO4_A3_D3_SDA*%
%TO.N,/SDA*%
X112498000Y-86160000D03*
%TO.P,U3,6,GPIO6_A5_D5_SCL*%
%TO.N,/SCL*%
X112498000Y-88700000D03*
%TO.P,U3,7,GPIO43_TX_D6*%
%TO.N,unconnected-(U3-GPIO43_TX_D6-Pad7)*%
X112498000Y-91240000D03*
%TO.P,U3,8,GPIO44_D7_RX*%
%TO.N,unconnected-(U3-GPIO44_D7_RX-Pad8)*%
X129262000Y-91240000D03*
%TO.P,U3,9,GPIO7_A8_D8_SCK*%
%TO.N,unconnected-(U3-GPIO7_A8_D8_SCK-Pad9)*%
X129262000Y-88700000D03*
%TO.P,U3,10,GPIO8_A9_D9_CIPO*%
%TO.N,unconnected-(U3-GPIO8_A9_D9_CIPO-Pad10)*%
X129262000Y-86160000D03*
%TO.P,U3,11,GPIO9_A10_D10_COPI*%
%TO.N,unconnected-(U3-GPIO9_A10_D10_COPI-Pad11)*%
X129262000Y-83620000D03*
%TO.P,U3,12,3V3*%
%TO.N,+3V3*%
X129262000Y-81080000D03*
%TO.P,U3,13,GND*%
%TO.N,GND*%
X129262000Y-78540000D03*
%TO.P,U3,14,5V*%
%TO.N,unconnected-(U3-5V-Pad14)*%
X129262000Y-76000000D03*
D11*
%TO.P,U3,15,+BATT*%
%TO.N,+BATT*%
X118340000Y-101400000D03*
%TO.P,U3,16,-BATT*%
%TO.N,-BATT*%
X123420000Y-101400000D03*
%TD*%
D12*
%TO.P,BT1,2,-*%
%TO.N,-BATT*%
X127000000Y-115000000D03*
D13*
%TO.P,BT1,1,+*%
%TO.N,Net-(BT1-+)*%
X125000000Y-115000000D03*
%TD*%
D14*
%TO.P,SW2,1,A*%
%TO.N,+BATT*%
X104500000Y-116500000D03*
D15*
%TO.P,SW2,2,B*%
%TO.N,Net-(BT1-+)*%
X107040000Y-116500000D03*
%TO.P,SW2,3,C*%
%TO.N,unconnected-(SW2-C-Pad3)*%
X109580000Y-116500000D03*
%TD*%
D16*
%TO.N,GND*%
X116500000Y-110000000D03*
%TO.N,+BATT*%
X104500000Y-112500000D03*
X116000000Y-99500000D03*
%TO.N,+3V3*%
X102000000Y-99500000D03*
X102000000Y-93000000D03*
X100500000Y-96500000D03*
X111000000Y-99000000D03*
%TD*%
D17*
%TO.N,+BATT*%
X104500000Y-111000000D02*
X104500000Y-112500000D01*
X116000000Y-99500000D02*
X104500000Y-111000000D01*
%TO.N,+3V3*%
X110500000Y-99500000D02*
X111000000Y-99000000D01*
X102000000Y-99500000D02*
X110500000Y-99500000D01*
X100500000Y-94500000D02*
X102000000Y-93000000D01*
X100500000Y-96500000D02*
X100500000Y-94500000D01*
%TD*%
%TA.AperFunction,Conductor*%
%TO.N,GND*%
G36*
X137006922Y-73501280D02*
G01*
X137097266Y-73511459D01*
X137124331Y-73517636D01*
X137203540Y-73545352D01*
X137228553Y-73557398D01*
X137299606Y-73602043D01*
X137321313Y-73619355D01*
X137380644Y-73678686D01*
X137397957Y-73700395D01*
X137442600Y-73771444D01*
X137454648Y-73796462D01*
X137482362Y-73875666D01*
X137488540Y-73902735D01*
X137498720Y-73993076D01*
X137499500Y-74006961D01*
X137499500Y-118993038D01*
X137498720Y-119006922D01*
X137498720Y-119006923D01*
X137488540Y-119097264D01*
X137482362Y-119124333D01*
X137454648Y-119203537D01*
X137442600Y-119228555D01*
X137397957Y-119299604D01*
X137380644Y-119321313D01*
X137321313Y-119380644D01*
X137299604Y-119397957D01*
X137228555Y-119442600D01*
X137203537Y-119454648D01*
X137124333Y-119482362D01*
X137097264Y-119488540D01*
X137017075Y-119497576D01*
X137006921Y-119498720D01*
X136993038Y-119499500D01*
X95006962Y-119499500D01*
X94993078Y-119498720D01*
X94980553Y-119497308D01*
X94902735Y-119488540D01*
X94875666Y-119482362D01*
X94796462Y-119454648D01*
X94771444Y-119442600D01*
X94700395Y-119397957D01*
X94678686Y-119380644D01*
X94619355Y-119321313D01*
X94602042Y-119299604D01*
X94557399Y-119228555D01*
X94545351Y-119203537D01*
X94517637Y-119124333D01*
X94511459Y-119097263D01*
X94501280Y-119006922D01*
X94500500Y-118993038D01*
X94500500Y-115868872D01*
X95999500Y-115868872D01*
X95999500Y-116131127D01*
X96006430Y-116183760D01*
X96033730Y-116391116D01*
X96091385Y-116606287D01*
X96101602Y-116644418D01*
X96101605Y-116644428D01*
X96201953Y-116886690D01*
X96201958Y-116886700D01*
X96333075Y-117113803D01*
X96492718Y-117321851D01*
X96492726Y-117321860D01*
X96678140Y-117507274D01*
X96678148Y-117507281D01*
X96886196Y-117666924D01*
X97113299Y-117798041D01*
X97113309Y-117798046D01*
X97289371Y-117870973D01*
X97355581Y-117898398D01*
X97608884Y-117966270D01*
X97868880Y-118000500D01*
X97868887Y-118000500D01*
X98131113Y-118000500D01*
X98131120Y-118000500D01*
X98391116Y-117966270D01*
X98644419Y-117898398D01*
X98886697Y-117798043D01*
X99113803Y-117666924D01*
X99321851Y-117507282D01*
X99321855Y-117507277D01*
X99321860Y-117507274D01*
X99507274Y-117321860D01*
X99507277Y-117321855D01*
X99507282Y-117321851D01*
X99666924Y-117113803D01*
X99798043Y-116886697D01*
X99898398Y-116644419D01*
X99966270Y-116391116D01*
X100000500Y-116131120D01*
X100000500Y-115868880D01*
X99998249Y-115851786D01*
X99977930Y-115697447D01*
X99966270Y-115608884D01*
X99964462Y-115602135D01*
X103149500Y-115602135D01*
X103149500Y-117397870D01*
X103149501Y-117397876D01*
X103155908Y-117457483D01*
X103206202Y-117592328D01*
X103206206Y-117592335D01*
X103292452Y-117707544D01*
X103292455Y-117707547D01*
X103407664Y-117793793D01*
X103407671Y-117793797D01*
X103542517Y-117844091D01*
X103542516Y-117844091D01*
X103549444Y-117844835D01*
X103602127Y-117850500D01*
X105397872Y-117850499D01*
X105457483Y-117844091D01*
X105592331Y-117793796D01*
X105707546Y-117707546D01*
X105793796Y-117592331D01*
X105842810Y-117460916D01*
X105884681Y-117404984D01*
X105950145Y-117380566D01*
X106018418Y-117395417D01*
X106046673Y-117416569D01*
X106160213Y-117530109D01*
X106332179Y-117655048D01*
X106332181Y-117655049D01*
X106332184Y-117655051D01*
X106521588Y-117751557D01*
X106723757Y-117817246D01*
X106933713Y-117850500D01*
X106933714Y-117850500D01*
X107146286Y-117850500D01*
X107146287Y-117850500D01*
X107356243Y-117817246D01*
X107558412Y-117751557D01*
X107747816Y-117655051D01*
X107834138Y-117592335D01*
X107919786Y-117530109D01*
X107919788Y-117530106D01*
X107919792Y-117530104D01*
X108070104Y-117379792D01*
X108070106Y-117379788D01*
X108070109Y-117379786D01*
X108195048Y-117207820D01*
X108195047Y-117207820D01*
X108195051Y-117207816D01*
X108199514Y-117199054D01*
X108247488Y-117148259D01*
X108315308Y-117131463D01*
X108381444Y-117153999D01*
X108420486Y-117199056D01*
X108424951Y-117207820D01*
X108549890Y-117379786D01*
X108700213Y-117530109D01*
X108872179Y-117655048D01*
X108872181Y-117655049D01*
X108872184Y-117655051D01*
X109061588Y-117751557D01*
X109263757Y-117817246D01*
X109473713Y-117850500D01*
X109473714Y-117850500D01*
X109686286Y-117850500D01*
X109686287Y-117850500D01*
X109896243Y-117817246D01*
X110098412Y-117751557D01*
X110287816Y-117655051D01*
X110374138Y-117592335D01*
X110459786Y-117530109D01*
X110459788Y-117530106D01*
X110459792Y-117530104D01*
X110610104Y-117379792D01*
X110610106Y-117379788D01*
X110610109Y-117379786D01*
X110735048Y-117207820D01*
X110735047Y-117207820D01*
X110735051Y-117207816D01*
X110831557Y-117018412D01*
X110897246Y-116816243D01*
X110930500Y-116606287D01*
X110930500Y-116393713D01*
X110897246Y-116183757D01*
X110831557Y-115981588D01*
X110735051Y-115792184D01*
X110735049Y-115792181D01*
X110735048Y-115792179D01*
X110610109Y-115620213D01*
X110459786Y-115469890D01*
X110287820Y-115344951D01*
X110098414Y-115248444D01*
X110098413Y-115248443D01*
X110098412Y-115248443D01*
X109896243Y-115182754D01*
X109896241Y-115182753D01*
X109896240Y-115182753D01*
X109734957Y-115157208D01*
X109686287Y-115149500D01*
X109473713Y-115149500D01*
X109425042Y-115157208D01*
X109263760Y-115182753D01*
X109061585Y-115248444D01*
X108872179Y-115344951D01*
X108700213Y-115469890D01*
X108549890Y-115620213D01*
X108424949Y-115792182D01*
X108420484Y-115800946D01*
X108372509Y-115851742D01*
X108304688Y-115868536D01*
X108238553Y-115845998D01*
X108199516Y-115800946D01*
X108195050Y-115792182D01*
X108070109Y-115620213D01*
X107919786Y-115469890D01*
X107747820Y-115344951D01*
X107558414Y-115248444D01*
X107558413Y-115248443D01*
X107558412Y-115248443D01*
X107356243Y-115182754D01*
X107356241Y-115182753D01*
X107356240Y-115182753D01*
X107194957Y-115157208D01*
X107146287Y-115149500D01*
X106933713Y-115149500D01*
X106885042Y-115157208D01*
X106723760Y-115182753D01*
X106521585Y-115248444D01*
X106332179Y-115344951D01*
X106160215Y-115469889D01*
X106046673Y-115583431D01*
X105985350Y-115616915D01*
X105915658Y-115611931D01*
X105859725Y-115570059D01*
X105842810Y-115539082D01*
X105793797Y-115407671D01*
X105793793Y-115407664D01*
X105707547Y-115292455D01*
X105707544Y-115292452D01*
X105592335Y-115206206D01*
X105592328Y-115206202D01*
X105457482Y-115155908D01*
X105457483Y-115155908D01*
X105397883Y-115149501D01*
X105397881Y-115149500D01*
X105397873Y-115149500D01*
X105397864Y-115149500D01*
X103602129Y-115149500D01*
X103602123Y-115149501D01*
X103542516Y-115155908D01*
X103407671Y-115206202D01*
X103407664Y-115206206D01*
X103292455Y-115292452D01*
X103292452Y-115292455D01*
X103206206Y-115407664D01*
X103206202Y-115407671D01*
X103155908Y-115542517D01*
X103149501Y-115602116D01*
X103149500Y-115602135D01*
X99964462Y-115602135D01*
X99898398Y-115355581D01*
X99874622Y-115298181D01*
X99798046Y-115113309D01*
X99798041Y-115113299D01*
X99666924Y-114886196D01*
X99507281Y-114678148D01*
X99507274Y-114678140D01*
X99321860Y-114492726D01*
X99321855Y-114492722D01*
X99321851Y-114492718D01*
X99227354Y-114420207D01*
X99113803Y-114333075D01*
X99099787Y-114324983D01*
X123899500Y-114324983D01*
X123899500Y-115675001D01*
X123899501Y-115675018D01*
X123910000Y-115777796D01*
X123910001Y-115777799D01*
X123965185Y-115944331D01*
X123965187Y-115944336D01*
X123988162Y-115981585D01*
X124057288Y-116093656D01*
X124181344Y-116217712D01*
X124330666Y-116309814D01*
X124497203Y-116364999D01*
X124599991Y-116375500D01*
X125400008Y-116375499D01*
X125400016Y-116375498D01*
X125400019Y-116375498D01*
X125456302Y-116369748D01*
X125502797Y-116364999D01*
X125669334Y-116309814D01*
X125818656Y-116217712D01*
X125942712Y-116093656D01*
X125982310Y-116029456D01*
X126034258Y-115982732D01*
X126103220Y-115971509D01*
X126167303Y-115999352D01*
X126175530Y-116006872D01*
X126283072Y-116114414D01*
X126423212Y-116216232D01*
X126577555Y-116294873D01*
X126742299Y-116348402D01*
X126913389Y-116375500D01*
X126913390Y-116375500D01*
X127086610Y-116375500D01*
X127086611Y-116375500D01*
X127257701Y-116348402D01*
X127422445Y-116294873D01*
X127576788Y-116216232D01*
X127716928Y-116114414D01*
X127839414Y-115991928D01*
X127932673Y-115863568D01*
X131918361Y-115863568D01*
X131918361Y-116136431D01*
X131918362Y-116136448D01*
X131953976Y-116406968D01*
X131953977Y-116406973D01*
X131953978Y-116406979D01*
X132017602Y-116644428D01*
X132024603Y-116670556D01*
X132024606Y-116670566D01*
X132129026Y-116922657D01*
X132129031Y-116922668D01*
X132265461Y-117158970D01*
X132265472Y-117158986D01*
X132431580Y-117375463D01*
X132431586Y-117375470D01*
X132624529Y-117568413D01*
X132624536Y-117568419D01*
X132752911Y-117666924D01*
X132841022Y-117734534D01*
X132841029Y-117734538D01*
X133077331Y-117870968D01*
X133077336Y-117870970D01*
X133077339Y-117870972D01*
X133329443Y-117975397D01*
X133593021Y-118046022D01*
X133863562Y-118081639D01*
X133863569Y-118081639D01*
X134136431Y-118081639D01*
X134136438Y-118081639D01*
X134406979Y-118046022D01*
X134670557Y-117975397D01*
X134922661Y-117870972D01*
X135158978Y-117734534D01*
X135375465Y-117568418D01*
X135568418Y-117375465D01*
X135734534Y-117158978D01*
X135870972Y-116922661D01*
X135975397Y-116670557D01*
X136046022Y-116406979D01*
X136081639Y-116136438D01*
X136081639Y-115863562D01*
X136046022Y-115593021D01*
X135975397Y-115329443D01*
X135870972Y-115077339D01*
X135870970Y-115077336D01*
X135870968Y-115077331D01*
X135734538Y-114841029D01*
X135734534Y-114841022D01*
X135686704Y-114778688D01*
X135568419Y-114624536D01*
X135568413Y-114624529D01*
X135375470Y-114431586D01*
X135375463Y-114431580D01*
X135158986Y-114265472D01*
X135158984Y-114265470D01*
X135158978Y-114265466D01*
X135158973Y-114265463D01*
X135158970Y-114265461D01*
X134922668Y-114129031D01*
X134922657Y-114129026D01*
X134670566Y-114024606D01*
X134670559Y-114024604D01*
X134670557Y-114024603D01*
X134406979Y-113953978D01*
X134406973Y-113953977D01*
X134406968Y-113953976D01*
X134136448Y-113918362D01*
X134136443Y-113918361D01*
X134136438Y-113918361D01*
X133863562Y-113918361D01*
X133863556Y-113918361D01*
X133863551Y-113918362D01*
X133593031Y-113953976D01*
X133593024Y-113953977D01*
X133593021Y-113953978D01*
X133391138Y-114008072D01*
X133329443Y-114024603D01*
X133329433Y-114024606D01*
X133077342Y-114129026D01*
X133077331Y-114129031D01*
X132841029Y-114265461D01*
X132841013Y-114265472D01*
X132624536Y-114431580D01*
X132624529Y-114431586D01*
X132431586Y-114624529D01*
X132431580Y-114624536D01*
X132265472Y-114841013D01*
X132265461Y-114841029D01*
X132129031Y-115077331D01*
X132129026Y-115077342D01*
X132024606Y-115329433D01*
X132024603Y-115329443D01*
X131967511Y-115542517D01*
X131953979Y-115593018D01*
X131953976Y-115593031D01*
X131918362Y-115863551D01*
X131918361Y-115863568D01*
X127932673Y-115863568D01*
X127941232Y-115851788D01*
X128019873Y-115697445D01*
X128073402Y-115532701D01*
X128100500Y-115361611D01*
X128100500Y-114638389D01*
X128073402Y-114467299D01*
X128019873Y-114302555D01*
X127941232Y-114148212D01*
X127839414Y-114008072D01*
X127716928Y-113885586D01*
X127576788Y-113783768D01*
X127422445Y-113705127D01*
X127257701Y-113651598D01*
X127257699Y-113651597D01*
X127257698Y-113651597D01*
X127126271Y-113630781D01*
X127086611Y-113624500D01*
X126913389Y-113624500D01*
X126873728Y-113630781D01*
X126742302Y-113651597D01*
X126577552Y-113705128D01*
X126423211Y-113783768D01*
X126283073Y-113885585D01*
X126175530Y-113993128D01*
X126114207Y-114026612D01*
X126044515Y-114021628D01*
X125988582Y-113979756D01*
X125982310Y-113970543D01*
X125972093Y-113953979D01*
X125942712Y-113906344D01*
X125818656Y-113782288D01*
X125693559Y-113705128D01*
X125669336Y-113690187D01*
X125669331Y-113690185D01*
X125667862Y-113689698D01*
X125502797Y-113635001D01*
X125502795Y-113635000D01*
X125400010Y-113624500D01*
X124599998Y-113624500D01*
X124599980Y-113624501D01*
X124497203Y-113635000D01*
X124497200Y-113635001D01*
X124330668Y-113690185D01*
X124330663Y-113690187D01*
X124181342Y-113782289D01*
X124057289Y-113906342D01*
X123965187Y-114055663D01*
X123965186Y-114055666D01*
X123910001Y-114222203D01*
X123910001Y-114222204D01*
X123910000Y-114222204D01*
X123899500Y-114324983D01*
X99099787Y-114324983D01*
X98886700Y-114201958D01*
X98886690Y-114201953D01*
X98644428Y-114101605D01*
X98644421Y-114101603D01*
X98644419Y-114101602D01*
X98391116Y-114033730D01*
X98333339Y-114026123D01*
X98131127Y-113999500D01*
X98131120Y-113999500D01*
X97868880Y-113999500D01*
X97868872Y-113999500D01*
X97637772Y-114029926D01*
X97608884Y-114033730D01*
X97355581Y-114101602D01*
X97355571Y-114101605D01*
X97113309Y-114201953D01*
X97113299Y-114201958D01*
X96886196Y-114333075D01*
X96678148Y-114492718D01*
X96492718Y-114678148D01*
X96333075Y-114886196D01*
X96201958Y-115113299D01*
X96201953Y-115113309D01*
X96101605Y-115355571D01*
X96101602Y-115355581D01*
X96033730Y-115608884D01*
X96029926Y-115637772D01*
X95999500Y-115868872D01*
X94500500Y-115868872D01*
X94500500Y-112421153D01*
X103699500Y-112421153D01*
X103699500Y-112578846D01*
X103730261Y-112733489D01*
X103730264Y-112733501D01*
X103790602Y-112879172D01*
X103790609Y-112879185D01*
X103878210Y-113010288D01*
X103878213Y-113010292D01*
X103989707Y-113121786D01*
X103989711Y-113121789D01*
X104120814Y-113209390D01*
X104120827Y-113209397D01*
X104266498Y-113269735D01*
X104266503Y-113269737D01*
X104421153Y-113300499D01*
X104421156Y-113300500D01*
X104421158Y-113300500D01*
X104578844Y-113300500D01*
X104578845Y-113300499D01*
X104733497Y-113269737D01*
X104879179Y-113209394D01*
X105010289Y-113121789D01*
X105121789Y-113010289D01*
X105209394Y-112879179D01*
X105269737Y-112733497D01*
X105300500Y-112578842D01*
X105300500Y-112421158D01*
X105300500Y-112421155D01*
X105300499Y-112421153D01*
X105269738Y-112266510D01*
X105269737Y-112266503D01*
X105269735Y-112266498D01*
X105209397Y-112120827D01*
X105209390Y-112120814D01*
X105121398Y-111989125D01*
X105100520Y-111922447D01*
X105100500Y-111920234D01*
X105100500Y-111300097D01*
X105120185Y-111233058D01*
X105136819Y-111212416D01*
X105829757Y-110519478D01*
X115063588Y-101285646D01*
X116887000Y-101285646D01*
X116887000Y-101514353D01*
X116922778Y-101740246D01*
X116922778Y-101740249D01*
X116993450Y-101957755D01*
X116993452Y-101957758D01*
X117097283Y-102161538D01*
X117231714Y-102346566D01*
X117393434Y-102508286D01*
X117578462Y-102642717D01*
X117782242Y-102746548D01*
X117782244Y-102746549D01*
X117999751Y-102817221D01*
X117999752Y-102817221D01*
X117999755Y-102817222D01*
X118225646Y-102853000D01*
X118225647Y-102853000D01*
X118454353Y-102853000D01*
X118454354Y-102853000D01*
X118680245Y-102817222D01*
X118680248Y-102817221D01*
X118680249Y-102817221D01*
X118897755Y-102746549D01*
X118897755Y-102746548D01*
X118897758Y-102746548D01*
X119101538Y-102642717D01*
X119286566Y-102508286D01*
X119448286Y-102346566D01*
X119582717Y-102161538D01*
X119686548Y-101957758D01*
X119757222Y-101740245D01*
X119793000Y-101514354D01*
X119793000Y-101285646D01*
X121967000Y-101285646D01*
X121967000Y-101514353D01*
X122002778Y-101740246D01*
X122002778Y-101740249D01*
X122073450Y-101957755D01*
X122073452Y-101957758D01*
X122177283Y-102161538D01*
X122311714Y-102346566D01*
X122473434Y-102508286D01*
X122658462Y-102642717D01*
X122862242Y-102746548D01*
X122862244Y-102746549D01*
X123079751Y-102817221D01*
X123079752Y-102817221D01*
X123079755Y-102817222D01*
X123305646Y-102853000D01*
X123305647Y-102853000D01*
X123534353Y-102853000D01*
X123534354Y-102853000D01*
X123760245Y-102817222D01*
X123760248Y-102817221D01*
X123760249Y-102817221D01*
X123977755Y-102746549D01*
X123977755Y-102746548D01*
X123977758Y-102746548D01*
X124181538Y-102642717D01*
X124366566Y-102508286D01*
X124528286Y-102346566D01*
X124662717Y-102161538D01*
X124766548Y-101957758D01*
X124837222Y-101740245D01*
X124873000Y-101514354D01*
X124873000Y-101285646D01*
X124837222Y-101059755D01*
X124837221Y-101059751D01*
X124837221Y-101059750D01*
X124766549Y-100842244D01*
X124662716Y-100638461D01*
X124528286Y-100453434D01*
X124366566Y-100291714D01*
X124181538Y-100157283D01*
X124111110Y-100121398D01*
X123977755Y-100053450D01*
X123760248Y-99982778D01*
X123590826Y-99955944D01*
X123534354Y-99947000D01*
X123305646Y-99947000D01*
X123230349Y-99958926D01*
X123079753Y-99982778D01*
X123079750Y-99982778D01*
X122862244Y-100053450D01*
X122658461Y-100157283D01*
X122586733Y-100209397D01*
X122473434Y-100291714D01*
X122473432Y-100291716D01*
X122473431Y-100291716D01*
X122311716Y-100453431D01*
X122311716Y-100453432D01*
X122311714Y-100453434D01*
X122253980Y-100532896D01*
X122177283Y-100638461D01*
X122073450Y-100842244D01*
X122002778Y-101059750D01*
X122002778Y-101059753D01*
X121967000Y-101285646D01*
X119793000Y-101285646D01*
X119757222Y-101059755D01*
X119757221Y-101059751D01*
X119757221Y-101059750D01*
X119686549Y-100842244D01*
X119582716Y-100638461D01*
X119448286Y-100453434D01*
X119286566Y-100291714D01*
X119101538Y-100157283D01*
X119031110Y-100121398D01*
X118897755Y-100053450D01*
X118680248Y-99982778D01*
X118510826Y-99955944D01*
X118454354Y-99947000D01*
X118225646Y-99947000D01*
X118150349Y-99958926D01*
X117999753Y-99982778D01*
X117999750Y-99982778D01*
X117782244Y-100053450D01*
X117578461Y-100157283D01*
X117506733Y-100209397D01*
X117393434Y-100291714D01*
X117393432Y-100291716D01*
X117393431Y-100291716D01*
X117231716Y-100453431D01*
X117231716Y-100453432D01*
X117231714Y-100453434D01*
X117173980Y-100532896D01*
X117097283Y-100638461D01*
X116993450Y-100842244D01*
X116922778Y-101059750D01*
X116922778Y-101059753D01*
X116887000Y-101285646D01*
X115063588Y-101285646D01*
X116014662Y-100334572D01*
X116075983Y-100301089D01*
X116078150Y-100300638D01*
X116136085Y-100289113D01*
X116233497Y-100269737D01*
X116379179Y-100209394D01*
X116510289Y-100121789D01*
X116621789Y-100010289D01*
X116709394Y-99879179D01*
X116769737Y-99733497D01*
X116800500Y-99578842D01*
X116800500Y-99421158D01*
X116800500Y-99421155D01*
X116800499Y-99421153D01*
X116769738Y-99266510D01*
X116769738Y-99266508D01*
X116769737Y-99266503D01*
X116756062Y-99233489D01*
X116709397Y-99120827D01*
X116709390Y-99120814D01*
X116621789Y-98989711D01*
X116621786Y-98989707D01*
X116510292Y-98878213D01*
X116510288Y-98878210D01*
X116379185Y-98790609D01*
X116379172Y-98790602D01*
X116233501Y-98730264D01*
X116233489Y-98730261D01*
X116078845Y-98699500D01*
X116078842Y-98699500D01*
X115921158Y-98699500D01*
X115921155Y-98699500D01*
X115766510Y-98730261D01*
X115766498Y-98730264D01*
X115620827Y-98790602D01*
X115620814Y-98790609D01*
X115489711Y-98878210D01*
X115489707Y-98878213D01*
X115378213Y-98989707D01*
X115378210Y-98989711D01*
X115290609Y-99120814D01*
X115290602Y-99120827D01*
X115230264Y-99266498D01*
X115230261Y-99266508D01*
X115199361Y-99421850D01*
X115166976Y-99483761D01*
X115165425Y-99485339D01*
X104019481Y-110631282D01*
X104019479Y-110631285D01*
X103969361Y-110718094D01*
X103969359Y-110718096D01*
X103940425Y-110768209D01*
X103940424Y-110768210D01*
X103940423Y-110768215D01*
X103899499Y-110920943D01*
X103899499Y-110920945D01*
X103899499Y-111089046D01*
X103899500Y-111089059D01*
X103899500Y-111920234D01*
X103879815Y-111987273D01*
X103878602Y-111989125D01*
X103790609Y-112120814D01*
X103790602Y-112120827D01*
X103730264Y-112266498D01*
X103730261Y-112266510D01*
X103699500Y-112421153D01*
X94500500Y-112421153D01*
X94500500Y-99421153D01*
X101199500Y-99421153D01*
X101199500Y-99578846D01*
X101230261Y-99733489D01*
X101230264Y-99733501D01*
X101290602Y-99879172D01*
X101290609Y-99879185D01*
X101378210Y-100010288D01*
X101378213Y-100010292D01*
X101489707Y-100121786D01*
X101489711Y-100121789D01*
X101620814Y-100209390D01*
X101620827Y-100209397D01*
X101766498Y-100269735D01*
X101766503Y-100269737D01*
X101921153Y-100300499D01*
X101921156Y-100300500D01*
X101921158Y-100300500D01*
X102078844Y-100300500D01*
X102078845Y-100300499D01*
X102233497Y-100269737D01*
X102379179Y-100209394D01*
X102457169Y-100157283D01*
X102510875Y-100121398D01*
X102577553Y-100100520D01*
X102579766Y-100100500D01*
X110413331Y-100100500D01*
X110413347Y-100100501D01*
X110420943Y-100100501D01*
X110579054Y-100100501D01*
X110579057Y-100100501D01*
X110731785Y-100059577D01*
X110781904Y-100030639D01*
X110868716Y-99980520D01*
X110980520Y-99868716D01*
X110980521Y-99868714D01*
X111014662Y-99834572D01*
X111075983Y-99801089D01*
X111078150Y-99800638D01*
X111136085Y-99789113D01*
X111233497Y-99769737D01*
X111379179Y-99709394D01*
X111510289Y-99621789D01*
X111621789Y-99510289D01*
X111709394Y-99379179D01*
X111769737Y-99233497D01*
X111800500Y-99078842D01*
X111800500Y-98921158D01*
X111800500Y-98921155D01*
X111800499Y-98921153D01*
X111788653Y-98861602D01*
X111769737Y-98766503D01*
X111769735Y-98766498D01*
X111709397Y-98620827D01*
X111709390Y-98620814D01*
X111621789Y-98489711D01*
X111621786Y-98489707D01*
X111510292Y-98378213D01*
X111510288Y-98378210D01*
X111379185Y-98290609D01*
X111379172Y-98290602D01*
X111233501Y-98230264D01*
X111233489Y-98230261D01*
X111078845Y-98199500D01*
X111078842Y-98199500D01*
X110921158Y-98199500D01*
X110921155Y-98199500D01*
X110766510Y-98230261D01*
X110766498Y-98230264D01*
X110620827Y-98290602D01*
X110620814Y-98290609D01*
X110489711Y-98378210D01*
X110489707Y-98378213D01*
X110378213Y-98489707D01*
X110378210Y-98489711D01*
X110290609Y-98620814D01*
X110290602Y-98620827D01*
X110230264Y-98766498D01*
X110230261Y-98766510D01*
X110223661Y-98799691D01*
X110191276Y-98861602D01*
X110130561Y-98896176D01*
X110102044Y-98899500D01*
X102579766Y-98899500D01*
X102512727Y-98879815D01*
X102510875Y-98878602D01*
X102379185Y-98790609D01*
X102379172Y-98790602D01*
X102233501Y-98730264D01*
X102233489Y-98730261D01*
X102078845Y-98699500D01*
X102078842Y-98699500D01*
X101921158Y-98699500D01*
X101921155Y-98699500D01*
X101766510Y-98730261D01*
X101766498Y-98730264D01*
X101620827Y-98790602D01*
X101620814Y-98790609D01*
X101489711Y-98878210D01*
X101489707Y-98878213D01*
X101378213Y-98989707D01*
X101378210Y-98989711D01*
X101290609Y-99120814D01*
X101290602Y-99120827D01*
X101230264Y-99266498D01*
X101230261Y-99266510D01*
X101199500Y-99421153D01*
X94500500Y-99421153D01*
X94500500Y-96421153D01*
X99699500Y-96421153D01*
X99699500Y-96578846D01*
X99730261Y-96733489D01*
X99730264Y-96733501D01*
X99790602Y-96879172D01*
X99790609Y-96879185D01*
X99878210Y-97010288D01*
X99878213Y-97010292D01*
X99989707Y-97121786D01*
X99989711Y-97121789D01*
X100120814Y-97209390D01*
X100120827Y-97209397D01*
X100266498Y-97269735D01*
X100266503Y-97269737D01*
X100421153Y-97300499D01*
X100421156Y-97300500D01*
X100421158Y-97300500D01*
X100578844Y-97300500D01*
X100578845Y-97300499D01*
X100733497Y-97269737D01*
X100879179Y-97209394D01*
X101010289Y-97121789D01*
X101121789Y-97010289D01*
X101209394Y-96879179D01*
X101269737Y-96733497D01*
X101300500Y-96578842D01*
X101300500Y-96421158D01*
X101300500Y-96421155D01*
X101300499Y-96421153D01*
X101269738Y-96266510D01*
X101269737Y-96266503D01*
X101269735Y-96266498D01*
X101209397Y-96120827D01*
X101209390Y-96120814D01*
X101121398Y-95989125D01*
X101100520Y-95922447D01*
X101100500Y-95920234D01*
X101100500Y-94800097D01*
X101120185Y-94733058D01*
X101136819Y-94712416D01*
X101428292Y-94420943D01*
X102014662Y-93834572D01*
X102075983Y-93801089D01*
X102078150Y-93800638D01*
X102136085Y-93789113D01*
X102233497Y-93769737D01*
X102379179Y-93709394D01*
X102510289Y-93621789D01*
X102621789Y-93510289D01*
X102709394Y-93379179D01*
X102769737Y-93233497D01*
X102800500Y-93078842D01*
X102800500Y-92921158D01*
X102800500Y-92921155D01*
X102800499Y-92921153D01*
X102769738Y-92766510D01*
X102769738Y-92766508D01*
X102769737Y-92766503D01*
X102712989Y-92629500D01*
X102709397Y-92620827D01*
X102709390Y-92620814D01*
X102621789Y-92489711D01*
X102621786Y-92489707D01*
X102510292Y-92378213D01*
X102510288Y-92378210D01*
X102379185Y-92290609D01*
X102379172Y-92290602D01*
X102233501Y-92230264D01*
X102233489Y-92230261D01*
X102078845Y-92199500D01*
X102078842Y-92199500D01*
X101921158Y-92199500D01*
X101921155Y-92199500D01*
X101766510Y-92230261D01*
X101766498Y-92230264D01*
X101620827Y-92290602D01*
X101620814Y-92290609D01*
X101489711Y-92378210D01*
X101489707Y-92378213D01*
X101378213Y-92489707D01*
X101378210Y-92489711D01*
X101290609Y-92620814D01*
X101290602Y-92620827D01*
X101230264Y-92766498D01*
X101230261Y-92766508D01*
X101199361Y-92921850D01*
X101166976Y-92983761D01*
X101165425Y-92985339D01*
X100019481Y-94131282D01*
X100019479Y-94131285D01*
X99969361Y-94218094D01*
X99969359Y-94218096D01*
X99940425Y-94268209D01*
X99940424Y-94268210D01*
X99940423Y-94268215D01*
X99899499Y-94420943D01*
X99899499Y-94420945D01*
X99899499Y-94589046D01*
X99899500Y-94589059D01*
X99899500Y-95920234D01*
X99879815Y-95987273D01*
X99878602Y-95989125D01*
X99790609Y-96120814D01*
X99790602Y-96120827D01*
X99730264Y-96266498D01*
X99730261Y-96266510D01*
X99699500Y-96421153D01*
X94500500Y-96421153D01*
X94500500Y-76868872D01*
X95999500Y-76868872D01*
X95999500Y-77131127D01*
X96014542Y-77245376D01*
X96033730Y-77391116D01*
X96099114Y-77635133D01*
X96101602Y-77644418D01*
X96101605Y-77644428D01*
X96201953Y-77886690D01*
X96201958Y-77886700D01*
X96333075Y-78113803D01*
X96492718Y-78321851D01*
X96492726Y-78321860D01*
X96678140Y-78507274D01*
X96678148Y-78507281D01*
X96886196Y-78666924D01*
X97113299Y-78798041D01*
X97113309Y-78798046D01*
X97355571Y-78898394D01*
X97355581Y-78898398D01*
X97608884Y-78966270D01*
X97868880Y-79000500D01*
X97868887Y-79000500D01*
X98131113Y-79000500D01*
X98131120Y-79000500D01*
X98391116Y-78966270D01*
X98644419Y-78898398D01*
X98886697Y-78798043D01*
X99113803Y-78666924D01*
X99321851Y-78507282D01*
X99321855Y-78507277D01*
X99321860Y-78507274D01*
X99507274Y-78321860D01*
X99507277Y-78321855D01*
X99507282Y-78321851D01*
X99666924Y-78113803D01*
X99798043Y-77886697D01*
X99898398Y-77644419D01*
X99966270Y-77391116D01*
X100000500Y-77131120D01*
X100000500Y-76868880D01*
X99966270Y-76608884D01*
X99898398Y-76355581D01*
X99800204Y-76118520D01*
X99798046Y-76113309D01*
X99798041Y-76113299D01*
X99702474Y-75947772D01*
X99669488Y-75890638D01*
X110219500Y-75890638D01*
X110219500Y-76109361D01*
X110253714Y-76325376D01*
X110321297Y-76533380D01*
X110321298Y-76533383D01*
X110359769Y-76608884D01*
X110420592Y-76728256D01*
X110420595Y-76728260D01*
X110549142Y-76905193D01*
X110703806Y-77059857D01*
X110854969Y-77169682D01*
X110897635Y-77225011D01*
X110903614Y-77294625D01*
X110871009Y-77356420D01*
X110854969Y-77370318D01*
X110703806Y-77480142D01*
X110549142Y-77634806D01*
X110420595Y-77811739D01*
X110321298Y-78006616D01*
X110321297Y-78006619D01*
X110253714Y-78214623D01*
X110219500Y-78430638D01*
X110219500Y-78649361D01*
X110253714Y-78865376D01*
X110321297Y-79073380D01*
X110321298Y-79073383D01*
X110388782Y-79205825D01*
X110420461Y-79267998D01*
X110420595Y-79268260D01*
X110549142Y-79445193D01*
X110703806Y-79599857D01*
X110854969Y-79709682D01*
X110897635Y-79765011D01*
X110903614Y-79834625D01*
X110871009Y-79896420D01*
X110854969Y-79910318D01*
X110703806Y-80020142D01*
X110549142Y-80174806D01*
X110420595Y-80351739D01*
X110321298Y-80546616D01*
X110321297Y-80546619D01*
X110253714Y-80754623D01*
X110219500Y-80970638D01*
X110219500Y-81189361D01*
X110253714Y-81405376D01*
X110321297Y-81613380D01*
X110321298Y-81613383D01*
X110420595Y-81808260D01*
X110549142Y-81985193D01*
X110703806Y-82139857D01*
X110854969Y-82249682D01*
X110897635Y-82305011D01*
X110903614Y-82374625D01*
X110871009Y-82436420D01*
X110854969Y-82450318D01*
X110703806Y-82560142D01*
X110549142Y-82714806D01*
X110420595Y-82891739D01*
X110321298Y-83086616D01*
X110321297Y-83086619D01*
X110253714Y-83294623D01*
X110219500Y-83510638D01*
X110219500Y-83729361D01*
X110253714Y-83945376D01*
X110321297Y-84153380D01*
X110321298Y-84153383D01*
X110420595Y-84348260D01*
X110549142Y-84525193D01*
X110703806Y-84679857D01*
X110854969Y-84789682D01*
X110897635Y-84845011D01*
X110903614Y-84914625D01*
X110871009Y-84976420D01*
X110854969Y-84990318D01*
X110703806Y-85100142D01*
X110549142Y-85254806D01*
X110420595Y-85431739D01*
X110321298Y-85626616D01*
X110321297Y-85626619D01*
X110253714Y-85834623D01*
X110219500Y-86050638D01*
X110219500Y-86269361D01*
X110253714Y-86485376D01*
X110321297Y-86693380D01*
X110321298Y-86693383D01*
X110420595Y-86888260D01*
X110549142Y-87065193D01*
X110703806Y-87219857D01*
X110854969Y-87329682D01*
X110897635Y-87385011D01*
X110903614Y-87454625D01*
X110871009Y-87516420D01*
X110854969Y-87530318D01*
X110703806Y-87640142D01*
X110549142Y-87794806D01*
X110420595Y-87971739D01*
X110321298Y-88166616D01*
X110321297Y-88166619D01*
X110253714Y-88374623D01*
X110219500Y-88590638D01*
X110219500Y-88809361D01*
X110253714Y-89025376D01*
X110321297Y-89233380D01*
X110321298Y-89233383D01*
X110420595Y-89428260D01*
X110549142Y-89605193D01*
X110703806Y-89759857D01*
X110854969Y-89869682D01*
X110897635Y-89925011D01*
X110903614Y-89994625D01*
X110871009Y-90056420D01*
X110854969Y-90070318D01*
X110703806Y-90180142D01*
X110549142Y-90334806D01*
X110420595Y-90511739D01*
X110321298Y-90706616D01*
X110321297Y-90706619D01*
X110253714Y-90914623D01*
X110219500Y-91130638D01*
X110219500Y-91349361D01*
X110253714Y-91565376D01*
X110321297Y-91773380D01*
X110321298Y-91773383D01*
X110420595Y-91968260D01*
X110549142Y-92145193D01*
X110703806Y-92299857D01*
X110811656Y-92378213D01*
X110880743Y-92428407D01*
X111001050Y-92489707D01*
X111075616Y-92527701D01*
X111075619Y-92527702D01*
X111179621Y-92561493D01*
X111283625Y-92595286D01*
X111383672Y-92611132D01*
X111499639Y-92629500D01*
X111499644Y-92629500D01*
X113496361Y-92629500D01*
X113601082Y-92612912D01*
X113712375Y-92595286D01*
X113920383Y-92527701D01*
X114115257Y-92428407D01*
X114214601Y-92356229D01*
X114292193Y-92299857D01*
X114292195Y-92299854D01*
X114292199Y-92299852D01*
X114446852Y-92145199D01*
X114446854Y-92145195D01*
X114446857Y-92145193D01*
X114503229Y-92067601D01*
X114575407Y-91968257D01*
X114674701Y-91773383D01*
X114742286Y-91565375D01*
X114759912Y-91454082D01*
X114776500Y-91349361D01*
X114776500Y-91130638D01*
X114756595Y-91004971D01*
X114742286Y-90914625D01*
X114674701Y-90706617D01*
X114674701Y-90706616D01*
X114640315Y-90639132D01*
X114575407Y-90511743D01*
X114567147Y-90500374D01*
X114446857Y-90334806D01*
X114292199Y-90180148D01*
X114292191Y-90180142D01*
X114141028Y-90070316D01*
X114098364Y-90014989D01*
X114092385Y-89945376D01*
X114124990Y-89883580D01*
X114141023Y-89869686D01*
X114292199Y-89759852D01*
X114446852Y-89605199D01*
X114446854Y-89605195D01*
X114446857Y-89605193D01*
X114503229Y-89527601D01*
X114575407Y-89428257D01*
X114674701Y-89233383D01*
X114742286Y-89025375D01*
X114759912Y-88914082D01*
X114776500Y-88809361D01*
X114776500Y-88590638D01*
X114756595Y-88464971D01*
X114742286Y-88374625D01*
X114674701Y-88166617D01*
X114674701Y-88166616D01*
X114640315Y-88099132D01*
X114575407Y-87971743D01*
X114567147Y-87960374D01*
X114446857Y-87794806D01*
X114292199Y-87640148D01*
X114292191Y-87640142D01*
X114141028Y-87530316D01*
X114098364Y-87474989D01*
X114092385Y-87405376D01*
X114124990Y-87343580D01*
X114141023Y-87329686D01*
X114292199Y-87219852D01*
X114446852Y-87065199D01*
X114446854Y-87065195D01*
X114446857Y-87065193D01*
X114503229Y-86987601D01*
X114575407Y-86888257D01*
X114674701Y-86693383D01*
X114742286Y-86485375D01*
X114759912Y-86374082D01*
X114776500Y-86269361D01*
X114776500Y-86050638D01*
X114756595Y-85924971D01*
X114742286Y-85834625D01*
X114674701Y-85626617D01*
X114674701Y-85626616D01*
X114640315Y-85559132D01*
X114575407Y-85431743D01*
X114567147Y-85420374D01*
X114446857Y-85254806D01*
X114292199Y-85100148D01*
X114292191Y-85100142D01*
X114141028Y-84990316D01*
X114098364Y-84934989D01*
X114092385Y-84865376D01*
X114124990Y-84803580D01*
X114141023Y-84789686D01*
X114292199Y-84679852D01*
X114446852Y-84525199D01*
X114446854Y-84525195D01*
X114446857Y-84525193D01*
X114503229Y-84447601D01*
X114575407Y-84348257D01*
X114674701Y-84153383D01*
X114742286Y-83945375D01*
X114759912Y-83834082D01*
X114776500Y-83729361D01*
X114776500Y-83510638D01*
X114756595Y-83384971D01*
X114742286Y-83294625D01*
X114674701Y-83086617D01*
X114674701Y-83086616D01*
X114640315Y-83019132D01*
X114575407Y-82891743D01*
X114567147Y-82880374D01*
X114446857Y-82714806D01*
X114292199Y-82560148D01*
X114292191Y-82560142D01*
X114141028Y-82450316D01*
X114098364Y-82394989D01*
X114092385Y-82325376D01*
X114124990Y-82263580D01*
X114141023Y-82249686D01*
X114292199Y-82139852D01*
X114446852Y-81985199D01*
X114446854Y-81985195D01*
X114446857Y-81985193D01*
X114503229Y-81907601D01*
X114575407Y-81808257D01*
X114674701Y-81613383D01*
X114742286Y-81405375D01*
X114759912Y-81294082D01*
X114776500Y-81189361D01*
X114776500Y-80970638D01*
X114756595Y-80844971D01*
X114742286Y-80754625D01*
X114674701Y-80546617D01*
X114674701Y-80546616D01*
X114640315Y-80479132D01*
X114575407Y-80351743D01*
X114567147Y-80340374D01*
X114446857Y-80174806D01*
X114292199Y-80020148D01*
X114292191Y-80020142D01*
X114141028Y-79910316D01*
X114098364Y-79854989D01*
X114092385Y-79785376D01*
X114124990Y-79723580D01*
X114141023Y-79709686D01*
X114292199Y-79599852D01*
X114446852Y-79445199D01*
X114446854Y-79445195D01*
X114446857Y-79445193D01*
X114503229Y-79367601D01*
X114575407Y-79268257D01*
X114674701Y-79073383D01*
X114742286Y-78865375D01*
X114773718Y-78666924D01*
X114776500Y-78649361D01*
X114776500Y-78430638D01*
X114754224Y-78290000D01*
X114742286Y-78214625D01*
X114694197Y-78066619D01*
X114674702Y-78006619D01*
X114674701Y-78006616D01*
X114640315Y-77939132D01*
X114575407Y-77811743D01*
X114546986Y-77772624D01*
X114446857Y-77634806D01*
X114292199Y-77480148D01*
X114279829Y-77471161D01*
X114141028Y-77370316D01*
X114098364Y-77314989D01*
X114092385Y-77245376D01*
X114124990Y-77183580D01*
X114141023Y-77169686D01*
X114292199Y-77059852D01*
X114446852Y-76905199D01*
X114446854Y-76905195D01*
X114446857Y-76905193D01*
X114503229Y-76827601D01*
X114575407Y-76728257D01*
X114674701Y-76533383D01*
X114742286Y-76325375D01*
X114775049Y-76118520D01*
X114776500Y-76109361D01*
X114776500Y-75890638D01*
X126983500Y-75890638D01*
X126983500Y-76109361D01*
X127017714Y-76325376D01*
X127085297Y-76533380D01*
X127085298Y-76533383D01*
X127123769Y-76608884D01*
X127184592Y-76728256D01*
X127184595Y-76728260D01*
X127313142Y-76905193D01*
X127467802Y-77059853D01*
X127467807Y-77059857D01*
X127619394Y-77169991D01*
X127662060Y-77225320D01*
X127668039Y-77294934D01*
X127635434Y-77356729D01*
X127619394Y-77370627D01*
X127468133Y-77480524D01*
X127468128Y-77480528D01*
X127313528Y-77635128D01*
X127313524Y-77635133D01*
X127185023Y-77812001D01*
X127085762Y-78006808D01*
X127085761Y-78006811D01*
X127018201Y-78214741D01*
X127006282Y-78290000D01*
X128057749Y-78290000D01*
X128026619Y-78343919D01*
X127992000Y-78473120D01*
X127992000Y-78606880D01*
X128026619Y-78736081D01*
X128057749Y-78790000D01*
X127006282Y-78790000D01*
X127018201Y-78865258D01*
X127085761Y-79073188D01*
X127085762Y-79073191D01*
X127185023Y-79267998D01*
X127313524Y-79444866D01*
X127313528Y-79444871D01*
X127468128Y-79599471D01*
X127468133Y-79599475D01*
X127619394Y-79709372D01*
X127662060Y-79764701D01*
X127668039Y-79834315D01*
X127635434Y-79896110D01*
X127619394Y-79910008D01*
X127467807Y-80020142D01*
X127467802Y-80020146D01*
X127313142Y-80174806D01*
X127184595Y-80351739D01*
X127085298Y-80546616D01*
X127085297Y-80546619D01*
X127017714Y-80754623D01*
X126983500Y-80970638D01*
X126983500Y-81189361D01*
X127017714Y-81405376D01*
X127085297Y-81613380D01*
X127085298Y-81613383D01*
X127184595Y-81808260D01*
X127313142Y-81985193D01*
X127467806Y-82139857D01*
X127618969Y-82249682D01*
X127661635Y-82305011D01*
X127667614Y-82374625D01*
X127635009Y-82436420D01*
X127618969Y-82450318D01*
X127467806Y-82560142D01*
X127313142Y-82714806D01*
X127184595Y-82891739D01*
X127085298Y-83086616D01*
X127085297Y-83086619D01*
X127017714Y-83294623D01*
X126983500Y-83510638D01*
X126983500Y-83729361D01*
X127017714Y-83945376D01*
X127085297Y-84153380D01*
X127085298Y-84153383D01*
X127184595Y-84348260D01*
X127313142Y-84525193D01*
X127467806Y-84679857D01*
X127618969Y-84789682D01*
X127661635Y-84845011D01*
X127667614Y-84914625D01*
X127635009Y-84976420D01*
X127618969Y-84990318D01*
X127467806Y-85100142D01*
X127313142Y-85254806D01*
X127184595Y-85431739D01*
X127085298Y-85626616D01*
X127085297Y-85626619D01*
X127017714Y-85834623D01*
X126983500Y-86050638D01*
X126983500Y-86269361D01*
X127017714Y-86485376D01*
X127085297Y-86693380D01*
X127085298Y-86693383D01*
X127184595Y-86888260D01*
X127313142Y-87065193D01*
X127467806Y-87219857D01*
X127618969Y-87329682D01*
X127661635Y-87385011D01*
X127667614Y-87454625D01*
X127635009Y-87516420D01*
X127618969Y-87530318D01*
X127467806Y-87640142D01*
X127313142Y-87794806D01*
X127184595Y-87971739D01*
X127085298Y-88166616D01*
X127085297Y-88166619D01*
X127017714Y-88374623D01*
X126983500Y-88590638D01*
X126983500Y-88809361D01*
X127017714Y-89025376D01*
X127085297Y-89233380D01*
X127085298Y-89233383D01*
X127184595Y-89428260D01*
X127313142Y-89605193D01*
X127467806Y-89759857D01*
X127618969Y-89869682D01*
X127661635Y-89925011D01*
X127667614Y-89994625D01*
X127635009Y-90056420D01*
X127618969Y-90070318D01*
X127467806Y-90180142D01*
X127313142Y-90334806D01*
X127184595Y-90511739D01*
X127085298Y-90706616D01*
X127085297Y-90706619D01*
X127017714Y-90914623D01*
X126983500Y-91130638D01*
X126983500Y-91349361D01*
X127017714Y-91565376D01*
X127085297Y-91773380D01*
X127085298Y-91773383D01*
X127184595Y-91968260D01*
X127313142Y-92145193D01*
X127467806Y-92299857D01*
X127575656Y-92378213D01*
X127644743Y-92428407D01*
X127765050Y-92489707D01*
X127839616Y-92527701D01*
X127839619Y-92527702D01*
X127943621Y-92561493D01*
X128047625Y-92595286D01*
X128147672Y-92611132D01*
X128263639Y-92629500D01*
X128263644Y-92629500D01*
X130260361Y-92629500D01*
X130365082Y-92612912D01*
X130476375Y-92595286D01*
X130684383Y-92527701D01*
X130879257Y-92428407D01*
X130978601Y-92356229D01*
X131056193Y-92299857D01*
X131056195Y-92299854D01*
X131056199Y-92299852D01*
X131210852Y-92145199D01*
X131210854Y-92145195D01*
X131210857Y-92145193D01*
X131267229Y-92067601D01*
X131339407Y-91968257D01*
X131438701Y-91773383D01*
X131506286Y-91565375D01*
X131523912Y-91454082D01*
X131540500Y-91349361D01*
X131540500Y-91130638D01*
X131520595Y-91004971D01*
X131506286Y-90914625D01*
X131438701Y-90706617D01*
X131438701Y-90706616D01*
X131404315Y-90639132D01*
X131339407Y-90511743D01*
X131331147Y-90500374D01*
X131210857Y-90334806D01*
X131056199Y-90180148D01*
X131056191Y-90180142D01*
X130905028Y-90070316D01*
X130862364Y-90014989D01*
X130856385Y-89945376D01*
X130888990Y-89883580D01*
X130905023Y-89869686D01*
X131056199Y-89759852D01*
X131210852Y-89605199D01*
X131210854Y-89605195D01*
X131210857Y-89605193D01*
X131267229Y-89527601D01*
X131339407Y-89428257D01*
X131438701Y-89233383D01*
X131506286Y-89025375D01*
X131523912Y-88914082D01*
X131540500Y-88809361D01*
X131540500Y-88590638D01*
X131520595Y-88464971D01*
X131506286Y-88374625D01*
X131438701Y-88166617D01*
X131438701Y-88166616D01*
X131404315Y-88099132D01*
X131339407Y-87971743D01*
X131331147Y-87960374D01*
X131210857Y-87794806D01*
X131056199Y-87640148D01*
X131056191Y-87640142D01*
X130905028Y-87530316D01*
X130862364Y-87474989D01*
X130856385Y-87405376D01*
X130888990Y-87343580D01*
X130905023Y-87329686D01*
X131056199Y-87219852D01*
X131210852Y-87065199D01*
X131210854Y-87065195D01*
X131210857Y-87065193D01*
X131267229Y-86987601D01*
X131339407Y-86888257D01*
X131438701Y-86693383D01*
X131506286Y-86485375D01*
X131523912Y-86374082D01*
X131540500Y-86269361D01*
X131540500Y-86050638D01*
X131520595Y-85924971D01*
X131506286Y-85834625D01*
X131438701Y-85626617D01*
X131438701Y-85626616D01*
X131404315Y-85559132D01*
X131339407Y-85431743D01*
X131331147Y-85420374D01*
X131210857Y-85254806D01*
X131056199Y-85100148D01*
X131056191Y-85100142D01*
X130905028Y-84990316D01*
X130862364Y-84934989D01*
X130856385Y-84865376D01*
X130888990Y-84803580D01*
X130905023Y-84789686D01*
X131056199Y-84679852D01*
X131210852Y-84525199D01*
X131210854Y-84525195D01*
X131210857Y-84525193D01*
X131267229Y-84447601D01*
X131339407Y-84348257D01*
X131438701Y-84153383D01*
X131506286Y-83945375D01*
X131523912Y-83834082D01*
X131540500Y-83729361D01*
X131540500Y-83510638D01*
X131520595Y-83384971D01*
X131506286Y-83294625D01*
X131438701Y-83086617D01*
X131438701Y-83086616D01*
X131404315Y-83019132D01*
X131339407Y-82891743D01*
X131331147Y-82880374D01*
X131210857Y-82714806D01*
X131056199Y-82560148D01*
X131056191Y-82560142D01*
X130905028Y-82450316D01*
X130862364Y-82394989D01*
X130856385Y-82325376D01*
X130888990Y-82263580D01*
X130905023Y-82249686D01*
X131056199Y-82139852D01*
X131210852Y-81985199D01*
X131210854Y-81985195D01*
X131210857Y-81985193D01*
X131267229Y-81907601D01*
X131339407Y-81808257D01*
X131438701Y-81613383D01*
X131506286Y-81405375D01*
X131523912Y-81294082D01*
X131540500Y-81189361D01*
X131540500Y-80970638D01*
X131520595Y-80844971D01*
X131506286Y-80754625D01*
X131438701Y-80546617D01*
X131438701Y-80546616D01*
X131404315Y-80479132D01*
X131339407Y-80351743D01*
X131331147Y-80340374D01*
X131210857Y-80174806D01*
X131056197Y-80020146D01*
X131056192Y-80020142D01*
X130904605Y-79910008D01*
X130861939Y-79854678D01*
X130855960Y-79785065D01*
X130888565Y-79723270D01*
X130904605Y-79709371D01*
X131055873Y-79599469D01*
X131210471Y-79444871D01*
X131210475Y-79444866D01*
X131338976Y-79267998D01*
X131438237Y-79073191D01*
X131438238Y-79073188D01*
X131505798Y-78865258D01*
X131517718Y-78790000D01*
X128942251Y-78790000D01*
X128973381Y-78736081D01*
X129008000Y-78606880D01*
X129008000Y-78473120D01*
X128973381Y-78343919D01*
X128942251Y-78290000D01*
X131517718Y-78290000D01*
X131505798Y-78214741D01*
X131438238Y-78006811D01*
X131438237Y-78006808D01*
X131338976Y-77812001D01*
X131210475Y-77635133D01*
X131210471Y-77635128D01*
X131055871Y-77480528D01*
X131055866Y-77480524D01*
X130904605Y-77370627D01*
X130861939Y-77315297D01*
X130855960Y-77245684D01*
X130888565Y-77183889D01*
X130904599Y-77169994D01*
X131056199Y-77059852D01*
X131210852Y-76905199D01*
X131237245Y-76868872D01*
X131999500Y-76868872D01*
X131999500Y-77131127D01*
X132014542Y-77245376D01*
X132033730Y-77391116D01*
X132099114Y-77635133D01*
X132101602Y-77644418D01*
X132101605Y-77644428D01*
X132201953Y-77886690D01*
X132201958Y-77886700D01*
X132333075Y-78113803D01*
X132492718Y-78321851D01*
X132492726Y-78321860D01*
X132678140Y-78507274D01*
X132678148Y-78507281D01*
X132886196Y-78666924D01*
X133113299Y-78798041D01*
X133113309Y-78798046D01*
X133355571Y-78898394D01*
X133355581Y-78898398D01*
X133608884Y-78966270D01*
X133868880Y-79000500D01*
X133868887Y-79000500D01*
X134131113Y-79000500D01*
X134131120Y-79000500D01*
X134391116Y-78966270D01*
X134644419Y-78898398D01*
X134886697Y-78798043D01*
X135113803Y-78666924D01*
X135321851Y-78507282D01*
X135321855Y-78507277D01*
X135321860Y-78507274D01*
X135507274Y-78321860D01*
X135507277Y-78321855D01*
X135507282Y-78321851D01*
X135666924Y-78113803D01*
X135798043Y-77886697D01*
X135898398Y-77644419D01*
X135966270Y-77391116D01*
X136000500Y-77131120D01*
X136000500Y-76868880D01*
X135966270Y-76608884D01*
X135898398Y-76355581D01*
X135800204Y-76118520D01*
X135798046Y-76113309D01*
X135798041Y-76113299D01*
X135666924Y-75886196D01*
X135507281Y-75678148D01*
X135507274Y-75678140D01*
X135321860Y-75492726D01*
X135321851Y-75492718D01*
X135113803Y-75333075D01*
X134886700Y-75201958D01*
X134886690Y-75201953D01*
X134644428Y-75101605D01*
X134644421Y-75101603D01*
X134644419Y-75101602D01*
X134391116Y-75033730D01*
X134333339Y-75026123D01*
X134131127Y-74999500D01*
X134131120Y-74999500D01*
X133868880Y-74999500D01*
X133868872Y-74999500D01*
X133637772Y-75029926D01*
X133608884Y-75033730D01*
X133380963Y-75094801D01*
X133355581Y-75101602D01*
X133355571Y-75101605D01*
X133113309Y-75201953D01*
X133113299Y-75201958D01*
X132886196Y-75333075D01*
X132678148Y-75492718D01*
X132492718Y-75678148D01*
X132333075Y-75886196D01*
X132201958Y-76113299D01*
X132201953Y-76113309D01*
X132101605Y-76355571D01*
X132101602Y-76355581D01*
X132053961Y-76533383D01*
X132033730Y-76608885D01*
X131999500Y-76868872D01*
X131237245Y-76868872D01*
X131339407Y-76728257D01*
X131438701Y-76533383D01*
X131506286Y-76325375D01*
X131539049Y-76118520D01*
X131540500Y-76109361D01*
X131540500Y-75890638D01*
X131520595Y-75764971D01*
X131506286Y-75674625D01*
X131438701Y-75466617D01*
X131438701Y-75466616D01*
X131404315Y-75399132D01*
X131339407Y-75271743D01*
X131288702Y-75201953D01*
X131210857Y-75094806D01*
X131056193Y-74940142D01*
X130879260Y-74811595D01*
X130879259Y-74811594D01*
X130879257Y-74811593D01*
X130816825Y-74779782D01*
X130684383Y-74712298D01*
X130684380Y-74712297D01*
X130476376Y-74644714D01*
X130260361Y-74610500D01*
X130260356Y-74610500D01*
X128263644Y-74610500D01*
X128263639Y-74610500D01*
X128047623Y-74644714D01*
X127839619Y-74712297D01*
X127839616Y-74712298D01*
X127644739Y-74811595D01*
X127467806Y-74940142D01*
X127313142Y-75094806D01*
X127184595Y-75271739D01*
X127085298Y-75466616D01*
X127085297Y-75466619D01*
X127017714Y-75674623D01*
X126983500Y-75890638D01*
X114776500Y-75890638D01*
X114756595Y-75764971D01*
X114742286Y-75674625D01*
X114674701Y-75466617D01*
X114674701Y-75466616D01*
X114640315Y-75399132D01*
X114575407Y-75271743D01*
X114524702Y-75201953D01*
X114446857Y-75094806D01*
X114292193Y-74940142D01*
X114115260Y-74811595D01*
X114115259Y-74811594D01*
X114115257Y-74811593D01*
X114052825Y-74779782D01*
X113920383Y-74712298D01*
X113920380Y-74712297D01*
X113712376Y-74644714D01*
X113496361Y-74610500D01*
X113496356Y-74610500D01*
X111499644Y-74610500D01*
X111499639Y-74610500D01*
X111283623Y-74644714D01*
X111075619Y-74712297D01*
X111075616Y-74712298D01*
X110880739Y-74811595D01*
X110703806Y-74940142D01*
X110549142Y-75094806D01*
X110420595Y-75271739D01*
X110321298Y-75466616D01*
X110321297Y-75466619D01*
X110253714Y-75674623D01*
X110219500Y-75890638D01*
X99669488Y-75890638D01*
X99666924Y-75886197D01*
X99507282Y-75678149D01*
X99507281Y-75678148D01*
X99507274Y-75678140D01*
X99321860Y-75492726D01*
X99321851Y-75492718D01*
X99113803Y-75333075D01*
X98886700Y-75201958D01*
X98886690Y-75201953D01*
X98644428Y-75101605D01*
X98644421Y-75101603D01*
X98644419Y-75101602D01*
X98391116Y-75033730D01*
X98333339Y-75026123D01*
X98131127Y-74999500D01*
X98131120Y-74999500D01*
X97868880Y-74999500D01*
X97868872Y-74999500D01*
X97637772Y-75029926D01*
X97608884Y-75033730D01*
X97380963Y-75094801D01*
X97355581Y-75101602D01*
X97355571Y-75101605D01*
X97113309Y-75201953D01*
X97113299Y-75201958D01*
X96886196Y-75333075D01*
X96678148Y-75492718D01*
X96492718Y-75678148D01*
X96333075Y-75886196D01*
X96201958Y-76113299D01*
X96201953Y-76113309D01*
X96101605Y-76355571D01*
X96101602Y-76355581D01*
X96053961Y-76533383D01*
X96033730Y-76608885D01*
X95999500Y-76868872D01*
X94500500Y-76868872D01*
X94500500Y-74006961D01*
X94501280Y-73993077D01*
X94501280Y-73993076D01*
X94511460Y-73902729D01*
X94517635Y-73875670D01*
X94545353Y-73796456D01*
X94557396Y-73771450D01*
X94602046Y-73700389D01*
X94619351Y-73678690D01*
X94678690Y-73619351D01*
X94700389Y-73602046D01*
X94771450Y-73557396D01*
X94796456Y-73545353D01*
X94875670Y-73517635D01*
X94902733Y-73511459D01*
X94965419Y-73504396D01*
X94993079Y-73501280D01*
X95006962Y-73500500D01*
X95065892Y-73500500D01*
X136934108Y-73500500D01*
X136993038Y-73500500D01*
X137006922Y-73501280D01*
G37*
%TD.AperFunction*%
%TD*%
M02*
