%TF.GenerationSoftware,KiCad,Pcbnew,9.0.7*%
%TF.CreationDate,2026-02-16T17:44:51-08:00*%
%TF.ProjectId,Electrical_schematics_V3,456c6563-7472-4696-9361-6c5f73636865,rev?*%
%TF.SameCoordinates,Original*%
%TF.FileFunction,Legend,Top*%
%TF.FilePolarity,Positive*%
%FSLAX46Y46*%
G04 Gerber Fmt 4.6, Leading zero omitted, Abs format (unit mm)*
G04 Created by KiCad (PCBNEW 9.0.7) date 2026-02-16 17:44:51*
%MOMM*%
%LPD*%
G01*
G04 APERTURE LIST*
%ADD10C,0.100000*%
%ADD11C,0.150000*%
%ADD12C,0.120000*%
%ADD13C,0.127000*%
%ADD14C,0.200000*%
G04 APERTURE END LIST*
D10*
X95161027Y-81152531D02*
X95494360Y-82152531D01*
X95494360Y-82152531D02*
X95827693Y-81152531D01*
X96541979Y-82104912D02*
X96446741Y-82152531D01*
X96446741Y-82152531D02*
X96256265Y-82152531D01*
X96256265Y-82152531D02*
X96161027Y-82104912D01*
X96161027Y-82104912D02*
X96113408Y-82009673D01*
X96113408Y-82009673D02*
X96113408Y-81628721D01*
X96113408Y-81628721D02*
X96161027Y-81533483D01*
X96161027Y-81533483D02*
X96256265Y-81485864D01*
X96256265Y-81485864D02*
X96446741Y-81485864D01*
X96446741Y-81485864D02*
X96541979Y-81533483D01*
X96541979Y-81533483D02*
X96589598Y-81628721D01*
X96589598Y-81628721D02*
X96589598Y-81723959D01*
X96589598Y-81723959D02*
X96113408Y-81819197D01*
X97018170Y-82152531D02*
X97018170Y-81485864D01*
X97018170Y-81676340D02*
X97065789Y-81581102D01*
X97065789Y-81581102D02*
X97113408Y-81533483D01*
X97113408Y-81533483D02*
X97208646Y-81485864D01*
X97208646Y-81485864D02*
X97303884Y-81485864D01*
X97780075Y-82152531D02*
X97684837Y-82104912D01*
X97684837Y-82104912D02*
X97637218Y-82057292D01*
X97637218Y-82057292D02*
X97589599Y-81962054D01*
X97589599Y-81962054D02*
X97589599Y-81676340D01*
X97589599Y-81676340D02*
X97637218Y-81581102D01*
X97637218Y-81581102D02*
X97684837Y-81533483D01*
X97684837Y-81533483D02*
X97780075Y-81485864D01*
X97780075Y-81485864D02*
X97922932Y-81485864D01*
X97922932Y-81485864D02*
X98018170Y-81533483D01*
X98018170Y-81533483D02*
X98065789Y-81581102D01*
X98065789Y-81581102D02*
X98113408Y-81676340D01*
X98113408Y-81676340D02*
X98113408Y-81962054D01*
X98113408Y-81962054D02*
X98065789Y-82057292D01*
X98065789Y-82057292D02*
X98018170Y-82104912D01*
X98018170Y-82104912D02*
X97922932Y-82152531D01*
X97922932Y-82152531D02*
X97780075Y-82152531D01*
X98541980Y-81485864D02*
X98541980Y-82152531D01*
X98541980Y-81581102D02*
X98589599Y-81533483D01*
X98589599Y-81533483D02*
X98684837Y-81485864D01*
X98684837Y-81485864D02*
X98827694Y-81485864D01*
X98827694Y-81485864D02*
X98922932Y-81533483D01*
X98922932Y-81533483D02*
X98970551Y-81628721D01*
X98970551Y-81628721D02*
X98970551Y-82152531D01*
X99446742Y-82152531D02*
X99446742Y-81485864D01*
X99446742Y-81152531D02*
X99399123Y-81200150D01*
X99399123Y-81200150D02*
X99446742Y-81247769D01*
X99446742Y-81247769D02*
X99494361Y-81200150D01*
X99494361Y-81200150D02*
X99446742Y-81152531D01*
X99446742Y-81152531D02*
X99446742Y-81247769D01*
X99922932Y-82152531D02*
X99922932Y-81152531D01*
X100018170Y-81771578D02*
X100303884Y-82152531D01*
X100303884Y-81485864D02*
X99922932Y-81866816D01*
X101161027Y-82152531D02*
X101161027Y-81628721D01*
X101161027Y-81628721D02*
X101113408Y-81533483D01*
X101113408Y-81533483D02*
X101018170Y-81485864D01*
X101018170Y-81485864D02*
X100827694Y-81485864D01*
X100827694Y-81485864D02*
X100732456Y-81533483D01*
X101161027Y-82104912D02*
X101065789Y-82152531D01*
X101065789Y-82152531D02*
X100827694Y-82152531D01*
X100827694Y-82152531D02*
X100732456Y-82104912D01*
X100732456Y-82104912D02*
X100684837Y-82009673D01*
X100684837Y-82009673D02*
X100684837Y-81914435D01*
X100684837Y-81914435D02*
X100732456Y-81819197D01*
X100732456Y-81819197D02*
X100827694Y-81771578D01*
X100827694Y-81771578D02*
X101065789Y-81771578D01*
X101065789Y-81771578D02*
X101161027Y-81723959D01*
X102351504Y-82104912D02*
X102494361Y-82152531D01*
X102494361Y-82152531D02*
X102732456Y-82152531D01*
X102732456Y-82152531D02*
X102827694Y-82104912D01*
X102827694Y-82104912D02*
X102875313Y-82057292D01*
X102875313Y-82057292D02*
X102922932Y-81962054D01*
X102922932Y-81962054D02*
X102922932Y-81866816D01*
X102922932Y-81866816D02*
X102875313Y-81771578D01*
X102875313Y-81771578D02*
X102827694Y-81723959D01*
X102827694Y-81723959D02*
X102732456Y-81676340D01*
X102732456Y-81676340D02*
X102541980Y-81628721D01*
X102541980Y-81628721D02*
X102446742Y-81581102D01*
X102446742Y-81581102D02*
X102399123Y-81533483D01*
X102399123Y-81533483D02*
X102351504Y-81438245D01*
X102351504Y-81438245D02*
X102351504Y-81343007D01*
X102351504Y-81343007D02*
X102399123Y-81247769D01*
X102399123Y-81247769D02*
X102446742Y-81200150D01*
X102446742Y-81200150D02*
X102541980Y-81152531D01*
X102541980Y-81152531D02*
X102780075Y-81152531D01*
X102780075Y-81152531D02*
X102922932Y-81200150D01*
X103351504Y-82057292D02*
X103399123Y-82104912D01*
X103399123Y-82104912D02*
X103351504Y-82152531D01*
X103351504Y-82152531D02*
X103303885Y-82104912D01*
X103303885Y-82104912D02*
X103351504Y-82057292D01*
X103351504Y-82057292D02*
X103351504Y-82152531D01*
X103827694Y-82152531D02*
X103827694Y-81152531D01*
X103827694Y-81152531D02*
X104208646Y-81152531D01*
X104208646Y-81152531D02*
X104303884Y-81200150D01*
X104303884Y-81200150D02*
X104351503Y-81247769D01*
X104351503Y-81247769D02*
X104399122Y-81343007D01*
X104399122Y-81343007D02*
X104399122Y-81485864D01*
X104399122Y-81485864D02*
X104351503Y-81581102D01*
X104351503Y-81581102D02*
X104303884Y-81628721D01*
X104303884Y-81628721D02*
X104208646Y-81676340D01*
X104208646Y-81676340D02*
X103827694Y-81676340D01*
X104827694Y-82057292D02*
X104875313Y-82104912D01*
X104875313Y-82104912D02*
X104827694Y-82152531D01*
X104827694Y-82152531D02*
X104780075Y-82104912D01*
X104780075Y-82104912D02*
X104827694Y-82057292D01*
X104827694Y-82057292D02*
X104827694Y-82152531D01*
X95256265Y-83714856D02*
X95399122Y-83762475D01*
X95399122Y-83762475D02*
X95637217Y-83762475D01*
X95637217Y-83762475D02*
X95732455Y-83714856D01*
X95732455Y-83714856D02*
X95780074Y-83667236D01*
X95780074Y-83667236D02*
X95827693Y-83571998D01*
X95827693Y-83571998D02*
X95827693Y-83476760D01*
X95827693Y-83476760D02*
X95780074Y-83381522D01*
X95780074Y-83381522D02*
X95732455Y-83333903D01*
X95732455Y-83333903D02*
X95637217Y-83286284D01*
X95637217Y-83286284D02*
X95446741Y-83238665D01*
X95446741Y-83238665D02*
X95351503Y-83191046D01*
X95351503Y-83191046D02*
X95303884Y-83143427D01*
X95303884Y-83143427D02*
X95256265Y-83048189D01*
X95256265Y-83048189D02*
X95256265Y-82952951D01*
X95256265Y-82952951D02*
X95303884Y-82857713D01*
X95303884Y-82857713D02*
X95351503Y-82810094D01*
X95351503Y-82810094D02*
X95446741Y-82762475D01*
X95446741Y-82762475D02*
X95684836Y-82762475D01*
X95684836Y-82762475D02*
X95827693Y-82810094D01*
X96637217Y-83714856D02*
X96541979Y-83762475D01*
X96541979Y-83762475D02*
X96351503Y-83762475D01*
X96351503Y-83762475D02*
X96256265Y-83714856D01*
X96256265Y-83714856D02*
X96208646Y-83619617D01*
X96208646Y-83619617D02*
X96208646Y-83238665D01*
X96208646Y-83238665D02*
X96256265Y-83143427D01*
X96256265Y-83143427D02*
X96351503Y-83095808D01*
X96351503Y-83095808D02*
X96541979Y-83095808D01*
X96541979Y-83095808D02*
X96637217Y-83143427D01*
X96637217Y-83143427D02*
X96684836Y-83238665D01*
X96684836Y-83238665D02*
X96684836Y-83333903D01*
X96684836Y-83333903D02*
X96208646Y-83429141D01*
X97113408Y-83095808D02*
X97113408Y-83762475D01*
X97113408Y-83191046D02*
X97161027Y-83143427D01*
X97161027Y-83143427D02*
X97256265Y-83095808D01*
X97256265Y-83095808D02*
X97399122Y-83095808D01*
X97399122Y-83095808D02*
X97494360Y-83143427D01*
X97494360Y-83143427D02*
X97541979Y-83238665D01*
X97541979Y-83238665D02*
X97541979Y-83762475D01*
X97970551Y-83714856D02*
X98065789Y-83762475D01*
X98065789Y-83762475D02*
X98256265Y-83762475D01*
X98256265Y-83762475D02*
X98351503Y-83714856D01*
X98351503Y-83714856D02*
X98399122Y-83619617D01*
X98399122Y-83619617D02*
X98399122Y-83571998D01*
X98399122Y-83571998D02*
X98351503Y-83476760D01*
X98351503Y-83476760D02*
X98256265Y-83429141D01*
X98256265Y-83429141D02*
X98113408Y-83429141D01*
X98113408Y-83429141D02*
X98018170Y-83381522D01*
X98018170Y-83381522D02*
X97970551Y-83286284D01*
X97970551Y-83286284D02*
X97970551Y-83238665D01*
X97970551Y-83238665D02*
X98018170Y-83143427D01*
X98018170Y-83143427D02*
X98113408Y-83095808D01*
X98113408Y-83095808D02*
X98256265Y-83095808D01*
X98256265Y-83095808D02*
X98351503Y-83143427D01*
X98827694Y-83762475D02*
X98827694Y-83095808D01*
X98827694Y-82762475D02*
X98780075Y-82810094D01*
X98780075Y-82810094D02*
X98827694Y-82857713D01*
X98827694Y-82857713D02*
X98875313Y-82810094D01*
X98875313Y-82810094D02*
X98827694Y-82762475D01*
X98827694Y-82762475D02*
X98827694Y-82857713D01*
X99303884Y-83095808D02*
X99303884Y-83762475D01*
X99303884Y-83191046D02*
X99351503Y-83143427D01*
X99351503Y-83143427D02*
X99446741Y-83095808D01*
X99446741Y-83095808D02*
X99589598Y-83095808D01*
X99589598Y-83095808D02*
X99684836Y-83143427D01*
X99684836Y-83143427D02*
X99732455Y-83238665D01*
X99732455Y-83238665D02*
X99732455Y-83762475D01*
X100637217Y-83095808D02*
X100637217Y-83905332D01*
X100637217Y-83905332D02*
X100589598Y-84000570D01*
X100589598Y-84000570D02*
X100541979Y-84048189D01*
X100541979Y-84048189D02*
X100446741Y-84095808D01*
X100446741Y-84095808D02*
X100303884Y-84095808D01*
X100303884Y-84095808D02*
X100208646Y-84048189D01*
X100637217Y-83714856D02*
X100541979Y-83762475D01*
X100541979Y-83762475D02*
X100351503Y-83762475D01*
X100351503Y-83762475D02*
X100256265Y-83714856D01*
X100256265Y-83714856D02*
X100208646Y-83667236D01*
X100208646Y-83667236D02*
X100161027Y-83571998D01*
X100161027Y-83571998D02*
X100161027Y-83286284D01*
X100161027Y-83286284D02*
X100208646Y-83191046D01*
X100208646Y-83191046D02*
X100256265Y-83143427D01*
X100256265Y-83143427D02*
X100351503Y-83095808D01*
X100351503Y-83095808D02*
X100541979Y-83095808D01*
X100541979Y-83095808D02*
X100637217Y-83143427D01*
X101875313Y-83762475D02*
X101875313Y-82762475D01*
X101875313Y-82762475D02*
X102113408Y-82762475D01*
X102113408Y-82762475D02*
X102256265Y-82810094D01*
X102256265Y-82810094D02*
X102351503Y-82905332D01*
X102351503Y-82905332D02*
X102399122Y-83000570D01*
X102399122Y-83000570D02*
X102446741Y-83191046D01*
X102446741Y-83191046D02*
X102446741Y-83333903D01*
X102446741Y-83333903D02*
X102399122Y-83524379D01*
X102399122Y-83524379D02*
X102351503Y-83619617D01*
X102351503Y-83619617D02*
X102256265Y-83714856D01*
X102256265Y-83714856D02*
X102113408Y-83762475D01*
X102113408Y-83762475D02*
X101875313Y-83762475D01*
X103256265Y-83714856D02*
X103161027Y-83762475D01*
X103161027Y-83762475D02*
X102970551Y-83762475D01*
X102970551Y-83762475D02*
X102875313Y-83714856D01*
X102875313Y-83714856D02*
X102827694Y-83619617D01*
X102827694Y-83619617D02*
X102827694Y-83238665D01*
X102827694Y-83238665D02*
X102875313Y-83143427D01*
X102875313Y-83143427D02*
X102970551Y-83095808D01*
X102970551Y-83095808D02*
X103161027Y-83095808D01*
X103161027Y-83095808D02*
X103256265Y-83143427D01*
X103256265Y-83143427D02*
X103303884Y-83238665D01*
X103303884Y-83238665D02*
X103303884Y-83333903D01*
X103303884Y-83333903D02*
X102827694Y-83429141D01*
X103637218Y-83095808D02*
X103875313Y-83762475D01*
X103875313Y-83762475D02*
X104113408Y-83095808D01*
X104494361Y-83762475D02*
X104494361Y-83095808D01*
X104494361Y-82762475D02*
X104446742Y-82810094D01*
X104446742Y-82810094D02*
X104494361Y-82857713D01*
X104494361Y-82857713D02*
X104541980Y-82810094D01*
X104541980Y-82810094D02*
X104494361Y-82762475D01*
X104494361Y-82762475D02*
X104494361Y-82857713D01*
X105399122Y-83714856D02*
X105303884Y-83762475D01*
X105303884Y-83762475D02*
X105113408Y-83762475D01*
X105113408Y-83762475D02*
X105018170Y-83714856D01*
X105018170Y-83714856D02*
X104970551Y-83667236D01*
X104970551Y-83667236D02*
X104922932Y-83571998D01*
X104922932Y-83571998D02*
X104922932Y-83286284D01*
X104922932Y-83286284D02*
X104970551Y-83191046D01*
X104970551Y-83191046D02*
X105018170Y-83143427D01*
X105018170Y-83143427D02*
X105113408Y-83095808D01*
X105113408Y-83095808D02*
X105303884Y-83095808D01*
X105303884Y-83095808D02*
X105399122Y-83143427D01*
X106208646Y-83714856D02*
X106113408Y-83762475D01*
X106113408Y-83762475D02*
X105922932Y-83762475D01*
X105922932Y-83762475D02*
X105827694Y-83714856D01*
X105827694Y-83714856D02*
X105780075Y-83619617D01*
X105780075Y-83619617D02*
X105780075Y-83238665D01*
X105780075Y-83238665D02*
X105827694Y-83143427D01*
X105827694Y-83143427D02*
X105922932Y-83095808D01*
X105922932Y-83095808D02*
X106113408Y-83095808D01*
X106113408Y-83095808D02*
X106208646Y-83143427D01*
X106208646Y-83143427D02*
X106256265Y-83238665D01*
X106256265Y-83238665D02*
X106256265Y-83333903D01*
X106256265Y-83333903D02*
X105780075Y-83429141D01*
X107303885Y-82762475D02*
X107637218Y-83762475D01*
X107637218Y-83762475D02*
X107970551Y-82762475D01*
X108256266Y-82857713D02*
X108303885Y-82810094D01*
X108303885Y-82810094D02*
X108399123Y-82762475D01*
X108399123Y-82762475D02*
X108637218Y-82762475D01*
X108637218Y-82762475D02*
X108732456Y-82810094D01*
X108732456Y-82810094D02*
X108780075Y-82857713D01*
X108780075Y-82857713D02*
X108827694Y-82952951D01*
X108827694Y-82952951D02*
X108827694Y-83048189D01*
X108827694Y-83048189D02*
X108780075Y-83191046D01*
X108780075Y-83191046D02*
X108208647Y-83762475D01*
X108208647Y-83762475D02*
X108827694Y-83762475D01*
X95161027Y-84372419D02*
X95732455Y-84372419D01*
X95446741Y-85372419D02*
X95446741Y-84372419D01*
X96065789Y-84848609D02*
X96399122Y-84848609D01*
X96541979Y-85372419D02*
X96065789Y-85372419D01*
X96065789Y-85372419D02*
X96065789Y-84372419D01*
X96065789Y-84372419D02*
X96541979Y-84372419D01*
X97541979Y-85277180D02*
X97494360Y-85324800D01*
X97494360Y-85324800D02*
X97351503Y-85372419D01*
X97351503Y-85372419D02*
X97256265Y-85372419D01*
X97256265Y-85372419D02*
X97113408Y-85324800D01*
X97113408Y-85324800D02*
X97018170Y-85229561D01*
X97018170Y-85229561D02*
X96970551Y-85134323D01*
X96970551Y-85134323D02*
X96922932Y-84943847D01*
X96922932Y-84943847D02*
X96922932Y-84800990D01*
X96922932Y-84800990D02*
X96970551Y-84610514D01*
X96970551Y-84610514D02*
X97018170Y-84515276D01*
X97018170Y-84515276D02*
X97113408Y-84420038D01*
X97113408Y-84420038D02*
X97256265Y-84372419D01*
X97256265Y-84372419D02*
X97351503Y-84372419D01*
X97351503Y-84372419D02*
X97494360Y-84420038D01*
X97494360Y-84420038D02*
X97541979Y-84467657D01*
X97970551Y-85372419D02*
X97970551Y-84372419D01*
X97970551Y-84848609D02*
X98541979Y-84848609D01*
X98541979Y-85372419D02*
X98541979Y-84372419D01*
X99018170Y-85372419D02*
X99018170Y-84372419D01*
X99494360Y-85372419D02*
X99494360Y-84372419D01*
X99494360Y-84372419D02*
X100065788Y-85372419D01*
X100065788Y-85372419D02*
X100065788Y-84372419D01*
X101780074Y-84372419D02*
X101303884Y-84372419D01*
X101303884Y-84372419D02*
X101256265Y-84848609D01*
X101256265Y-84848609D02*
X101303884Y-84800990D01*
X101303884Y-84800990D02*
X101399122Y-84753371D01*
X101399122Y-84753371D02*
X101637217Y-84753371D01*
X101637217Y-84753371D02*
X101732455Y-84800990D01*
X101732455Y-84800990D02*
X101780074Y-84848609D01*
X101780074Y-84848609D02*
X101827693Y-84943847D01*
X101827693Y-84943847D02*
X101827693Y-85181942D01*
X101827693Y-85181942D02*
X101780074Y-85277180D01*
X101780074Y-85277180D02*
X101732455Y-85324800D01*
X101732455Y-85324800D02*
X101637217Y-85372419D01*
X101637217Y-85372419D02*
X101399122Y-85372419D01*
X101399122Y-85372419D02*
X101303884Y-85324800D01*
X101303884Y-85324800D02*
X101256265Y-85277180D01*
X102780074Y-85372419D02*
X102208646Y-85372419D01*
X102494360Y-85372419D02*
X102494360Y-84372419D01*
X102494360Y-84372419D02*
X102399122Y-84515276D01*
X102399122Y-84515276D02*
X102303884Y-84610514D01*
X102303884Y-84610514D02*
X102208646Y-84658133D01*
X103637217Y-84705752D02*
X103637217Y-85372419D01*
X103399122Y-84324800D02*
X103161027Y-85039085D01*
X103161027Y-85039085D02*
X103780074Y-85039085D01*
D11*
X119104819Y-105666666D02*
X118628628Y-105999999D01*
X119104819Y-106238094D02*
X118104819Y-106238094D01*
X118104819Y-106238094D02*
X118104819Y-105857142D01*
X118104819Y-105857142D02*
X118152438Y-105761904D01*
X118152438Y-105761904D02*
X118200057Y-105714285D01*
X118200057Y-105714285D02*
X118295295Y-105666666D01*
X118295295Y-105666666D02*
X118438152Y-105666666D01*
X118438152Y-105666666D02*
X118533390Y-105714285D01*
X118533390Y-105714285D02*
X118581009Y-105761904D01*
X118581009Y-105761904D02*
X118628628Y-105857142D01*
X118628628Y-105857142D02*
X118628628Y-106238094D01*
X118200057Y-105285713D02*
X118152438Y-105238094D01*
X118152438Y-105238094D02*
X118104819Y-105142856D01*
X118104819Y-105142856D02*
X118104819Y-104904761D01*
X118104819Y-104904761D02*
X118152438Y-104809523D01*
X118152438Y-104809523D02*
X118200057Y-104761904D01*
X118200057Y-104761904D02*
X118295295Y-104714285D01*
X118295295Y-104714285D02*
X118390533Y-104714285D01*
X118390533Y-104714285D02*
X118533390Y-104761904D01*
X118533390Y-104761904D02*
X119104819Y-105333332D01*
X119104819Y-105333332D02*
X119104819Y-104714285D01*
X104286905Y-100804819D02*
X104286905Y-99804819D01*
X104286905Y-99804819D02*
X104525000Y-99804819D01*
X104525000Y-99804819D02*
X104667857Y-99852438D01*
X104667857Y-99852438D02*
X104763095Y-99947676D01*
X104763095Y-99947676D02*
X104810714Y-100042914D01*
X104810714Y-100042914D02*
X104858333Y-100233390D01*
X104858333Y-100233390D02*
X104858333Y-100376247D01*
X104858333Y-100376247D02*
X104810714Y-100566723D01*
X104810714Y-100566723D02*
X104763095Y-100661961D01*
X104763095Y-100661961D02*
X104667857Y-100757200D01*
X104667857Y-100757200D02*
X104525000Y-100804819D01*
X104525000Y-100804819D02*
X104286905Y-100804819D01*
X105810714Y-100804819D02*
X105239286Y-100804819D01*
X105525000Y-100804819D02*
X105525000Y-99804819D01*
X105525000Y-99804819D02*
X105429762Y-99947676D01*
X105429762Y-99947676D02*
X105334524Y-100042914D01*
X105334524Y-100042914D02*
X105239286Y-100090533D01*
D10*
X120373095Y-76772419D02*
X120373095Y-77581942D01*
X120373095Y-77581942D02*
X120420714Y-77677180D01*
X120420714Y-77677180D02*
X120468333Y-77724800D01*
X120468333Y-77724800D02*
X120563571Y-77772419D01*
X120563571Y-77772419D02*
X120754047Y-77772419D01*
X120754047Y-77772419D02*
X120849285Y-77724800D01*
X120849285Y-77724800D02*
X120896904Y-77677180D01*
X120896904Y-77677180D02*
X120944523Y-77581942D01*
X120944523Y-77581942D02*
X120944523Y-76772419D01*
X121325476Y-76772419D02*
X121944523Y-76772419D01*
X121944523Y-76772419D02*
X121611190Y-77153371D01*
X121611190Y-77153371D02*
X121754047Y-77153371D01*
X121754047Y-77153371D02*
X121849285Y-77200990D01*
X121849285Y-77200990D02*
X121896904Y-77248609D01*
X121896904Y-77248609D02*
X121944523Y-77343847D01*
X121944523Y-77343847D02*
X121944523Y-77581942D01*
X121944523Y-77581942D02*
X121896904Y-77677180D01*
X121896904Y-77677180D02*
X121849285Y-77724800D01*
X121849285Y-77724800D02*
X121754047Y-77772419D01*
X121754047Y-77772419D02*
X121468333Y-77772419D01*
X121468333Y-77772419D02*
X121373095Y-77724800D01*
X121373095Y-77724800D02*
X121325476Y-77677180D01*
D11*
X129214285Y-107031009D02*
X129357142Y-107078628D01*
X129357142Y-107078628D02*
X129404761Y-107126247D01*
X129404761Y-107126247D02*
X129452380Y-107221485D01*
X129452380Y-107221485D02*
X129452380Y-107364342D01*
X129452380Y-107364342D02*
X129404761Y-107459580D01*
X129404761Y-107459580D02*
X129357142Y-107507200D01*
X129357142Y-107507200D02*
X129261904Y-107554819D01*
X129261904Y-107554819D02*
X128880952Y-107554819D01*
X128880952Y-107554819D02*
X128880952Y-106554819D01*
X128880952Y-106554819D02*
X129214285Y-106554819D01*
X129214285Y-106554819D02*
X129309523Y-106602438D01*
X129309523Y-106602438D02*
X129357142Y-106650057D01*
X129357142Y-106650057D02*
X129404761Y-106745295D01*
X129404761Y-106745295D02*
X129404761Y-106840533D01*
X129404761Y-106840533D02*
X129357142Y-106935771D01*
X129357142Y-106935771D02*
X129309523Y-106983390D01*
X129309523Y-106983390D02*
X129214285Y-107031009D01*
X129214285Y-107031009D02*
X128880952Y-107031009D01*
X129738095Y-106554819D02*
X130309523Y-106554819D01*
X130023809Y-107554819D02*
X130023809Y-106554819D01*
X131166666Y-107554819D02*
X130595238Y-107554819D01*
X130880952Y-107554819D02*
X130880952Y-106554819D01*
X130880952Y-106554819D02*
X130785714Y-106697676D01*
X130785714Y-106697676D02*
X130690476Y-106792914D01*
X130690476Y-106792914D02*
X130595238Y-106840533D01*
X109019819Y-104636904D02*
X109829342Y-104636904D01*
X109829342Y-104636904D02*
X109924580Y-104589285D01*
X109924580Y-104589285D02*
X109972200Y-104541666D01*
X109972200Y-104541666D02*
X110019819Y-104446428D01*
X110019819Y-104446428D02*
X110019819Y-104255952D01*
X110019819Y-104255952D02*
X109972200Y-104160714D01*
X109972200Y-104160714D02*
X109924580Y-104113095D01*
X109924580Y-104113095D02*
X109829342Y-104065476D01*
X109829342Y-104065476D02*
X109019819Y-104065476D01*
X110019819Y-103065476D02*
X110019819Y-103636904D01*
X110019819Y-103351190D02*
X109019819Y-103351190D01*
X109019819Y-103351190D02*
X109162676Y-103446428D01*
X109162676Y-103446428D02*
X109257914Y-103541666D01*
X109257914Y-103541666D02*
X109305533Y-103636904D01*
X103804819Y-89666666D02*
X103328628Y-89999999D01*
X103804819Y-90238094D02*
X102804819Y-90238094D01*
X102804819Y-90238094D02*
X102804819Y-89857142D01*
X102804819Y-89857142D02*
X102852438Y-89761904D01*
X102852438Y-89761904D02*
X102900057Y-89714285D01*
X102900057Y-89714285D02*
X102995295Y-89666666D01*
X102995295Y-89666666D02*
X103138152Y-89666666D01*
X103138152Y-89666666D02*
X103233390Y-89714285D01*
X103233390Y-89714285D02*
X103281009Y-89761904D01*
X103281009Y-89761904D02*
X103328628Y-89857142D01*
X103328628Y-89857142D02*
X103328628Y-90238094D01*
X102804819Y-89333332D02*
X102804819Y-88714285D01*
X102804819Y-88714285D02*
X103185771Y-89047618D01*
X103185771Y-89047618D02*
X103185771Y-88904761D01*
X103185771Y-88904761D02*
X103233390Y-88809523D01*
X103233390Y-88809523D02*
X103281009Y-88761904D01*
X103281009Y-88761904D02*
X103376247Y-88714285D01*
X103376247Y-88714285D02*
X103614342Y-88714285D01*
X103614342Y-88714285D02*
X103709580Y-88761904D01*
X103709580Y-88761904D02*
X103757200Y-88809523D01*
X103757200Y-88809523D02*
X103804819Y-88904761D01*
X103804819Y-88904761D02*
X103804819Y-89190475D01*
X103804819Y-89190475D02*
X103757200Y-89285713D01*
X103757200Y-89285713D02*
X103709580Y-89333332D01*
X110527200Y-115333332D02*
X110574819Y-115190475D01*
X110574819Y-115190475D02*
X110574819Y-114952380D01*
X110574819Y-114952380D02*
X110527200Y-114857142D01*
X110527200Y-114857142D02*
X110479580Y-114809523D01*
X110479580Y-114809523D02*
X110384342Y-114761904D01*
X110384342Y-114761904D02*
X110289104Y-114761904D01*
X110289104Y-114761904D02*
X110193866Y-114809523D01*
X110193866Y-114809523D02*
X110146247Y-114857142D01*
X110146247Y-114857142D02*
X110098628Y-114952380D01*
X110098628Y-114952380D02*
X110051009Y-115142856D01*
X110051009Y-115142856D02*
X110003390Y-115238094D01*
X110003390Y-115238094D02*
X109955771Y-115285713D01*
X109955771Y-115285713D02*
X109860533Y-115333332D01*
X109860533Y-115333332D02*
X109765295Y-115333332D01*
X109765295Y-115333332D02*
X109670057Y-115285713D01*
X109670057Y-115285713D02*
X109622438Y-115238094D01*
X109622438Y-115238094D02*
X109574819Y-115142856D01*
X109574819Y-115142856D02*
X109574819Y-114904761D01*
X109574819Y-114904761D02*
X109622438Y-114761904D01*
X109574819Y-114428570D02*
X110574819Y-114190475D01*
X110574819Y-114190475D02*
X109860533Y-113999999D01*
X109860533Y-113999999D02*
X110574819Y-113809523D01*
X110574819Y-113809523D02*
X109574819Y-113571428D01*
X109670057Y-113238094D02*
X109622438Y-113190475D01*
X109622438Y-113190475D02*
X109574819Y-113095237D01*
X109574819Y-113095237D02*
X109574819Y-112857142D01*
X109574819Y-112857142D02*
X109622438Y-112761904D01*
X109622438Y-112761904D02*
X109670057Y-112714285D01*
X109670057Y-112714285D02*
X109765295Y-112666666D01*
X109765295Y-112666666D02*
X109860533Y-112666666D01*
X109860533Y-112666666D02*
X110003390Y-112714285D01*
X110003390Y-112714285D02*
X110574819Y-113285713D01*
X110574819Y-113285713D02*
X110574819Y-112666666D01*
X99166666Y-86184819D02*
X99166666Y-86899104D01*
X99166666Y-86899104D02*
X99119047Y-87041961D01*
X99119047Y-87041961D02*
X99023809Y-87137200D01*
X99023809Y-87137200D02*
X98880952Y-87184819D01*
X98880952Y-87184819D02*
X98785714Y-87184819D01*
X99595238Y-86280057D02*
X99642857Y-86232438D01*
X99642857Y-86232438D02*
X99738095Y-86184819D01*
X99738095Y-86184819D02*
X99976190Y-86184819D01*
X99976190Y-86184819D02*
X100071428Y-86232438D01*
X100071428Y-86232438D02*
X100119047Y-86280057D01*
X100119047Y-86280057D02*
X100166666Y-86375295D01*
X100166666Y-86375295D02*
X100166666Y-86470533D01*
X100166666Y-86470533D02*
X100119047Y-86613390D01*
X100119047Y-86613390D02*
X99547619Y-87184819D01*
X99547619Y-87184819D02*
X100166666Y-87184819D01*
X103804819Y-93666666D02*
X103328628Y-93999999D01*
X103804819Y-94238094D02*
X102804819Y-94238094D01*
X102804819Y-94238094D02*
X102804819Y-93857142D01*
X102804819Y-93857142D02*
X102852438Y-93761904D01*
X102852438Y-93761904D02*
X102900057Y-93714285D01*
X102900057Y-93714285D02*
X102995295Y-93666666D01*
X102995295Y-93666666D02*
X103138152Y-93666666D01*
X103138152Y-93666666D02*
X103233390Y-93714285D01*
X103233390Y-93714285D02*
X103281009Y-93761904D01*
X103281009Y-93761904D02*
X103328628Y-93857142D01*
X103328628Y-93857142D02*
X103328628Y-94238094D01*
X103138152Y-92809523D02*
X103804819Y-92809523D01*
X102757200Y-93047618D02*
X103471485Y-93285713D01*
X103471485Y-93285713D02*
X103471485Y-92666666D01*
X104833333Y-104804819D02*
X104500000Y-104328628D01*
X104261905Y-104804819D02*
X104261905Y-103804819D01*
X104261905Y-103804819D02*
X104642857Y-103804819D01*
X104642857Y-103804819D02*
X104738095Y-103852438D01*
X104738095Y-103852438D02*
X104785714Y-103900057D01*
X104785714Y-103900057D02*
X104833333Y-103995295D01*
X104833333Y-103995295D02*
X104833333Y-104138152D01*
X104833333Y-104138152D02*
X104785714Y-104233390D01*
X104785714Y-104233390D02*
X104738095Y-104281009D01*
X104738095Y-104281009D02*
X104642857Y-104328628D01*
X104642857Y-104328628D02*
X104261905Y-104328628D01*
X105785714Y-104804819D02*
X105214286Y-104804819D01*
X105500000Y-104804819D02*
X105500000Y-103804819D01*
X105500000Y-103804819D02*
X105404762Y-103947676D01*
X105404762Y-103947676D02*
X105309524Y-104042914D01*
X105309524Y-104042914D02*
X105214286Y-104090533D01*
D12*
%TO.C,R2*%
X116265000Y-105272936D02*
X116265000Y-105727064D01*
X117735000Y-105272936D02*
X117735000Y-105727064D01*
%TO.C,D1*%
X103165000Y-101040000D02*
X103165000Y-102960000D01*
X103165000Y-102960000D02*
X106025000Y-102960000D01*
X106025000Y-101040000D02*
X103165000Y-101040000D01*
D10*
%TO.C,U3*%
X116055000Y-81355000D02*
X116055000Y-85165000D01*
X116055000Y-85165000D02*
X123675000Y-85165000D01*
X120881000Y-107771000D02*
X123929000Y-107771000D01*
X120881000Y-110819000D02*
X120881000Y-107771000D01*
X121389000Y-111327000D02*
X123421000Y-111327000D01*
X121897000Y-111835000D02*
X122913000Y-111835000D01*
X123675000Y-85165000D02*
X123675000Y-81355000D01*
X123929000Y-107771000D02*
X123929000Y-110819000D01*
X123929000Y-110819000D02*
X120881000Y-110819000D01*
D12*
%TO.C,BT1*%
X126640000Y-107890000D02*
X126640000Y-109140000D01*
X126940000Y-109500000D02*
X127550000Y-109500000D01*
X126940000Y-110800000D02*
X127550000Y-110800000D01*
X127550000Y-108800000D02*
X127550000Y-112300000D01*
X127550000Y-112300000D02*
X132450000Y-112300000D01*
X127890000Y-107890000D02*
X126640000Y-107890000D01*
X128400000Y-107990000D02*
X128400000Y-108190000D01*
X128700000Y-107990000D02*
X128400000Y-107990000D01*
X128700000Y-108090000D02*
X128400000Y-108090000D01*
X128700000Y-108190000D02*
X128700000Y-107990000D01*
X129500000Y-108190000D02*
X129500000Y-108800000D01*
X129500000Y-108800000D02*
X127550000Y-108800000D01*
X129900000Y-111800000D02*
X130100000Y-111800000D01*
X129900000Y-112300000D02*
X129900000Y-111800000D01*
X130000000Y-112300000D02*
X130000000Y-111800000D01*
X130100000Y-111800000D02*
X130100000Y-112300000D01*
X130500000Y-108800000D02*
X130500000Y-108190000D01*
X132450000Y-108800000D02*
X130500000Y-108800000D01*
X132450000Y-112300000D02*
X132450000Y-108800000D01*
X133060000Y-109500000D02*
X132450000Y-109500000D01*
X133060000Y-110800000D02*
X132450000Y-110800000D01*
X126940000Y-108190000D02*
X133060000Y-108190000D01*
X133060000Y-112910000D01*
X126940000Y-112910000D01*
X126940000Y-108190000D01*
D13*
%TO.C,U1*%
X111000000Y-102400000D02*
X112430000Y-102400000D01*
X113400000Y-106800000D02*
X111000000Y-106800000D01*
D14*
X114050000Y-103000000D02*
G75*
G02*
X113850000Y-103000000I-100000J0D01*
G01*
X113850000Y-103000000D02*
G75*
G02*
X114050000Y-103000000I100000J0D01*
G01*
D12*
%TO.C,R3*%
X104265000Y-89727064D02*
X104265000Y-89272936D01*
X105735000Y-89727064D02*
X105735000Y-89272936D01*
%TO.C,SW2*%
X111120000Y-115380000D02*
X111120000Y-114000000D01*
X112500000Y-115380000D02*
X111120000Y-115380000D01*
X113770000Y-112620000D02*
X118960000Y-112620000D01*
X113770000Y-115380000D02*
X113770000Y-112620000D01*
X113770000Y-115380000D02*
X118960000Y-115380000D01*
X118960000Y-115380000D02*
X118960000Y-112620000D01*
%TO.C,J2*%
X98170000Y-90770000D02*
X98170000Y-103530000D01*
X98170000Y-90770000D02*
X100830000Y-90770000D01*
X98170000Y-103530000D02*
X100830000Y-103530000D01*
X99500000Y-88170000D02*
X100830000Y-88170000D01*
X100830000Y-88170000D02*
X100830000Y-89500000D01*
X100830000Y-90770000D02*
X100830000Y-103530000D01*
%TO.C,R4*%
X104265000Y-93727064D02*
X104265000Y-93272936D01*
X105735000Y-93727064D02*
X105735000Y-93272936D01*
%TO.C,R1*%
X104772936Y-105265000D02*
X105227064Y-105265000D01*
X104772936Y-106735000D02*
X105227064Y-106735000D01*
%TD*%
M02*
