M48
; DRILL file {KiCad 9.0.7} date 2026-02-16T17:44:48-0800
; FORMAT={-:-/ absolute / metric / decimal}
; #@! TF.CreationDate,2026-02-16T17:44:48-08:00
; #@! TF.GenerationSoftware,Kicad,Pcbnew,9.0.7
; #@! TF.FileFunction,Plated,1,2,PTH
FMAT,2
METRIC
; #@! TA.AperFunction,Plated,PTH,ViaDrill
T1C0.254
; #@! TA.AperFunction,Plated,PTH,ComponentDrill
T2C0.750
; #@! TA.AperFunction,Plated,PTH,ComponentDrill
T3C1.000
; #@! TA.AperFunction,Plated,PTH,ComponentDrill
T4C1.016
%
G90
G05
T1
X105.0Y-96.0
X107.0Y-92.0
X107.5Y-96.5
X110.0Y-102.0
X119.5Y-105.5
T2
X129.0Y-110.0
X131.0Y-110.0
T3
X99.5Y-89.5
X99.5Y-92.04
X99.5Y-94.58
X99.5Y-97.12
X99.5Y-99.66
X99.5Y-102.2
X112.5Y-114.0
X115.04Y-114.0
X117.58Y-114.0
T4
X112.245Y-83.895
X112.245Y-86.435
X112.245Y-88.975
X112.245Y-91.515
X112.245Y-94.055
X112.245Y-96.595
X112.245Y-99.135
X117.325Y-109.295
X122.405Y-109.295
X127.485Y-83.895
X127.485Y-86.435
X127.485Y-88.975
X127.485Y-91.515
X127.485Y-94.055
X127.485Y-96.595
X127.485Y-99.135
M30
