%TF.GenerationSoftware,KiCad,Pcbnew,9.0.7*%
%TF.CreationDate,2026-03-12T00:26:40-07:00*%
%TF.ProjectId,Schematics_display_deviceV3,53636865-6d61-4746-9963-735f64697370,rev?*%
%TF.SameCoordinates,Original*%
%TF.FileFunction,Copper,L2,Bot*%
%TF.FilePolarity,Positive*%
%FSLAX46Y46*%
G04 Gerber Fmt 4.6, Leading zero omitted, Abs format (unit mm)*
G04 Created by KiCad (PCBNEW 9.0.7) date 2026-03-12 00:26:40*
%MOMM*%
%LPD*%
G01*
G04 APERTURE LIST*
G04 Aperture macros list*
%AMRoundRect*
0 Rectangle with rounded corners*
0 $1 Rounding radius*
0 $2 $3 $4 $5 $6 $7 $8 $9 X,Y pos of 4 corners*
0 Add a 4 corners polygon primitive as box body*
4,1,4,$2,$3,$4,$5,$6,$7,$8,$9,$2,$3,0*
0 Add four circle primitives for the rounded corners*
1,1,$1+$1,$2,$3*
1,1,$1+$1,$4,$5*
1,1,$1+$1,$6,$7*
1,1,$1+$1,$8,$9*
0 Add four rect primitives between the rounded corners*
20,1,$1+$1,$2,$3,$4,$5,0*
20,1,$1+$1,$4,$5,$6,$7,0*
20,1,$1+$1,$6,$7,$8,$9,0*
20,1,$1+$1,$8,$9,$2,$3,0*%
G04 Aperture macros list end*
%TA.AperFunction,ComponentPad*%
%ADD10O,1.778000X3.556000*%
%TD*%
%TA.AperFunction,ComponentPad*%
%ADD11C,1.905000*%
%TD*%
%TA.AperFunction,ComponentPad*%
%ADD12C,1.700000*%
%TD*%
%TA.AperFunction,ComponentPad*%
%ADD13R,1.700000X1.700000*%
%TD*%
%TA.AperFunction,ComponentPad*%
%ADD14O,1.200000X1.750000*%
%TD*%
%TA.AperFunction,ComponentPad*%
%ADD15RoundRect,0.250000X0.350000X0.625000X-0.350000X0.625000X-0.350000X-0.625000X0.350000X-0.625000X0*%
%TD*%
%TA.AperFunction,ViaPad*%
%ADD16C,0.600000*%
%TD*%
%TA.AperFunction,Conductor*%
%ADD17C,0.508000*%
%TD*%
G04 APERTURE END LIST*
D10*
%TO.P,U1,1,GPIO1_A0_D0*%
%TO.N,/D0*%
X47500000Y-66873000D03*
%TO.P,U1,2,GPIO2_A1_D1*%
%TO.N,/D1*%
X50040000Y-66873000D03*
%TO.P,U1,3,GPIO3_A2_D2*%
%TO.N,/D2*%
X52580000Y-66873000D03*
%TO.P,U1,4,GPIO4_A3_D3*%
%TO.N,/D3*%
X55120000Y-66873000D03*
%TO.P,U1,5,GPIO4_A3_D3_SDA*%
%TO.N,/SDA*%
X57660000Y-66873000D03*
%TO.P,U1,6,GPIO6_A5_D5_SCL*%
%TO.N,/SCL*%
X60200000Y-66873000D03*
%TO.P,U1,7,GPIO43_TX_D6*%
%TO.N,/D6*%
X62740000Y-66873000D03*
%TO.P,U1,8,GPIO44_D7_RX*%
%TO.N,/D7*%
X62740000Y-83637000D03*
%TO.P,U1,9,GPIO7_A8_D8_SCK*%
%TO.N,unconnected-(U1-GPIO7_A8_D8_SCK-Pad9)*%
X60200000Y-83637000D03*
%TO.P,U1,10,GPIO8_A9_D9_CIPO*%
%TO.N,unconnected-(U1-GPIO8_A9_D9_CIPO-Pad10)*%
X57660000Y-83637000D03*
%TO.P,U1,11,GPIO9_A10_D10_COPI*%
%TO.N,unconnected-(U1-GPIO9_A10_D10_COPI-Pad11)*%
X55120000Y-83637000D03*
%TO.P,U1,12,3V3*%
%TO.N,+3V3*%
X52580000Y-83637000D03*
%TO.P,U1,13,GND*%
%TO.N,GND*%
X50040000Y-83637000D03*
%TO.P,U1,14,5V*%
%TO.N,unconnected-(U1-5V-Pad14)*%
X47500000Y-83637000D03*
D11*
%TO.P,U1,15,+BATT*%
%TO.N,+BATT*%
X72900000Y-72715000D03*
%TO.P,U1,16,-BATT*%
%TO.N,-BATT*%
X72900000Y-77795000D03*
%TD*%
D12*
%TO.P,SW2,3,C*%
%TO.N,unconnected-(SW2-C-Pad3)*%
X94500000Y-77500000D03*
%TO.P,SW2,2,B*%
%TO.N,Net-(BT1-+)*%
X94500000Y-74960000D03*
D13*
%TO.P,SW2,1,A*%
%TO.N,+BATT*%
X94500000Y-72420000D03*
%TD*%
D12*
%TO.P,M1,1*%
%TO.N,/D0*%
X61570000Y-45810000D03*
%TO.P,M1,2,-*%
%TO.N,/D1*%
X61570000Y-38190000D03*
%TO.P,M1,3*%
%TO.N,/D2*%
X84430000Y-38190000D03*
%TO.P,M1,4*%
%TO.N,/D3*%
X84430000Y-45810000D03*
%TD*%
D14*
%TO.P,BT1,2,-*%
%TO.N,-BATT*%
X77000000Y-85875000D03*
D15*
%TO.P,BT1,1,+*%
%TO.N,Net-(BT1-+)*%
X79000000Y-85875000D03*
%TD*%
D13*
%TO.P,J1,1,Pin_1*%
%TO.N,/SDA*%
X49500000Y-96500000D03*
D12*
%TO.P,J1,2,Pin_2*%
%TO.N,/SCL*%
X49500000Y-99040000D03*
%TO.P,J1,3,Pin_3*%
%TO.N,+3V3*%
X49500000Y-101580000D03*
%TO.P,J1,4,Pin_4*%
%TO.N,GND*%
X49500000Y-104120000D03*
%TD*%
D16*
%TO.N,/SCL*%
X65500000Y-95000000D03*
%TO.N,/SDA*%
X62500000Y-90500000D03*
%TO.N,/SCL*%
X63500000Y-70500000D03*
%TO.N,/SDA*%
X59500000Y-72000000D03*
%TO.N,/D0*%
X47500000Y-54500000D03*
X56500000Y-50500000D03*
%TD*%
D17*
%TO.N,/SCL*%
X65500000Y-95000000D02*
X69000000Y-91500000D01*
%TO.N,/SDA*%
X67000000Y-77000000D02*
X62000000Y-72000000D01*
X62000000Y-72000000D02*
X59500000Y-72000000D01*
X67000000Y-86000000D02*
X67000000Y-77000000D01*
X62500000Y-90500000D02*
X67000000Y-86000000D01*
%TO.N,/SCL*%
X69000000Y-76000000D02*
X63500000Y-70500000D01*
X69000000Y-91500000D02*
X69000000Y-76000000D01*
%TO.N,/D0*%
X56500000Y-50500000D02*
X51500000Y-50500000D01*
X51500000Y-50500000D02*
X47500000Y-54500000D01*
%TD*%
%TA.AperFunction,Conductor*%
%TO.N,GND*%
G36*
X96694625Y-26020185D02*
G01*
X96740380Y-26072989D01*
X96750324Y-26142147D01*
X96725961Y-26199987D01*
X96583075Y-26386196D01*
X96451958Y-26613299D01*
X96451953Y-26613309D01*
X96351605Y-26855571D01*
X96351602Y-26855581D01*
X96283730Y-27108885D01*
X96249500Y-27368872D01*
X96249500Y-27631127D01*
X96270436Y-27790140D01*
X96283730Y-27891116D01*
X96305178Y-27971161D01*
X96351602Y-28144418D01*
X96351605Y-28144428D01*
X96451953Y-28386690D01*
X96451958Y-28386700D01*
X96583075Y-28613803D01*
X96742718Y-28821851D01*
X96742726Y-28821860D01*
X96928140Y-29007274D01*
X96928148Y-29007281D01*
X97136196Y-29166924D01*
X97363299Y-29298041D01*
X97363309Y-29298046D01*
X97605571Y-29398394D01*
X97605581Y-29398398D01*
X97858884Y-29466270D01*
X98118880Y-29500500D01*
X98118887Y-29500500D01*
X98381113Y-29500500D01*
X98381120Y-29500500D01*
X98641116Y-29466270D01*
X98894419Y-29398398D01*
X99136697Y-29298043D01*
X99363803Y-29166924D01*
X99550015Y-29024036D01*
X99615182Y-28998843D01*
X99683627Y-29012881D01*
X99733617Y-29061694D01*
X99749500Y-29122413D01*
X99749500Y-126877586D01*
X99729815Y-126944625D01*
X99677011Y-126990380D01*
X99607853Y-127000324D01*
X99550013Y-126975961D01*
X99363803Y-126833075D01*
X99136700Y-126701958D01*
X99136690Y-126701953D01*
X98894428Y-126601605D01*
X98894421Y-126601603D01*
X98894419Y-126601602D01*
X98641116Y-126533730D01*
X98583339Y-126526123D01*
X98381127Y-126499500D01*
X98381120Y-126499500D01*
X98118880Y-126499500D01*
X98118872Y-126499500D01*
X97887772Y-126529926D01*
X97858884Y-126533730D01*
X97605581Y-126601602D01*
X97605571Y-126601605D01*
X97363309Y-126701953D01*
X97363299Y-126701958D01*
X97136196Y-126833075D01*
X96928148Y-126992718D01*
X96742718Y-127178148D01*
X96583075Y-127386196D01*
X96451958Y-127613299D01*
X96451953Y-127613309D01*
X96351605Y-127855571D01*
X96351602Y-127855581D01*
X96283730Y-128108885D01*
X96249500Y-128368872D01*
X96249500Y-128631127D01*
X96270436Y-128790140D01*
X96283730Y-128891116D01*
X96305178Y-128971161D01*
X96351602Y-129144418D01*
X96351605Y-129144428D01*
X96451953Y-129386690D01*
X96451958Y-129386700D01*
X96583075Y-129613803D01*
X96725961Y-129800013D01*
X96751156Y-129865182D01*
X96737118Y-129933627D01*
X96688304Y-129983617D01*
X96627586Y-129999500D01*
X48622414Y-129999500D01*
X48555375Y-129979815D01*
X48509620Y-129927011D01*
X48499676Y-129857853D01*
X48524039Y-129800013D01*
X48666924Y-129613803D01*
X48798041Y-129386700D01*
X48798046Y-129386690D01*
X48898394Y-129144428D01*
X48898398Y-129144419D01*
X48966270Y-128891116D01*
X49000500Y-128631120D01*
X49000500Y-128368880D01*
X48966270Y-128108884D01*
X48898398Y-127855581D01*
X48800204Y-127618520D01*
X48798046Y-127613309D01*
X48798041Y-127613299D01*
X48666924Y-127386196D01*
X48507281Y-127178148D01*
X48507274Y-127178140D01*
X48321860Y-126992726D01*
X48321851Y-126992718D01*
X48113803Y-126833075D01*
X47886700Y-126701958D01*
X47886690Y-126701953D01*
X47644428Y-126601605D01*
X47644421Y-126601603D01*
X47644419Y-126601602D01*
X47391116Y-126533730D01*
X47333339Y-126526123D01*
X47131127Y-126499500D01*
X47131120Y-126499500D01*
X46868880Y-126499500D01*
X46868872Y-126499500D01*
X46637772Y-126529926D01*
X46608884Y-126533730D01*
X46355581Y-126601602D01*
X46355571Y-126601605D01*
X46113309Y-126701953D01*
X46113299Y-126701958D01*
X45886196Y-126833075D01*
X45699987Y-126975961D01*
X45634818Y-127001156D01*
X45566373Y-126987118D01*
X45516383Y-126938304D01*
X45500500Y-126877586D01*
X45500500Y-95602135D01*
X48149500Y-95602135D01*
X48149500Y-97397870D01*
X48149501Y-97397876D01*
X48155908Y-97457483D01*
X48206202Y-97592328D01*
X48206206Y-97592335D01*
X48292452Y-97707544D01*
X48292455Y-97707547D01*
X48407664Y-97793793D01*
X48407671Y-97793797D01*
X48539082Y-97842810D01*
X48595016Y-97884681D01*
X48619433Y-97950145D01*
X48604582Y-98018418D01*
X48583431Y-98046673D01*
X48469889Y-98160215D01*
X48344951Y-98332179D01*
X48248444Y-98521585D01*
X48182753Y-98723760D01*
X48149500Y-98933713D01*
X48149500Y-99146286D01*
X48182753Y-99356239D01*
X48248444Y-99558414D01*
X48344951Y-99747820D01*
X48469890Y-99919786D01*
X48620213Y-100070109D01*
X48792182Y-100195050D01*
X48800946Y-100199516D01*
X48851742Y-100247491D01*
X48868536Y-100315312D01*
X48845998Y-100381447D01*
X48800946Y-100420484D01*
X48792182Y-100424949D01*
X48620213Y-100549890D01*
X48469890Y-100700213D01*
X48344951Y-100872179D01*
X48248444Y-101061585D01*
X48182753Y-101263760D01*
X48149500Y-101473713D01*
X48149500Y-101686286D01*
X48182753Y-101896239D01*
X48248444Y-102098414D01*
X48344951Y-102287820D01*
X48469890Y-102459786D01*
X48620213Y-102610109D01*
X48792179Y-102735048D01*
X48792181Y-102735049D01*
X48792184Y-102735051D01*
X48801493Y-102739794D01*
X48852290Y-102787766D01*
X48869087Y-102855587D01*
X48846552Y-102921722D01*
X48801505Y-102960760D01*
X48792446Y-102965376D01*
X48792440Y-102965380D01*
X48738282Y-103004727D01*
X48738282Y-103004728D01*
X49370591Y-103637037D01*
X49307007Y-103654075D01*
X49192993Y-103719901D01*
X49099901Y-103812993D01*
X49034075Y-103927007D01*
X49017037Y-103990591D01*
X48384728Y-103358282D01*
X48384727Y-103358282D01*
X48345380Y-103412439D01*
X48248904Y-103601782D01*
X48183242Y-103803869D01*
X48183242Y-103803872D01*
X48150000Y-104013753D01*
X48150000Y-104226246D01*
X48183242Y-104436127D01*
X48183242Y-104436130D01*
X48248904Y-104638217D01*
X48345375Y-104827550D01*
X48384728Y-104881716D01*
X49017037Y-104249408D01*
X49034075Y-104312993D01*
X49099901Y-104427007D01*
X49192993Y-104520099D01*
X49307007Y-104585925D01*
X49370590Y-104602962D01*
X48738282Y-105235269D01*
X48738282Y-105235270D01*
X48792449Y-105274624D01*
X48981782Y-105371095D01*
X49183870Y-105436757D01*
X49393754Y-105470000D01*
X49606246Y-105470000D01*
X49816127Y-105436757D01*
X49816130Y-105436757D01*
X50018217Y-105371095D01*
X50207554Y-105274622D01*
X50261716Y-105235270D01*
X50261717Y-105235270D01*
X49629408Y-104602962D01*
X49692993Y-104585925D01*
X49807007Y-104520099D01*
X49900099Y-104427007D01*
X49965925Y-104312993D01*
X49982962Y-104249409D01*
X50615270Y-104881717D01*
X50615270Y-104881716D01*
X50654622Y-104827554D01*
X50751095Y-104638217D01*
X50816757Y-104436130D01*
X50816757Y-104436127D01*
X50850000Y-104226246D01*
X50850000Y-104013753D01*
X50816757Y-103803872D01*
X50816757Y-103803869D01*
X50751095Y-103601782D01*
X50654624Y-103412449D01*
X50615270Y-103358282D01*
X50615269Y-103358282D01*
X49982962Y-103990590D01*
X49965925Y-103927007D01*
X49900099Y-103812993D01*
X49807007Y-103719901D01*
X49692993Y-103654075D01*
X49629409Y-103637037D01*
X50261716Y-103004728D01*
X50207547Y-102965373D01*
X50207547Y-102965372D01*
X50198500Y-102960763D01*
X50147706Y-102912788D01*
X50130912Y-102844966D01*
X50153451Y-102778832D01*
X50198508Y-102739793D01*
X50207816Y-102735051D01*
X50287007Y-102677515D01*
X50379786Y-102610109D01*
X50379788Y-102610106D01*
X50379792Y-102610104D01*
X50530104Y-102459792D01*
X50530106Y-102459788D01*
X50530109Y-102459786D01*
X50655048Y-102287820D01*
X50655047Y-102287820D01*
X50655051Y-102287816D01*
X50751557Y-102098412D01*
X50817246Y-101896243D01*
X50850500Y-101686287D01*
X50850500Y-101473713D01*
X50817246Y-101263757D01*
X50751557Y-101061588D01*
X50655051Y-100872184D01*
X50655049Y-100872181D01*
X50655048Y-100872179D01*
X50530109Y-100700213D01*
X50379786Y-100549890D01*
X50207820Y-100424951D01*
X50207115Y-100424591D01*
X50199054Y-100420485D01*
X50148259Y-100372512D01*
X50131463Y-100304692D01*
X50153999Y-100238556D01*
X50199054Y-100199515D01*
X50207816Y-100195051D01*
X50229789Y-100179086D01*
X50379786Y-100070109D01*
X50379788Y-100070106D01*
X50379792Y-100070104D01*
X50530104Y-99919792D01*
X50530106Y-99919788D01*
X50530109Y-99919786D01*
X50655048Y-99747820D01*
X50655047Y-99747820D01*
X50655051Y-99747816D01*
X50751557Y-99558412D01*
X50817246Y-99356243D01*
X50850500Y-99146287D01*
X50850500Y-98933713D01*
X50817246Y-98723757D01*
X50751557Y-98521588D01*
X50655051Y-98332184D01*
X50655049Y-98332181D01*
X50655048Y-98332179D01*
X50530109Y-98160213D01*
X50416569Y-98046673D01*
X50383084Y-97985350D01*
X50388068Y-97915658D01*
X50429940Y-97859725D01*
X50460915Y-97842810D01*
X50592331Y-97793796D01*
X50707546Y-97707546D01*
X50793796Y-97592331D01*
X50844091Y-97457483D01*
X50850500Y-97397873D01*
X50850499Y-95602128D01*
X50844091Y-95542517D01*
X50832070Y-95510288D01*
X50793797Y-95407671D01*
X50793793Y-95407664D01*
X50707547Y-95292455D01*
X50707544Y-95292452D01*
X50592335Y-95206206D01*
X50592328Y-95206202D01*
X50457482Y-95155908D01*
X50457483Y-95155908D01*
X50397883Y-95149501D01*
X50397881Y-95149500D01*
X50397873Y-95149500D01*
X50397864Y-95149500D01*
X48602129Y-95149500D01*
X48602123Y-95149501D01*
X48542516Y-95155908D01*
X48407671Y-95206202D01*
X48407664Y-95206206D01*
X48292455Y-95292452D01*
X48292452Y-95292455D01*
X48206206Y-95407664D01*
X48206202Y-95407671D01*
X48155908Y-95542517D01*
X48149501Y-95602116D01*
X48149501Y-95602123D01*
X48149500Y-95602135D01*
X45500500Y-95602135D01*
X45500500Y-82638638D01*
X46110500Y-82638638D01*
X46110500Y-84635361D01*
X46144714Y-84851376D01*
X46212297Y-85059380D01*
X46212298Y-85059383D01*
X46272511Y-85177555D01*
X46299722Y-85230960D01*
X46311595Y-85254260D01*
X46440142Y-85431193D01*
X46594806Y-85585857D01*
X46734674Y-85687475D01*
X46771743Y-85714407D01*
X46899132Y-85779315D01*
X46966616Y-85813701D01*
X46966619Y-85813702D01*
X47070621Y-85847493D01*
X47174625Y-85881286D01*
X47274672Y-85897132D01*
X47390639Y-85915500D01*
X47390644Y-85915500D01*
X47609361Y-85915500D01*
X47714082Y-85898912D01*
X47825375Y-85881286D01*
X48033383Y-85813701D01*
X48228257Y-85714407D01*
X48336022Y-85636112D01*
X48405193Y-85585857D01*
X48405195Y-85585854D01*
X48405199Y-85585852D01*
X48559852Y-85431199D01*
X48669991Y-85279603D01*
X48725320Y-85236939D01*
X48794933Y-85230960D01*
X48856729Y-85263565D01*
X48870627Y-85279605D01*
X48980524Y-85430866D01*
X48980528Y-85430871D01*
X49135128Y-85585471D01*
X49135133Y-85585475D01*
X49312001Y-85713976D01*
X49506808Y-85813237D01*
X49506811Y-85813238D01*
X49714739Y-85880797D01*
X49789999Y-85892717D01*
X49790000Y-85892717D01*
X49790000Y-83317251D01*
X49843919Y-83348381D01*
X49973120Y-83383000D01*
X50106880Y-83383000D01*
X50236081Y-83348381D01*
X50290000Y-83317251D01*
X50290000Y-85892717D01*
X50365258Y-85880797D01*
X50365261Y-85880797D01*
X50573188Y-85813238D01*
X50573191Y-85813237D01*
X50767998Y-85713976D01*
X50944866Y-85585475D01*
X50944871Y-85585471D01*
X51099469Y-85430873D01*
X51209371Y-85279605D01*
X51264701Y-85236939D01*
X51334314Y-85230960D01*
X51396110Y-85263565D01*
X51410008Y-85279605D01*
X51520142Y-85431192D01*
X51520146Y-85431197D01*
X51674806Y-85585857D01*
X51814674Y-85687475D01*
X51851743Y-85714407D01*
X51979132Y-85779315D01*
X52046616Y-85813701D01*
X52046619Y-85813702D01*
X52150621Y-85847493D01*
X52254625Y-85881286D01*
X52354672Y-85897132D01*
X52470639Y-85915500D01*
X52470644Y-85915500D01*
X52689361Y-85915500D01*
X52794082Y-85898912D01*
X52905375Y-85881286D01*
X53113383Y-85813701D01*
X53308257Y-85714407D01*
X53416022Y-85636112D01*
X53485193Y-85585857D01*
X53485195Y-85585854D01*
X53485199Y-85585852D01*
X53639852Y-85431199D01*
X53749683Y-85280028D01*
X53805011Y-85237364D01*
X53874624Y-85231385D01*
X53936420Y-85263990D01*
X53950313Y-85280023D01*
X54059906Y-85430866D01*
X54060148Y-85431199D01*
X54214806Y-85585857D01*
X54354674Y-85687475D01*
X54391743Y-85714407D01*
X54519132Y-85779315D01*
X54586616Y-85813701D01*
X54586619Y-85813702D01*
X54690621Y-85847493D01*
X54794625Y-85881286D01*
X54894672Y-85897132D01*
X55010639Y-85915500D01*
X55010644Y-85915500D01*
X55229361Y-85915500D01*
X55334082Y-85898912D01*
X55445375Y-85881286D01*
X55653383Y-85813701D01*
X55848257Y-85714407D01*
X55956022Y-85636112D01*
X56025193Y-85585857D01*
X56025195Y-85585854D01*
X56025199Y-85585852D01*
X56179852Y-85431199D01*
X56289683Y-85280028D01*
X56345011Y-85237364D01*
X56414624Y-85231385D01*
X56476420Y-85263990D01*
X56490313Y-85280023D01*
X56599906Y-85430866D01*
X56600148Y-85431199D01*
X56754806Y-85585857D01*
X56894674Y-85687475D01*
X56931743Y-85714407D01*
X57059132Y-85779315D01*
X57126616Y-85813701D01*
X57126619Y-85813702D01*
X57230621Y-85847493D01*
X57334625Y-85881286D01*
X57434672Y-85897132D01*
X57550639Y-85915500D01*
X57550644Y-85915500D01*
X57769361Y-85915500D01*
X57874082Y-85898912D01*
X57985375Y-85881286D01*
X58193383Y-85813701D01*
X58388257Y-85714407D01*
X58496022Y-85636112D01*
X58565193Y-85585857D01*
X58565195Y-85585854D01*
X58565199Y-85585852D01*
X58719852Y-85431199D01*
X58829683Y-85280028D01*
X58885011Y-85237364D01*
X58954624Y-85231385D01*
X59016420Y-85263990D01*
X59030313Y-85280023D01*
X59139906Y-85430866D01*
X59140148Y-85431199D01*
X59294806Y-85585857D01*
X59434674Y-85687475D01*
X59471743Y-85714407D01*
X59599132Y-85779315D01*
X59666616Y-85813701D01*
X59666619Y-85813702D01*
X59770621Y-85847493D01*
X59874625Y-85881286D01*
X59974672Y-85897132D01*
X60090639Y-85915500D01*
X60090644Y-85915500D01*
X60309361Y-85915500D01*
X60414082Y-85898912D01*
X60525375Y-85881286D01*
X60733383Y-85813701D01*
X60928257Y-85714407D01*
X61036022Y-85636112D01*
X61105193Y-85585857D01*
X61105195Y-85585854D01*
X61105199Y-85585852D01*
X61259852Y-85431199D01*
X61369683Y-85280028D01*
X61425011Y-85237364D01*
X61494624Y-85231385D01*
X61556420Y-85263990D01*
X61570313Y-85280023D01*
X61679906Y-85430866D01*
X61680148Y-85431199D01*
X61834806Y-85585857D01*
X61974674Y-85687475D01*
X62011743Y-85714407D01*
X62139132Y-85779315D01*
X62206616Y-85813701D01*
X62206619Y-85813702D01*
X62310621Y-85847493D01*
X62414625Y-85881286D01*
X62514672Y-85897132D01*
X62630639Y-85915500D01*
X62630644Y-85915500D01*
X62849361Y-85915500D01*
X62954082Y-85898912D01*
X63065375Y-85881286D01*
X63273383Y-85813701D01*
X63468257Y-85714407D01*
X63576022Y-85636112D01*
X63645193Y-85585857D01*
X63645195Y-85585854D01*
X63645199Y-85585852D01*
X63799852Y-85431199D01*
X63799854Y-85431195D01*
X63799857Y-85431193D01*
X63864441Y-85342299D01*
X63928407Y-85254257D01*
X64027701Y-85059383D01*
X64095286Y-84851375D01*
X64112912Y-84740082D01*
X64129500Y-84635361D01*
X64129500Y-82638638D01*
X64109595Y-82512971D01*
X64095286Y-82422625D01*
X64027701Y-82214617D01*
X64027701Y-82214616D01*
X63993315Y-82147132D01*
X63928407Y-82019743D01*
X63909681Y-81993969D01*
X63799857Y-81842806D01*
X63645193Y-81688142D01*
X63468260Y-81559595D01*
X63468259Y-81559594D01*
X63468257Y-81559593D01*
X63405825Y-81527782D01*
X63273383Y-81460298D01*
X63273380Y-81460297D01*
X63065376Y-81392714D01*
X62849361Y-81358500D01*
X62849356Y-81358500D01*
X62630644Y-81358500D01*
X62630639Y-81358500D01*
X62414623Y-81392714D01*
X62206619Y-81460297D01*
X62206616Y-81460298D01*
X62011739Y-81559595D01*
X61834806Y-81688142D01*
X61680142Y-81842806D01*
X61570318Y-81993969D01*
X61514989Y-82036635D01*
X61445375Y-82042614D01*
X61383580Y-82010009D01*
X61369682Y-81993969D01*
X61259857Y-81842806D01*
X61105193Y-81688142D01*
X60928260Y-81559595D01*
X60928259Y-81559594D01*
X60928257Y-81559593D01*
X60865825Y-81527782D01*
X60733383Y-81460298D01*
X60733380Y-81460297D01*
X60525376Y-81392714D01*
X60309361Y-81358500D01*
X60309356Y-81358500D01*
X60090644Y-81358500D01*
X60090639Y-81358500D01*
X59874623Y-81392714D01*
X59666619Y-81460297D01*
X59666616Y-81460298D01*
X59471739Y-81559595D01*
X59294806Y-81688142D01*
X59140142Y-81842806D01*
X59030318Y-81993969D01*
X58974989Y-82036635D01*
X58905375Y-82042614D01*
X58843580Y-82010009D01*
X58829682Y-81993969D01*
X58719857Y-81842806D01*
X58565193Y-81688142D01*
X58388260Y-81559595D01*
X58388259Y-81559594D01*
X58388257Y-81559593D01*
X58325825Y-81527782D01*
X58193383Y-81460298D01*
X58193380Y-81460297D01*
X57985376Y-81392714D01*
X57769361Y-81358500D01*
X57769356Y-81358500D01*
X57550644Y-81358500D01*
X57550639Y-81358500D01*
X57334623Y-81392714D01*
X57126619Y-81460297D01*
X57126616Y-81460298D01*
X56931739Y-81559595D01*
X56754806Y-81688142D01*
X56600142Y-81842806D01*
X56490318Y-81993969D01*
X56434989Y-82036635D01*
X56365375Y-82042614D01*
X56303580Y-82010009D01*
X56289682Y-81993969D01*
X56179857Y-81842806D01*
X56025193Y-81688142D01*
X55848260Y-81559595D01*
X55848259Y-81559594D01*
X55848257Y-81559593D01*
X55785825Y-81527782D01*
X55653383Y-81460298D01*
X55653380Y-81460297D01*
X55445376Y-81392714D01*
X55229361Y-81358500D01*
X55229356Y-81358500D01*
X55010644Y-81358500D01*
X55010639Y-81358500D01*
X54794623Y-81392714D01*
X54586619Y-81460297D01*
X54586616Y-81460298D01*
X54391739Y-81559595D01*
X54214806Y-81688142D01*
X54060142Y-81842806D01*
X53950318Y-81993969D01*
X53894989Y-82036635D01*
X53825375Y-82042614D01*
X53763580Y-82010009D01*
X53749682Y-81993969D01*
X53639857Y-81842806D01*
X53485193Y-81688142D01*
X53308260Y-81559595D01*
X53308259Y-81559594D01*
X53308257Y-81559593D01*
X53245825Y-81527782D01*
X53113383Y-81460298D01*
X53113380Y-81460297D01*
X52905376Y-81392714D01*
X52689361Y-81358500D01*
X52689356Y-81358500D01*
X52470644Y-81358500D01*
X52470639Y-81358500D01*
X52254623Y-81392714D01*
X52046619Y-81460297D01*
X52046616Y-81460298D01*
X51851739Y-81559595D01*
X51674806Y-81688142D01*
X51520146Y-81842802D01*
X51520142Y-81842807D01*
X51410008Y-81994394D01*
X51354678Y-82037060D01*
X51285065Y-82043039D01*
X51223270Y-82010433D01*
X51209372Y-81994394D01*
X51099475Y-81843133D01*
X51099471Y-81843128D01*
X50944871Y-81688528D01*
X50944866Y-81688524D01*
X50767998Y-81560023D01*
X50573191Y-81460762D01*
X50573188Y-81460761D01*
X50365258Y-81393201D01*
X50290000Y-81381281D01*
X50290000Y-82432748D01*
X50236081Y-82401619D01*
X50106880Y-82367000D01*
X49973120Y-82367000D01*
X49843919Y-82401619D01*
X49790000Y-82432748D01*
X49790000Y-81381281D01*
X49714741Y-81393201D01*
X49506811Y-81460761D01*
X49506808Y-81460762D01*
X49312001Y-81560023D01*
X49135133Y-81688524D01*
X49135128Y-81688528D01*
X48980528Y-81843128D01*
X48980524Y-81843133D01*
X48870627Y-81994394D01*
X48815297Y-82037060D01*
X48745684Y-82043039D01*
X48683889Y-82010433D01*
X48669991Y-81994394D01*
X48559857Y-81842807D01*
X48559853Y-81842802D01*
X48405193Y-81688142D01*
X48228260Y-81559595D01*
X48228259Y-81559594D01*
X48228257Y-81559593D01*
X48165825Y-81527782D01*
X48033383Y-81460298D01*
X48033380Y-81460297D01*
X47825376Y-81392714D01*
X47609361Y-81358500D01*
X47609356Y-81358500D01*
X47390644Y-81358500D01*
X47390639Y-81358500D01*
X47174623Y-81392714D01*
X46966619Y-81460297D01*
X46966616Y-81460298D01*
X46771739Y-81559595D01*
X46594806Y-81688142D01*
X46440142Y-81842806D01*
X46311595Y-82019739D01*
X46212298Y-82214616D01*
X46212297Y-82214619D01*
X46144714Y-82422623D01*
X46110500Y-82638638D01*
X45500500Y-82638638D01*
X45500500Y-71921153D01*
X58699500Y-71921153D01*
X58699500Y-72078846D01*
X58730261Y-72233489D01*
X58730264Y-72233501D01*
X58790602Y-72379172D01*
X58790609Y-72379185D01*
X58878210Y-72510288D01*
X58878213Y-72510292D01*
X58989707Y-72621786D01*
X58989711Y-72621789D01*
X59120814Y-72709390D01*
X59120827Y-72709397D01*
X59229717Y-72754500D01*
X59266503Y-72769737D01*
X59372489Y-72790819D01*
X59421153Y-72800499D01*
X59421156Y-72800500D01*
X59421158Y-72800500D01*
X59578844Y-72800500D01*
X59578845Y-72800499D01*
X59711136Y-72774185D01*
X59733488Y-72769739D01*
X59733489Y-72769738D01*
X59733497Y-72769737D01*
X59747498Y-72763937D01*
X59794947Y-72754500D01*
X61636113Y-72754500D01*
X61703152Y-72774185D01*
X61723794Y-72790819D01*
X66209181Y-77276205D01*
X66242666Y-77337528D01*
X66245500Y-77363886D01*
X66245500Y-85636112D01*
X66225815Y-85703151D01*
X66209181Y-85723793D01*
X62175045Y-89757928D01*
X62134822Y-89784806D01*
X62120819Y-89790606D01*
X62120818Y-89790607D01*
X61989715Y-89878207D01*
X61989707Y-89878213D01*
X61878213Y-89989707D01*
X61878210Y-89989711D01*
X61790609Y-90120814D01*
X61790602Y-90120827D01*
X61730264Y-90266498D01*
X61730261Y-90266510D01*
X61699500Y-90421153D01*
X61699500Y-90578846D01*
X61730261Y-90733489D01*
X61730264Y-90733501D01*
X61790602Y-90879172D01*
X61790609Y-90879185D01*
X61878210Y-91010288D01*
X61878213Y-91010292D01*
X61989707Y-91121786D01*
X61989711Y-91121789D01*
X62120814Y-91209390D01*
X62120827Y-91209397D01*
X62266498Y-91269735D01*
X62266503Y-91269737D01*
X62421153Y-91300499D01*
X62421156Y-91300500D01*
X62421158Y-91300500D01*
X62578844Y-91300500D01*
X62578845Y-91300499D01*
X62733497Y-91269737D01*
X62879179Y-91209394D01*
X63010289Y-91121789D01*
X63121789Y-91010289D01*
X63209394Y-90879179D01*
X63215191Y-90865182D01*
X63242069Y-90824954D01*
X67586059Y-86480966D01*
X67668630Y-86357389D01*
X67701946Y-86276955D01*
X67725505Y-86220080D01*
X67743349Y-86130374D01*
X67754501Y-86074312D01*
X67754501Y-85925688D01*
X67754501Y-85920578D01*
X67754500Y-85920552D01*
X67754500Y-77080446D01*
X67754501Y-77080425D01*
X67754501Y-76925685D01*
X67725506Y-76779926D01*
X67725505Y-76779925D01*
X67725505Y-76779921D01*
X67668630Y-76642611D01*
X67598697Y-76537949D01*
X67586059Y-76519034D01*
X67480966Y-76413941D01*
X67480963Y-76413939D01*
X66343263Y-75276239D01*
X62480969Y-71413943D01*
X62480968Y-71413942D01*
X62357392Y-71331372D01*
X62357391Y-71331371D01*
X62357389Y-71331370D01*
X62357386Y-71331368D01*
X62357381Y-71331366D01*
X62263519Y-71292488D01*
X62263517Y-71292487D01*
X62258975Y-71290606D01*
X62220080Y-71274495D01*
X62195894Y-71269684D01*
X62188776Y-71268268D01*
X62188773Y-71268267D01*
X62074314Y-71245499D01*
X62074312Y-71245499D01*
X61925688Y-71245499D01*
X61919574Y-71245499D01*
X61919554Y-71245500D01*
X59794947Y-71245500D01*
X59747498Y-71236062D01*
X59733497Y-71230263D01*
X59733493Y-71230262D01*
X59733488Y-71230260D01*
X59578845Y-71199500D01*
X59578842Y-71199500D01*
X59421158Y-71199500D01*
X59421155Y-71199500D01*
X59266510Y-71230261D01*
X59266498Y-71230264D01*
X59120827Y-71290602D01*
X59120814Y-71290609D01*
X58989711Y-71378210D01*
X58989707Y-71378213D01*
X58878213Y-71489707D01*
X58878210Y-71489711D01*
X58790609Y-71620814D01*
X58790602Y-71620827D01*
X58730264Y-71766498D01*
X58730261Y-71766510D01*
X58699500Y-71921153D01*
X45500500Y-71921153D01*
X45500500Y-70421153D01*
X62699500Y-70421153D01*
X62699500Y-70578846D01*
X62730261Y-70733489D01*
X62730264Y-70733501D01*
X62790602Y-70879172D01*
X62790609Y-70879185D01*
X62878210Y-71010288D01*
X62878213Y-71010292D01*
X62989710Y-71121789D01*
X63120815Y-71209390D01*
X63120821Y-71209394D01*
X63134759Y-71215167D01*
X63134819Y-71215192D01*
X63175047Y-71242072D01*
X65697066Y-73764091D01*
X68209181Y-76276205D01*
X68242666Y-76337528D01*
X68245500Y-76363886D01*
X68245500Y-91136112D01*
X68225815Y-91203151D01*
X68209181Y-91223793D01*
X65175045Y-94257928D01*
X65134822Y-94284806D01*
X65120819Y-94290606D01*
X65120818Y-94290607D01*
X64989715Y-94378207D01*
X64989707Y-94378213D01*
X64878213Y-94489707D01*
X64878210Y-94489711D01*
X64790609Y-94620814D01*
X64790602Y-94620827D01*
X64730264Y-94766498D01*
X64730261Y-94766510D01*
X64699500Y-94921153D01*
X64699500Y-95078846D01*
X64730261Y-95233489D01*
X64730264Y-95233501D01*
X64790602Y-95379172D01*
X64790609Y-95379185D01*
X64878210Y-95510288D01*
X64878213Y-95510292D01*
X64989707Y-95621786D01*
X64989711Y-95621789D01*
X65120814Y-95709390D01*
X65120827Y-95709397D01*
X65266498Y-95769735D01*
X65266503Y-95769737D01*
X65421153Y-95800499D01*
X65421156Y-95800500D01*
X65421158Y-95800500D01*
X65578844Y-95800500D01*
X65578845Y-95800499D01*
X65733497Y-95769737D01*
X65879179Y-95709394D01*
X66010289Y-95621789D01*
X66121789Y-95510289D01*
X66209394Y-95379179D01*
X66215191Y-95365182D01*
X66242069Y-95324953D01*
X69480963Y-92086060D01*
X69480966Y-92086059D01*
X69586059Y-91980966D01*
X69668629Y-91857390D01*
X69725505Y-91720080D01*
X69754500Y-91574312D01*
X69754500Y-85513389D01*
X75899500Y-85513389D01*
X75899500Y-86236611D01*
X75926598Y-86407701D01*
X75980127Y-86572445D01*
X76058768Y-86726788D01*
X76160586Y-86866928D01*
X76283072Y-86989414D01*
X76423212Y-87091232D01*
X76577555Y-87169873D01*
X76742299Y-87223402D01*
X76913389Y-87250500D01*
X76913390Y-87250500D01*
X77086610Y-87250500D01*
X77086611Y-87250500D01*
X77257701Y-87223402D01*
X77422445Y-87169873D01*
X77576788Y-87091232D01*
X77716928Y-86989414D01*
X77824472Y-86881869D01*
X77885791Y-86848387D01*
X77955483Y-86853371D01*
X78011417Y-86895242D01*
X78017688Y-86904456D01*
X78057285Y-86968652D01*
X78057288Y-86968656D01*
X78181344Y-87092712D01*
X78330666Y-87184814D01*
X78497203Y-87239999D01*
X78599991Y-87250500D01*
X79400008Y-87250499D01*
X79400016Y-87250498D01*
X79400019Y-87250498D01*
X79456302Y-87244748D01*
X79502797Y-87239999D01*
X79669334Y-87184814D01*
X79818656Y-87092712D01*
X79942712Y-86968656D01*
X80034814Y-86819334D01*
X80089999Y-86652797D01*
X80100500Y-86550009D01*
X80100499Y-85199992D01*
X80089999Y-85097203D01*
X80034814Y-84930666D01*
X79942712Y-84781344D01*
X79818656Y-84657288D01*
X79693559Y-84580128D01*
X79669336Y-84565187D01*
X79669331Y-84565185D01*
X79667862Y-84564698D01*
X79502797Y-84510001D01*
X79502795Y-84510000D01*
X79400010Y-84499500D01*
X78599998Y-84499500D01*
X78599980Y-84499501D01*
X78497203Y-84510000D01*
X78497200Y-84510001D01*
X78330668Y-84565185D01*
X78330663Y-84565187D01*
X78181342Y-84657289D01*
X78057287Y-84781344D01*
X78017688Y-84845544D01*
X77965739Y-84892268D01*
X77896777Y-84903489D01*
X77832695Y-84875645D01*
X77824469Y-84868127D01*
X77716930Y-84760588D01*
X77716928Y-84760586D01*
X77576788Y-84658768D01*
X77422445Y-84580127D01*
X77257701Y-84526598D01*
X77257699Y-84526597D01*
X77257698Y-84526597D01*
X77126271Y-84505781D01*
X77086611Y-84499500D01*
X76913389Y-84499500D01*
X76873728Y-84505781D01*
X76742302Y-84526597D01*
X76577552Y-84580128D01*
X76423211Y-84658768D01*
X76343256Y-84716859D01*
X76283072Y-84760586D01*
X76283070Y-84760588D01*
X76283069Y-84760588D01*
X76160588Y-84883069D01*
X76160588Y-84883070D01*
X76160586Y-84883072D01*
X76153905Y-84892268D01*
X76058768Y-85023211D01*
X75980128Y-85177552D01*
X75926597Y-85342302D01*
X75899500Y-85513389D01*
X69754500Y-85513389D01*
X69754500Y-77680646D01*
X71447000Y-77680646D01*
X71447000Y-77909353D01*
X71482778Y-78135246D01*
X71482778Y-78135249D01*
X71553450Y-78352755D01*
X71553452Y-78352758D01*
X71657283Y-78556538D01*
X71791714Y-78741566D01*
X71953434Y-78903286D01*
X72138462Y-79037717D01*
X72342242Y-79141548D01*
X72342244Y-79141549D01*
X72559751Y-79212221D01*
X72559752Y-79212221D01*
X72559755Y-79212222D01*
X72785646Y-79248000D01*
X72785647Y-79248000D01*
X73014353Y-79248000D01*
X73014354Y-79248000D01*
X73240245Y-79212222D01*
X73240248Y-79212221D01*
X73240249Y-79212221D01*
X73457755Y-79141549D01*
X73457755Y-79141548D01*
X73457758Y-79141548D01*
X73661538Y-79037717D01*
X73846566Y-78903286D01*
X74008286Y-78741566D01*
X74142717Y-78556538D01*
X74246548Y-78352758D01*
X74293641Y-78207820D01*
X74317221Y-78135249D01*
X74317221Y-78135248D01*
X74317222Y-78135245D01*
X74353000Y-77909354D01*
X74353000Y-77680646D01*
X74317222Y-77454755D01*
X74317221Y-77454751D01*
X74317221Y-77454750D01*
X74246549Y-77237244D01*
X74246548Y-77237242D01*
X74142717Y-77033462D01*
X74008286Y-76848434D01*
X73846566Y-76686714D01*
X73661538Y-76552283D01*
X73596283Y-76519034D01*
X73457755Y-76448450D01*
X73240248Y-76377778D01*
X73070826Y-76350944D01*
X73014354Y-76342000D01*
X72785646Y-76342000D01*
X72710349Y-76353926D01*
X72559753Y-76377778D01*
X72559750Y-76377778D01*
X72342244Y-76448450D01*
X72138461Y-76552283D01*
X72032896Y-76628980D01*
X71953434Y-76686714D01*
X71953432Y-76686716D01*
X71953431Y-76686716D01*
X71791716Y-76848431D01*
X71791716Y-76848432D01*
X71791714Y-76848434D01*
X71735588Y-76925685D01*
X71657283Y-77033461D01*
X71553450Y-77237244D01*
X71482778Y-77454750D01*
X71482778Y-77454753D01*
X71447000Y-77680646D01*
X69754500Y-77680646D01*
X69754500Y-76080446D01*
X69754501Y-76080425D01*
X69754501Y-75925685D01*
X69725506Y-75779926D01*
X69725505Y-75779925D01*
X69725505Y-75779921D01*
X69679072Y-75667820D01*
X69668633Y-75642617D01*
X69668625Y-75642602D01*
X69638677Y-75597783D01*
X69638676Y-75597781D01*
X69586060Y-75519035D01*
X69586054Y-75519028D01*
X69476647Y-75409621D01*
X69476624Y-75409600D01*
X66750480Y-72683455D01*
X66667671Y-72600646D01*
X71447000Y-72600646D01*
X71447000Y-72829353D01*
X71482778Y-73055246D01*
X71482778Y-73055249D01*
X71553450Y-73272755D01*
X71576444Y-73317883D01*
X71657283Y-73476538D01*
X71791714Y-73661566D01*
X71953434Y-73823286D01*
X72138462Y-73957717D01*
X72342242Y-74061548D01*
X72342244Y-74061549D01*
X72559751Y-74132221D01*
X72559752Y-74132221D01*
X72559755Y-74132222D01*
X72785646Y-74168000D01*
X72785647Y-74168000D01*
X73014353Y-74168000D01*
X73014354Y-74168000D01*
X73240245Y-74132222D01*
X73240248Y-74132221D01*
X73240249Y-74132221D01*
X73457755Y-74061549D01*
X73457755Y-74061548D01*
X73457758Y-74061548D01*
X73661538Y-73957717D01*
X73846566Y-73823286D01*
X74008286Y-73661566D01*
X74142717Y-73476538D01*
X74246548Y-73272758D01*
X74317222Y-73055245D01*
X74353000Y-72829354D01*
X74353000Y-72600646D01*
X74317222Y-72374755D01*
X74317221Y-72374751D01*
X74317221Y-72374750D01*
X74246549Y-72157244D01*
X74142716Y-71953461D01*
X74008286Y-71768434D01*
X73846566Y-71606714D01*
X73730153Y-71522135D01*
X93149500Y-71522135D01*
X93149500Y-73317870D01*
X93149501Y-73317876D01*
X93155908Y-73377483D01*
X93206202Y-73512328D01*
X93206206Y-73512335D01*
X93292452Y-73627544D01*
X93292455Y-73627547D01*
X93407664Y-73713793D01*
X93407671Y-73713797D01*
X93539082Y-73762810D01*
X93595016Y-73804681D01*
X93619433Y-73870145D01*
X93604582Y-73938418D01*
X93583431Y-73966673D01*
X93469889Y-74080215D01*
X93344951Y-74252179D01*
X93248444Y-74441585D01*
X93182753Y-74643760D01*
X93149500Y-74853713D01*
X93149500Y-75066287D01*
X93182754Y-75276243D01*
X93227494Y-75413939D01*
X93248444Y-75478414D01*
X93344951Y-75667820D01*
X93469890Y-75839786D01*
X93620213Y-75990109D01*
X93792182Y-76115050D01*
X93800946Y-76119516D01*
X93851742Y-76167491D01*
X93868536Y-76235312D01*
X93845998Y-76301447D01*
X93800946Y-76340484D01*
X93792182Y-76344949D01*
X93620213Y-76469890D01*
X93469890Y-76620213D01*
X93344951Y-76792179D01*
X93248444Y-76981585D01*
X93182753Y-77183760D01*
X93162359Y-77312524D01*
X93149500Y-77393713D01*
X93149500Y-77606287D01*
X93182754Y-77816243D01*
X93213007Y-77909353D01*
X93248444Y-78018414D01*
X93344951Y-78207820D01*
X93469890Y-78379786D01*
X93620213Y-78530109D01*
X93792179Y-78655048D01*
X93792181Y-78655049D01*
X93792184Y-78655051D01*
X93981588Y-78751557D01*
X94183757Y-78817246D01*
X94393713Y-78850500D01*
X94393714Y-78850500D01*
X94606286Y-78850500D01*
X94606287Y-78850500D01*
X94816243Y-78817246D01*
X95018412Y-78751557D01*
X95207816Y-78655051D01*
X95229789Y-78639086D01*
X95379786Y-78530109D01*
X95379788Y-78530106D01*
X95379792Y-78530104D01*
X95530104Y-78379792D01*
X95530106Y-78379788D01*
X95530109Y-78379786D01*
X95655048Y-78207820D01*
X95655047Y-78207820D01*
X95655051Y-78207816D01*
X95751557Y-78018412D01*
X95817246Y-77816243D01*
X95850500Y-77606287D01*
X95850500Y-77393713D01*
X95817246Y-77183757D01*
X95751557Y-76981588D01*
X95655051Y-76792184D01*
X95655049Y-76792181D01*
X95655048Y-76792179D01*
X95530109Y-76620213D01*
X95379786Y-76469890D01*
X95207820Y-76344951D01*
X95202028Y-76342000D01*
X95199054Y-76340485D01*
X95148259Y-76292512D01*
X95131463Y-76224692D01*
X95153999Y-76158556D01*
X95199054Y-76119515D01*
X95207816Y-76115051D01*
X95263889Y-76074312D01*
X95379786Y-75990109D01*
X95379788Y-75990106D01*
X95379792Y-75990104D01*
X95530104Y-75839792D01*
X95530106Y-75839788D01*
X95530109Y-75839786D01*
X95655048Y-75667820D01*
X95655047Y-75667820D01*
X95655051Y-75667816D01*
X95751557Y-75478412D01*
X95817246Y-75276243D01*
X95850500Y-75066287D01*
X95850500Y-74853713D01*
X95817246Y-74643757D01*
X95751557Y-74441588D01*
X95655051Y-74252184D01*
X95655049Y-74252181D01*
X95655048Y-74252179D01*
X95530109Y-74080213D01*
X95416569Y-73966673D01*
X95383084Y-73905350D01*
X95388068Y-73835658D01*
X95429940Y-73779725D01*
X95460915Y-73762810D01*
X95592331Y-73713796D01*
X95707546Y-73627546D01*
X95793796Y-73512331D01*
X95844091Y-73377483D01*
X95850500Y-73317873D01*
X95850499Y-71522128D01*
X95844091Y-71462517D01*
X95825973Y-71413941D01*
X95793797Y-71327671D01*
X95793793Y-71327664D01*
X95707547Y-71212455D01*
X95707544Y-71212452D01*
X95592335Y-71126206D01*
X95592328Y-71126202D01*
X95457482Y-71075908D01*
X95457483Y-71075908D01*
X95397883Y-71069501D01*
X95397881Y-71069500D01*
X95397873Y-71069500D01*
X95397864Y-71069500D01*
X93602129Y-71069500D01*
X93602123Y-71069501D01*
X93542516Y-71075908D01*
X93407671Y-71126202D01*
X93407664Y-71126206D01*
X93292455Y-71212452D01*
X93292452Y-71212455D01*
X93206206Y-71327664D01*
X93206202Y-71327671D01*
X93155908Y-71462517D01*
X93152985Y-71489711D01*
X93149501Y-71522123D01*
X93149500Y-71522135D01*
X73730153Y-71522135D01*
X73661538Y-71472283D01*
X73642369Y-71462516D01*
X73457755Y-71368450D01*
X73240248Y-71297778D01*
X73053922Y-71268267D01*
X73014354Y-71262000D01*
X72785646Y-71262000D01*
X72737132Y-71269684D01*
X72559753Y-71297778D01*
X72559750Y-71297778D01*
X72342244Y-71368450D01*
X72138461Y-71472283D01*
X72032896Y-71548980D01*
X71953434Y-71606714D01*
X71953432Y-71606716D01*
X71953431Y-71606716D01*
X71791716Y-71768431D01*
X71791716Y-71768432D01*
X71791714Y-71768434D01*
X71733980Y-71847896D01*
X71657283Y-71953461D01*
X71553450Y-72157244D01*
X71482778Y-72374750D01*
X71482778Y-72374753D01*
X71447000Y-72600646D01*
X66667671Y-72600646D01*
X64242072Y-70175047D01*
X64215192Y-70134819D01*
X64209396Y-70120827D01*
X64209394Y-70120821D01*
X64209389Y-70120814D01*
X64121789Y-69989710D01*
X64010292Y-69878213D01*
X64010288Y-69878210D01*
X63879185Y-69790609D01*
X63879172Y-69790602D01*
X63733501Y-69730264D01*
X63733489Y-69730261D01*
X63578845Y-69699500D01*
X63578842Y-69699500D01*
X63421158Y-69699500D01*
X63421155Y-69699500D01*
X63266510Y-69730261D01*
X63266498Y-69730264D01*
X63120827Y-69790602D01*
X63120814Y-69790609D01*
X62989711Y-69878210D01*
X62989707Y-69878213D01*
X62878213Y-69989707D01*
X62878210Y-69989711D01*
X62790609Y-70120814D01*
X62790602Y-70120827D01*
X62730264Y-70266498D01*
X62730261Y-70266510D01*
X62699500Y-70421153D01*
X45500500Y-70421153D01*
X45500500Y-65874638D01*
X46110500Y-65874638D01*
X46110500Y-67871361D01*
X46144714Y-68087376D01*
X46212297Y-68295380D01*
X46212298Y-68295383D01*
X46311595Y-68490260D01*
X46440142Y-68667193D01*
X46594806Y-68821857D01*
X46760374Y-68942147D01*
X46771743Y-68950407D01*
X46899132Y-69015315D01*
X46966616Y-69049701D01*
X46966619Y-69049702D01*
X47070621Y-69083493D01*
X47174625Y-69117286D01*
X47274672Y-69133132D01*
X47390639Y-69151500D01*
X47390644Y-69151500D01*
X47609361Y-69151500D01*
X47714082Y-69134912D01*
X47825375Y-69117286D01*
X48033383Y-69049701D01*
X48228257Y-68950407D01*
X48327601Y-68878229D01*
X48405193Y-68821857D01*
X48405195Y-68821854D01*
X48405199Y-68821852D01*
X48559852Y-68667199D01*
X48669683Y-68516028D01*
X48725011Y-68473364D01*
X48794624Y-68467385D01*
X48856420Y-68499990D01*
X48870313Y-68516023D01*
X48980144Y-68667193D01*
X48980148Y-68667199D01*
X49134806Y-68821857D01*
X49300374Y-68942147D01*
X49311743Y-68950407D01*
X49439132Y-69015315D01*
X49506616Y-69049701D01*
X49506619Y-69049702D01*
X49610621Y-69083493D01*
X49714625Y-69117286D01*
X49814672Y-69133132D01*
X49930639Y-69151500D01*
X49930644Y-69151500D01*
X50149361Y-69151500D01*
X50254082Y-69134912D01*
X50365375Y-69117286D01*
X50573383Y-69049701D01*
X50768257Y-68950407D01*
X50867601Y-68878229D01*
X50945193Y-68821857D01*
X50945195Y-68821854D01*
X50945199Y-68821852D01*
X51099852Y-68667199D01*
X51209683Y-68516028D01*
X51265011Y-68473364D01*
X51334624Y-68467385D01*
X51396420Y-68499990D01*
X51410313Y-68516023D01*
X51520144Y-68667193D01*
X51520148Y-68667199D01*
X51674806Y-68821857D01*
X51840374Y-68942147D01*
X51851743Y-68950407D01*
X51979132Y-69015315D01*
X52046616Y-69049701D01*
X52046619Y-69049702D01*
X52150621Y-69083493D01*
X52254625Y-69117286D01*
X52354672Y-69133132D01*
X52470639Y-69151500D01*
X52470644Y-69151500D01*
X52689361Y-69151500D01*
X52794082Y-69134912D01*
X52905375Y-69117286D01*
X53113383Y-69049701D01*
X53308257Y-68950407D01*
X53407601Y-68878229D01*
X53485193Y-68821857D01*
X53485195Y-68821854D01*
X53485199Y-68821852D01*
X53639852Y-68667199D01*
X53749683Y-68516028D01*
X53805011Y-68473364D01*
X53874624Y-68467385D01*
X53936420Y-68499990D01*
X53950313Y-68516023D01*
X54060144Y-68667193D01*
X54060148Y-68667199D01*
X54214806Y-68821857D01*
X54380374Y-68942147D01*
X54391743Y-68950407D01*
X54519132Y-69015315D01*
X54586616Y-69049701D01*
X54586619Y-69049702D01*
X54690621Y-69083493D01*
X54794625Y-69117286D01*
X54894672Y-69133132D01*
X55010639Y-69151500D01*
X55010644Y-69151500D01*
X55229361Y-69151500D01*
X55334082Y-69134912D01*
X55445375Y-69117286D01*
X55653383Y-69049701D01*
X55848257Y-68950407D01*
X55947601Y-68878229D01*
X56025193Y-68821857D01*
X56025195Y-68821854D01*
X56025199Y-68821852D01*
X56179852Y-68667199D01*
X56289683Y-68516028D01*
X56345011Y-68473364D01*
X56414624Y-68467385D01*
X56476420Y-68499990D01*
X56490313Y-68516023D01*
X56600144Y-68667193D01*
X56600148Y-68667199D01*
X56754806Y-68821857D01*
X56920374Y-68942147D01*
X56931743Y-68950407D01*
X57059132Y-69015315D01*
X57126616Y-69049701D01*
X57126619Y-69049702D01*
X57230621Y-69083493D01*
X57334625Y-69117286D01*
X57434672Y-69133132D01*
X57550639Y-69151500D01*
X57550644Y-69151500D01*
X57769361Y-69151500D01*
X57874082Y-69134912D01*
X57985375Y-69117286D01*
X58193383Y-69049701D01*
X58388257Y-68950407D01*
X58487601Y-68878229D01*
X58565193Y-68821857D01*
X58565195Y-68821854D01*
X58565199Y-68821852D01*
X58719852Y-68667199D01*
X58829683Y-68516028D01*
X58885011Y-68473364D01*
X58954624Y-68467385D01*
X59016420Y-68499990D01*
X59030313Y-68516023D01*
X59140144Y-68667193D01*
X59140148Y-68667199D01*
X59294806Y-68821857D01*
X59460374Y-68942147D01*
X59471743Y-68950407D01*
X59599132Y-69015315D01*
X59666616Y-69049701D01*
X59666619Y-69049702D01*
X59770621Y-69083493D01*
X59874625Y-69117286D01*
X59974672Y-69133132D01*
X60090639Y-69151500D01*
X60090644Y-69151500D01*
X60309361Y-69151500D01*
X60414082Y-69134912D01*
X60525375Y-69117286D01*
X60733383Y-69049701D01*
X60928257Y-68950407D01*
X61027601Y-68878229D01*
X61105193Y-68821857D01*
X61105195Y-68821854D01*
X61105199Y-68821852D01*
X61259852Y-68667199D01*
X61369683Y-68516028D01*
X61425011Y-68473364D01*
X61494624Y-68467385D01*
X61556420Y-68499990D01*
X61570313Y-68516023D01*
X61680144Y-68667193D01*
X61680148Y-68667199D01*
X61834806Y-68821857D01*
X62000374Y-68942147D01*
X62011743Y-68950407D01*
X62139132Y-69015315D01*
X62206616Y-69049701D01*
X62206619Y-69049702D01*
X62310621Y-69083493D01*
X62414625Y-69117286D01*
X62514672Y-69133132D01*
X62630639Y-69151500D01*
X62630644Y-69151500D01*
X62849361Y-69151500D01*
X62954082Y-69134912D01*
X63065375Y-69117286D01*
X63273383Y-69049701D01*
X63468257Y-68950407D01*
X63567601Y-68878229D01*
X63645193Y-68821857D01*
X63645195Y-68821854D01*
X63645199Y-68821852D01*
X63799852Y-68667199D01*
X63799854Y-68667195D01*
X63799857Y-68667193D01*
X63856229Y-68589601D01*
X63928407Y-68490257D01*
X64027701Y-68295383D01*
X64095286Y-68087375D01*
X64112912Y-67976082D01*
X64129500Y-67871361D01*
X64129500Y-65874638D01*
X64109595Y-65748971D01*
X64095286Y-65658625D01*
X64027701Y-65450617D01*
X64027701Y-65450616D01*
X63940060Y-65278614D01*
X63928407Y-65255743D01*
X63909681Y-65229969D01*
X63799857Y-65078806D01*
X63645193Y-64924142D01*
X63468260Y-64795595D01*
X63468259Y-64795594D01*
X63468257Y-64795593D01*
X63405825Y-64763782D01*
X63273383Y-64696298D01*
X63273380Y-64696297D01*
X63065376Y-64628714D01*
X62849361Y-64594500D01*
X62849356Y-64594500D01*
X62630644Y-64594500D01*
X62630639Y-64594500D01*
X62414623Y-64628714D01*
X62206619Y-64696297D01*
X62206616Y-64696298D01*
X62011739Y-64795595D01*
X61834806Y-64924142D01*
X61680142Y-65078806D01*
X61570318Y-65229969D01*
X61514989Y-65272635D01*
X61445375Y-65278614D01*
X61383580Y-65246009D01*
X61369682Y-65229969D01*
X61259857Y-65078806D01*
X61105193Y-64924142D01*
X60928260Y-64795595D01*
X60928259Y-64795594D01*
X60928257Y-64795593D01*
X60865825Y-64763782D01*
X60733383Y-64696298D01*
X60733380Y-64696297D01*
X60525376Y-64628714D01*
X60309361Y-64594500D01*
X60309356Y-64594500D01*
X60090644Y-64594500D01*
X60090639Y-64594500D01*
X59874623Y-64628714D01*
X59666619Y-64696297D01*
X59666616Y-64696298D01*
X59471739Y-64795595D01*
X59294806Y-64924142D01*
X59140142Y-65078806D01*
X59030318Y-65229969D01*
X58974989Y-65272635D01*
X58905375Y-65278614D01*
X58843580Y-65246009D01*
X58829682Y-65229969D01*
X58719857Y-65078806D01*
X58565193Y-64924142D01*
X58388260Y-64795595D01*
X58388259Y-64795594D01*
X58388257Y-64795593D01*
X58325825Y-64763782D01*
X58193383Y-64696298D01*
X58193380Y-64696297D01*
X57985376Y-64628714D01*
X57769361Y-64594500D01*
X57769356Y-64594500D01*
X57550644Y-64594500D01*
X57550639Y-64594500D01*
X57334623Y-64628714D01*
X57126619Y-64696297D01*
X57126616Y-64696298D01*
X56931739Y-64795595D01*
X56754806Y-64924142D01*
X56600142Y-65078806D01*
X56490318Y-65229969D01*
X56434989Y-65272635D01*
X56365375Y-65278614D01*
X56303580Y-65246009D01*
X56289682Y-65229969D01*
X56179857Y-65078806D01*
X56025193Y-64924142D01*
X55848260Y-64795595D01*
X55848259Y-64795594D01*
X55848257Y-64795593D01*
X55785825Y-64763782D01*
X55653383Y-64696298D01*
X55653380Y-64696297D01*
X55445376Y-64628714D01*
X55229361Y-64594500D01*
X55229356Y-64594500D01*
X55010644Y-64594500D01*
X55010639Y-64594500D01*
X54794623Y-64628714D01*
X54586619Y-64696297D01*
X54586616Y-64696298D01*
X54391739Y-64795595D01*
X54214806Y-64924142D01*
X54060142Y-65078806D01*
X53950318Y-65229969D01*
X53894989Y-65272635D01*
X53825375Y-65278614D01*
X53763580Y-65246009D01*
X53749682Y-65229969D01*
X53639857Y-65078806D01*
X53485193Y-64924142D01*
X53308260Y-64795595D01*
X53308259Y-64795594D01*
X53308257Y-64795593D01*
X53245825Y-64763782D01*
X53113383Y-64696298D01*
X53113380Y-64696297D01*
X52905376Y-64628714D01*
X52689361Y-64594500D01*
X52689356Y-64594500D01*
X52470644Y-64594500D01*
X52470639Y-64594500D01*
X52254623Y-64628714D01*
X52046619Y-64696297D01*
X52046616Y-64696298D01*
X51851739Y-64795595D01*
X51674806Y-64924142D01*
X51520142Y-65078806D01*
X51410318Y-65229969D01*
X51354989Y-65272635D01*
X51285375Y-65278614D01*
X51223580Y-65246009D01*
X51209682Y-65229969D01*
X51099857Y-65078806D01*
X50945193Y-64924142D01*
X50768260Y-64795595D01*
X50768259Y-64795594D01*
X50768257Y-64795593D01*
X50705825Y-64763782D01*
X50573383Y-64696298D01*
X50573380Y-64696297D01*
X50365376Y-64628714D01*
X50149361Y-64594500D01*
X50149356Y-64594500D01*
X49930644Y-64594500D01*
X49930639Y-64594500D01*
X49714623Y-64628714D01*
X49506619Y-64696297D01*
X49506616Y-64696298D01*
X49311739Y-64795595D01*
X49134806Y-64924142D01*
X48980142Y-65078806D01*
X48870318Y-65229969D01*
X48814989Y-65272635D01*
X48745375Y-65278614D01*
X48683580Y-65246009D01*
X48669682Y-65229969D01*
X48559857Y-65078806D01*
X48405193Y-64924142D01*
X48228260Y-64795595D01*
X48228259Y-64795594D01*
X48228257Y-64795593D01*
X48165825Y-64763782D01*
X48033383Y-64696298D01*
X48033380Y-64696297D01*
X47825376Y-64628714D01*
X47609361Y-64594500D01*
X47609356Y-64594500D01*
X47390644Y-64594500D01*
X47390639Y-64594500D01*
X47174623Y-64628714D01*
X46966619Y-64696297D01*
X46966616Y-64696298D01*
X46771739Y-64795595D01*
X46594806Y-64924142D01*
X46440142Y-65078806D01*
X46311595Y-65255739D01*
X46212298Y-65450616D01*
X46212297Y-65450619D01*
X46144714Y-65658623D01*
X46110500Y-65874638D01*
X45500500Y-65874638D01*
X45500500Y-54421153D01*
X46699500Y-54421153D01*
X46699500Y-54578846D01*
X46730261Y-54733489D01*
X46730264Y-54733501D01*
X46790602Y-54879172D01*
X46790609Y-54879185D01*
X46878210Y-55010288D01*
X46878213Y-55010292D01*
X46989707Y-55121786D01*
X46989711Y-55121789D01*
X47120814Y-55209390D01*
X47120827Y-55209397D01*
X47266498Y-55269735D01*
X47266503Y-55269737D01*
X47421153Y-55300499D01*
X47421156Y-55300500D01*
X47421158Y-55300500D01*
X47578844Y-55300500D01*
X47578845Y-55300499D01*
X47733497Y-55269737D01*
X47879179Y-55209394D01*
X48010289Y-55121789D01*
X48121789Y-55010289D01*
X48209394Y-54879179D01*
X48215191Y-54865182D01*
X48242069Y-54824954D01*
X51204646Y-51862378D01*
X70549500Y-51862378D01*
X70549500Y-52137621D01*
X70580315Y-52411108D01*
X70580317Y-52411124D01*
X70641561Y-52679453D01*
X70641565Y-52679465D01*
X70732467Y-52939246D01*
X70851884Y-53187218D01*
X70851886Y-53187221D01*
X70998319Y-53420268D01*
X71169925Y-53635455D01*
X71364545Y-53830075D01*
X71579732Y-54001681D01*
X71812779Y-54148114D01*
X72060757Y-54267534D01*
X72255865Y-54335805D01*
X72320534Y-54358434D01*
X72320546Y-54358438D01*
X72588879Y-54419683D01*
X72862378Y-54450499D01*
X72862379Y-54450500D01*
X72862383Y-54450500D01*
X73137621Y-54450500D01*
X73137621Y-54450499D01*
X73411121Y-54419683D01*
X73679454Y-54358438D01*
X73939243Y-54267534D01*
X74187221Y-54148114D01*
X74420268Y-54001681D01*
X74635455Y-53830075D01*
X74830075Y-53635455D01*
X75001681Y-53420268D01*
X75148114Y-53187221D01*
X75267534Y-52939243D01*
X75358438Y-52679454D01*
X75419683Y-52411121D01*
X75450500Y-52137617D01*
X75450500Y-51862383D01*
X75419683Y-51588879D01*
X75358438Y-51320546D01*
X75340658Y-51269735D01*
X75288889Y-51121786D01*
X75267534Y-51060757D01*
X75148114Y-50812779D01*
X75001681Y-50579732D01*
X74830075Y-50364545D01*
X74635455Y-50169925D01*
X74420268Y-49998319D01*
X74229117Y-49878211D01*
X74187218Y-49851884D01*
X73939246Y-49732467D01*
X73679465Y-49641565D01*
X73679453Y-49641561D01*
X73411124Y-49580317D01*
X73411108Y-49580315D01*
X73137621Y-49549500D01*
X73137617Y-49549500D01*
X72862383Y-49549500D01*
X72862379Y-49549500D01*
X72588891Y-49580315D01*
X72588875Y-49580317D01*
X72320546Y-49641561D01*
X72320534Y-49641565D01*
X72060753Y-49732467D01*
X71812781Y-49851884D01*
X71579733Y-49998318D01*
X71364545Y-50169924D01*
X71169924Y-50364545D01*
X70998318Y-50579733D01*
X70851884Y-50812781D01*
X70732467Y-51060753D01*
X70641565Y-51320534D01*
X70641561Y-51320546D01*
X70580317Y-51588875D01*
X70580315Y-51588891D01*
X70549500Y-51862378D01*
X51204646Y-51862378D01*
X51776205Y-51290819D01*
X51837528Y-51257334D01*
X51863886Y-51254500D01*
X56205053Y-51254500D01*
X56252501Y-51263937D01*
X56266503Y-51269737D01*
X56266508Y-51269738D01*
X56266511Y-51269739D01*
X56421153Y-51300499D01*
X56421156Y-51300500D01*
X56421158Y-51300500D01*
X56578844Y-51300500D01*
X56578845Y-51300499D01*
X56733497Y-51269737D01*
X56879179Y-51209394D01*
X57010289Y-51121789D01*
X57121789Y-51010289D01*
X57209394Y-50879179D01*
X57269737Y-50733497D01*
X57300500Y-50578842D01*
X57300500Y-50421158D01*
X57300500Y-50421155D01*
X57300499Y-50421153D01*
X57269738Y-50266510D01*
X57269737Y-50266503D01*
X57269735Y-50266498D01*
X57209397Y-50120827D01*
X57209390Y-50120814D01*
X57121789Y-49989711D01*
X57121786Y-49989707D01*
X57010292Y-49878213D01*
X57010288Y-49878210D01*
X56879185Y-49790609D01*
X56879172Y-49790602D01*
X56733501Y-49730264D01*
X56733489Y-49730261D01*
X56578845Y-49699500D01*
X56578842Y-49699500D01*
X56421158Y-49699500D01*
X56421155Y-49699500D01*
X56266511Y-49730260D01*
X56266506Y-49730262D01*
X56266504Y-49730262D01*
X56266503Y-49730263D01*
X56252501Y-49736062D01*
X56205053Y-49745500D01*
X51425683Y-49745500D01*
X51279927Y-49774493D01*
X51279919Y-49774495D01*
X51142608Y-49831371D01*
X51019035Y-49913939D01*
X51019034Y-49913940D01*
X50966488Y-49966487D01*
X50913941Y-50019034D01*
X50913939Y-50019036D01*
X47175045Y-53757928D01*
X47134822Y-53784806D01*
X47120819Y-53790606D01*
X47120818Y-53790607D01*
X46989715Y-53878207D01*
X46989707Y-53878213D01*
X46878213Y-53989707D01*
X46878210Y-53989711D01*
X46790609Y-54120814D01*
X46790602Y-54120827D01*
X46730264Y-54266498D01*
X46730261Y-54266510D01*
X46699500Y-54421153D01*
X45500500Y-54421153D01*
X45500500Y-45703713D01*
X60219500Y-45703713D01*
X60219500Y-45916286D01*
X60252753Y-46126239D01*
X60318444Y-46328414D01*
X60414951Y-46517820D01*
X60539890Y-46689786D01*
X60690213Y-46840109D01*
X60862179Y-46965048D01*
X60862181Y-46965049D01*
X60862184Y-46965051D01*
X61051588Y-47061557D01*
X61253757Y-47127246D01*
X61463713Y-47160500D01*
X61463714Y-47160500D01*
X61676286Y-47160500D01*
X61676287Y-47160500D01*
X61886243Y-47127246D01*
X62088412Y-47061557D01*
X62277816Y-46965051D01*
X62299789Y-46949086D01*
X62449786Y-46840109D01*
X62449788Y-46840106D01*
X62449792Y-46840104D01*
X62600104Y-46689792D01*
X62600106Y-46689788D01*
X62600109Y-46689786D01*
X62725048Y-46517820D01*
X62725047Y-46517820D01*
X62725051Y-46517816D01*
X62821557Y-46328412D01*
X62887246Y-46126243D01*
X62920500Y-45916287D01*
X62920500Y-45703713D01*
X83079500Y-45703713D01*
X83079500Y-45916286D01*
X83112753Y-46126239D01*
X83178444Y-46328414D01*
X83274951Y-46517820D01*
X83399890Y-46689786D01*
X83550213Y-46840109D01*
X83722179Y-46965048D01*
X83722181Y-46965049D01*
X83722184Y-46965051D01*
X83911588Y-47061557D01*
X84113757Y-47127246D01*
X84323713Y-47160500D01*
X84323714Y-47160500D01*
X84536286Y-47160500D01*
X84536287Y-47160500D01*
X84746243Y-47127246D01*
X84948412Y-47061557D01*
X85137816Y-46965051D01*
X85159789Y-46949086D01*
X85309786Y-46840109D01*
X85309788Y-46840106D01*
X85309792Y-46840104D01*
X85460104Y-46689792D01*
X85460106Y-46689788D01*
X85460109Y-46689786D01*
X85585048Y-46517820D01*
X85585047Y-46517820D01*
X85585051Y-46517816D01*
X85681557Y-46328412D01*
X85747246Y-46126243D01*
X85780500Y-45916287D01*
X85780500Y-45703713D01*
X85747246Y-45493757D01*
X85681557Y-45291588D01*
X85585051Y-45102184D01*
X85585049Y-45102181D01*
X85585048Y-45102179D01*
X85460109Y-44930213D01*
X85309786Y-44779890D01*
X85137820Y-44654951D01*
X84948414Y-44558444D01*
X84948413Y-44558443D01*
X84948412Y-44558443D01*
X84746243Y-44492754D01*
X84746241Y-44492753D01*
X84746240Y-44492753D01*
X84584957Y-44467208D01*
X84536287Y-44459500D01*
X84323713Y-44459500D01*
X84275042Y-44467208D01*
X84113760Y-44492753D01*
X83911585Y-44558444D01*
X83722179Y-44654951D01*
X83550213Y-44779890D01*
X83399890Y-44930213D01*
X83274951Y-45102179D01*
X83178444Y-45291585D01*
X83112753Y-45493760D01*
X83079500Y-45703713D01*
X62920500Y-45703713D01*
X62887246Y-45493757D01*
X62821557Y-45291588D01*
X62725051Y-45102184D01*
X62725049Y-45102181D01*
X62725048Y-45102179D01*
X62600109Y-44930213D01*
X62449786Y-44779890D01*
X62277820Y-44654951D01*
X62088414Y-44558444D01*
X62088413Y-44558443D01*
X62088412Y-44558443D01*
X61886243Y-44492754D01*
X61886241Y-44492753D01*
X61886240Y-44492753D01*
X61724957Y-44467208D01*
X61676287Y-44459500D01*
X61463713Y-44459500D01*
X61415042Y-44467208D01*
X61253760Y-44492753D01*
X61051585Y-44558444D01*
X60862179Y-44654951D01*
X60690213Y-44779890D01*
X60539890Y-44930213D01*
X60414951Y-45102179D01*
X60318444Y-45291585D01*
X60252753Y-45493760D01*
X60219500Y-45703713D01*
X45500500Y-45703713D01*
X45500500Y-41885837D01*
X58049500Y-41885837D01*
X58049500Y-42114162D01*
X58085215Y-42339660D01*
X58155770Y-42556803D01*
X58259421Y-42760228D01*
X58393621Y-42944937D01*
X58555063Y-43106379D01*
X58739772Y-43240579D01*
X58835884Y-43289550D01*
X58943196Y-43344229D01*
X58943198Y-43344229D01*
X58943201Y-43344231D01*
X59059592Y-43382049D01*
X59160339Y-43414784D01*
X59385838Y-43450500D01*
X59385843Y-43450500D01*
X59614162Y-43450500D01*
X59839660Y-43414784D01*
X60056799Y-43344231D01*
X60260228Y-43240579D01*
X60444937Y-43106379D01*
X60606379Y-42944937D01*
X60740579Y-42760228D01*
X60844231Y-42556799D01*
X60914784Y-42339660D01*
X60925241Y-42273638D01*
X60950500Y-42114162D01*
X60950500Y-41885837D01*
X85049500Y-41885837D01*
X85049500Y-42114162D01*
X85085215Y-42339660D01*
X85155770Y-42556803D01*
X85259421Y-42760228D01*
X85393621Y-42944937D01*
X85555063Y-43106379D01*
X85739772Y-43240579D01*
X85835884Y-43289550D01*
X85943196Y-43344229D01*
X85943198Y-43344229D01*
X85943201Y-43344231D01*
X86059592Y-43382049D01*
X86160339Y-43414784D01*
X86385838Y-43450500D01*
X86385843Y-43450500D01*
X86614162Y-43450500D01*
X86839660Y-43414784D01*
X87056799Y-43344231D01*
X87260228Y-43240579D01*
X87444937Y-43106379D01*
X87606379Y-42944937D01*
X87740579Y-42760228D01*
X87844231Y-42556799D01*
X87914784Y-42339660D01*
X87925241Y-42273638D01*
X87950500Y-42114162D01*
X87950500Y-41885837D01*
X87914784Y-41660339D01*
X87844229Y-41443196D01*
X87740578Y-41239771D01*
X87606379Y-41055063D01*
X87444937Y-40893621D01*
X87260228Y-40759421D01*
X87056803Y-40655770D01*
X86839660Y-40585215D01*
X86614162Y-40549500D01*
X86614157Y-40549500D01*
X86385843Y-40549500D01*
X86385838Y-40549500D01*
X86160339Y-40585215D01*
X85943196Y-40655770D01*
X85739771Y-40759421D01*
X85555061Y-40893622D01*
X85393622Y-41055061D01*
X85259421Y-41239771D01*
X85155770Y-41443196D01*
X85085215Y-41660339D01*
X85049500Y-41885837D01*
X60950500Y-41885837D01*
X60914784Y-41660339D01*
X60844229Y-41443196D01*
X60740578Y-41239771D01*
X60606379Y-41055063D01*
X60444937Y-40893621D01*
X60260228Y-40759421D01*
X60056803Y-40655770D01*
X59839660Y-40585215D01*
X59614162Y-40549500D01*
X59614157Y-40549500D01*
X59385843Y-40549500D01*
X59385838Y-40549500D01*
X59160339Y-40585215D01*
X58943196Y-40655770D01*
X58739771Y-40759421D01*
X58555061Y-40893622D01*
X58393622Y-41055061D01*
X58259421Y-41239771D01*
X58155770Y-41443196D01*
X58085215Y-41660339D01*
X58049500Y-41885837D01*
X45500500Y-41885837D01*
X45500500Y-38083713D01*
X60219500Y-38083713D01*
X60219500Y-38296286D01*
X60252753Y-38506239D01*
X60318444Y-38708414D01*
X60414951Y-38897820D01*
X60539890Y-39069786D01*
X60690213Y-39220109D01*
X60862179Y-39345048D01*
X60862181Y-39345049D01*
X60862184Y-39345051D01*
X61051588Y-39441557D01*
X61253757Y-39507246D01*
X61463713Y-39540500D01*
X61463714Y-39540500D01*
X61676286Y-39540500D01*
X61676287Y-39540500D01*
X61886243Y-39507246D01*
X62088412Y-39441557D01*
X62277816Y-39345051D01*
X62299789Y-39329086D01*
X62449786Y-39220109D01*
X62449788Y-39220106D01*
X62449792Y-39220104D01*
X62600104Y-39069792D01*
X62600106Y-39069788D01*
X62600109Y-39069786D01*
X62725048Y-38897820D01*
X62725047Y-38897820D01*
X62725051Y-38897816D01*
X62821557Y-38708412D01*
X62887246Y-38506243D01*
X62920500Y-38296287D01*
X62920500Y-38083713D01*
X83079500Y-38083713D01*
X83079500Y-38296286D01*
X83112753Y-38506239D01*
X83178444Y-38708414D01*
X83274951Y-38897820D01*
X83399890Y-39069786D01*
X83550213Y-39220109D01*
X83722179Y-39345048D01*
X83722181Y-39345049D01*
X83722184Y-39345051D01*
X83911588Y-39441557D01*
X84113757Y-39507246D01*
X84323713Y-39540500D01*
X84323714Y-39540500D01*
X84536286Y-39540500D01*
X84536287Y-39540500D01*
X84746243Y-39507246D01*
X84948412Y-39441557D01*
X85137816Y-39345051D01*
X85159789Y-39329086D01*
X85309786Y-39220109D01*
X85309788Y-39220106D01*
X85309792Y-39220104D01*
X85460104Y-39069792D01*
X85460106Y-39069788D01*
X85460109Y-39069786D01*
X85585048Y-38897820D01*
X85585047Y-38897820D01*
X85585051Y-38897816D01*
X85681557Y-38708412D01*
X85747246Y-38506243D01*
X85780500Y-38296287D01*
X85780500Y-38083713D01*
X85747246Y-37873757D01*
X85681557Y-37671588D01*
X85585051Y-37482184D01*
X85585049Y-37482181D01*
X85585048Y-37482179D01*
X85460109Y-37310213D01*
X85309786Y-37159890D01*
X85137820Y-37034951D01*
X84948414Y-36938444D01*
X84948413Y-36938443D01*
X84948412Y-36938443D01*
X84746243Y-36872754D01*
X84746241Y-36872753D01*
X84746240Y-36872753D01*
X84584957Y-36847208D01*
X84536287Y-36839500D01*
X84323713Y-36839500D01*
X84275042Y-36847208D01*
X84113760Y-36872753D01*
X83911585Y-36938444D01*
X83722179Y-37034951D01*
X83550213Y-37159890D01*
X83399890Y-37310213D01*
X83274951Y-37482179D01*
X83178444Y-37671585D01*
X83112753Y-37873760D01*
X83079500Y-38083713D01*
X62920500Y-38083713D01*
X62887246Y-37873757D01*
X62821557Y-37671588D01*
X62725051Y-37482184D01*
X62725049Y-37482181D01*
X62725048Y-37482179D01*
X62600109Y-37310213D01*
X62449786Y-37159890D01*
X62277820Y-37034951D01*
X62088414Y-36938444D01*
X62088413Y-36938443D01*
X62088412Y-36938443D01*
X61886243Y-36872754D01*
X61886241Y-36872753D01*
X61886240Y-36872753D01*
X61724957Y-36847208D01*
X61676287Y-36839500D01*
X61463713Y-36839500D01*
X61415042Y-36847208D01*
X61253760Y-36872753D01*
X61051585Y-36938444D01*
X60862179Y-37034951D01*
X60690213Y-37159890D01*
X60539890Y-37310213D01*
X60414951Y-37482179D01*
X60318444Y-37671585D01*
X60252753Y-37873760D01*
X60219500Y-38083713D01*
X45500500Y-38083713D01*
X45500500Y-32881995D01*
X80199500Y-32881995D01*
X80199500Y-33118004D01*
X80199501Y-33118020D01*
X80230306Y-33352010D01*
X80291394Y-33579993D01*
X80381714Y-33798045D01*
X80381719Y-33798056D01*
X80452677Y-33920957D01*
X80499727Y-34002450D01*
X80499729Y-34002453D01*
X80499730Y-34002454D01*
X80643406Y-34189697D01*
X80643412Y-34189704D01*
X80810295Y-34356587D01*
X80810301Y-34356592D01*
X80997550Y-34500273D01*
X81128918Y-34576118D01*
X81201943Y-34618280D01*
X81201948Y-34618282D01*
X81201951Y-34618284D01*
X81420007Y-34708606D01*
X81647986Y-34769693D01*
X81881989Y-34800500D01*
X81881996Y-34800500D01*
X82118004Y-34800500D01*
X82118011Y-34800500D01*
X82352014Y-34769693D01*
X82579993Y-34708606D01*
X82798049Y-34618284D01*
X83002450Y-34500273D01*
X83189699Y-34356592D01*
X83356592Y-34189699D01*
X83500273Y-34002450D01*
X83618284Y-33798049D01*
X83708606Y-33579993D01*
X83769693Y-33352014D01*
X83800500Y-33118011D01*
X83800500Y-32881989D01*
X83769693Y-32647986D01*
X83708606Y-32420007D01*
X83618284Y-32201951D01*
X83618282Y-32201948D01*
X83618280Y-32201943D01*
X83576118Y-32128918D01*
X83500273Y-31997550D01*
X83356592Y-31810301D01*
X83356587Y-31810295D01*
X83189704Y-31643412D01*
X83189697Y-31643406D01*
X83002454Y-31499730D01*
X83002453Y-31499729D01*
X83002450Y-31499727D01*
X82920957Y-31452677D01*
X82798056Y-31381719D01*
X82798045Y-31381714D01*
X82579993Y-31291394D01*
X82352010Y-31230306D01*
X82118020Y-31199501D01*
X82118017Y-31199500D01*
X82118011Y-31199500D01*
X81881989Y-31199500D01*
X81881983Y-31199500D01*
X81881979Y-31199501D01*
X81647989Y-31230306D01*
X81420006Y-31291394D01*
X81201954Y-31381714D01*
X81201943Y-31381719D01*
X80997545Y-31499730D01*
X80810302Y-31643406D01*
X80810295Y-31643412D01*
X80643412Y-31810295D01*
X80643406Y-31810302D01*
X80499730Y-31997545D01*
X80381719Y-32201943D01*
X80381714Y-32201954D01*
X80291394Y-32420006D01*
X80230306Y-32647989D01*
X80199501Y-32881979D01*
X80199500Y-32881995D01*
X45500500Y-32881995D01*
X45500500Y-29122413D01*
X45520185Y-29055374D01*
X45572989Y-29009619D01*
X45642147Y-28999675D01*
X45699984Y-29024036D01*
X45749060Y-29061694D01*
X45886196Y-29166924D01*
X46113299Y-29298041D01*
X46113309Y-29298046D01*
X46355571Y-29398394D01*
X46355581Y-29398398D01*
X46608884Y-29466270D01*
X46868880Y-29500500D01*
X46868887Y-29500500D01*
X47131113Y-29500500D01*
X47131120Y-29500500D01*
X47391116Y-29466270D01*
X47644419Y-29398398D01*
X47886697Y-29298043D01*
X48113803Y-29166924D01*
X48321851Y-29007282D01*
X48321855Y-29007277D01*
X48321860Y-29007274D01*
X48507274Y-28821860D01*
X48507277Y-28821855D01*
X48507282Y-28821851D01*
X48666924Y-28613803D01*
X48798043Y-28386697D01*
X48898398Y-28144419D01*
X48966270Y-27891116D01*
X49000500Y-27631120D01*
X49000500Y-27368880D01*
X48966270Y-27108884D01*
X48898398Y-26855581D01*
X48800204Y-26618520D01*
X48798046Y-26613309D01*
X48798041Y-26613299D01*
X48666924Y-26386196D01*
X48524039Y-26199987D01*
X48498844Y-26134818D01*
X48512882Y-26066373D01*
X48561696Y-26016383D01*
X48622414Y-26000500D01*
X96627586Y-26000500D01*
X96694625Y-26020185D01*
G37*
%TD.AperFunction*%
%TD*%
M02*
