%TF.GenerationSoftware,KiCad,Pcbnew,9.0.7*%
%TF.CreationDate,2026-02-28T18:20:06-08:00*%
%TF.ProjectId,Schematics_display_device,53636865-6d61-4746-9963-735f64697370,rev?*%
%TF.SameCoordinates,Original*%
%TF.FileFunction,Copper,L2,Bot*%
%TF.FilePolarity,Positive*%
%FSLAX46Y46*%
G04 Gerber Fmt 4.6, Leading zero omitted, Abs format (unit mm)*
G04 Created by KiCad (PCBNEW 9.0.7) date 2026-02-28 18:20:06*
%MOMM*%
%LPD*%
G01*
G04 APERTURE LIST*
G04 Aperture macros list*
%AMRoundRect*
0 Rectangle with rounded corners*
0 $1 Rounding radius*
0 $2 $3 $4 $5 $6 $7 $8 $9 X,Y pos of 4 corners*
0 Add a 4 corners polygon primitive as box body*
4,1,4,$2,$3,$4,$5,$6,$7,$8,$9,$2,$3,0*
0 Add four circle primitives for the rounded corners*
1,1,$1+$1,$2,$3*
1,1,$1+$1,$4,$5*
1,1,$1+$1,$6,$7*
1,1,$1+$1,$8,$9*
0 Add four rect primitives between the rounded corners*
20,1,$1+$1,$2,$3,$4,$5,0*
20,1,$1+$1,$4,$5,$6,$7,0*
20,1,$1+$1,$6,$7,$8,$9,0*
20,1,$1+$1,$8,$9,$2,$3,0*%
G04 Aperture macros list end*
%TA.AperFunction,ComponentPad*%
%ADD10R,1.700000X1.700000*%
%TD*%
%TA.AperFunction,ComponentPad*%
%ADD11C,1.700000*%
%TD*%
%TA.AperFunction,ComponentPad*%
%ADD12O,1.778000X3.556000*%
%TD*%
%TA.AperFunction,ComponentPad*%
%ADD13C,1.905000*%
%TD*%
%TA.AperFunction,ComponentPad*%
%ADD14RoundRect,0.250000X0.350000X0.625000X-0.350000X0.625000X-0.350000X-0.625000X0.350000X-0.625000X0*%
%TD*%
%TA.AperFunction,ComponentPad*%
%ADD15O,1.200000X1.750000*%
%TD*%
%TA.AperFunction,ViaPad*%
%ADD16C,0.600000*%
%TD*%
%TA.AperFunction,Conductor*%
%ADD17C,0.200000*%
%TD*%
G04 APERTURE END LIST*
D10*
%TO.P,SW2,1,A*%
%TO.N,+BATT*%
X57420000Y-95250000D03*
D11*
%TO.P,SW2,2,B*%
%TO.N,Net-(BT1-+)*%
X59960000Y-95250000D03*
%TO.P,SW2,3,C*%
%TO.N,unconnected-(SW2-C-Pad3)*%
X62500000Y-95250000D03*
%TD*%
%TO.P,M1,1*%
%TO.N,/D7*%
X93250000Y-44500000D03*
%TO.P,M1,2,-*%
%TO.N,/D8*%
X93250000Y-52120000D03*
%TO.P,M1,3*%
%TO.N,/D9*%
X70390000Y-52120000D03*
%TO.P,M1,4*%
%TO.N,/D10*%
X70390000Y-44500000D03*
%TD*%
D12*
%TO.P,U1,1,GPIO1_A0_D0*%
%TO.N,unconnected-(U1-GPIO1_A0_D0-Pad1)*%
X33800000Y-85252000D03*
%TO.P,U1,2,GPIO2_A1_D1*%
%TO.N,unconnected-(U1-GPIO2_A1_D1-Pad2)*%
X36340000Y-85252000D03*
%TO.P,U1,3,GPIO3_A2_D2*%
%TO.N,Net-(U1-GPIO3_A2_D2)*%
X38880000Y-85252000D03*
%TO.P,U1,4,GPIO4_A3_D3*%
%TO.N,unconnected-(U1-GPIO4_A3_D3-Pad4)*%
X41420000Y-85252000D03*
%TO.P,U1,5,GPIO4_A3_D3_SDA*%
%TO.N,unconnected-(U1-GPIO4_A3_D3_SDA-Pad5)*%
X43960000Y-85252000D03*
%TO.P,U1,6,GPIO6_A5_D5_SCL*%
%TO.N,unconnected-(U1-GPIO6_A5_D5_SCL-Pad6)*%
X46500000Y-85252000D03*
%TO.P,U1,7,GPIO43_TX_D6*%
%TO.N,unconnected-(U1-GPIO43_TX_D6-Pad7)*%
X49040000Y-85252000D03*
%TO.P,U1,8,GPIO44_D7_RX*%
%TO.N,/D7*%
X49040000Y-68488000D03*
%TO.P,U1,9,GPIO7_A8_D8_SCK*%
%TO.N,/D8*%
X46500000Y-68488000D03*
%TO.P,U1,10,GPIO8_A9_D9_CIPO*%
%TO.N,/D9*%
X43960000Y-68488000D03*
%TO.P,U1,11,GPIO9_A10_D10_COPI*%
%TO.N,/D10*%
X41420000Y-68488000D03*
%TO.P,U1,12,3V3*%
%TO.N,unconnected-(U1-3V3-Pad12)*%
X38880000Y-68488000D03*
%TO.P,U1,13,GND*%
%TO.N,GND*%
X36340000Y-68488000D03*
%TO.P,U1,14,5V*%
%TO.N,unconnected-(U1-5V-Pad14)*%
X33800000Y-68488000D03*
D13*
%TO.P,U1,15,+BATT*%
%TO.N,+BATT*%
X59200000Y-79410000D03*
%TO.P,U1,16,-BATT*%
%TO.N,-BATT*%
X59200000Y-74330000D03*
%TD*%
D14*
%TO.P,BT1,1,+*%
%TO.N,Net-(BT1-+)*%
X77250000Y-95250000D03*
D15*
%TO.P,BT1,2,-*%
%TO.N,-BATT*%
X75250000Y-95250000D03*
%TD*%
D16*
%TO.N,-BATT*%
X67000000Y-86250000D03*
X69000000Y-93250000D03*
%TO.N,+BATT*%
X54250000Y-75250000D03*
X57500000Y-92250000D03*
X51000000Y-49500000D03*
X59250000Y-84250000D03*
%TD*%
D17*
%TO.N,-BATT*%
X69000000Y-88250000D02*
X67000000Y-86250000D01*
X69000000Y-93250000D02*
X69000000Y-88250000D01*
%TO.N,+BATT*%
X57500000Y-86000000D02*
X57500000Y-92250000D01*
X51000000Y-49500000D02*
X54250000Y-52750000D01*
X59250000Y-84250000D02*
X57500000Y-86000000D01*
X54250000Y-52750000D02*
X54250000Y-75250000D01*
%TD*%
%TA.AperFunction,Conductor*%
%TO.N,GND*%
G36*
X96694625Y-26020185D02*
G01*
X96740380Y-26072989D01*
X96750324Y-26142147D01*
X96725961Y-26199987D01*
X96583075Y-26386196D01*
X96451958Y-26613299D01*
X96451953Y-26613309D01*
X96351605Y-26855571D01*
X96351602Y-26855581D01*
X96283730Y-27108885D01*
X96249500Y-27368872D01*
X96249500Y-27631127D01*
X96270436Y-27790140D01*
X96283730Y-27891116D01*
X96305178Y-27971161D01*
X96351602Y-28144418D01*
X96351605Y-28144428D01*
X96451953Y-28386690D01*
X96451958Y-28386700D01*
X96583075Y-28613803D01*
X96742718Y-28821851D01*
X96742726Y-28821860D01*
X96928140Y-29007274D01*
X96928148Y-29007281D01*
X97136196Y-29166924D01*
X97363299Y-29298041D01*
X97363309Y-29298046D01*
X97605571Y-29398394D01*
X97605581Y-29398398D01*
X97858884Y-29466270D01*
X98118880Y-29500500D01*
X98118887Y-29500500D01*
X98381113Y-29500500D01*
X98381120Y-29500500D01*
X98641116Y-29466270D01*
X98894419Y-29398398D01*
X99136697Y-29298043D01*
X99363803Y-29166924D01*
X99550015Y-29024036D01*
X99615182Y-28998843D01*
X99683627Y-29012881D01*
X99733617Y-29061694D01*
X99749500Y-29122413D01*
X99749500Y-99377586D01*
X99729815Y-99444625D01*
X99677011Y-99490380D01*
X99607853Y-99500324D01*
X99550013Y-99475961D01*
X99363803Y-99333075D01*
X99136700Y-99201958D01*
X99136690Y-99201953D01*
X98894428Y-99101605D01*
X98894421Y-99101603D01*
X98894419Y-99101602D01*
X98641116Y-99033730D01*
X98583339Y-99026123D01*
X98381127Y-98999500D01*
X98381120Y-98999500D01*
X98118880Y-98999500D01*
X98118872Y-98999500D01*
X97887772Y-99029926D01*
X97858884Y-99033730D01*
X97605581Y-99101602D01*
X97605571Y-99101605D01*
X97363309Y-99201953D01*
X97363299Y-99201958D01*
X97136196Y-99333075D01*
X96928148Y-99492718D01*
X96742718Y-99678148D01*
X96583075Y-99886196D01*
X96451958Y-100113299D01*
X96451953Y-100113309D01*
X96351605Y-100355571D01*
X96351602Y-100355581D01*
X96283730Y-100608885D01*
X96249500Y-100868872D01*
X96249500Y-101131127D01*
X96270436Y-101290140D01*
X96283730Y-101391116D01*
X96305178Y-101471161D01*
X96351602Y-101644418D01*
X96351605Y-101644428D01*
X96451953Y-101886690D01*
X96451958Y-101886700D01*
X96583075Y-102113803D01*
X96725961Y-102300013D01*
X96751156Y-102365182D01*
X96737118Y-102433627D01*
X96688304Y-102483617D01*
X96627586Y-102499500D01*
X35372414Y-102499500D01*
X35305375Y-102479815D01*
X35259620Y-102427011D01*
X35249676Y-102357853D01*
X35274039Y-102300013D01*
X35416924Y-102113803D01*
X35548041Y-101886700D01*
X35548046Y-101886690D01*
X35648394Y-101644428D01*
X35648398Y-101644419D01*
X35716270Y-101391116D01*
X35750500Y-101131120D01*
X35750500Y-100868880D01*
X35716270Y-100608884D01*
X35648398Y-100355581D01*
X35550204Y-100118520D01*
X35548046Y-100113309D01*
X35548041Y-100113299D01*
X35416924Y-99886196D01*
X35257281Y-99678148D01*
X35257274Y-99678140D01*
X35071860Y-99492726D01*
X35071851Y-99492718D01*
X34863803Y-99333075D01*
X34636700Y-99201958D01*
X34636690Y-99201953D01*
X34394428Y-99101605D01*
X34394421Y-99101603D01*
X34394419Y-99101602D01*
X34141116Y-99033730D01*
X34083339Y-99026123D01*
X33881127Y-98999500D01*
X33881120Y-98999500D01*
X33618880Y-98999500D01*
X33618872Y-98999500D01*
X33387772Y-99029926D01*
X33358884Y-99033730D01*
X33105581Y-99101602D01*
X33105571Y-99101605D01*
X32863309Y-99201953D01*
X32863299Y-99201958D01*
X32636196Y-99333075D01*
X32449987Y-99475961D01*
X32384818Y-99501156D01*
X32316373Y-99487118D01*
X32266383Y-99438304D01*
X32250500Y-99377586D01*
X32250500Y-94352135D01*
X56069500Y-94352135D01*
X56069500Y-96147870D01*
X56069501Y-96147876D01*
X56075908Y-96207483D01*
X56126202Y-96342328D01*
X56126206Y-96342335D01*
X56212452Y-96457544D01*
X56212455Y-96457547D01*
X56327664Y-96543793D01*
X56327671Y-96543797D01*
X56462517Y-96594091D01*
X56462516Y-96594091D01*
X56469444Y-96594835D01*
X56522127Y-96600500D01*
X58317872Y-96600499D01*
X58377483Y-96594091D01*
X58512331Y-96543796D01*
X58627546Y-96457546D01*
X58713796Y-96342331D01*
X58762810Y-96210916D01*
X58804681Y-96154984D01*
X58870145Y-96130566D01*
X58938418Y-96145417D01*
X58966673Y-96166569D01*
X59080213Y-96280109D01*
X59252179Y-96405048D01*
X59252181Y-96405049D01*
X59252184Y-96405051D01*
X59441588Y-96501557D01*
X59643757Y-96567246D01*
X59853713Y-96600500D01*
X59853714Y-96600500D01*
X60066286Y-96600500D01*
X60066287Y-96600500D01*
X60276243Y-96567246D01*
X60478412Y-96501557D01*
X60667816Y-96405051D01*
X60689789Y-96389086D01*
X60839786Y-96280109D01*
X60839788Y-96280106D01*
X60839792Y-96280104D01*
X60990104Y-96129792D01*
X60990106Y-96129788D01*
X60990109Y-96129786D01*
X61115048Y-95957820D01*
X61115047Y-95957820D01*
X61115051Y-95957816D01*
X61119514Y-95949054D01*
X61167488Y-95898259D01*
X61235308Y-95881463D01*
X61301444Y-95903999D01*
X61340486Y-95949056D01*
X61344951Y-95957820D01*
X61469890Y-96129786D01*
X61620213Y-96280109D01*
X61792179Y-96405048D01*
X61792181Y-96405049D01*
X61792184Y-96405051D01*
X61981588Y-96501557D01*
X62183757Y-96567246D01*
X62393713Y-96600500D01*
X62393714Y-96600500D01*
X62606286Y-96600500D01*
X62606287Y-96600500D01*
X62816243Y-96567246D01*
X63018412Y-96501557D01*
X63207816Y-96405051D01*
X63229789Y-96389086D01*
X63379786Y-96280109D01*
X63379788Y-96280106D01*
X63379792Y-96280104D01*
X63530104Y-96129792D01*
X63530106Y-96129788D01*
X63530109Y-96129786D01*
X63655048Y-95957820D01*
X63655047Y-95957820D01*
X63655051Y-95957816D01*
X63751557Y-95768412D01*
X63817246Y-95566243D01*
X63850500Y-95356287D01*
X63850500Y-95143713D01*
X63817246Y-94933757D01*
X63802505Y-94888389D01*
X74149500Y-94888389D01*
X74149500Y-95611610D01*
X74165344Y-95711650D01*
X74176598Y-95782701D01*
X74230127Y-95947445D01*
X74308768Y-96101788D01*
X74410586Y-96241928D01*
X74533072Y-96364414D01*
X74673212Y-96466232D01*
X74827555Y-96544873D01*
X74992299Y-96598402D01*
X75163389Y-96625500D01*
X75163390Y-96625500D01*
X75336610Y-96625500D01*
X75336611Y-96625500D01*
X75507701Y-96598402D01*
X75672445Y-96544873D01*
X75826788Y-96466232D01*
X75966928Y-96364414D01*
X76074472Y-96256869D01*
X76135791Y-96223387D01*
X76205483Y-96228371D01*
X76261417Y-96270242D01*
X76267688Y-96279456D01*
X76307285Y-96343652D01*
X76307288Y-96343656D01*
X76431344Y-96467712D01*
X76580666Y-96559814D01*
X76747203Y-96614999D01*
X76849991Y-96625500D01*
X77650008Y-96625499D01*
X77650016Y-96625498D01*
X77650019Y-96625498D01*
X77706302Y-96619748D01*
X77752797Y-96614999D01*
X77919334Y-96559814D01*
X78068656Y-96467712D01*
X78192712Y-96343656D01*
X78284814Y-96194334D01*
X78339999Y-96027797D01*
X78350500Y-95925009D01*
X78350499Y-94574992D01*
X78347147Y-94542182D01*
X78339999Y-94472203D01*
X78339998Y-94472200D01*
X78284814Y-94305666D01*
X78192712Y-94156344D01*
X78068656Y-94032288D01*
X77945307Y-93956206D01*
X77919336Y-93940187D01*
X77919331Y-93940185D01*
X77917862Y-93939698D01*
X77752797Y-93885001D01*
X77752795Y-93885000D01*
X77650010Y-93874500D01*
X76849998Y-93874500D01*
X76849980Y-93874501D01*
X76747203Y-93885000D01*
X76747200Y-93885001D01*
X76580668Y-93940185D01*
X76580663Y-93940187D01*
X76431342Y-94032289D01*
X76307287Y-94156344D01*
X76267688Y-94220544D01*
X76215739Y-94267268D01*
X76146777Y-94278489D01*
X76082695Y-94250645D01*
X76074469Y-94243127D01*
X75966930Y-94135588D01*
X75966928Y-94135586D01*
X75826788Y-94033768D01*
X75672445Y-93955127D01*
X75507701Y-93901598D01*
X75507699Y-93901597D01*
X75507698Y-93901597D01*
X75376271Y-93880781D01*
X75336611Y-93874500D01*
X75163389Y-93874500D01*
X75123728Y-93880781D01*
X74992302Y-93901597D01*
X74827552Y-93955128D01*
X74673211Y-94033768D01*
X74650182Y-94050500D01*
X74533072Y-94135586D01*
X74533070Y-94135588D01*
X74533069Y-94135588D01*
X74410588Y-94258069D01*
X74410588Y-94258070D01*
X74410586Y-94258072D01*
X74403905Y-94267268D01*
X74308768Y-94398211D01*
X74230128Y-94552552D01*
X74176597Y-94717302D01*
X74149500Y-94888389D01*
X63802505Y-94888389D01*
X63751557Y-94731588D01*
X63655051Y-94542184D01*
X63655049Y-94542181D01*
X63655048Y-94542179D01*
X63530109Y-94370213D01*
X63379786Y-94219890D01*
X63207820Y-94094951D01*
X63018414Y-93998444D01*
X63018413Y-93998443D01*
X63018412Y-93998443D01*
X62816243Y-93932754D01*
X62816241Y-93932753D01*
X62816240Y-93932753D01*
X62654957Y-93907208D01*
X62606287Y-93899500D01*
X62393713Y-93899500D01*
X62345042Y-93907208D01*
X62183760Y-93932753D01*
X61981585Y-93998444D01*
X61792179Y-94094951D01*
X61620213Y-94219890D01*
X61469890Y-94370213D01*
X61344949Y-94542182D01*
X61340484Y-94550946D01*
X61292509Y-94601742D01*
X61224688Y-94618536D01*
X61158553Y-94595998D01*
X61119516Y-94550946D01*
X61115050Y-94542182D01*
X60990109Y-94370213D01*
X60839786Y-94219890D01*
X60667820Y-94094951D01*
X60478414Y-93998444D01*
X60478413Y-93998443D01*
X60478412Y-93998443D01*
X60276243Y-93932754D01*
X60276241Y-93932753D01*
X60276240Y-93932753D01*
X60114957Y-93907208D01*
X60066287Y-93899500D01*
X59853713Y-93899500D01*
X59805042Y-93907208D01*
X59643760Y-93932753D01*
X59441585Y-93998444D01*
X59252179Y-94094951D01*
X59080215Y-94219889D01*
X58966673Y-94333431D01*
X58905350Y-94366915D01*
X58835658Y-94361931D01*
X58779725Y-94320059D01*
X58762810Y-94289082D01*
X58713797Y-94157671D01*
X58713793Y-94157664D01*
X58627547Y-94042455D01*
X58627544Y-94042452D01*
X58512335Y-93956206D01*
X58512328Y-93956202D01*
X58377482Y-93905908D01*
X58377483Y-93905908D01*
X58317883Y-93899501D01*
X58317881Y-93899500D01*
X58317873Y-93899500D01*
X58317864Y-93899500D01*
X56522129Y-93899500D01*
X56522123Y-93899501D01*
X56462516Y-93905908D01*
X56327671Y-93956202D01*
X56327664Y-93956206D01*
X56212455Y-94042452D01*
X56212452Y-94042455D01*
X56126206Y-94157664D01*
X56126202Y-94157671D01*
X56075908Y-94292517D01*
X56069501Y-94352116D01*
X56069500Y-94352135D01*
X32250500Y-94352135D01*
X32250500Y-92171153D01*
X56699500Y-92171153D01*
X56699500Y-92328846D01*
X56730261Y-92483489D01*
X56730264Y-92483501D01*
X56790602Y-92629172D01*
X56790609Y-92629185D01*
X56878210Y-92760288D01*
X56878213Y-92760292D01*
X56989707Y-92871786D01*
X56989711Y-92871789D01*
X57120814Y-92959390D01*
X57120827Y-92959397D01*
X57258683Y-93016498D01*
X57266503Y-93019737D01*
X57421153Y-93050499D01*
X57421156Y-93050500D01*
X57421158Y-93050500D01*
X57578844Y-93050500D01*
X57578845Y-93050499D01*
X57733497Y-93019737D01*
X57879179Y-92959394D01*
X58010289Y-92871789D01*
X58121789Y-92760289D01*
X58209394Y-92629179D01*
X58269737Y-92483497D01*
X58300500Y-92328842D01*
X58300500Y-92171158D01*
X58300500Y-92171155D01*
X58300499Y-92171153D01*
X58269738Y-92016510D01*
X58269737Y-92016503D01*
X58269735Y-92016498D01*
X58209397Y-91870827D01*
X58209390Y-91870814D01*
X58121398Y-91739125D01*
X58100520Y-91672447D01*
X58100500Y-91670234D01*
X58100500Y-86300097D01*
X58109144Y-86270656D01*
X58115668Y-86240670D01*
X58119422Y-86235654D01*
X58120185Y-86233058D01*
X58136819Y-86212416D01*
X58178082Y-86171153D01*
X66199500Y-86171153D01*
X66199500Y-86328846D01*
X66230261Y-86483489D01*
X66230264Y-86483501D01*
X66290602Y-86629172D01*
X66290609Y-86629185D01*
X66378210Y-86760288D01*
X66378213Y-86760292D01*
X66489707Y-86871786D01*
X66489711Y-86871789D01*
X66620814Y-86959390D01*
X66620827Y-86959397D01*
X66766498Y-87019735D01*
X66766503Y-87019737D01*
X66831147Y-87032595D01*
X66921849Y-87050638D01*
X66983760Y-87083023D01*
X66985339Y-87084574D01*
X68363181Y-88462416D01*
X68396666Y-88523739D01*
X68399500Y-88550097D01*
X68399500Y-92670234D01*
X68379815Y-92737273D01*
X68378602Y-92739125D01*
X68290609Y-92870814D01*
X68290602Y-92870827D01*
X68230264Y-93016498D01*
X68230261Y-93016510D01*
X68199500Y-93171153D01*
X68199500Y-93328846D01*
X68230261Y-93483489D01*
X68230264Y-93483501D01*
X68290602Y-93629172D01*
X68290609Y-93629185D01*
X68378210Y-93760288D01*
X68378213Y-93760292D01*
X68489707Y-93871786D01*
X68489711Y-93871789D01*
X68620814Y-93959390D01*
X68620827Y-93959397D01*
X68766498Y-94019735D01*
X68766503Y-94019737D01*
X68921153Y-94050499D01*
X68921156Y-94050500D01*
X68921158Y-94050500D01*
X69078844Y-94050500D01*
X69078845Y-94050499D01*
X69233497Y-94019737D01*
X69379179Y-93959394D01*
X69510289Y-93871789D01*
X69621789Y-93760289D01*
X69709394Y-93629179D01*
X69769737Y-93483497D01*
X69800500Y-93328842D01*
X69800500Y-93171158D01*
X69800500Y-93171155D01*
X69800499Y-93171153D01*
X69769738Y-93016510D01*
X69769737Y-93016503D01*
X69709794Y-92871786D01*
X69709397Y-92870827D01*
X69709390Y-92870814D01*
X69621398Y-92739125D01*
X69600520Y-92672447D01*
X69600500Y-92670234D01*
X69600500Y-88170945D01*
X69600500Y-88170943D01*
X69559577Y-88018216D01*
X69559577Y-88018215D01*
X69559577Y-88018214D01*
X69530639Y-87968095D01*
X69530637Y-87968092D01*
X69480520Y-87881284D01*
X69368716Y-87769480D01*
X69368715Y-87769479D01*
X69364385Y-87765149D01*
X69364374Y-87765139D01*
X67834574Y-86235339D01*
X67801089Y-86174016D01*
X67800638Y-86171849D01*
X67769738Y-86016510D01*
X67769737Y-86016503D01*
X67730155Y-85920943D01*
X67709397Y-85870827D01*
X67709390Y-85870814D01*
X67621789Y-85739711D01*
X67621786Y-85739707D01*
X67510292Y-85628213D01*
X67510288Y-85628210D01*
X67379185Y-85540609D01*
X67379172Y-85540602D01*
X67233501Y-85480264D01*
X67233489Y-85480261D01*
X67078845Y-85449500D01*
X67078842Y-85449500D01*
X66921158Y-85449500D01*
X66921155Y-85449500D01*
X66766510Y-85480261D01*
X66766498Y-85480264D01*
X66620827Y-85540602D01*
X66620814Y-85540609D01*
X66489711Y-85628210D01*
X66489707Y-85628213D01*
X66378213Y-85739707D01*
X66378210Y-85739711D01*
X66290609Y-85870814D01*
X66290602Y-85870827D01*
X66230264Y-86016498D01*
X66230261Y-86016510D01*
X66199500Y-86171153D01*
X58178082Y-86171153D01*
X58631141Y-85718094D01*
X59264664Y-85084571D01*
X59325985Y-85051088D01*
X59328152Y-85050637D01*
X59328841Y-85050500D01*
X59328842Y-85050500D01*
X59483497Y-85019737D01*
X59629179Y-84959394D01*
X59760289Y-84871789D01*
X59871789Y-84760289D01*
X59959394Y-84629179D01*
X60019737Y-84483497D01*
X60050500Y-84328842D01*
X60050500Y-84171158D01*
X60050500Y-84171155D01*
X60050499Y-84171153D01*
X60019738Y-84016510D01*
X60019738Y-84016508D01*
X60019737Y-84016503D01*
X60002810Y-83975638D01*
X59959397Y-83870827D01*
X59959390Y-83870814D01*
X59871789Y-83739711D01*
X59871786Y-83739707D01*
X59760292Y-83628213D01*
X59760288Y-83628210D01*
X59629185Y-83540609D01*
X59629172Y-83540602D01*
X59483501Y-83480264D01*
X59483489Y-83480261D01*
X59328845Y-83449500D01*
X59328842Y-83449500D01*
X59171158Y-83449500D01*
X59171155Y-83449500D01*
X59016510Y-83480261D01*
X59016498Y-83480264D01*
X58870827Y-83540602D01*
X58870814Y-83540609D01*
X58739711Y-83628210D01*
X58739707Y-83628213D01*
X58628213Y-83739707D01*
X58628210Y-83739711D01*
X58540609Y-83870814D01*
X58540602Y-83870827D01*
X58480264Y-84016498D01*
X58480261Y-84016508D01*
X58449362Y-84171848D01*
X58416977Y-84233759D01*
X58415426Y-84235337D01*
X57131286Y-85519478D01*
X57019481Y-85631282D01*
X57019479Y-85631285D01*
X56969361Y-85718094D01*
X56969359Y-85718096D01*
X56940425Y-85768209D01*
X56940424Y-85768210D01*
X56940423Y-85768215D01*
X56899499Y-85920943D01*
X56899499Y-85920945D01*
X56899499Y-86089046D01*
X56899500Y-86089059D01*
X56899500Y-91670234D01*
X56879815Y-91737273D01*
X56878602Y-91739125D01*
X56790609Y-91870814D01*
X56790602Y-91870827D01*
X56730264Y-92016498D01*
X56730261Y-92016510D01*
X56699500Y-92171153D01*
X32250500Y-92171153D01*
X32250500Y-86651553D01*
X32270185Y-86584514D01*
X32322989Y-86538759D01*
X32392147Y-86528815D01*
X32455703Y-86557840D01*
X32492431Y-86613236D01*
X32512296Y-86674377D01*
X32512298Y-86674383D01*
X32611595Y-86869260D01*
X32740142Y-87046193D01*
X32894806Y-87200857D01*
X33060374Y-87321147D01*
X33071743Y-87329407D01*
X33199132Y-87394315D01*
X33266616Y-87428701D01*
X33266619Y-87428702D01*
X33370621Y-87462493D01*
X33474625Y-87496286D01*
X33574672Y-87512132D01*
X33690639Y-87530500D01*
X33690644Y-87530500D01*
X33909361Y-87530500D01*
X34014082Y-87513912D01*
X34125375Y-87496286D01*
X34333383Y-87428701D01*
X34528257Y-87329407D01*
X34627601Y-87257229D01*
X34705193Y-87200857D01*
X34705195Y-87200854D01*
X34705199Y-87200852D01*
X34859852Y-87046199D01*
X34969683Y-86895028D01*
X35025011Y-86852364D01*
X35094624Y-86846385D01*
X35156420Y-86878990D01*
X35170313Y-86895023D01*
X35260923Y-87019738D01*
X35280148Y-87046199D01*
X35434806Y-87200857D01*
X35600374Y-87321147D01*
X35611743Y-87329407D01*
X35739132Y-87394315D01*
X35806616Y-87428701D01*
X35806619Y-87428702D01*
X35910621Y-87462493D01*
X36014625Y-87496286D01*
X36114672Y-87512132D01*
X36230639Y-87530500D01*
X36230644Y-87530500D01*
X36449361Y-87530500D01*
X36554082Y-87513912D01*
X36665375Y-87496286D01*
X36873383Y-87428701D01*
X37068257Y-87329407D01*
X37167601Y-87257229D01*
X37245193Y-87200857D01*
X37245195Y-87200854D01*
X37245199Y-87200852D01*
X37399852Y-87046199D01*
X37509683Y-86895028D01*
X37565011Y-86852364D01*
X37634624Y-86846385D01*
X37696420Y-86878990D01*
X37710313Y-86895023D01*
X37800923Y-87019738D01*
X37820148Y-87046199D01*
X37974806Y-87200857D01*
X38140374Y-87321147D01*
X38151743Y-87329407D01*
X38279132Y-87394315D01*
X38346616Y-87428701D01*
X38346619Y-87428702D01*
X38450621Y-87462493D01*
X38554625Y-87496286D01*
X38654672Y-87512132D01*
X38770639Y-87530500D01*
X38770644Y-87530500D01*
X38989361Y-87530500D01*
X39094082Y-87513912D01*
X39205375Y-87496286D01*
X39413383Y-87428701D01*
X39608257Y-87329407D01*
X39707601Y-87257229D01*
X39785193Y-87200857D01*
X39785195Y-87200854D01*
X39785199Y-87200852D01*
X39939852Y-87046199D01*
X40049683Y-86895028D01*
X40105011Y-86852364D01*
X40174624Y-86846385D01*
X40236420Y-86878990D01*
X40250313Y-86895023D01*
X40340923Y-87019738D01*
X40360148Y-87046199D01*
X40514806Y-87200857D01*
X40680374Y-87321147D01*
X40691743Y-87329407D01*
X40819132Y-87394315D01*
X40886616Y-87428701D01*
X40886619Y-87428702D01*
X40990621Y-87462493D01*
X41094625Y-87496286D01*
X41194672Y-87512132D01*
X41310639Y-87530500D01*
X41310644Y-87530500D01*
X41529361Y-87530500D01*
X41634082Y-87513912D01*
X41745375Y-87496286D01*
X41953383Y-87428701D01*
X42148257Y-87329407D01*
X42247601Y-87257229D01*
X42325193Y-87200857D01*
X42325195Y-87200854D01*
X42325199Y-87200852D01*
X42479852Y-87046199D01*
X42589683Y-86895028D01*
X42645011Y-86852364D01*
X42714624Y-86846385D01*
X42776420Y-86878990D01*
X42790313Y-86895023D01*
X42880923Y-87019738D01*
X42900148Y-87046199D01*
X43054806Y-87200857D01*
X43220374Y-87321147D01*
X43231743Y-87329407D01*
X43359132Y-87394315D01*
X43426616Y-87428701D01*
X43426619Y-87428702D01*
X43530621Y-87462493D01*
X43634625Y-87496286D01*
X43734672Y-87512132D01*
X43850639Y-87530500D01*
X43850644Y-87530500D01*
X44069361Y-87530500D01*
X44174082Y-87513912D01*
X44285375Y-87496286D01*
X44493383Y-87428701D01*
X44688257Y-87329407D01*
X44787601Y-87257229D01*
X44865193Y-87200857D01*
X44865195Y-87200854D01*
X44865199Y-87200852D01*
X45019852Y-87046199D01*
X45129683Y-86895028D01*
X45185011Y-86852364D01*
X45254624Y-86846385D01*
X45316420Y-86878990D01*
X45330313Y-86895023D01*
X45420923Y-87019738D01*
X45440148Y-87046199D01*
X45594806Y-87200857D01*
X45760374Y-87321147D01*
X45771743Y-87329407D01*
X45899132Y-87394315D01*
X45966616Y-87428701D01*
X45966619Y-87428702D01*
X46070621Y-87462493D01*
X46174625Y-87496286D01*
X46274672Y-87512132D01*
X46390639Y-87530500D01*
X46390644Y-87530500D01*
X46609361Y-87530500D01*
X46714082Y-87513912D01*
X46825375Y-87496286D01*
X47033383Y-87428701D01*
X47228257Y-87329407D01*
X47327601Y-87257229D01*
X47405193Y-87200857D01*
X47405195Y-87200854D01*
X47405199Y-87200852D01*
X47559852Y-87046199D01*
X47669683Y-86895028D01*
X47725011Y-86852364D01*
X47794624Y-86846385D01*
X47856420Y-86878990D01*
X47870313Y-86895023D01*
X47960923Y-87019738D01*
X47980148Y-87046199D01*
X48134806Y-87200857D01*
X48300374Y-87321147D01*
X48311743Y-87329407D01*
X48439132Y-87394315D01*
X48506616Y-87428701D01*
X48506619Y-87428702D01*
X48610621Y-87462493D01*
X48714625Y-87496286D01*
X48814672Y-87512132D01*
X48930639Y-87530500D01*
X48930644Y-87530500D01*
X49149361Y-87530500D01*
X49254082Y-87513912D01*
X49365375Y-87496286D01*
X49573383Y-87428701D01*
X49768257Y-87329407D01*
X49867601Y-87257229D01*
X49945193Y-87200857D01*
X49945195Y-87200854D01*
X49945199Y-87200852D01*
X50099852Y-87046199D01*
X50099854Y-87046195D01*
X50099857Y-87046193D01*
X50162922Y-86959390D01*
X50228407Y-86869257D01*
X50327701Y-86674383D01*
X50395286Y-86466375D01*
X50412912Y-86355082D01*
X50429500Y-86250361D01*
X50429500Y-84253638D01*
X50409595Y-84127971D01*
X50395286Y-84037625D01*
X50341087Y-83870814D01*
X50327702Y-83829619D01*
X50327701Y-83829616D01*
X50240060Y-83657614D01*
X50228407Y-83634743D01*
X50209681Y-83608969D01*
X50099857Y-83457806D01*
X49945193Y-83303142D01*
X49768260Y-83174595D01*
X49768259Y-83174594D01*
X49768257Y-83174593D01*
X49705825Y-83142782D01*
X49573383Y-83075298D01*
X49573380Y-83075297D01*
X49365376Y-83007714D01*
X49149361Y-82973500D01*
X49149356Y-82973500D01*
X48930644Y-82973500D01*
X48930639Y-82973500D01*
X48714623Y-83007714D01*
X48506619Y-83075297D01*
X48506616Y-83075298D01*
X48311739Y-83174595D01*
X48134806Y-83303142D01*
X47980142Y-83457806D01*
X47870318Y-83608969D01*
X47814989Y-83651635D01*
X47745375Y-83657614D01*
X47683580Y-83625009D01*
X47669682Y-83608969D01*
X47559857Y-83457806D01*
X47405193Y-83303142D01*
X47228260Y-83174595D01*
X47228259Y-83174594D01*
X47228257Y-83174593D01*
X47165825Y-83142782D01*
X47033383Y-83075298D01*
X47033380Y-83075297D01*
X46825376Y-83007714D01*
X46609361Y-82973500D01*
X46609356Y-82973500D01*
X46390644Y-82973500D01*
X46390639Y-82973500D01*
X46174623Y-83007714D01*
X45966619Y-83075297D01*
X45966616Y-83075298D01*
X45771739Y-83174595D01*
X45594806Y-83303142D01*
X45440142Y-83457806D01*
X45330318Y-83608969D01*
X45274989Y-83651635D01*
X45205375Y-83657614D01*
X45143580Y-83625009D01*
X45129682Y-83608969D01*
X45019857Y-83457806D01*
X44865193Y-83303142D01*
X44688260Y-83174595D01*
X44688259Y-83174594D01*
X44688257Y-83174593D01*
X44625825Y-83142782D01*
X44493383Y-83075298D01*
X44493380Y-83075297D01*
X44285376Y-83007714D01*
X44069361Y-82973500D01*
X44069356Y-82973500D01*
X43850644Y-82973500D01*
X43850639Y-82973500D01*
X43634623Y-83007714D01*
X43426619Y-83075297D01*
X43426616Y-83075298D01*
X43231739Y-83174595D01*
X43054806Y-83303142D01*
X42900142Y-83457806D01*
X42790318Y-83608969D01*
X42734989Y-83651635D01*
X42665375Y-83657614D01*
X42603580Y-83625009D01*
X42589682Y-83608969D01*
X42479857Y-83457806D01*
X42325193Y-83303142D01*
X42148260Y-83174595D01*
X42148259Y-83174594D01*
X42148257Y-83174593D01*
X42085825Y-83142782D01*
X41953383Y-83075298D01*
X41953380Y-83075297D01*
X41745376Y-83007714D01*
X41529361Y-82973500D01*
X41529356Y-82973500D01*
X41310644Y-82973500D01*
X41310639Y-82973500D01*
X41094623Y-83007714D01*
X40886619Y-83075297D01*
X40886616Y-83075298D01*
X40691739Y-83174595D01*
X40514806Y-83303142D01*
X40360142Y-83457806D01*
X40250318Y-83608969D01*
X40194989Y-83651635D01*
X40125375Y-83657614D01*
X40063580Y-83625009D01*
X40049682Y-83608969D01*
X39939857Y-83457806D01*
X39785193Y-83303142D01*
X39608260Y-83174595D01*
X39608259Y-83174594D01*
X39608257Y-83174593D01*
X39545825Y-83142782D01*
X39413383Y-83075298D01*
X39413380Y-83075297D01*
X39205376Y-83007714D01*
X38989361Y-82973500D01*
X38989356Y-82973500D01*
X38770644Y-82973500D01*
X38770639Y-82973500D01*
X38554623Y-83007714D01*
X38346619Y-83075297D01*
X38346616Y-83075298D01*
X38151739Y-83174595D01*
X37974806Y-83303142D01*
X37820142Y-83457806D01*
X37710318Y-83608969D01*
X37654989Y-83651635D01*
X37585375Y-83657614D01*
X37523580Y-83625009D01*
X37509682Y-83608969D01*
X37399857Y-83457806D01*
X37245193Y-83303142D01*
X37068260Y-83174595D01*
X37068259Y-83174594D01*
X37068257Y-83174593D01*
X37005825Y-83142782D01*
X36873383Y-83075298D01*
X36873380Y-83075297D01*
X36665376Y-83007714D01*
X36449361Y-82973500D01*
X36449356Y-82973500D01*
X36230644Y-82973500D01*
X36230639Y-82973500D01*
X36014623Y-83007714D01*
X35806619Y-83075297D01*
X35806616Y-83075298D01*
X35611739Y-83174595D01*
X35434806Y-83303142D01*
X35280142Y-83457806D01*
X35170318Y-83608969D01*
X35114989Y-83651635D01*
X35045375Y-83657614D01*
X34983580Y-83625009D01*
X34969682Y-83608969D01*
X34859857Y-83457806D01*
X34705193Y-83303142D01*
X34528260Y-83174595D01*
X34528259Y-83174594D01*
X34528257Y-83174593D01*
X34465825Y-83142782D01*
X34333383Y-83075298D01*
X34333380Y-83075297D01*
X34125376Y-83007714D01*
X33909361Y-82973500D01*
X33909356Y-82973500D01*
X33690644Y-82973500D01*
X33690639Y-82973500D01*
X33474623Y-83007714D01*
X33266619Y-83075297D01*
X33266616Y-83075298D01*
X33071739Y-83174595D01*
X32894806Y-83303142D01*
X32740142Y-83457806D01*
X32611595Y-83634739D01*
X32512298Y-83829616D01*
X32512297Y-83829619D01*
X32492431Y-83890764D01*
X32452994Y-83948439D01*
X32388635Y-83975638D01*
X32319789Y-83963724D01*
X32268313Y-83916480D01*
X32250500Y-83852446D01*
X32250500Y-79295646D01*
X57747000Y-79295646D01*
X57747000Y-79524353D01*
X57782778Y-79750246D01*
X57782778Y-79750249D01*
X57853450Y-79967755D01*
X57853452Y-79967758D01*
X57957283Y-80171538D01*
X58091714Y-80356566D01*
X58253434Y-80518286D01*
X58438462Y-80652717D01*
X58642242Y-80756548D01*
X58642244Y-80756549D01*
X58859751Y-80827221D01*
X58859752Y-80827221D01*
X58859755Y-80827222D01*
X59085646Y-80863000D01*
X59085647Y-80863000D01*
X59314353Y-80863000D01*
X59314354Y-80863000D01*
X59540245Y-80827222D01*
X59540248Y-80827221D01*
X59540249Y-80827221D01*
X59757755Y-80756549D01*
X59757755Y-80756548D01*
X59757758Y-80756548D01*
X59961538Y-80652717D01*
X60146566Y-80518286D01*
X60308286Y-80356566D01*
X60442717Y-80171538D01*
X60546548Y-79967758D01*
X60617222Y-79750245D01*
X60653000Y-79524354D01*
X60653000Y-79295646D01*
X60617222Y-79069755D01*
X60617221Y-79069751D01*
X60617221Y-79069750D01*
X60546549Y-78852244D01*
X60442716Y-78648461D01*
X60308286Y-78463434D01*
X60146566Y-78301714D01*
X59961538Y-78167283D01*
X59757755Y-78063450D01*
X59540248Y-77992778D01*
X59370826Y-77965944D01*
X59314354Y-77957000D01*
X59085646Y-77957000D01*
X59010349Y-77968926D01*
X58859753Y-77992778D01*
X58859750Y-77992778D01*
X58642244Y-78063450D01*
X58438461Y-78167283D01*
X58332896Y-78243980D01*
X58253434Y-78301714D01*
X58253432Y-78301716D01*
X58253431Y-78301716D01*
X58091716Y-78463431D01*
X58091716Y-78463432D01*
X58091714Y-78463434D01*
X58033980Y-78542896D01*
X57957283Y-78648461D01*
X57853450Y-78852244D01*
X57782778Y-79069750D01*
X57782778Y-79069753D01*
X57747000Y-79295646D01*
X32250500Y-79295646D01*
X32250500Y-69887553D01*
X32270185Y-69820514D01*
X32322989Y-69774759D01*
X32392147Y-69764815D01*
X32455703Y-69793840D01*
X32492431Y-69849236D01*
X32512296Y-69910377D01*
X32512298Y-69910383D01*
X32579782Y-70042825D01*
X32599722Y-70081960D01*
X32611595Y-70105260D01*
X32740142Y-70282193D01*
X32894806Y-70436857D01*
X33060374Y-70557147D01*
X33071743Y-70565407D01*
X33199132Y-70630315D01*
X33266616Y-70664701D01*
X33266619Y-70664702D01*
X33370621Y-70698493D01*
X33474625Y-70732286D01*
X33574672Y-70748132D01*
X33690639Y-70766500D01*
X33690644Y-70766500D01*
X33909361Y-70766500D01*
X34014082Y-70749912D01*
X34125375Y-70732286D01*
X34333383Y-70664701D01*
X34528257Y-70565407D01*
X34627601Y-70493229D01*
X34705193Y-70436857D01*
X34705195Y-70436854D01*
X34705199Y-70436852D01*
X34859852Y-70282199D01*
X34969991Y-70130603D01*
X35025320Y-70087939D01*
X35094933Y-70081960D01*
X35156729Y-70114565D01*
X35170627Y-70130605D01*
X35280524Y-70281866D01*
X35280528Y-70281871D01*
X35435128Y-70436471D01*
X35435133Y-70436475D01*
X35612001Y-70564976D01*
X35806808Y-70664237D01*
X35806811Y-70664238D01*
X36014739Y-70731797D01*
X36089999Y-70743717D01*
X36090000Y-70743717D01*
X36090000Y-69692251D01*
X36143919Y-69723381D01*
X36273120Y-69758000D01*
X36406880Y-69758000D01*
X36536081Y-69723381D01*
X36590000Y-69692251D01*
X36590000Y-70743717D01*
X36665258Y-70731797D01*
X36665261Y-70731797D01*
X36873188Y-70664238D01*
X36873191Y-70664237D01*
X37067998Y-70564976D01*
X37244866Y-70436475D01*
X37244871Y-70436471D01*
X37399469Y-70281873D01*
X37509371Y-70130605D01*
X37564701Y-70087939D01*
X37634314Y-70081960D01*
X37696110Y-70114565D01*
X37710008Y-70130605D01*
X37820142Y-70282192D01*
X37820146Y-70282197D01*
X37974806Y-70436857D01*
X38140374Y-70557147D01*
X38151743Y-70565407D01*
X38279132Y-70630315D01*
X38346616Y-70664701D01*
X38346619Y-70664702D01*
X38450621Y-70698493D01*
X38554625Y-70732286D01*
X38654672Y-70748132D01*
X38770639Y-70766500D01*
X38770644Y-70766500D01*
X38989361Y-70766500D01*
X39094082Y-70749912D01*
X39205375Y-70732286D01*
X39413383Y-70664701D01*
X39608257Y-70565407D01*
X39707601Y-70493229D01*
X39785193Y-70436857D01*
X39785195Y-70436854D01*
X39785199Y-70436852D01*
X39939852Y-70282199D01*
X40049683Y-70131028D01*
X40105011Y-70088364D01*
X40174624Y-70082385D01*
X40236420Y-70114990D01*
X40250313Y-70131023D01*
X40359906Y-70281866D01*
X40360148Y-70282199D01*
X40514806Y-70436857D01*
X40680374Y-70557147D01*
X40691743Y-70565407D01*
X40819132Y-70630315D01*
X40886616Y-70664701D01*
X40886619Y-70664702D01*
X40990621Y-70698493D01*
X41094625Y-70732286D01*
X41194672Y-70748132D01*
X41310639Y-70766500D01*
X41310644Y-70766500D01*
X41529361Y-70766500D01*
X41634082Y-70749912D01*
X41745375Y-70732286D01*
X41953383Y-70664701D01*
X42148257Y-70565407D01*
X42247601Y-70493229D01*
X42325193Y-70436857D01*
X42325195Y-70436854D01*
X42325199Y-70436852D01*
X42479852Y-70282199D01*
X42589683Y-70131028D01*
X42645011Y-70088364D01*
X42714624Y-70082385D01*
X42776420Y-70114990D01*
X42790313Y-70131023D01*
X42899906Y-70281866D01*
X42900148Y-70282199D01*
X43054806Y-70436857D01*
X43220374Y-70557147D01*
X43231743Y-70565407D01*
X43359132Y-70630315D01*
X43426616Y-70664701D01*
X43426619Y-70664702D01*
X43530621Y-70698493D01*
X43634625Y-70732286D01*
X43734672Y-70748132D01*
X43850639Y-70766500D01*
X43850644Y-70766500D01*
X44069361Y-70766500D01*
X44174082Y-70749912D01*
X44285375Y-70732286D01*
X44493383Y-70664701D01*
X44688257Y-70565407D01*
X44787601Y-70493229D01*
X44865193Y-70436857D01*
X44865195Y-70436854D01*
X44865199Y-70436852D01*
X45019852Y-70282199D01*
X45129683Y-70131028D01*
X45185011Y-70088364D01*
X45254624Y-70082385D01*
X45316420Y-70114990D01*
X45330313Y-70131023D01*
X45439906Y-70281866D01*
X45440148Y-70282199D01*
X45594806Y-70436857D01*
X45760374Y-70557147D01*
X45771743Y-70565407D01*
X45899132Y-70630315D01*
X45966616Y-70664701D01*
X45966619Y-70664702D01*
X46070621Y-70698493D01*
X46174625Y-70732286D01*
X46274672Y-70748132D01*
X46390639Y-70766500D01*
X46390644Y-70766500D01*
X46609361Y-70766500D01*
X46714082Y-70749912D01*
X46825375Y-70732286D01*
X47033383Y-70664701D01*
X47228257Y-70565407D01*
X47327601Y-70493229D01*
X47405193Y-70436857D01*
X47405195Y-70436854D01*
X47405199Y-70436852D01*
X47559852Y-70282199D01*
X47669683Y-70131028D01*
X47725011Y-70088364D01*
X47794624Y-70082385D01*
X47856420Y-70114990D01*
X47870313Y-70131023D01*
X47979906Y-70281866D01*
X47980148Y-70282199D01*
X48134806Y-70436857D01*
X48300374Y-70557147D01*
X48311743Y-70565407D01*
X48439132Y-70630315D01*
X48506616Y-70664701D01*
X48506619Y-70664702D01*
X48610621Y-70698493D01*
X48714625Y-70732286D01*
X48814672Y-70748132D01*
X48930639Y-70766500D01*
X48930644Y-70766500D01*
X49149361Y-70766500D01*
X49254082Y-70749912D01*
X49365375Y-70732286D01*
X49573383Y-70664701D01*
X49768257Y-70565407D01*
X49867601Y-70493229D01*
X49945193Y-70436857D01*
X49945195Y-70436854D01*
X49945199Y-70436852D01*
X50099852Y-70282199D01*
X50099854Y-70282195D01*
X50099857Y-70282193D01*
X50156229Y-70204601D01*
X50228407Y-70105257D01*
X50327701Y-69910383D01*
X50395286Y-69702375D01*
X50417532Y-69561920D01*
X50429500Y-69486361D01*
X50429500Y-67489638D01*
X50409595Y-67363971D01*
X50395286Y-67273625D01*
X50347569Y-67126764D01*
X50327702Y-67065619D01*
X50327701Y-67065616D01*
X50293315Y-66998132D01*
X50228407Y-66870743D01*
X50209681Y-66844969D01*
X50099857Y-66693806D01*
X49945193Y-66539142D01*
X49768260Y-66410595D01*
X49768259Y-66410594D01*
X49768257Y-66410593D01*
X49705825Y-66378782D01*
X49573383Y-66311298D01*
X49573380Y-66311297D01*
X49365376Y-66243714D01*
X49149361Y-66209500D01*
X49149356Y-66209500D01*
X48930644Y-66209500D01*
X48930639Y-66209500D01*
X48714623Y-66243714D01*
X48506619Y-66311297D01*
X48506616Y-66311298D01*
X48311739Y-66410595D01*
X48134806Y-66539142D01*
X47980142Y-66693806D01*
X47870318Y-66844969D01*
X47814989Y-66887635D01*
X47745375Y-66893614D01*
X47683580Y-66861009D01*
X47669682Y-66844969D01*
X47559857Y-66693806D01*
X47405193Y-66539142D01*
X47228260Y-66410595D01*
X47228259Y-66410594D01*
X47228257Y-66410593D01*
X47165825Y-66378782D01*
X47033383Y-66311298D01*
X47033380Y-66311297D01*
X46825376Y-66243714D01*
X46609361Y-66209500D01*
X46609356Y-66209500D01*
X46390644Y-66209500D01*
X46390639Y-66209500D01*
X46174623Y-66243714D01*
X45966619Y-66311297D01*
X45966616Y-66311298D01*
X45771739Y-66410595D01*
X45594806Y-66539142D01*
X45440142Y-66693806D01*
X45330318Y-66844969D01*
X45274989Y-66887635D01*
X45205375Y-66893614D01*
X45143580Y-66861009D01*
X45129682Y-66844969D01*
X45019857Y-66693806D01*
X44865193Y-66539142D01*
X44688260Y-66410595D01*
X44688259Y-66410594D01*
X44688257Y-66410593D01*
X44625825Y-66378782D01*
X44493383Y-66311298D01*
X44493380Y-66311297D01*
X44285376Y-66243714D01*
X44069361Y-66209500D01*
X44069356Y-66209500D01*
X43850644Y-66209500D01*
X43850639Y-66209500D01*
X43634623Y-66243714D01*
X43426619Y-66311297D01*
X43426616Y-66311298D01*
X43231739Y-66410595D01*
X43054806Y-66539142D01*
X42900142Y-66693806D01*
X42790318Y-66844969D01*
X42734989Y-66887635D01*
X42665375Y-66893614D01*
X42603580Y-66861009D01*
X42589682Y-66844969D01*
X42479857Y-66693806D01*
X42325193Y-66539142D01*
X42148260Y-66410595D01*
X42148259Y-66410594D01*
X42148257Y-66410593D01*
X42085825Y-66378782D01*
X41953383Y-66311298D01*
X41953380Y-66311297D01*
X41745376Y-66243714D01*
X41529361Y-66209500D01*
X41529356Y-66209500D01*
X41310644Y-66209500D01*
X41310639Y-66209500D01*
X41094623Y-66243714D01*
X40886619Y-66311297D01*
X40886616Y-66311298D01*
X40691739Y-66410595D01*
X40514806Y-66539142D01*
X40360142Y-66693806D01*
X40250318Y-66844969D01*
X40194989Y-66887635D01*
X40125375Y-66893614D01*
X40063580Y-66861009D01*
X40049682Y-66844969D01*
X39939857Y-66693806D01*
X39785193Y-66539142D01*
X39608260Y-66410595D01*
X39608259Y-66410594D01*
X39608257Y-66410593D01*
X39545825Y-66378782D01*
X39413383Y-66311298D01*
X39413380Y-66311297D01*
X39205376Y-66243714D01*
X38989361Y-66209500D01*
X38989356Y-66209500D01*
X38770644Y-66209500D01*
X38770639Y-66209500D01*
X38554623Y-66243714D01*
X38346619Y-66311297D01*
X38346616Y-66311298D01*
X38151739Y-66410595D01*
X37974806Y-66539142D01*
X37820146Y-66693802D01*
X37820142Y-66693807D01*
X37710008Y-66845394D01*
X37654678Y-66888060D01*
X37585065Y-66894039D01*
X37523270Y-66861433D01*
X37509372Y-66845394D01*
X37399475Y-66694133D01*
X37399471Y-66694128D01*
X37244871Y-66539528D01*
X37244866Y-66539524D01*
X37067998Y-66411023D01*
X36873191Y-66311762D01*
X36873188Y-66311761D01*
X36665258Y-66244201D01*
X36590000Y-66232281D01*
X36590000Y-68807748D01*
X36536081Y-68776619D01*
X36406880Y-68742000D01*
X36273120Y-68742000D01*
X36143919Y-68776619D01*
X36090000Y-68807748D01*
X36090000Y-66232281D01*
X36014741Y-66244201D01*
X35806811Y-66311761D01*
X35806808Y-66311762D01*
X35612001Y-66411023D01*
X35435133Y-66539524D01*
X35435128Y-66539528D01*
X35280528Y-66694128D01*
X35280524Y-66694133D01*
X35170627Y-66845394D01*
X35115297Y-66888060D01*
X35045684Y-66894039D01*
X34983889Y-66861433D01*
X34969991Y-66845394D01*
X34859857Y-66693807D01*
X34859853Y-66693802D01*
X34705193Y-66539142D01*
X34528260Y-66410595D01*
X34528259Y-66410594D01*
X34528257Y-66410593D01*
X34465825Y-66378782D01*
X34333383Y-66311298D01*
X34333380Y-66311297D01*
X34125376Y-66243714D01*
X33909361Y-66209500D01*
X33909356Y-66209500D01*
X33690644Y-66209500D01*
X33690639Y-66209500D01*
X33474623Y-66243714D01*
X33266619Y-66311297D01*
X33266616Y-66311298D01*
X33071739Y-66410595D01*
X32894806Y-66539142D01*
X32740142Y-66693806D01*
X32611595Y-66870739D01*
X32512298Y-67065616D01*
X32512297Y-67065619D01*
X32492431Y-67126764D01*
X32452994Y-67184439D01*
X32388635Y-67211638D01*
X32319789Y-67199724D01*
X32268313Y-67152480D01*
X32250500Y-67088446D01*
X32250500Y-49421153D01*
X50199500Y-49421153D01*
X50199500Y-49578846D01*
X50230261Y-49733489D01*
X50230264Y-49733501D01*
X50290602Y-49879172D01*
X50290609Y-49879185D01*
X50378210Y-50010288D01*
X50378213Y-50010292D01*
X50489707Y-50121786D01*
X50489711Y-50121789D01*
X50620814Y-50209390D01*
X50620827Y-50209397D01*
X50766498Y-50269735D01*
X50766503Y-50269737D01*
X50831147Y-50282595D01*
X50921849Y-50300638D01*
X50983760Y-50333023D01*
X50985339Y-50334574D01*
X53613181Y-52962416D01*
X53646666Y-53023739D01*
X53649500Y-53050097D01*
X53649500Y-74670234D01*
X53629815Y-74737273D01*
X53628602Y-74739125D01*
X53540609Y-74870814D01*
X53540602Y-74870827D01*
X53480264Y-75016498D01*
X53480261Y-75016510D01*
X53449500Y-75171153D01*
X53449500Y-75328846D01*
X53480261Y-75483489D01*
X53480264Y-75483501D01*
X53540602Y-75629172D01*
X53540609Y-75629185D01*
X53628210Y-75760288D01*
X53628213Y-75760292D01*
X53739707Y-75871786D01*
X53739711Y-75871789D01*
X53870814Y-75959390D01*
X53870827Y-75959397D01*
X54016498Y-76019735D01*
X54016503Y-76019737D01*
X54171153Y-76050499D01*
X54171156Y-76050500D01*
X54171158Y-76050500D01*
X54328844Y-76050500D01*
X54328845Y-76050499D01*
X54483497Y-76019737D01*
X54629179Y-75959394D01*
X54760289Y-75871789D01*
X54871789Y-75760289D01*
X54959394Y-75629179D01*
X55019737Y-75483497D01*
X55050500Y-75328842D01*
X55050500Y-75171158D01*
X55050500Y-75171155D01*
X55050499Y-75171153D01*
X55019738Y-75016510D01*
X55019737Y-75016503D01*
X55019735Y-75016498D01*
X54959397Y-74870827D01*
X54959390Y-74870814D01*
X54871398Y-74739125D01*
X54850520Y-74672447D01*
X54850500Y-74670234D01*
X54850500Y-74215646D01*
X57747000Y-74215646D01*
X57747000Y-74444353D01*
X57782778Y-74670246D01*
X57782778Y-74670249D01*
X57853450Y-74887755D01*
X57853452Y-74887758D01*
X57957283Y-75091538D01*
X58091714Y-75276566D01*
X58253434Y-75438286D01*
X58438462Y-75572717D01*
X58549275Y-75629179D01*
X58642244Y-75676549D01*
X58859751Y-75747221D01*
X58859752Y-75747221D01*
X58859755Y-75747222D01*
X59085646Y-75783000D01*
X59085647Y-75783000D01*
X59314353Y-75783000D01*
X59314354Y-75783000D01*
X59540245Y-75747222D01*
X59540248Y-75747221D01*
X59540249Y-75747221D01*
X59757755Y-75676549D01*
X59757755Y-75676548D01*
X59757758Y-75676548D01*
X59961538Y-75572717D01*
X60146566Y-75438286D01*
X60308286Y-75276566D01*
X60442717Y-75091538D01*
X60546548Y-74887758D01*
X60594842Y-74739125D01*
X60617221Y-74670249D01*
X60617221Y-74670248D01*
X60617222Y-74670245D01*
X60653000Y-74444354D01*
X60653000Y-74215646D01*
X60617222Y-73989755D01*
X60617221Y-73989751D01*
X60617221Y-73989750D01*
X60546549Y-73772244D01*
X60442716Y-73568461D01*
X60308286Y-73383434D01*
X60146566Y-73221714D01*
X59961538Y-73087283D01*
X59757755Y-72983450D01*
X59540248Y-72912778D01*
X59370826Y-72885944D01*
X59314354Y-72877000D01*
X59085646Y-72877000D01*
X59010349Y-72888926D01*
X58859753Y-72912778D01*
X58859750Y-72912778D01*
X58642244Y-72983450D01*
X58438461Y-73087283D01*
X58332896Y-73163980D01*
X58253434Y-73221714D01*
X58253432Y-73221716D01*
X58253431Y-73221716D01*
X58091716Y-73383431D01*
X58091716Y-73383432D01*
X58091714Y-73383434D01*
X58033980Y-73462896D01*
X57957283Y-73568461D01*
X57853450Y-73772244D01*
X57782778Y-73989750D01*
X57782778Y-73989753D01*
X57747000Y-74215646D01*
X54850500Y-74215646D01*
X54850500Y-57191995D01*
X71019500Y-57191995D01*
X71019500Y-57428004D01*
X71019501Y-57428020D01*
X71050306Y-57662010D01*
X71111394Y-57889993D01*
X71201714Y-58108045D01*
X71201719Y-58108056D01*
X71272677Y-58230957D01*
X71319727Y-58312450D01*
X71319729Y-58312453D01*
X71319730Y-58312454D01*
X71463406Y-58499697D01*
X71463412Y-58499704D01*
X71630295Y-58666587D01*
X71630301Y-58666592D01*
X71817550Y-58810273D01*
X71948918Y-58886118D01*
X72021943Y-58928280D01*
X72021948Y-58928282D01*
X72021951Y-58928284D01*
X72240007Y-59018606D01*
X72467986Y-59079693D01*
X72701989Y-59110500D01*
X72701996Y-59110500D01*
X72938004Y-59110500D01*
X72938011Y-59110500D01*
X73172014Y-59079693D01*
X73399993Y-59018606D01*
X73618049Y-58928284D01*
X73822450Y-58810273D01*
X74009699Y-58666592D01*
X74176592Y-58499699D01*
X74320273Y-58312450D01*
X74438284Y-58108049D01*
X74528606Y-57889993D01*
X74589693Y-57662014D01*
X74620500Y-57428011D01*
X74620500Y-57191989D01*
X74589693Y-56957986D01*
X74528606Y-56730007D01*
X74438284Y-56511951D01*
X74438282Y-56511948D01*
X74438280Y-56511943D01*
X74396118Y-56438918D01*
X74320273Y-56307550D01*
X74176592Y-56120301D01*
X74176587Y-56120295D01*
X74009704Y-55953412D01*
X74009697Y-55953406D01*
X73822454Y-55809730D01*
X73822453Y-55809729D01*
X73822450Y-55809727D01*
X73740957Y-55762677D01*
X73618056Y-55691719D01*
X73618045Y-55691714D01*
X73399993Y-55601394D01*
X73172010Y-55540306D01*
X72938020Y-55509501D01*
X72938017Y-55509500D01*
X72938011Y-55509500D01*
X72701989Y-55509500D01*
X72701983Y-55509500D01*
X72701979Y-55509501D01*
X72467989Y-55540306D01*
X72240006Y-55601394D01*
X72021954Y-55691714D01*
X72021943Y-55691719D01*
X71817545Y-55809730D01*
X71630302Y-55953406D01*
X71630295Y-55953412D01*
X71463412Y-56120295D01*
X71463406Y-56120302D01*
X71319730Y-56307545D01*
X71201719Y-56511943D01*
X71201714Y-56511954D01*
X71111394Y-56730006D01*
X71050306Y-56957989D01*
X71019501Y-57191979D01*
X71019500Y-57191995D01*
X54850500Y-57191995D01*
X54850500Y-52670944D01*
X54850499Y-52670940D01*
X54843636Y-52645327D01*
X54843635Y-52645326D01*
X54841783Y-52638412D01*
X54809577Y-52518215D01*
X54762250Y-52436243D01*
X54730520Y-52381284D01*
X54618716Y-52269480D01*
X54618715Y-52269479D01*
X54614385Y-52265149D01*
X54614374Y-52265139D01*
X54362948Y-52013713D01*
X69039500Y-52013713D01*
X69039500Y-52226287D01*
X69072754Y-52436243D01*
X69138443Y-52638412D01*
X69234951Y-52827820D01*
X69359890Y-52999786D01*
X69510213Y-53150109D01*
X69682179Y-53275048D01*
X69682181Y-53275049D01*
X69682184Y-53275051D01*
X69871588Y-53371557D01*
X70073757Y-53437246D01*
X70283713Y-53470500D01*
X70283714Y-53470500D01*
X70496286Y-53470500D01*
X70496287Y-53470500D01*
X70706243Y-53437246D01*
X70908412Y-53371557D01*
X71097816Y-53275051D01*
X71119789Y-53259086D01*
X71269786Y-53150109D01*
X71269788Y-53150106D01*
X71269792Y-53150104D01*
X71420104Y-52999792D01*
X71420106Y-52999788D01*
X71420109Y-52999786D01*
X71545048Y-52827820D01*
X71545047Y-52827820D01*
X71545051Y-52827816D01*
X71641557Y-52638412D01*
X71707246Y-52436243D01*
X71740500Y-52226287D01*
X71740500Y-52013713D01*
X91899500Y-52013713D01*
X91899500Y-52226287D01*
X91932754Y-52436243D01*
X91998443Y-52638412D01*
X92094951Y-52827820D01*
X92219890Y-52999786D01*
X92370213Y-53150109D01*
X92542179Y-53275048D01*
X92542181Y-53275049D01*
X92542184Y-53275051D01*
X92731588Y-53371557D01*
X92933757Y-53437246D01*
X93143713Y-53470500D01*
X93143714Y-53470500D01*
X93356286Y-53470500D01*
X93356287Y-53470500D01*
X93566243Y-53437246D01*
X93768412Y-53371557D01*
X93957816Y-53275051D01*
X93979789Y-53259086D01*
X94129786Y-53150109D01*
X94129788Y-53150106D01*
X94129792Y-53150104D01*
X94280104Y-52999792D01*
X94280106Y-52999788D01*
X94280109Y-52999786D01*
X94405048Y-52827820D01*
X94405047Y-52827820D01*
X94405051Y-52827816D01*
X94501557Y-52638412D01*
X94567246Y-52436243D01*
X94600500Y-52226287D01*
X94600500Y-52013713D01*
X94567246Y-51803757D01*
X94501557Y-51601588D01*
X94405051Y-51412184D01*
X94405049Y-51412181D01*
X94405048Y-51412179D01*
X94280109Y-51240213D01*
X94129786Y-51089890D01*
X93957820Y-50964951D01*
X93768414Y-50868444D01*
X93768413Y-50868443D01*
X93768412Y-50868443D01*
X93566243Y-50802754D01*
X93566241Y-50802753D01*
X93566240Y-50802753D01*
X93404957Y-50777208D01*
X93356287Y-50769500D01*
X93143713Y-50769500D01*
X93095042Y-50777208D01*
X92933760Y-50802753D01*
X92731585Y-50868444D01*
X92542179Y-50964951D01*
X92370213Y-51089890D01*
X92219890Y-51240213D01*
X92094951Y-51412179D01*
X91998444Y-51601585D01*
X91932753Y-51803760D01*
X91899500Y-52013713D01*
X71740500Y-52013713D01*
X71707246Y-51803757D01*
X71641557Y-51601588D01*
X71545051Y-51412184D01*
X71545049Y-51412181D01*
X71545048Y-51412179D01*
X71420109Y-51240213D01*
X71269786Y-51089890D01*
X71097820Y-50964951D01*
X70908414Y-50868444D01*
X70908413Y-50868443D01*
X70908412Y-50868443D01*
X70706243Y-50802754D01*
X70706241Y-50802753D01*
X70706240Y-50802753D01*
X70544957Y-50777208D01*
X70496287Y-50769500D01*
X70283713Y-50769500D01*
X70235042Y-50777208D01*
X70073760Y-50802753D01*
X69871585Y-50868444D01*
X69682179Y-50964951D01*
X69510213Y-51089890D01*
X69359890Y-51240213D01*
X69234951Y-51412179D01*
X69138444Y-51601585D01*
X69072753Y-51803760D01*
X69039500Y-52013713D01*
X54362948Y-52013713D01*
X51834574Y-49485339D01*
X51801089Y-49424016D01*
X51800638Y-49421849D01*
X51769738Y-49266510D01*
X51769737Y-49266503D01*
X51764946Y-49254937D01*
X51709397Y-49120827D01*
X51709390Y-49120814D01*
X51621789Y-48989711D01*
X51621786Y-48989707D01*
X51510292Y-48878213D01*
X51510288Y-48878210D01*
X51379185Y-48790609D01*
X51379172Y-48790602D01*
X51233501Y-48730264D01*
X51233489Y-48730261D01*
X51078845Y-48699500D01*
X51078842Y-48699500D01*
X50921158Y-48699500D01*
X50921155Y-48699500D01*
X50766510Y-48730261D01*
X50766498Y-48730264D01*
X50620827Y-48790602D01*
X50620814Y-48790609D01*
X50489711Y-48878210D01*
X50489707Y-48878213D01*
X50378213Y-48989707D01*
X50378210Y-48989711D01*
X50290609Y-49120814D01*
X50290602Y-49120827D01*
X50230264Y-49266498D01*
X50230261Y-49266510D01*
X50199500Y-49421153D01*
X32250500Y-49421153D01*
X32250500Y-48195837D01*
X66869500Y-48195837D01*
X66869500Y-48424162D01*
X66905215Y-48649660D01*
X66975770Y-48866803D01*
X67079421Y-49070228D01*
X67213621Y-49254937D01*
X67375063Y-49416379D01*
X67559772Y-49550579D01*
X67655884Y-49599550D01*
X67763196Y-49654229D01*
X67763198Y-49654229D01*
X67763201Y-49654231D01*
X67879592Y-49692049D01*
X67980339Y-49724784D01*
X68205838Y-49760500D01*
X68205843Y-49760500D01*
X68434162Y-49760500D01*
X68659660Y-49724784D01*
X68876799Y-49654231D01*
X69080228Y-49550579D01*
X69264937Y-49416379D01*
X69426379Y-49254937D01*
X69560579Y-49070228D01*
X69664231Y-48866799D01*
X69734784Y-48649660D01*
X69745241Y-48583638D01*
X69770500Y-48424162D01*
X69770500Y-48195837D01*
X93869500Y-48195837D01*
X93869500Y-48424162D01*
X93905215Y-48649660D01*
X93975770Y-48866803D01*
X94079421Y-49070228D01*
X94213621Y-49254937D01*
X94375063Y-49416379D01*
X94559772Y-49550579D01*
X94655884Y-49599550D01*
X94763196Y-49654229D01*
X94763198Y-49654229D01*
X94763201Y-49654231D01*
X94879592Y-49692049D01*
X94980339Y-49724784D01*
X95205838Y-49760500D01*
X95205843Y-49760500D01*
X95434162Y-49760500D01*
X95659660Y-49724784D01*
X95876799Y-49654231D01*
X96080228Y-49550579D01*
X96264937Y-49416379D01*
X96426379Y-49254937D01*
X96560579Y-49070228D01*
X96664231Y-48866799D01*
X96734784Y-48649660D01*
X96745241Y-48583638D01*
X96770500Y-48424162D01*
X96770500Y-48195837D01*
X96734784Y-47970339D01*
X96664229Y-47753196D01*
X96560578Y-47549771D01*
X96426379Y-47365063D01*
X96264937Y-47203621D01*
X96080228Y-47069421D01*
X95876803Y-46965770D01*
X95659660Y-46895215D01*
X95434162Y-46859500D01*
X95434157Y-46859500D01*
X95205843Y-46859500D01*
X95205838Y-46859500D01*
X94980339Y-46895215D01*
X94763196Y-46965770D01*
X94559771Y-47069421D01*
X94375061Y-47203622D01*
X94213622Y-47365061D01*
X94079421Y-47549771D01*
X93975770Y-47753196D01*
X93905215Y-47970339D01*
X93869500Y-48195837D01*
X69770500Y-48195837D01*
X69734784Y-47970339D01*
X69664229Y-47753196D01*
X69560578Y-47549771D01*
X69426379Y-47365063D01*
X69264937Y-47203621D01*
X69080228Y-47069421D01*
X68876803Y-46965770D01*
X68659660Y-46895215D01*
X68434162Y-46859500D01*
X68434157Y-46859500D01*
X68205843Y-46859500D01*
X68205838Y-46859500D01*
X67980339Y-46895215D01*
X67763196Y-46965770D01*
X67559771Y-47069421D01*
X67375061Y-47203622D01*
X67213622Y-47365061D01*
X67079421Y-47549771D01*
X66975770Y-47753196D01*
X66905215Y-47970339D01*
X66869500Y-48195837D01*
X32250500Y-48195837D01*
X32250500Y-44393713D01*
X69039500Y-44393713D01*
X69039500Y-44606286D01*
X69072753Y-44816239D01*
X69138444Y-45018414D01*
X69234951Y-45207820D01*
X69359890Y-45379786D01*
X69510213Y-45530109D01*
X69682179Y-45655048D01*
X69682181Y-45655049D01*
X69682184Y-45655051D01*
X69871588Y-45751557D01*
X70073757Y-45817246D01*
X70283713Y-45850500D01*
X70283714Y-45850500D01*
X70496286Y-45850500D01*
X70496287Y-45850500D01*
X70706243Y-45817246D01*
X70908412Y-45751557D01*
X71097816Y-45655051D01*
X71119789Y-45639086D01*
X71269786Y-45530109D01*
X71269788Y-45530106D01*
X71269792Y-45530104D01*
X71420104Y-45379792D01*
X71420106Y-45379788D01*
X71420109Y-45379786D01*
X71545048Y-45207820D01*
X71545047Y-45207820D01*
X71545051Y-45207816D01*
X71641557Y-45018412D01*
X71707246Y-44816243D01*
X71740500Y-44606287D01*
X71740500Y-44393713D01*
X91899500Y-44393713D01*
X91899500Y-44606286D01*
X91932753Y-44816239D01*
X91998444Y-45018414D01*
X92094951Y-45207820D01*
X92219890Y-45379786D01*
X92370213Y-45530109D01*
X92542179Y-45655048D01*
X92542181Y-45655049D01*
X92542184Y-45655051D01*
X92731588Y-45751557D01*
X92933757Y-45817246D01*
X93143713Y-45850500D01*
X93143714Y-45850500D01*
X93356286Y-45850500D01*
X93356287Y-45850500D01*
X93566243Y-45817246D01*
X93768412Y-45751557D01*
X93957816Y-45655051D01*
X93979789Y-45639086D01*
X94129786Y-45530109D01*
X94129788Y-45530106D01*
X94129792Y-45530104D01*
X94280104Y-45379792D01*
X94280106Y-45379788D01*
X94280109Y-45379786D01*
X94405048Y-45207820D01*
X94405047Y-45207820D01*
X94405051Y-45207816D01*
X94501557Y-45018412D01*
X94567246Y-44816243D01*
X94600500Y-44606287D01*
X94600500Y-44393713D01*
X94567246Y-44183757D01*
X94501557Y-43981588D01*
X94405051Y-43792184D01*
X94405049Y-43792181D01*
X94405048Y-43792179D01*
X94280109Y-43620213D01*
X94129786Y-43469890D01*
X93957820Y-43344951D01*
X93768414Y-43248444D01*
X93768413Y-43248443D01*
X93768412Y-43248443D01*
X93566243Y-43182754D01*
X93566241Y-43182753D01*
X93566240Y-43182753D01*
X93404957Y-43157208D01*
X93356287Y-43149500D01*
X93143713Y-43149500D01*
X93095042Y-43157208D01*
X92933760Y-43182753D01*
X92731585Y-43248444D01*
X92542179Y-43344951D01*
X92370213Y-43469890D01*
X92219890Y-43620213D01*
X92094951Y-43792179D01*
X91998444Y-43981585D01*
X91932753Y-44183760D01*
X91899500Y-44393713D01*
X71740500Y-44393713D01*
X71707246Y-44183757D01*
X71641557Y-43981588D01*
X71545051Y-43792184D01*
X71545049Y-43792181D01*
X71545048Y-43792179D01*
X71420109Y-43620213D01*
X71269786Y-43469890D01*
X71097820Y-43344951D01*
X70908414Y-43248444D01*
X70908413Y-43248443D01*
X70908412Y-43248443D01*
X70706243Y-43182754D01*
X70706241Y-43182753D01*
X70706240Y-43182753D01*
X70544957Y-43157208D01*
X70496287Y-43149500D01*
X70283713Y-43149500D01*
X70235042Y-43157208D01*
X70073760Y-43182753D01*
X69871585Y-43248444D01*
X69682179Y-43344951D01*
X69510213Y-43469890D01*
X69359890Y-43620213D01*
X69234951Y-43792179D01*
X69138444Y-43981585D01*
X69072753Y-44183760D01*
X69039500Y-44393713D01*
X32250500Y-44393713D01*
X32250500Y-38172378D01*
X79369500Y-38172378D01*
X79369500Y-38447621D01*
X79400315Y-38721108D01*
X79400317Y-38721124D01*
X79461561Y-38989453D01*
X79461565Y-38989465D01*
X79552467Y-39249246D01*
X79671884Y-39497218D01*
X79671886Y-39497221D01*
X79818319Y-39730268D01*
X79989925Y-39945455D01*
X80184545Y-40140075D01*
X80399732Y-40311681D01*
X80632779Y-40458114D01*
X80880757Y-40577534D01*
X81075865Y-40645805D01*
X81140534Y-40668434D01*
X81140546Y-40668438D01*
X81408879Y-40729683D01*
X81682378Y-40760499D01*
X81682379Y-40760500D01*
X81682383Y-40760500D01*
X81957621Y-40760500D01*
X81957621Y-40760499D01*
X82231121Y-40729683D01*
X82499454Y-40668438D01*
X82759243Y-40577534D01*
X83007221Y-40458114D01*
X83240268Y-40311681D01*
X83455455Y-40140075D01*
X83650075Y-39945455D01*
X83821681Y-39730268D01*
X83968114Y-39497221D01*
X84087534Y-39249243D01*
X84178438Y-38989454D01*
X84239683Y-38721121D01*
X84270500Y-38447617D01*
X84270500Y-38172383D01*
X84239683Y-37898879D01*
X84178438Y-37630546D01*
X84087534Y-37370757D01*
X83968114Y-37122779D01*
X83821681Y-36889732D01*
X83650075Y-36674545D01*
X83455455Y-36479925D01*
X83240268Y-36308319D01*
X83007221Y-36161886D01*
X83007218Y-36161884D01*
X82759246Y-36042467D01*
X82499465Y-35951565D01*
X82499453Y-35951561D01*
X82231124Y-35890317D01*
X82231108Y-35890315D01*
X81957621Y-35859500D01*
X81957617Y-35859500D01*
X81682383Y-35859500D01*
X81682379Y-35859500D01*
X81408891Y-35890315D01*
X81408875Y-35890317D01*
X81140546Y-35951561D01*
X81140534Y-35951565D01*
X80880753Y-36042467D01*
X80632781Y-36161884D01*
X80399733Y-36308318D01*
X80184545Y-36479924D01*
X79989924Y-36674545D01*
X79818318Y-36889733D01*
X79671884Y-37122781D01*
X79552467Y-37370753D01*
X79461565Y-37630534D01*
X79461561Y-37630546D01*
X79400317Y-37898875D01*
X79400315Y-37898891D01*
X79369500Y-38172378D01*
X32250500Y-38172378D01*
X32250500Y-29122413D01*
X32270185Y-29055374D01*
X32322989Y-29009619D01*
X32392147Y-28999675D01*
X32449984Y-29024036D01*
X32499060Y-29061694D01*
X32636196Y-29166924D01*
X32863299Y-29298041D01*
X32863309Y-29298046D01*
X33105571Y-29398394D01*
X33105581Y-29398398D01*
X33358884Y-29466270D01*
X33618880Y-29500500D01*
X33618887Y-29500500D01*
X33881113Y-29500500D01*
X33881120Y-29500500D01*
X34141116Y-29466270D01*
X34394419Y-29398398D01*
X34636697Y-29298043D01*
X34863803Y-29166924D01*
X35071851Y-29007282D01*
X35071855Y-29007277D01*
X35071860Y-29007274D01*
X35257274Y-28821860D01*
X35257277Y-28821855D01*
X35257282Y-28821851D01*
X35416924Y-28613803D01*
X35548043Y-28386697D01*
X35648398Y-28144419D01*
X35716270Y-27891116D01*
X35750500Y-27631120D01*
X35750500Y-27368880D01*
X35716270Y-27108884D01*
X35648398Y-26855581D01*
X35550204Y-26618520D01*
X35548046Y-26613309D01*
X35548041Y-26613299D01*
X35416924Y-26386196D01*
X35274039Y-26199987D01*
X35248844Y-26134818D01*
X35262882Y-26066373D01*
X35311696Y-26016383D01*
X35372414Y-26000500D01*
X96627586Y-26000500D01*
X96694625Y-26020185D01*
G37*
%TD.AperFunction*%
%TD*%
M02*
